solid OpenSCAD_Model
  facet normal -0.0203624 -0.999793 0
    outer loop
      vertex -34.8741 -104.06 -24
      vertex -34.825 -104.061 24
      vertex -34.8741 -104.06 24
    endloop
  endfacet
  facet normal -0.0203624 -0.999793 -0
    outer loop
      vertex -34.825 -104.061 24
      vertex -34.8741 -104.06 -24
      vertex -34.825 -104.061 -24
    endloop
  endfacet
  facet normal 0.0203624 -0.999793 0
    outer loop
      vertex -34.825 -104.061 -24
      vertex -34.7759 -104.06 24
      vertex -34.825 -104.061 24
    endloop
  endfacet
  facet normal 0.0203624 -0.999793 0
    outer loop
      vertex -34.7759 -104.06 24
      vertex -34.825 -104.061 -24
      vertex -34.7759 -104.06 -24
    endloop
  endfacet
  facet normal 0.690669 -0.723171 0
    outer loop
      vertex -34.1535 -103.802 -24
      vertex -34.1179 -103.768 24
      vertex -34.1535 -103.802 24
    endloop
  endfacet
  facet normal 0.690669 -0.723171 0
    outer loop
      vertex -34.1179 -103.768 24
      vertex -34.1535 -103.802 -24
      vertex -34.1179 -103.768 -24
    endloop
  endfacet
  facet normal 0.324739 -0.945804 0
    outer loop
      vertex -34.5347 -104.018 -24
      vertex -34.4881 -104.002 24
      vertex -34.5347 -104.018 24
    endloop
  endfacet
  facet normal 0.324739 -0.945804 0
    outer loop
      vertex -34.4881 -104.002 24
      vertex -34.5347 -104.018 -24
      vertex -34.4881 -104.002 -24
    endloop
  endfacet
  facet normal -0.324739 0.945804 0
    outer loop
      vertex 34.5347 104.018 -24
      vertex 34.4881 104.002 24
      vertex 34.5347 104.018 24
    endloop
  endfacet
  facet normal -0.324739 0.945804 0
    outer loop
      vertex 34.4881 104.002 24
      vertex 34.5347 104.018 -24
      vertex 34.4881 104.002 -24
    endloop
  endfacet
  facet normal 0.945804 -0.324739 0
    outer loop
      vertex 104.002 34.4881 24
      vertex 104.018 34.5347 -24
      vertex 104.018 34.5347 24
    endloop
  endfacet
  facet normal 0.945804 -0.324739 0
    outer loop
      vertex 104.018 34.5347 -24
      vertex 104.002 34.4881 24
      vertex 104.002 34.4881 -24
    endloop
  endfacet
  facet normal 0 0 1
    outer loop
      vertex 104.06 34.8741 24
      vertex 104.06 34.7759 24
      vertex 104.061 34.825 24
    endloop
  endfacet
  facet normal 0 0 1
    outer loop
      vertex 104.056 34.923 24
      vertex 104.06 34.7759 24
      vertex 104.06 34.8741 24
    endloop
  endfacet
  facet normal 0 0 1
    outer loop
      vertex 104.056 34.923 24
      vertex 104.056 34.727 24
      vertex 104.06 34.7759 24
    endloop
  endfacet
  facet normal 0 0 1
    outer loop
      vertex 104.05 34.9717 24
      vertex 104.056 34.727 24
      vertex 104.056 34.923 24
    endloop
  endfacet
  facet normal 0 0 1
    outer loop
      vertex 104.05 34.9717 24
      vertex 104.05 34.6783 24
      vertex 104.056 34.727 24
    endloop
  endfacet
  facet normal 0 0 1
    outer loop
      vertex 104.042 35.0201 24
      vertex 104.05 34.6783 24
      vertex 104.05 34.9717 24
    endloop
  endfacet
  facet normal 0 0 1
    outer loop
      vertex 104.042 35.0201 24
      vertex 104.042 34.6299 24
      vertex 104.05 34.6783 24
    endloop
  endfacet
  facet normal 0 0 1
    outer loop
      vertex 104.031 35.068 24
      vertex 104.042 34.6299 24
      vertex 104.042 35.0201 24
    endloop
  endfacet
  facet normal 0 0 1
    outer loop
      vertex 104.031 35.068 24
      vertex 104.031 34.582 24
      vertex 104.042 34.6299 24
    endloop
  endfacet
  facet normal 0 0 1
    outer loop
      vertex 104.018 35.1153 24
      vertex 104.031 34.582 24
      vertex 104.031 35.068 24
    endloop
  endfacet
  facet normal 0 0 1
    outer loop
      vertex 104.018 35.1153 24
      vertex 104.018 34.5347 24
      vertex 104.031 34.582 24
    endloop
  endfacet
  facet normal 0 0 1
    outer loop
      vertex 104.002 35.1619 24
      vertex 104.018 34.5347 24
      vertex 104.018 35.1153 24
    endloop
  endfacet
  facet normal 0 0 1
    outer loop
      vertex 104.002 35.1619 24
      vertex 104.002 34.4881 24
      vertex 104.018 34.5347 24
    endloop
  endfacet
  facet normal 0 0 1
    outer loop
      vertex 103.985 35.2077 24
      vertex 104.002 34.4881 24
      vertex 104.002 35.1619 24
    endloop
  endfacet
  facet normal 0 0 1
    outer loop
      vertex 103.985 35.2077 24
      vertex 103.985 34.4423 24
      vertex 104.002 34.4881 24
    endloop
  endfacet
  facet normal 0 0 1
    outer loop
      vertex 103.965 35.2526 24
      vertex 103.985 34.4423 24
      vertex 103.985 35.2077 24
    endloop
  endfacet
  facet normal 0 0 1
    outer loop
      vertex 103.965 35.2526 24
      vertex 103.965 34.3975 24
      vertex 103.985 34.4423 24
    endloop
  endfacet
  facet normal 0 0 1
    outer loop
      vertex 103.943 35.2964 24
      vertex 103.965 34.3975 24
      vertex 103.965 35.2526 24
    endloop
  endfacet
  facet normal 0 0 1
    outer loop
      vertex 103.943 35.2964 24
      vertex 103.943 34.3536 24
      vertex 103.965 34.3975 24
    endloop
  endfacet
  facet normal 0 0 1
    outer loop
      vertex 103.919 35.3391 24
      vertex 103.943 34.3536 24
      vertex 103.943 35.2964 24
    endloop
  endfacet
  facet normal 0 0 1
    outer loop
      vertex 103.919 35.3391 24
      vertex 103.919 34.3109 24
      vertex 103.943 34.3536 24
    endloop
  endfacet
  facet normal 0 0 1
    outer loop
      vertex 103.892 35.3806 24
      vertex 103.919 34.3109 24
      vertex 103.919 35.3391 24
    endloop
  endfacet
  facet normal 0 0 1
    outer loop
      vertex 103.892 35.3806 24
      vertex 103.892 34.2694 24
      vertex 103.919 34.3109 24
    endloop
  endfacet
  facet normal 0 0 1
    outer loop
      vertex 103.864 35.4207 24
      vertex 103.892 34.2694 24
      vertex 103.892 35.3806 24
    endloop
  endfacet
  facet normal 0 0 1
    outer loop
      vertex 103.864 35.4207 24
      vertex 103.864 34.2293 24
      vertex 103.892 34.2694 24
    endloop
  endfacet
  facet normal 0 0 1
    outer loop
      vertex 103.834 35.4594 24
      vertex 103.864 34.2293 24
      vertex 103.864 35.4207 24
    endloop
  endfacet
  facet normal 0 0 1
    outer loop
      vertex 103.834 35.4594 24
      vertex 103.834 34.1906 24
      vertex 103.864 34.2293 24
    endloop
  endfacet
  facet normal 0 0 1
    outer loop
      vertex 103.802 35.4966 24
      vertex 103.834 34.1906 24
      vertex 103.834 35.4594 24
    endloop
  endfacet
  facet normal 0 0 1
    outer loop
      vertex 103.802 35.4966 24
      vertex 103.802 34.1535 24
      vertex 103.834 34.1906 24
    endloop
  endfacet
  facet normal 0 0 1
    outer loop
      vertex 103.768 35.5321 24
      vertex 103.802 34.1535 24
      vertex 103.802 35.4966 24
    endloop
  endfacet
  facet normal 0 0 1
    outer loop
      vertex 103.768 35.5321 24
      vertex 103.768 34.1179 24
      vertex 103.802 34.1535 24
    endloop
  endfacet
  facet normal 0 0 1
    outer loop
      vertex 103.768 35.5321 24
      vertex 101.647 34.825 24
      vertex 103.768 34.1179 24
    endloop
  endfacet
  facet normal 0 0 1
    outer loop
      vertex 35.5321 103.768 24
      vertex 101.647 34.825 24
      vertex 103.768 35.5321 24
    endloop
  endfacet
  facet normal 0 0 1
    outer loop
      vertex 34.825 101.647 24
      vertex 35.5321 103.768 24
      vertex 35.4966 103.802 24
    endloop
  endfacet
  facet normal 0 0 1
    outer loop
      vertex 34.825 101.647 24
      vertex 35.4966 103.802 24
      vertex 35.4594 103.834 24
    endloop
  endfacet
  facet normal 0 0 1
    outer loop
      vertex 34.825 101.647 24
      vertex 35.4594 103.834 24
      vertex 35.4207 103.864 24
    endloop
  endfacet
  facet normal 0 0 1
    outer loop
      vertex 34.825 101.647 24
      vertex 35.4207 103.864 24
      vertex 35.3806 103.892 24
    endloop
  endfacet
  facet normal 0 0 1
    outer loop
      vertex 34.825 101.647 24
      vertex 35.3806 103.892 24
      vertex 35.3391 103.919 24
    endloop
  endfacet
  facet normal 0 0 1
    outer loop
      vertex 34.825 101.647 24
      vertex 35.3391 103.919 24
      vertex 35.2964 103.943 24
    endloop
  endfacet
  facet normal 0 0 1
    outer loop
      vertex 34.825 101.647 24
      vertex 35.2964 103.943 24
      vertex 35.2526 103.965 24
    endloop
  endfacet
  facet normal 0 0 1
    outer loop
      vertex 34.825 101.647 24
      vertex 35.2526 103.965 24
      vertex 35.2077 103.985 24
    endloop
  endfacet
  facet normal 0 0 1
    outer loop
      vertex 34.825 101.647 24
      vertex 35.2077 103.985 24
      vertex 35.1619 104.002 24
    endloop
  endfacet
  facet normal 0 0 1
    outer loop
      vertex 34.825 101.647 24
      vertex 35.1619 104.002 24
      vertex 35.1153 104.018 24
    endloop
  endfacet
  facet normal 0 0 1
    outer loop
      vertex 34.825 101.647 24
      vertex 35.1153 104.018 24
      vertex 35.068 104.031 24
    endloop
  endfacet
  facet normal 0 0 1
    outer loop
      vertex 34.825 101.647 24
      vertex 35.068 104.031 24
      vertex 35.0201 104.042 24
    endloop
  endfacet
  facet normal 0 0 1
    outer loop
      vertex 34.825 101.647 24
      vertex 35.0201 104.042 24
      vertex 34.9717 104.05 24
    endloop
  endfacet
  facet normal 0 0 1
    outer loop
      vertex 34.825 101.647 24
      vertex 34.9717 104.05 24
      vertex 34.923 104.056 24
    endloop
  endfacet
  facet normal 0 0 1
    outer loop
      vertex 34.825 101.647 24
      vertex 34.923 104.056 24
      vertex 34.8741 104.06 24
    endloop
  endfacet
  facet normal 0 0 1
    outer loop
      vertex 34.825 101.647 24
      vertex 34.8741 104.06 24
      vertex 34.825 104.061 24
    endloop
  endfacet
  facet normal 0 0 1
    outer loop
      vertex 35.5321 103.768 24
      vertex 34.825 101.647 24
      vertex 101.647 34.825 24
    endloop
  endfacet
  facet normal -0 0 1
    outer loop
      vertex 34.7759 104.06 24
      vertex 34.825 101.647 24
      vertex 34.825 104.061 24
    endloop
  endfacet
  facet normal -0 0 1
    outer loop
      vertex 34.727 104.056 24
      vertex 34.825 101.647 24
      vertex 34.7759 104.06 24
    endloop
  endfacet
  facet normal -0 0 1
    outer loop
      vertex 34.6783 104.05 24
      vertex 34.825 101.647 24
      vertex 34.727 104.056 24
    endloop
  endfacet
  facet normal -0 0 1
    outer loop
      vertex 34.6299 104.042 24
      vertex 34.825 101.647 24
      vertex 34.6783 104.05 24
    endloop
  endfacet
  facet normal -0 0 1
    outer loop
      vertex 34.582 104.031 24
      vertex 34.825 101.647 24
      vertex 34.6299 104.042 24
    endloop
  endfacet
  facet normal -0 0 1
    outer loop
      vertex 34.5347 104.018 24
      vertex 34.825 101.647 24
      vertex 34.582 104.031 24
    endloop
  endfacet
  facet normal -0 0 1
    outer loop
      vertex 34.4881 104.002 24
      vertex 34.825 101.647 24
      vertex 34.5347 104.018 24
    endloop
  endfacet
  facet normal -0 0 1
    outer loop
      vertex 34.4423 103.985 24
      vertex 34.825 101.647 24
      vertex 34.4881 104.002 24
    endloop
  endfacet
  facet normal -0 0 1
    outer loop
      vertex 34.3975 103.965 24
      vertex 34.825 101.647 24
      vertex 34.4423 103.985 24
    endloop
  endfacet
  facet normal -0 0 1
    outer loop
      vertex 34.3536 103.943 24
      vertex 34.825 101.647 24
      vertex 34.3975 103.965 24
    endloop
  endfacet
  facet normal -0 0 1
    outer loop
      vertex 34.3109 103.919 24
      vertex 34.825 101.647 24
      vertex 34.3536 103.943 24
    endloop
  endfacet
  facet normal -0 0 1
    outer loop
      vertex 34.2694 103.892 24
      vertex 34.825 101.647 24
      vertex 34.3109 103.919 24
    endloop
  endfacet
  facet normal -0 0 1
    outer loop
      vertex 34.2293 103.864 24
      vertex 34.825 101.647 24
      vertex 34.2694 103.892 24
    endloop
  endfacet
  facet normal -0 0 1
    outer loop
      vertex 34.1906 103.834 24
      vertex 34.825 101.647 24
      vertex 34.2293 103.864 24
    endloop
  endfacet
  facet normal -0 0 1
    outer loop
      vertex 34.1535 103.802 24
      vertex 34.825 101.647 24
      vertex 34.1906 103.834 24
    endloop
  endfacet
  facet normal -0 0 1
    outer loop
      vertex 34.1179 103.768 24
      vertex 34.825 101.647 24
      vertex 34.1535 103.802 24
    endloop
  endfacet
  facet normal 0 0 1
    outer loop
      vertex 34.1179 103.768 24
      vertex -101.647 -34.825 24
      vertex 34.825 101.647 24
    endloop
  endfacet
  facet normal 0 -0 1
    outer loop
      vertex -101.647 -34.825 24
      vertex 34.1179 103.768 24
      vertex -103.768 -34.1179 24
    endloop
  endfacet
  facet normal 0 0 1
    outer loop
      vertex 101.647 34.825 24
      vertex -34.1179 -103.768 24
      vertex 103.768 34.1179 24
    endloop
  endfacet
  facet normal -0 0 1
    outer loop
      vertex -34.825 -101.647 24
      vertex -34.1179 -103.768 24
      vertex 101.647 34.825 24
    endloop
  endfacet
  facet normal 0 0 1
    outer loop
      vertex -34.1179 -103.768 24
      vertex -34.825 -101.647 24
      vertex -34.1535 -103.802 24
    endloop
  endfacet
  facet normal 0 0 1
    outer loop
      vertex -34.1535 -103.802 24
      vertex -34.825 -101.647 24
      vertex -34.1906 -103.834 24
    endloop
  endfacet
  facet normal 0 0 1
    outer loop
      vertex -34.1906 -103.834 24
      vertex -34.825 -101.647 24
      vertex -34.2293 -103.864 24
    endloop
  endfacet
  facet normal 0 0 1
    outer loop
      vertex -34.2293 -103.864 24
      vertex -34.825 -101.647 24
      vertex -34.2694 -103.892 24
    endloop
  endfacet
  facet normal 0 0 1
    outer loop
      vertex -34.2694 -103.892 24
      vertex -34.825 -101.647 24
      vertex -34.3109 -103.919 24
    endloop
  endfacet
  facet normal 0 0 1
    outer loop
      vertex -34.3109 -103.919 24
      vertex -34.825 -101.647 24
      vertex -34.3536 -103.943 24
    endloop
  endfacet
  facet normal 0 0 1
    outer loop
      vertex -34.3536 -103.943 24
      vertex -34.825 -101.647 24
      vertex -34.3975 -103.965 24
    endloop
  endfacet
  facet normal 0 0 1
    outer loop
      vertex -34.3975 -103.965 24
      vertex -34.825 -101.647 24
      vertex -34.4423 -103.985 24
    endloop
  endfacet
  facet normal 0 0 1
    outer loop
      vertex -34.4423 -103.985 24
      vertex -34.825 -101.647 24
      vertex -34.4881 -104.002 24
    endloop
  endfacet
  facet normal 0 0 1
    outer loop
      vertex -34.4881 -104.002 24
      vertex -34.825 -101.647 24
      vertex -34.5347 -104.018 24
    endloop
  endfacet
  facet normal 0 0 1
    outer loop
      vertex -34.5347 -104.018 24
      vertex -34.825 -101.647 24
      vertex -34.582 -104.031 24
    endloop
  endfacet
  facet normal 0 0 1
    outer loop
      vertex -34.582 -104.031 24
      vertex -34.825 -101.647 24
      vertex -34.6299 -104.042 24
    endloop
  endfacet
  facet normal 0 0 1
    outer loop
      vertex -34.6299 -104.042 24
      vertex -34.825 -101.647 24
      vertex -34.6783 -104.05 24
    endloop
  endfacet
  facet normal 0 0 1
    outer loop
      vertex -34.6783 -104.05 24
      vertex -34.825 -101.647 24
      vertex -34.727 -104.056 24
    endloop
  endfacet
  facet normal 0 0 1
    outer loop
      vertex -34.727 -104.056 24
      vertex -34.825 -101.647 24
      vertex -34.7759 -104.06 24
    endloop
  endfacet
  facet normal 0 0 1
    outer loop
      vertex -34.825 -101.647 24
      vertex -34.825 -104.061 24
      vertex -34.7759 -104.06 24
    endloop
  endfacet
  facet normal 0 0 1
    outer loop
      vertex -34.825 -101.647 24
      vertex -34.8741 -104.06 24
      vertex -34.825 -104.061 24
    endloop
  endfacet
  facet normal 0 0 1
    outer loop
      vertex -34.825 -101.647 24
      vertex -34.923 -104.056 24
      vertex -34.8741 -104.06 24
    endloop
  endfacet
  facet normal 0 0 1
    outer loop
      vertex -34.825 -101.647 24
      vertex -34.9717 -104.05 24
      vertex -34.923 -104.056 24
    endloop
  endfacet
  facet normal 0 0 1
    outer loop
      vertex -34.825 -101.647 24
      vertex -35.0201 -104.042 24
      vertex -34.9717 -104.05 24
    endloop
  endfacet
  facet normal 0 0 1
    outer loop
      vertex -34.825 -101.647 24
      vertex -35.068 -104.031 24
      vertex -35.0201 -104.042 24
    endloop
  endfacet
  facet normal 0 0 1
    outer loop
      vertex -34.825 -101.647 24
      vertex -35.1153 -104.018 24
      vertex -35.068 -104.031 24
    endloop
  endfacet
  facet normal 0 0 1
    outer loop
      vertex -34.825 -101.647 24
      vertex -35.1619 -104.002 24
      vertex -35.1153 -104.018 24
    endloop
  endfacet
  facet normal 0 0 1
    outer loop
      vertex -34.825 -101.647 24
      vertex -35.2077 -103.985 24
      vertex -35.1619 -104.002 24
    endloop
  endfacet
  facet normal 0 0 1
    outer loop
      vertex -34.825 -101.647 24
      vertex -35.2526 -103.965 24
      vertex -35.2077 -103.985 24
    endloop
  endfacet
  facet normal 0 0 1
    outer loop
      vertex -34.825 -101.647 24
      vertex -35.2964 -103.943 24
      vertex -35.2526 -103.965 24
    endloop
  endfacet
  facet normal 0 0 1
    outer loop
      vertex -34.825 -101.647 24
      vertex -35.3391 -103.919 24
      vertex -35.2964 -103.943 24
    endloop
  endfacet
  facet normal 0 0 1
    outer loop
      vertex -34.825 -101.647 24
      vertex -35.3806 -103.892 24
      vertex -35.3391 -103.919 24
    endloop
  endfacet
  facet normal 0 0 1
    outer loop
      vertex -34.825 -101.647 24
      vertex -35.4207 -103.864 24
      vertex -35.3806 -103.892 24
    endloop
  endfacet
  facet normal 0 0 1
    outer loop
      vertex -34.825 -101.647 24
      vertex -35.4594 -103.834 24
      vertex -35.4207 -103.864 24
    endloop
  endfacet
  facet normal 0 0 1
    outer loop
      vertex -34.825 -101.647 24
      vertex -35.4966 -103.802 24
      vertex -35.4594 -103.834 24
    endloop
  endfacet
  facet normal 0 0 1
    outer loop
      vertex -34.825 -101.647 24
      vertex -35.5321 -103.768 24
      vertex -35.4966 -103.802 24
    endloop
  endfacet
  facet normal 0 0 1
    outer loop
      vertex -101.647 -34.825 24
      vertex -35.5321 -103.768 24
      vertex -34.825 -101.647 24
    endloop
  endfacet
  facet normal 0 0 1
    outer loop
      vertex -103.768 -35.5321 24
      vertex -101.647 -34.825 24
      vertex -103.768 -34.1179 24
    endloop
  endfacet
  facet normal 0 0 1
    outer loop
      vertex -101.647 -34.825 24
      vertex -103.768 -35.5321 24
      vertex -35.5321 -103.768 24
    endloop
  endfacet
  facet normal -0 0 1
    outer loop
      vertex -103.802 -34.1535 24
      vertex -103.768 -35.5321 24
      vertex -103.768 -34.1179 24
    endloop
  endfacet
  facet normal 0 0 1
    outer loop
      vertex -103.802 -34.1535 24
      vertex -103.802 -35.4966 24
      vertex -103.768 -35.5321 24
    endloop
  endfacet
  facet normal -0 0 1
    outer loop
      vertex -103.834 -34.1906 24
      vertex -103.802 -35.4966 24
      vertex -103.802 -34.1535 24
    endloop
  endfacet
  facet normal 0 0 1
    outer loop
      vertex -103.834 -34.1906 24
      vertex -103.834 -35.4594 24
      vertex -103.802 -35.4966 24
    endloop
  endfacet
  facet normal -0 0 1
    outer loop
      vertex -103.864 -34.2293 24
      vertex -103.834 -35.4594 24
      vertex -103.834 -34.1906 24
    endloop
  endfacet
  facet normal 0 0 1
    outer loop
      vertex -103.864 -34.2293 24
      vertex -103.864 -35.4207 24
      vertex -103.834 -35.4594 24
    endloop
  endfacet
  facet normal -0 0 1
    outer loop
      vertex -103.892 -34.2694 24
      vertex -103.864 -35.4207 24
      vertex -103.864 -34.2293 24
    endloop
  endfacet
  facet normal 0 0 1
    outer loop
      vertex -103.892 -34.2694 24
      vertex -103.892 -35.3806 24
      vertex -103.864 -35.4207 24
    endloop
  endfacet
  facet normal -0 0 1
    outer loop
      vertex -103.919 -34.3109 24
      vertex -103.892 -35.3806 24
      vertex -103.892 -34.2694 24
    endloop
  endfacet
  facet normal 0 0 1
    outer loop
      vertex -103.919 -34.3109 24
      vertex -103.919 -35.3391 24
      vertex -103.892 -35.3806 24
    endloop
  endfacet
  facet normal -0 0 1
    outer loop
      vertex -103.943 -34.3536 24
      vertex -103.919 -35.3391 24
      vertex -103.919 -34.3109 24
    endloop
  endfacet
  facet normal 0 0 1
    outer loop
      vertex -103.943 -34.3536 24
      vertex -103.943 -35.2964 24
      vertex -103.919 -35.3391 24
    endloop
  endfacet
  facet normal -0 0 1
    outer loop
      vertex -103.965 -34.3975 24
      vertex -103.943 -35.2964 24
      vertex -103.943 -34.3536 24
    endloop
  endfacet
  facet normal 0 0 1
    outer loop
      vertex -103.965 -34.3975 24
      vertex -103.965 -35.2526 24
      vertex -103.943 -35.2964 24
    endloop
  endfacet
  facet normal -0 0 1
    outer loop
      vertex -103.985 -34.4423 24
      vertex -103.965 -35.2526 24
      vertex -103.965 -34.3975 24
    endloop
  endfacet
  facet normal 0 0 1
    outer loop
      vertex -103.985 -34.4423 24
      vertex -103.985 -35.2077 24
      vertex -103.965 -35.2526 24
    endloop
  endfacet
  facet normal -0 0 1
    outer loop
      vertex -104.002 -34.4881 24
      vertex -103.985 -35.2077 24
      vertex -103.985 -34.4423 24
    endloop
  endfacet
  facet normal 0 0 1
    outer loop
      vertex -104.002 -34.4881 24
      vertex -104.002 -35.1619 24
      vertex -103.985 -35.2077 24
    endloop
  endfacet
  facet normal -0 0 1
    outer loop
      vertex -104.018 -34.5347 24
      vertex -104.002 -35.1619 24
      vertex -104.002 -34.4881 24
    endloop
  endfacet
  facet normal 0 0 1
    outer loop
      vertex -104.018 -34.5347 24
      vertex -104.018 -35.1153 24
      vertex -104.002 -35.1619 24
    endloop
  endfacet
  facet normal -0 0 1
    outer loop
      vertex -104.031 -34.582 24
      vertex -104.018 -35.1153 24
      vertex -104.018 -34.5347 24
    endloop
  endfacet
  facet normal 0 0 1
    outer loop
      vertex -104.031 -34.582 24
      vertex -104.031 -35.068 24
      vertex -104.018 -35.1153 24
    endloop
  endfacet
  facet normal -0 0 1
    outer loop
      vertex -104.042 -34.6299 24
      vertex -104.031 -35.068 24
      vertex -104.031 -34.582 24
    endloop
  endfacet
  facet normal 0 0 1
    outer loop
      vertex -104.042 -34.6299 24
      vertex -104.042 -35.0201 24
      vertex -104.031 -35.068 24
    endloop
  endfacet
  facet normal -0 0 1
    outer loop
      vertex -104.05 -34.6783 24
      vertex -104.042 -35.0201 24
      vertex -104.042 -34.6299 24
    endloop
  endfacet
  facet normal 0 0 1
    outer loop
      vertex -104.05 -34.6783 24
      vertex -104.05 -34.9717 24
      vertex -104.042 -35.0201 24
    endloop
  endfacet
  facet normal -0 0 1
    outer loop
      vertex -104.056 -34.727 24
      vertex -104.05 -34.9717 24
      vertex -104.05 -34.6783 24
    endloop
  endfacet
  facet normal 0 0 1
    outer loop
      vertex -104.056 -34.727 24
      vertex -104.056 -34.923 24
      vertex -104.05 -34.9717 24
    endloop
  endfacet
  facet normal -0 0 1
    outer loop
      vertex -104.06 -34.7759 24
      vertex -104.056 -34.923 24
      vertex -104.056 -34.727 24
    endloop
  endfacet
  facet normal 0 0 1
    outer loop
      vertex -104.06 -34.7759 24
      vertex -104.06 -34.8741 24
      vertex -104.056 -34.923 24
    endloop
  endfacet
  facet normal 0 -0 1
    outer loop
      vertex -104.06 -34.8741 24
      vertex -104.06 -34.7759 24
      vertex -104.061 -34.825 24
    endloop
  endfacet
  facet normal 0.707107 0.707107 0
    outer loop
      vertex 103.768 35.5321 24
      vertex 35.5321 103.768 -24
      vertex 35.5321 103.768 24
    endloop
  endfacet
  facet normal 0.707107 0.707107 0
    outer loop
      vertex 35.5321 103.768 -24
      vertex 103.768 35.5321 24
      vertex 103.768 35.5321 -24
    endloop
  endfacet
  facet normal 0.545343 -0.838213 0
    outer loop
      vertex -34.3109 -103.919 -24
      vertex -34.2694 -103.892 24
      vertex -34.3109 -103.919 24
    endloop
  endfacet
  facet normal 0.545343 -0.838213 0
    outer loop
      vertex -34.2694 -103.892 24
      vertex -34.3109 -103.919 -24
      vertex -34.2694 -103.892 -24
    endloop
  endfacet
  facet normal 0.0815273 -0.996671 0
    outer loop
      vertex -34.7759 -104.06 -24
      vertex -34.727 -104.056 24
      vertex -34.7759 -104.06 24
    endloop
  endfacet
  facet normal 0.0815273 -0.996671 0
    outer loop
      vertex -34.727 -104.056 24
      vertex -34.7759 -104.06 -24
      vertex -34.727 -104.056 -24
    endloop
  endfacet
  facet normal -0.707107 -0.707107 0
    outer loop
      vertex -35.5321 -103.768 -24
      vertex -103.768 -35.5321 24
      vertex -103.768 -35.5321 -24
    endloop
  endfacet
  facet normal -0.707107 -0.707107 0
    outer loop
      vertex -103.768 -35.5321 24
      vertex -35.5321 -103.768 -24
      vertex -35.5321 -103.768 24
    endloop
  endfacet
  facet normal -0.89361 -0.448845 0
    outer loop
      vertex -103.943 -35.2964 -24
      vertex -103.965 -35.2526 24
      vertex -103.965 -35.2526 -24
    endloop
  endfacet
  facet normal -0.89361 -0.448845 0
    outer loop
      vertex -103.965 -35.2526 24
      vertex -103.943 -35.2964 -24
      vertex -103.943 -35.2964 24
    endloop
  endfacet
  facet normal -0.707107 0.707107 0
    outer loop
      vertex -103.768 -34.1179 -24
      vertex 34.1179 103.768 24
      vertex 34.1179 103.768 -24
    endloop
  endfacet
  facet normal -0.707107 0.707107 0
    outer loop
      vertex 34.1179 103.768 24
      vertex -103.768 -34.1179 -24
      vertex -103.768 -34.1179 24
    endloop
  endfacet
  facet normal 0.871739 0.48997 0
    outer loop
      vertex 103.943 35.2964 24
      vertex 103.919 35.3391 -24
      vertex 103.919 35.3391 24
    endloop
  endfacet
  facet normal 0.871739 0.48997 0
    outer loop
      vertex 103.919 35.3391 -24
      vertex 103.943 35.2964 24
      vertex 103.943 35.2964 -24
    endloop
  endfacet
  facet normal 0.996671 -0.0815273 0
    outer loop
      vertex 104.056 34.727 24
      vertex 104.06 34.7759 -24
      vertex 104.06 34.7759 24
    endloop
  endfacet
  facet normal 0.996671 -0.0815273 0
    outer loop
      vertex 104.06 34.7759 -24
      vertex 104.056 34.727 24
      vertex 104.056 34.727 -24
    endloop
  endfacet
  facet normal 0.913138 -0.407651 0
    outer loop
      vertex 103.965 34.3975 24
      vertex 103.985 34.4423 -24
      vertex 103.985 34.4423 24
    endloop
  endfacet
  facet normal 0.913138 -0.407651 0
    outer loop
      vertex 103.985 34.4423 -24
      vertex 103.965 34.3975 24
      vertex 103.965 34.3975 -24
    endloop
  endfacet
  facet normal 0.819904 -0.572501 0
    outer loop
      vertex 103.864 34.2293 24
      vertex 103.892 34.2694 -24
      vertex 103.892 34.2694 24
    endloop
  endfacet
  facet normal 0.819904 -0.572501 0
    outer loop
      vertex 103.892 34.2694 -24
      vertex 103.864 34.2293 24
      vertex 103.864 34.2293 -24
    endloop
  endfacet
  facet normal 0.707107 -0.707107 0
    outer loop
      vertex -34.1179 -103.768 24
      vertex 103.768 34.1179 -24
      vertex 103.768 34.1179 24
    endloop
  endfacet
  facet normal 0.707107 -0.707107 0
    outer loop
      vertex 103.768 34.1179 -24
      vertex -34.1179 -103.768 24
      vertex -34.1179 -103.768 -24
    endloop
  endfacet
  facet normal 0.122279 -0.992496 0
    outer loop
      vertex -34.727 -104.056 -24
      vertex -34.6783 -104.05 24
      vertex -34.727 -104.056 24
    endloop
  endfacet
  facet normal 0.122279 -0.992496 0
    outer loop
      vertex -34.6783 -104.05 24
      vertex -34.727 -104.056 -24
      vertex -34.6783 -104.05 -24
    endloop
  endfacet
  facet normal 0.223819 -0.974631 0
    outer loop
      vertex -34.6299 -104.042 -24
      vertex -34.582 -104.031 24
      vertex -34.6299 -104.042 24
    endloop
  endfacet
  facet normal 0.223819 -0.974631 0
    outer loop
      vertex -34.582 -104.031 24
      vertex -34.6299 -104.042 -24
      vertex -34.582 -104.031 -24
    endloop
  endfacet
  facet normal 0.448028 -0.89402 0
    outer loop
      vertex -34.3975 -103.965 -24
      vertex -34.3536 -103.943 24
      vertex -34.3975 -103.965 24
    endloop
  endfacet
  facet normal 0.448028 -0.89402 0
    outer loop
      vertex -34.3536 -103.943 24
      vertex -34.3975 -103.965 -24
      vertex -34.3536 -103.943 -24
    endloop
  endfacet
  facet normal 0.653141 -0.757236 0
    outer loop
      vertex -34.1906 -103.834 -24
      vertex -34.1535 -103.802 24
      vertex -34.1906 -103.834 24
    endloop
  endfacet
  facet normal 0.653141 -0.757236 0
    outer loop
      vertex -34.1535 -103.802 24
      vertex -34.1906 -103.834 -24
      vertex -34.1535 -103.802 -24
    endloop
  endfacet
  facet normal -0.992496 0.122279 0
    outer loop
      vertex -104.056 -34.727 -24
      vertex -104.05 -34.6783 24
      vertex -104.05 -34.6783 -24
    endloop
  endfacet
  facet normal -0.992496 0.122279 0
    outer loop
      vertex -104.05 -34.6783 24
      vertex -104.056 -34.727 -24
      vertex -104.056 -34.727 24
    endloop
  endfacet
  facet normal -0.974631 -0.223819 0
    outer loop
      vertex -104.031 -35.068 -24
      vertex -104.042 -35.0201 24
      vertex -104.042 -35.0201 -24
    endloop
  endfacet
  facet normal -0.974631 -0.223819 0
    outer loop
      vertex -104.042 -35.0201 24
      vertex -104.031 -35.068 -24
      vertex -104.031 -35.068 24
    endloop
  endfacet
  facet normal -0.838213 -0.545343 0
    outer loop
      vertex -103.892 -35.3806 -24
      vertex -103.919 -35.3391 24
      vertex -103.919 -35.3391 -24
    endloop
  endfacet
  facet normal -0.838213 -0.545343 0
    outer loop
      vertex -103.919 -35.3391 24
      vertex -103.892 -35.3806 -24
      vertex -103.892 -35.3806 24
    endloop
  endfacet
  facet normal -0.48997 0.871739 0
    outer loop
      vertex 34.3536 103.943 -24
      vertex 34.3109 103.919 24
      vertex 34.3536 103.943 24
    endloop
  endfacet
  facet normal -0.48997 0.871739 0
    outer loop
      vertex 34.3109 103.919 24
      vertex 34.3536 103.943 -24
      vertex 34.3109 103.919 -24
    endloop
  endfacet
  facet normal 0.790341 0.612667 0
    outer loop
      vertex 103.864 35.4207 24
      vertex 103.834 35.4594 -24
      vertex 103.834 35.4594 24
    endloop
  endfacet
  facet normal 0.790341 0.612667 0
    outer loop
      vertex 103.834 35.4594 -24
      vertex 103.864 35.4207 24
      vertex 103.864 35.4207 -24
    endloop
  endfacet
  facet normal 0.838213 -0.545343 0
    outer loop
      vertex 103.892 34.2694 24
      vertex 103.919 34.3109 -24
      vertex 103.919 34.3109 24
    endloop
  endfacet
  facet normal 0.838213 -0.545343 0
    outer loop
      vertex 103.919 34.3109 -24
      vertex 103.892 34.2694 24
      vertex 103.892 34.2694 -24
    endloop
  endfacet
  facet normal 0.937502 -0.347981 0
    outer loop
      vertex 103.985 34.4423 24
      vertex 104.002 34.4881 -24
      vertex 104.002 34.4881 24
    endloop
  endfacet
  facet normal 0.937502 -0.347981 0
    outer loop
      vertex 104.002 34.4881 -24
      vertex 103.985 34.4423 24
      vertex 103.985 34.4423 -24
    endloop
  endfacet
  facet normal 0.163077 -0.986613 0
    outer loop
      vertex -34.6783 -104.05 -24
      vertex -34.6299 -104.042 24
      vertex -34.6783 -104.05 24
    endloop
  endfacet
  facet normal 0.163077 -0.986613 0
    outer loop
      vertex -34.6299 -104.042 24
      vertex -34.6783 -104.05 -24
      vertex -34.6299 -104.042 -24
    endloop
  endfacet
  facet normal 0.265014 -0.964244 0
    outer loop
      vertex -34.582 -104.031 -24
      vertex -34.5347 -104.018 24
      vertex -34.582 -104.031 24
    endloop
  endfacet
  facet normal 0.265014 -0.964244 0
    outer loop
      vertex -34.5347 -104.018 24
      vertex -34.582 -104.031 -24
      vertex -34.5347 -104.018 -24
    endloop
  endfacet
  facet normal 0.48997 -0.871739 0
    outer loop
      vertex -34.3536 -103.943 -24
      vertex -34.3109 -103.919 24
      vertex -34.3536 -103.943 24
    endloop
  endfacet
  facet normal 0.48997 -0.871739 0
    outer loop
      vertex -34.3109 -103.919 24
      vertex -34.3536 -103.943 -24
      vertex -34.3109 -103.919 -24
    endloop
  endfacet
  facet normal 0.612667 -0.790341 0
    outer loop
      vertex -34.2293 -103.864 -24
      vertex -34.1906 -103.834 24
      vertex -34.2293 -103.864 24
    endloop
  endfacet
  facet normal 0.612667 -0.790341 0
    outer loop
      vertex -34.1906 -103.834 24
      vertex -34.2293 -103.864 -24
      vertex -34.1906 -103.834 -24
    endloop
  endfacet
  facet normal -0.448845 -0.89361 0
    outer loop
      vertex -35.2964 -103.943 -24
      vertex -35.2526 -103.965 24
      vertex -35.2964 -103.943 24
    endloop
  endfacet
  facet normal -0.448845 -0.89361 -0
    outer loop
      vertex -35.2526 -103.965 24
      vertex -35.2964 -103.943 -24
      vertex -35.2526 -103.965 -24
    endloop
  endfacet
  facet normal -0.986613 -0.163077 0
    outer loop
      vertex -104.042 -35.0201 -24
      vertex -104.05 -34.9717 24
      vertex -104.05 -34.9717 -24
    endloop
  endfacet
  facet normal -0.986613 -0.163077 0
    outer loop
      vertex -104.05 -34.9717 24
      vertex -104.042 -35.0201 -24
      vertex -104.042 -35.0201 24
    endloop
  endfacet
  facet normal -0.871739 -0.48997 0
    outer loop
      vertex -103.919 -35.3391 -24
      vertex -103.943 -35.2964 24
      vertex -103.943 -35.2964 -24
    endloop
  endfacet
  facet normal -0.871739 -0.48997 0
    outer loop
      vertex -103.943 -35.2964 24
      vertex -103.919 -35.3391 -24
      vertex -103.919 -35.3391 24
    endloop
  endfacet
  facet normal -0.945804 -0.324739 0
    outer loop
      vertex -104.002 -35.1619 -24
      vertex -104.018 -35.1153 24
      vertex -104.018 -35.1153 -24
    endloop
  endfacet
  facet normal -0.945804 -0.324739 0
    outer loop
      vertex -104.018 -35.1153 24
      vertex -104.002 -35.1619 -24
      vertex -104.002 -35.1619 24
    endloop
  endfacet
  facet normal -0.612667 0.790341 0
    outer loop
      vertex 34.2293 103.864 -24
      vertex 34.1906 103.834 24
      vertex 34.2293 103.864 24
    endloop
  endfacet
  facet normal -0.612667 0.790341 0
    outer loop
      vertex 34.1906 103.834 24
      vertex 34.2293 103.864 -24
      vertex 34.1906 103.834 -24
    endloop
  endfacet
  facet normal -0.448028 0.89402 0
    outer loop
      vertex 34.3975 103.965 -24
      vertex 34.3536 103.943 24
      vertex 34.3975 103.965 24
    endloop
  endfacet
  facet normal -0.448028 0.89402 0
    outer loop
      vertex 34.3536 103.943 24
      vertex 34.3975 103.965 -24
      vertex 34.3536 103.943 -24
    endloop
  endfacet
  facet normal -0.407651 0.913138 0
    outer loop
      vertex 34.4423 103.985 -24
      vertex 34.3975 103.965 24
      vertex 34.4423 103.985 24
    endloop
  endfacet
  facet normal -0.407651 0.913138 0
    outer loop
      vertex 34.3975 103.965 24
      vertex 34.4423 103.985 -24
      vertex 34.3975 103.965 -24
    endloop
  endfacet
  facet normal -0.347981 0.937502 0
    outer loop
      vertex 34.4881 104.002 -24
      vertex 34.4423 103.985 24
      vertex 34.4881 104.002 24
    endloop
  endfacet
  facet normal -0.347981 0.937502 0
    outer loop
      vertex 34.4423 103.985 24
      vertex 34.4881 104.002 -24
      vertex 34.4423 103.985 -24
    endloop
  endfacet
  facet normal -0.790341 0.612667 0
    outer loop
      vertex -103.864 -34.2293 -24
      vertex -103.834 -34.1906 24
      vertex -103.834 -34.1906 -24
    endloop
  endfacet
  facet normal -0.790341 0.612667 0
    outer loop
      vertex -103.834 -34.1906 24
      vertex -103.864 -34.2293 -24
      vertex -103.864 -34.2293 24
    endloop
  endfacet
  facet normal -0.838213 0.545343 0
    outer loop
      vertex -103.919 -34.3109 -24
      vertex -103.892 -34.2694 24
      vertex -103.892 -34.2694 -24
    endloop
  endfacet
  facet normal -0.838213 0.545343 0
    outer loop
      vertex -103.892 -34.2694 24
      vertex -103.919 -34.3109 -24
      vertex -103.919 -34.3109 24
    endloop
  endfacet
  facet normal -0.937502 0.347981 0
    outer loop
      vertex -104.002 -34.4881 -24
      vertex -103.985 -34.4423 24
      vertex -103.985 -34.4423 -24
    endloop
  endfacet
  facet normal -0.937502 0.347981 0
    outer loop
      vertex -103.985 -34.4423 24
      vertex -104.002 -34.4881 -24
      vertex -104.002 -34.4881 24
    endloop
  endfacet
  facet normal 0.992496 -0.122279 0
    outer loop
      vertex 104.05 34.6783 24
      vertex 104.056 34.727 -24
      vertex 104.056 34.727 24
    endloop
  endfacet
  facet normal 0.992496 -0.122279 0
    outer loop
      vertex 104.056 34.727 -24
      vertex 104.05 34.6783 24
      vertex 104.05 34.6783 -24
    endloop
  endfacet
  facet normal 0.986613 -0.163077 0
    outer loop
      vertex 104.042 34.6299 24
      vertex 104.05 34.6783 -24
      vertex 104.05 34.6783 24
    endloop
  endfacet
  facet normal 0.986613 -0.163077 0
    outer loop
      vertex 104.05 34.6783 -24
      vertex 104.042 34.6299 24
      vertex 104.042 34.6299 -24
    endloop
  endfacet
  facet normal 0.996671 0.0815273 0
    outer loop
      vertex 104.06 34.8741 24
      vertex 104.056 34.923 -24
      vertex 104.056 34.923 24
    endloop
  endfacet
  facet normal 0.996671 0.0815273 0
    outer loop
      vertex 104.056 34.923 -24
      vertex 104.06 34.8741 24
      vertex 104.06 34.8741 -24
    endloop
  endfacet
  facet normal 0.986613 0.163077 0
    outer loop
      vertex 104.05 34.9717 24
      vertex 104.042 35.0201 -24
      vertex 104.042 35.0201 24
    endloop
  endfacet
  facet normal 0.986613 0.163077 0
    outer loop
      vertex 104.042 35.0201 -24
      vertex 104.05 34.9717 24
      vertex 104.05 34.9717 -24
    endloop
  endfacet
  facet normal 0.758105 0.652133 0
    outer loop
      vertex 103.834 35.4594 24
      vertex 103.802 35.4966 -24
      vertex 103.802 35.4966 24
    endloop
  endfacet
  facet normal 0.758105 0.652133 0
    outer loop
      vertex 103.802 35.4966 -24
      vertex 103.834 35.4594 24
      vertex 103.834 35.4594 -24
    endloop
  endfacet
  facet normal 0.937502 0.347981 0
    outer loop
      vertex 104.002 35.1619 24
      vertex 103.985 35.2077 -24
      vertex 103.985 35.2077 24
    endloop
  endfacet
  facet normal 0.937502 0.347981 0
    outer loop
      vertex 103.985 35.2077 -24
      vertex 104.002 35.1619 24
      vertex 104.002 35.1619 -24
    endloop
  endfacet
  facet normal 0.89361 0.448845 0
    outer loop
      vertex 103.965 35.2526 24
      vertex 103.943 35.2964 -24
      vertex 103.943 35.2964 24
    endloop
  endfacet
  facet normal 0.89361 0.448845 0
    outer loop
      vertex 103.943 35.2964 -24
      vertex 103.965 35.2526 24
      vertex 103.965 35.2526 -24
    endloop
  endfacet
  facet normal 0.790341 -0.612667 0
    outer loop
      vertex 103.834 34.1906 24
      vertex 103.864 34.2293 -24
      vertex 103.864 34.2293 24
    endloop
  endfacet
  facet normal 0.790341 -0.612667 0
    outer loop
      vertex 103.864 34.2293 -24
      vertex 103.834 34.1906 24
      vertex 103.834 34.1906 -24
    endloop
  endfacet
  facet normal 0.89402 -0.448028 0
    outer loop
      vertex 103.943 34.3536 24
      vertex 103.965 34.3975 -24
      vertex 103.965 34.3975 24
    endloop
  endfacet
  facet normal 0.89402 -0.448028 0
    outer loop
      vertex 103.965 34.3975 -24
      vertex 103.943 34.3536 24
      vertex 103.943 34.3536 -24
    endloop
  endfacet
  facet normal 0.871739 -0.48997 0
    outer loop
      vertex 103.919 34.3109 24
      vertex 103.943 34.3536 -24
      vertex 103.943 34.3536 24
    endloop
  endfacet
  facet normal 0.871739 -0.48997 0
    outer loop
      vertex 103.943 34.3536 -24
      vertex 103.919 34.3109 24
      vertex 103.919 34.3109 -24
    endloop
  endfacet
  facet normal 0.407651 -0.913138 0
    outer loop
      vertex -34.4423 -103.985 -24
      vertex -34.3975 -103.965 24
      vertex -34.4423 -103.985 24
    endloop
  endfacet
  facet normal 0.407651 -0.913138 0
    outer loop
      vertex -34.3975 -103.965 24
      vertex -34.4423 -103.985 -24
      vertex -34.3975 -103.965 -24
    endloop
  endfacet
  facet normal 0.347981 -0.937502 0
    outer loop
      vertex -34.4881 -104.002 -24
      vertex -34.4423 -103.985 24
      vertex -34.4881 -104.002 24
    endloop
  endfacet
  facet normal 0.347981 -0.937502 0
    outer loop
      vertex -34.4423 -103.985 24
      vertex -34.4881 -104.002 -24
      vertex -34.4423 -103.985 -24
    endloop
  endfacet
  facet normal 0.572501 -0.819904 0
    outer loop
      vertex -34.2694 -103.892 -24
      vertex -34.2293 -103.864 24
      vertex -34.2694 -103.892 24
    endloop
  endfacet
  facet normal 0.572501 -0.819904 0
    outer loop
      vertex -34.2293 -103.864 24
      vertex -34.2694 -103.892 -24
      vertex -34.2293 -103.864 -24
    endloop
  endfacet
  facet normal -0.0815273 -0.996671 0
    outer loop
      vertex -34.923 -104.056 -24
      vertex -34.8741 -104.06 24
      vertex -34.923 -104.056 24
    endloop
  endfacet
  facet normal -0.0815273 -0.996671 -0
    outer loop
      vertex -34.8741 -104.06 24
      vertex -34.923 -104.056 -24
      vertex -34.8741 -104.06 -24
    endloop
  endfacet
  facet normal -0.122279 -0.992496 0
    outer loop
      vertex -34.9717 -104.05 -24
      vertex -34.923 -104.056 24
      vertex -34.9717 -104.05 24
    endloop
  endfacet
  facet normal -0.122279 -0.992496 -0
    outer loop
      vertex -34.923 -104.056 24
      vertex -34.9717 -104.05 -24
      vertex -34.923 -104.056 -24
    endloop
  endfacet
  facet normal -0.324739 -0.945804 0
    outer loop
      vertex -35.1619 -104.002 -24
      vertex -35.1153 -104.018 24
      vertex -35.1619 -104.002 24
    endloop
  endfacet
  facet normal -0.324739 -0.945804 -0
    outer loop
      vertex -35.1153 -104.018 24
      vertex -35.1619 -104.002 -24
      vertex -35.1153 -104.018 -24
    endloop
  endfacet
  facet normal -0.996671 -0.0815273 0
    outer loop
      vertex -104.056 -34.923 -24
      vertex -104.06 -34.8741 24
      vertex -104.06 -34.8741 -24
    endloop
  endfacet
  facet normal -0.996671 -0.0815273 0
    outer loop
      vertex -104.06 -34.8741 24
      vertex -104.056 -34.923 -24
      vertex -104.056 -34.923 24
    endloop
  endfacet
  facet normal -0.999793 -0.0203624 0
    outer loop
      vertex -104.06 -34.8741 -24
      vertex -104.061 -34.825 24
      vertex -104.061 -34.825 -24
    endloop
  endfacet
  facet normal -0.999793 -0.0203624 0
    outer loop
      vertex -104.061 -34.825 24
      vertex -104.06 -34.8741 -24
      vertex -104.06 -34.8741 24
    endloop
  endfacet
  facet normal -0.986613 0.163077 0
    outer loop
      vertex -104.05 -34.6783 -24
      vertex -104.042 -34.6299 24
      vertex -104.042 -34.6299 -24
    endloop
  endfacet
  facet normal -0.986613 0.163077 0
    outer loop
      vertex -104.042 -34.6299 24
      vertex -104.05 -34.6783 -24
      vertex -104.05 -34.6783 24
    endloop
  endfacet
  facet normal -0.964244 0.265014 0
    outer loop
      vertex -104.031 -34.582 -24
      vertex -104.018 -34.5347 24
      vertex -104.018 -34.5347 -24
    endloop
  endfacet
  facet normal -0.964244 0.265014 0
    outer loop
      vertex -104.018 -34.5347 24
      vertex -104.031 -34.582 -24
      vertex -104.031 -34.582 24
    endloop
  endfacet
  facet normal -0.974631 0.223819 0
    outer loop
      vertex -104.042 -34.6299 -24
      vertex -104.031 -34.582 24
      vertex -104.031 -34.582 -24
    endloop
  endfacet
  facet normal -0.974631 0.223819 0
    outer loop
      vertex -104.031 -34.582 24
      vertex -104.042 -34.6299 -24
      vertex -104.042 -34.6299 24
    endloop
  endfacet
  facet normal -0.945804 0.324739 0
    outer loop
      vertex -104.018 -34.5347 -24
      vertex -104.002 -34.4881 24
      vertex -104.002 -34.4881 -24
    endloop
  endfacet
  facet normal -0.945804 0.324739 0
    outer loop
      vertex -104.002 -34.4881 24
      vertex -104.018 -34.5347 -24
      vertex -104.018 -34.5347 24
    endloop
  endfacet
  facet normal -0.964244 -0.265014 0
    outer loop
      vertex -104.018 -35.1153 -24
      vertex -104.031 -35.068 24
      vertex -104.031 -35.068 -24
    endloop
  endfacet
  facet normal -0.964244 -0.265014 0
    outer loop
      vertex -104.031 -35.068 24
      vertex -104.018 -35.1153 -24
      vertex -104.018 -35.1153 24
    endloop
  endfacet
  facet normal -0.819904 -0.572501 0
    outer loop
      vertex -103.864 -35.4207 -24
      vertex -103.892 -35.3806 24
      vertex -103.892 -35.3806 -24
    endloop
  endfacet
  facet normal -0.819904 -0.572501 0
    outer loop
      vertex -103.892 -35.3806 24
      vertex -103.864 -35.4207 -24
      vertex -103.864 -35.4207 24
    endloop
  endfacet
  facet normal -0.572501 0.819904 0
    outer loop
      vertex 34.2694 103.892 -24
      vertex 34.2293 103.864 24
      vertex 34.2694 103.892 24
    endloop
  endfacet
  facet normal -0.572501 0.819904 0
    outer loop
      vertex 34.2293 103.864 24
      vertex 34.2694 103.892 -24
      vertex 34.2293 103.864 -24
    endloop
  endfacet
  facet normal -0.545343 0.838213 0
    outer loop
      vertex 34.3109 103.919 -24
      vertex 34.2694 103.892 24
      vertex 34.3109 103.919 24
    endloop
  endfacet
  facet normal -0.545343 0.838213 0
    outer loop
      vertex 34.2694 103.892 24
      vertex 34.3109 103.919 -24
      vertex 34.2694 103.892 -24
    endloop
  endfacet
  facet normal -0.690669 0.723171 0
    outer loop
      vertex 34.1535 103.802 -24
      vertex 34.1179 103.768 24
      vertex 34.1535 103.802 24
    endloop
  endfacet
  facet normal -0.690669 0.723171 0
    outer loop
      vertex 34.1179 103.768 24
      vertex 34.1535 103.802 -24
      vertex 34.1179 103.768 -24
    endloop
  endfacet
  facet normal -0.819904 0.572501 0
    outer loop
      vertex -103.892 -34.2694 -24
      vertex -103.864 -34.2293 24
      vertex -103.864 -34.2293 -24
    endloop
  endfacet
  facet normal -0.819904 0.572501 0
    outer loop
      vertex -103.864 -34.2293 24
      vertex -103.892 -34.2694 -24
      vertex -103.892 -34.2694 24
    endloop
  endfacet
  facet normal -0.89402 0.448028 0
    outer loop
      vertex -103.965 -34.3975 -24
      vertex -103.943 -34.3536 24
      vertex -103.943 -34.3536 -24
    endloop
  endfacet
  facet normal -0.89402 0.448028 0
    outer loop
      vertex -103.943 -34.3536 24
      vertex -103.965 -34.3975 -24
      vertex -103.965 -34.3975 24
    endloop
  endfacet
  facet normal -0.871739 0.48997 0
    outer loop
      vertex -103.943 -34.3536 -24
      vertex -103.919 -34.3109 24
      vertex -103.919 -34.3109 -24
    endloop
  endfacet
  facet normal -0.871739 0.48997 0
    outer loop
      vertex -103.919 -34.3109 24
      vertex -103.943 -34.3536 -24
      vertex -103.943 -34.3536 24
    endloop
  endfacet
  facet normal -0.913138 0.407651 0
    outer loop
      vertex -103.985 -34.4423 -24
      vertex -103.965 -34.3975 24
      vertex -103.965 -34.3975 -24
    endloop
  endfacet
  facet normal -0.913138 0.407651 0
    outer loop
      vertex -103.965 -34.3975 24
      vertex -103.985 -34.4423 -24
      vertex -103.985 -34.4423 24
    endloop
  endfacet
  facet normal -0.163077 0.986613 0
    outer loop
      vertex 34.6783 104.05 -24
      vertex 34.6299 104.042 24
      vertex 34.6783 104.05 24
    endloop
  endfacet
  facet normal -0.163077 0.986613 0
    outer loop
      vertex 34.6299 104.042 24
      vertex 34.6783 104.05 -24
      vertex 34.6299 104.042 -24
    endloop
  endfacet
  facet normal 0.612667 0.790341 -0
    outer loop
      vertex 35.4594 103.834 -24
      vertex 35.4207 103.864 24
      vertex 35.4594 103.834 24
    endloop
  endfacet
  facet normal 0.612667 0.790341 0
    outer loop
      vertex 35.4207 103.864 24
      vertex 35.4594 103.834 -24
      vertex 35.4207 103.864 -24
    endloop
  endfacet
  facet normal 0.448845 0.89361 -0
    outer loop
      vertex 35.2964 103.943 -24
      vertex 35.2526 103.965 24
      vertex 35.2964 103.943 24
    endloop
  endfacet
  facet normal 0.448845 0.89361 0
    outer loop
      vertex 35.2526 103.965 24
      vertex 35.2964 103.943 -24
      vertex 35.2526 103.965 -24
    endloop
  endfacet
  facet normal 0.964244 -0.265014 0
    outer loop
      vertex 104.018 34.5347 24
      vertex 104.031 34.582 -24
      vertex 104.031 34.582 24
    endloop
  endfacet
  facet normal 0.964244 -0.265014 0
    outer loop
      vertex 104.031 34.582 -24
      vertex 104.018 34.5347 24
      vertex 104.018 34.5347 -24
    endloop
  endfacet
  facet normal 0.999793 0.0203624 0
    outer loop
      vertex 104.061 34.825 24
      vertex 104.06 34.8741 -24
      vertex 104.06 34.8741 24
    endloop
  endfacet
  facet normal 0.999793 0.0203624 0
    outer loop
      vertex 104.06 34.8741 -24
      vertex 104.061 34.825 24
      vertex 104.061 34.825 -24
    endloop
  endfacet
  facet normal 0.992496 0.122279 0
    outer loop
      vertex 104.056 34.923 24
      vertex 104.05 34.9717 -24
      vertex 104.05 34.9717 24
    endloop
  endfacet
  facet normal 0.992496 0.122279 0
    outer loop
      vertex 104.05 34.9717 -24
      vertex 104.056 34.923 24
      vertex 104.056 34.923 -24
    endloop
  endfacet
  facet normal 0.838213 0.545343 0
    outer loop
      vertex 103.919 35.3391 24
      vertex 103.892 35.3806 -24
      vertex 103.892 35.3806 24
    endloop
  endfacet
  facet normal 0.838213 0.545343 0
    outer loop
      vertex 103.892 35.3806 -24
      vertex 103.919 35.3391 24
      vertex 103.919 35.3391 -24
    endloop
  endfacet
  facet normal 0.7222 0.691684 0
    outer loop
      vertex 103.802 35.4966 24
      vertex 103.768 35.5321 -24
      vertex 103.768 35.5321 24
    endloop
  endfacet
  facet normal 0.7222 0.691684 0
    outer loop
      vertex 103.768 35.5321 -24
      vertex 103.802 35.4966 24
      vertex 103.802 35.4966 -24
    endloop
  endfacet
  facet normal 0.945804 0.324739 0
    outer loop
      vertex 104.018 35.1153 24
      vertex 104.002 35.1619 -24
      vertex 104.002 35.1619 24
    endloop
  endfacet
  facet normal 0.945804 0.324739 0
    outer loop
      vertex 104.002 35.1619 -24
      vertex 104.018 35.1153 24
      vertex 104.018 35.1153 -24
    endloop
  endfacet
  facet normal 0.974631 0.223819 0
    outer loop
      vertex 104.042 35.0201 24
      vertex 104.031 35.068 -24
      vertex 104.031 35.068 24
    endloop
  endfacet
  facet normal 0.974631 0.223819 0
    outer loop
      vertex 104.031 35.068 -24
      vertex 104.042 35.0201 24
      vertex 104.042 35.0201 -24
    endloop
  endfacet
  facet normal -0.163077 -0.986613 0
    outer loop
      vertex -35.0201 -104.042 -24
      vertex -34.9717 -104.05 24
      vertex -35.0201 -104.042 24
    endloop
  endfacet
  facet normal -0.163077 -0.986613 -0
    outer loop
      vertex -34.9717 -104.05 24
      vertex -35.0201 -104.042 -24
      vertex -34.9717 -104.05 -24
    endloop
  endfacet
  facet normal -0.406893 -0.913476 0
    outer loop
      vertex -35.2526 -103.965 -24
      vertex -35.2077 -103.985 24
      vertex -35.2526 -103.965 24
    endloop
  endfacet
  facet normal -0.406893 -0.913476 -0
    outer loop
      vertex -35.2077 -103.985 24
      vertex -35.2526 -103.965 -24
      vertex -35.2077 -103.985 -24
    endloop
  endfacet
  facet normal -0.48997 -0.871739 0
    outer loop
      vertex -35.3391 -103.919 -24
      vertex -35.2964 -103.943 24
      vertex -35.3391 -103.919 24
    endloop
  endfacet
  facet normal -0.48997 -0.871739 -0
    outer loop
      vertex -35.2964 -103.943 24
      vertex -35.3391 -103.919 -24
      vertex -35.2964 -103.943 -24
    endloop
  endfacet
  facet normal 0 0 -1
    outer loop
      vertex 104.06 34.7759 -24
      vertex 104.06 34.8741 -24
      vertex 104.061 34.825 -24
    endloop
  endfacet
  facet normal 0 0 -1
    outer loop
      vertex 104.056 34.727 -24
      vertex 104.06 34.8741 -24
      vertex 104.06 34.7759 -24
    endloop
  endfacet
  facet normal 0 0 -1
    outer loop
      vertex 104.056 34.727 -24
      vertex 104.056 34.923 -24
      vertex 104.06 34.8741 -24
    endloop
  endfacet
  facet normal 0 0 -1
    outer loop
      vertex 104.05 34.6783 -24
      vertex 104.056 34.923 -24
      vertex 104.056 34.727 -24
    endloop
  endfacet
  facet normal 0 0 -1
    outer loop
      vertex 104.05 34.6783 -24
      vertex 104.05 34.9717 -24
      vertex 104.056 34.923 -24
    endloop
  endfacet
  facet normal 0 0 -1
    outer loop
      vertex 104.042 34.6299 -24
      vertex 104.05 34.9717 -24
      vertex 104.05 34.6783 -24
    endloop
  endfacet
  facet normal 0 0 -1
    outer loop
      vertex 104.042 34.6299 -24
      vertex 104.042 35.0201 -24
      vertex 104.05 34.9717 -24
    endloop
  endfacet
  facet normal 0 0 -1
    outer loop
      vertex 104.031 34.582 -24
      vertex 104.042 35.0201 -24
      vertex 104.042 34.6299 -24
    endloop
  endfacet
  facet normal 0 0 -1
    outer loop
      vertex 104.031 34.582 -24
      vertex 104.031 35.068 -24
      vertex 104.042 35.0201 -24
    endloop
  endfacet
  facet normal 0 0 -1
    outer loop
      vertex 104.018 34.5347 -24
      vertex 104.031 35.068 -24
      vertex 104.031 34.582 -24
    endloop
  endfacet
  facet normal 0 0 -1
    outer loop
      vertex 104.018 34.5347 -24
      vertex 104.018 35.1153 -24
      vertex 104.031 35.068 -24
    endloop
  endfacet
  facet normal 0 0 -1
    outer loop
      vertex 104.002 34.4881 -24
      vertex 104.018 35.1153 -24
      vertex 104.018 34.5347 -24
    endloop
  endfacet
  facet normal 0 0 -1
    outer loop
      vertex 104.002 34.4881 -24
      vertex 104.002 35.1619 -24
      vertex 104.018 35.1153 -24
    endloop
  endfacet
  facet normal 0 0 -1
    outer loop
      vertex 103.985 34.4423 -24
      vertex 104.002 35.1619 -24
      vertex 104.002 34.4881 -24
    endloop
  endfacet
  facet normal 0 0 -1
    outer loop
      vertex 103.985 34.4423 -24
      vertex 103.985 35.2077 -24
      vertex 104.002 35.1619 -24
    endloop
  endfacet
  facet normal 0 0 -1
    outer loop
      vertex 103.965 34.3975 -24
      vertex 103.985 35.2077 -24
      vertex 103.985 34.4423 -24
    endloop
  endfacet
  facet normal 0 0 -1
    outer loop
      vertex 103.965 34.3975 -24
      vertex 103.965 35.2526 -24
      vertex 103.985 35.2077 -24
    endloop
  endfacet
  facet normal 0 0 -1
    outer loop
      vertex 103.943 34.3536 -24
      vertex 103.965 35.2526 -24
      vertex 103.965 34.3975 -24
    endloop
  endfacet
  facet normal 0 0 -1
    outer loop
      vertex 103.943 34.3536 -24
      vertex 103.943 35.2964 -24
      vertex 103.965 35.2526 -24
    endloop
  endfacet
  facet normal 0 0 -1
    outer loop
      vertex 103.919 34.3109 -24
      vertex 103.943 35.2964 -24
      vertex 103.943 34.3536 -24
    endloop
  endfacet
  facet normal 0 0 -1
    outer loop
      vertex 103.919 34.3109 -24
      vertex 103.919 35.3391 -24
      vertex 103.943 35.2964 -24
    endloop
  endfacet
  facet normal 0 0 -1
    outer loop
      vertex 103.892 34.2694 -24
      vertex 103.919 35.3391 -24
      vertex 103.919 34.3109 -24
    endloop
  endfacet
  facet normal 0 0 -1
    outer loop
      vertex 103.892 34.2694 -24
      vertex 103.892 35.3806 -24
      vertex 103.919 35.3391 -24
    endloop
  endfacet
  facet normal 0 0 -1
    outer loop
      vertex 103.864 34.2293 -24
      vertex 103.892 35.3806 -24
      vertex 103.892 34.2694 -24
    endloop
  endfacet
  facet normal 0 0 -1
    outer loop
      vertex 103.864 34.2293 -24
      vertex 103.864 35.4207 -24
      vertex 103.892 35.3806 -24
    endloop
  endfacet
  facet normal 0 0 -1
    outer loop
      vertex 103.834 34.1906 -24
      vertex 103.864 35.4207 -24
      vertex 103.864 34.2293 -24
    endloop
  endfacet
  facet normal 0 0 -1
    outer loop
      vertex 103.834 34.1906 -24
      vertex 103.834 35.4594 -24
      vertex 103.864 35.4207 -24
    endloop
  endfacet
  facet normal 0 0 -1
    outer loop
      vertex 103.802 34.1535 -24
      vertex 103.834 35.4594 -24
      vertex 103.834 34.1906 -24
    endloop
  endfacet
  facet normal 0 0 -1
    outer loop
      vertex 103.802 34.1535 -24
      vertex 103.802 35.4966 -24
      vertex 103.834 35.4594 -24
    endloop
  endfacet
  facet normal 0 0 -1
    outer loop
      vertex 103.768 34.1179 -24
      vertex 103.802 35.4966 -24
      vertex 103.802 34.1535 -24
    endloop
  endfacet
  facet normal 0 0 -1
    outer loop
      vertex 103.768 34.1179 -24
      vertex 103.768 35.5321 -24
      vertex 103.802 35.4966 -24
    endloop
  endfacet
  facet normal 0 0 -1
    outer loop
      vertex 103.768 34.1179 -24
      vertex 35.5321 103.768 -24
      vertex 103.768 35.5321 -24
    endloop
  endfacet
  facet normal 0 0 -1
    outer loop
      vertex 34.1179 103.768 -24
      vertex 35.5321 103.768 -24
      vertex 103.768 34.1179 -24
    endloop
  endfacet
  facet normal 0 0 -1
    outer loop
      vertex 35.5321 103.768 -24
      vertex 34.1179 103.768 -24
      vertex 35.4966 103.802 -24
    endloop
  endfacet
  facet normal -0 0 -1
    outer loop
      vertex 35.4966 103.802 -24
      vertex 34.1179 103.768 -24
      vertex 35.4594 103.834 -24
    endloop
  endfacet
  facet normal -0 0 -1
    outer loop
      vertex 35.4594 103.834 -24
      vertex 34.1179 103.768 -24
      vertex 35.4207 103.864 -24
    endloop
  endfacet
  facet normal -0 0 -1
    outer loop
      vertex 35.4207 103.864 -24
      vertex 34.1179 103.768 -24
      vertex 35.3806 103.892 -24
    endloop
  endfacet
  facet normal -0 0 -1
    outer loop
      vertex 35.3806 103.892 -24
      vertex 34.1179 103.768 -24
      vertex 35.3391 103.919 -24
    endloop
  endfacet
  facet normal -0 0 -1
    outer loop
      vertex 35.3391 103.919 -24
      vertex 34.1179 103.768 -24
      vertex 35.2964 103.943 -24
    endloop
  endfacet
  facet normal -0 0 -1
    outer loop
      vertex 35.2964 103.943 -24
      vertex 34.1179 103.768 -24
      vertex 35.2526 103.965 -24
    endloop
  endfacet
  facet normal -0 0 -1
    outer loop
      vertex 35.2526 103.965 -24
      vertex 34.1179 103.768 -24
      vertex 35.2077 103.985 -24
    endloop
  endfacet
  facet normal -0 0 -1
    outer loop
      vertex 35.2077 103.985 -24
      vertex 34.1179 103.768 -24
      vertex 35.1619 104.002 -24
    endloop
  endfacet
  facet normal -0 0 -1
    outer loop
      vertex 35.1619 104.002 -24
      vertex 34.1179 103.768 -24
      vertex 35.1153 104.018 -24
    endloop
  endfacet
  facet normal -0 0 -1
    outer loop
      vertex 35.1153 104.018 -24
      vertex 34.1179 103.768 -24
      vertex 35.068 104.031 -24
    endloop
  endfacet
  facet normal -0 0 -1
    outer loop
      vertex 35.068 104.031 -24
      vertex 34.1179 103.768 -24
      vertex 35.0201 104.042 -24
    endloop
  endfacet
  facet normal -0 0 -1
    outer loop
      vertex 35.0201 104.042 -24
      vertex 34.1179 103.768 -24
      vertex 34.9717 104.05 -24
    endloop
  endfacet
  facet normal -0 0 -1
    outer loop
      vertex 34.9717 104.05 -24
      vertex 34.1179 103.768 -24
      vertex 34.923 104.056 -24
    endloop
  endfacet
  facet normal -0 0 -1
    outer loop
      vertex 34.923 104.056 -24
      vertex 34.1179 103.768 -24
      vertex 34.8741 104.06 -24
    endloop
  endfacet
  facet normal -0 0 -1
    outer loop
      vertex 34.8741 104.06 -24
      vertex 34.1179 103.768 -24
      vertex 34.825 104.061 -24
    endloop
  endfacet
  facet normal 0 0 -1
    outer loop
      vertex 34.825 104.061 -24
      vertex 34.1179 103.768 -24
      vertex 34.7759 104.06 -24
    endloop
  endfacet
  facet normal 0 0 -1
    outer loop
      vertex 34.7759 104.06 -24
      vertex 34.1179 103.768 -24
      vertex 34.727 104.056 -24
    endloop
  endfacet
  facet normal 0 0 -1
    outer loop
      vertex 34.727 104.056 -24
      vertex 34.1179 103.768 -24
      vertex 34.6783 104.05 -24
    endloop
  endfacet
  facet normal 0 0 -1
    outer loop
      vertex 34.6783 104.05 -24
      vertex 34.1179 103.768 -24
      vertex 34.6299 104.042 -24
    endloop
  endfacet
  facet normal 0 0 -1
    outer loop
      vertex 34.6299 104.042 -24
      vertex 34.1179 103.768 -24
      vertex 34.582 104.031 -24
    endloop
  endfacet
  facet normal 0 0 -1
    outer loop
      vertex 34.582 104.031 -24
      vertex 34.1179 103.768 -24
      vertex 34.5347 104.018 -24
    endloop
  endfacet
  facet normal 0 0 -1
    outer loop
      vertex 34.5347 104.018 -24
      vertex 34.1179 103.768 -24
      vertex 34.4881 104.002 -24
    endloop
  endfacet
  facet normal 0 0 -1
    outer loop
      vertex 34.4881 104.002 -24
      vertex 34.1179 103.768 -24
      vertex 34.4423 103.985 -24
    endloop
  endfacet
  facet normal 0 0 -1
    outer loop
      vertex 34.4423 103.985 -24
      vertex 34.1179 103.768 -24
      vertex 34.3975 103.965 -24
    endloop
  endfacet
  facet normal 0 0 -1
    outer loop
      vertex 34.3975 103.965 -24
      vertex 34.1179 103.768 -24
      vertex 34.3536 103.943 -24
    endloop
  endfacet
  facet normal 0 0 -1
    outer loop
      vertex 34.3536 103.943 -24
      vertex 34.1179 103.768 -24
      vertex 34.3109 103.919 -24
    endloop
  endfacet
  facet normal 0 0 -1
    outer loop
      vertex 34.3109 103.919 -24
      vertex 34.1179 103.768 -24
      vertex 34.2694 103.892 -24
    endloop
  endfacet
  facet normal 0 0 -1
    outer loop
      vertex 34.2694 103.892 -24
      vertex 34.1179 103.768 -24
      vertex 34.2293 103.864 -24
    endloop
  endfacet
  facet normal 0 0 -1
    outer loop
      vertex 34.2293 103.864 -24
      vertex 34.1179 103.768 -24
      vertex 34.1906 103.834 -24
    endloop
  endfacet
  facet normal 0 0 -1
    outer loop
      vertex 34.1906 103.834 -24
      vertex 34.1179 103.768 -24
      vertex 34.1535 103.802 -24
    endloop
  endfacet
  facet normal 0 0 -1
    outer loop
      vertex -34.1179 -103.768 -24
      vertex 34.1179 103.768 -24
      vertex 103.768 34.1179 -24
    endloop
  endfacet
  facet normal 0 0 -1
    outer loop
      vertex -35.5321 -103.768 -24
      vertex -34.1179 -103.768 -24
      vertex -34.1535 -103.802 -24
    endloop
  endfacet
  facet normal 0 0 -1
    outer loop
      vertex -35.5321 -103.768 -24
      vertex -34.1535 -103.802 -24
      vertex -34.1906 -103.834 -24
    endloop
  endfacet
  facet normal 0 0 -1
    outer loop
      vertex -35.5321 -103.768 -24
      vertex -34.1906 -103.834 -24
      vertex -34.2293 -103.864 -24
    endloop
  endfacet
  facet normal 0 0 -1
    outer loop
      vertex -35.5321 -103.768 -24
      vertex -34.2293 -103.864 -24
      vertex -34.2694 -103.892 -24
    endloop
  endfacet
  facet normal 0 0 -1
    outer loop
      vertex -35.5321 -103.768 -24
      vertex -34.2694 -103.892 -24
      vertex -34.3109 -103.919 -24
    endloop
  endfacet
  facet normal 0 0 -1
    outer loop
      vertex -35.5321 -103.768 -24
      vertex -34.3109 -103.919 -24
      vertex -34.3536 -103.943 -24
    endloop
  endfacet
  facet normal 0 0 -1
    outer loop
      vertex -35.5321 -103.768 -24
      vertex -34.3536 -103.943 -24
      vertex -34.3975 -103.965 -24
    endloop
  endfacet
  facet normal 0 0 -1
    outer loop
      vertex -35.5321 -103.768 -24
      vertex -34.3975 -103.965 -24
      vertex -34.4423 -103.985 -24
    endloop
  endfacet
  facet normal 0 0 -1
    outer loop
      vertex -35.5321 -103.768 -24
      vertex -34.4423 -103.985 -24
      vertex -34.4881 -104.002 -24
    endloop
  endfacet
  facet normal 0 0 -1
    outer loop
      vertex -35.5321 -103.768 -24
      vertex -34.4881 -104.002 -24
      vertex -34.5347 -104.018 -24
    endloop
  endfacet
  facet normal 0 0 -1
    outer loop
      vertex -35.5321 -103.768 -24
      vertex -34.5347 -104.018 -24
      vertex -34.582 -104.031 -24
    endloop
  endfacet
  facet normal 0 0 -1
    outer loop
      vertex -35.5321 -103.768 -24
      vertex -34.582 -104.031 -24
      vertex -34.6299 -104.042 -24
    endloop
  endfacet
  facet normal 0 0 -1
    outer loop
      vertex -35.5321 -103.768 -24
      vertex -34.6299 -104.042 -24
      vertex -34.6783 -104.05 -24
    endloop
  endfacet
  facet normal 0 0 -1
    outer loop
      vertex -35.5321 -103.768 -24
      vertex -34.6783 -104.05 -24
      vertex -34.727 -104.056 -24
    endloop
  endfacet
  facet normal 0 0 -1
    outer loop
      vertex -35.5321 -103.768 -24
      vertex -34.727 -104.056 -24
      vertex -34.7759 -104.06 -24
    endloop
  endfacet
  facet normal 0 0 -1
    outer loop
      vertex -35.5321 -103.768 -24
      vertex -34.7759 -104.06 -24
      vertex -34.825 -104.061 -24
    endloop
  endfacet
  facet normal 0 0 -1
    outer loop
      vertex -35.5321 -103.768 -24
      vertex -34.825 -104.061 -24
      vertex -34.8741 -104.06 -24
    endloop
  endfacet
  facet normal 0 0 -1
    outer loop
      vertex -35.5321 -103.768 -24
      vertex -34.8741 -104.06 -24
      vertex -34.923 -104.056 -24
    endloop
  endfacet
  facet normal 0 0 -1
    outer loop
      vertex -35.5321 -103.768 -24
      vertex -34.923 -104.056 -24
      vertex -34.9717 -104.05 -24
    endloop
  endfacet
  facet normal 0 0 -1
    outer loop
      vertex -35.5321 -103.768 -24
      vertex -34.9717 -104.05 -24
      vertex -35.0201 -104.042 -24
    endloop
  endfacet
  facet normal 0 0 -1
    outer loop
      vertex -35.5321 -103.768 -24
      vertex -35.0201 -104.042 -24
      vertex -35.068 -104.031 -24
    endloop
  endfacet
  facet normal 0 0 -1
    outer loop
      vertex -35.5321 -103.768 -24
      vertex -35.068 -104.031 -24
      vertex -35.1153 -104.018 -24
    endloop
  endfacet
  facet normal 0 0 -1
    outer loop
      vertex -35.5321 -103.768 -24
      vertex -35.1153 -104.018 -24
      vertex -35.1619 -104.002 -24
    endloop
  endfacet
  facet normal 0 0 -1
    outer loop
      vertex -35.5321 -103.768 -24
      vertex -35.1619 -104.002 -24
      vertex -35.2077 -103.985 -24
    endloop
  endfacet
  facet normal 0 0 -1
    outer loop
      vertex -35.5321 -103.768 -24
      vertex -35.2077 -103.985 -24
      vertex -35.2526 -103.965 -24
    endloop
  endfacet
  facet normal 0 0 -1
    outer loop
      vertex -35.5321 -103.768 -24
      vertex -35.2526 -103.965 -24
      vertex -35.2964 -103.943 -24
    endloop
  endfacet
  facet normal 0 0 -1
    outer loop
      vertex -35.5321 -103.768 -24
      vertex -35.2964 -103.943 -24
      vertex -35.3391 -103.919 -24
    endloop
  endfacet
  facet normal 0 0 -1
    outer loop
      vertex -35.5321 -103.768 -24
      vertex -35.3391 -103.919 -24
      vertex -35.3806 -103.892 -24
    endloop
  endfacet
  facet normal 0 0 -1
    outer loop
      vertex -35.5321 -103.768 -24
      vertex -35.3806 -103.892 -24
      vertex -35.4207 -103.864 -24
    endloop
  endfacet
  facet normal 0 0 -1
    outer loop
      vertex -35.5321 -103.768 -24
      vertex -35.4207 -103.864 -24
      vertex -35.4594 -103.834 -24
    endloop
  endfacet
  facet normal 0 0 -1
    outer loop
      vertex -35.5321 -103.768 -24
      vertex -35.4594 -103.834 -24
      vertex -35.4966 -103.802 -24
    endloop
  endfacet
  facet normal 0 0 -1
    outer loop
      vertex -34.1179 -103.768 -24
      vertex -35.5321 -103.768 -24
      vertex -103.768 -34.1179 -24
    endloop
  endfacet
  facet normal 0 0 -1
    outer loop
      vertex -103.768 -34.1179 -24
      vertex -35.5321 -103.768 -24
      vertex -103.768 -35.5321 -24
    endloop
  endfacet
  facet normal 0 0 -1
    outer loop
      vertex -34.1179 -103.768 -24
      vertex -103.768 -34.1179 -24
      vertex 34.1179 103.768 -24
    endloop
  endfacet
  facet normal 0 0 -1
    outer loop
      vertex -103.802 -35.4966 -24
      vertex -103.768 -34.1179 -24
      vertex -103.768 -35.5321 -24
    endloop
  endfacet
  facet normal 0 0 -1
    outer loop
      vertex -103.802 -35.4966 -24
      vertex -103.802 -34.1535 -24
      vertex -103.768 -34.1179 -24
    endloop
  endfacet
  facet normal 0 0 -1
    outer loop
      vertex -103.834 -35.4594 -24
      vertex -103.802 -34.1535 -24
      vertex -103.802 -35.4966 -24
    endloop
  endfacet
  facet normal 0 0 -1
    outer loop
      vertex -103.834 -35.4594 -24
      vertex -103.834 -34.1906 -24
      vertex -103.802 -34.1535 -24
    endloop
  endfacet
  facet normal 0 0 -1
    outer loop
      vertex -103.864 -35.4207 -24
      vertex -103.834 -34.1906 -24
      vertex -103.834 -35.4594 -24
    endloop
  endfacet
  facet normal 0 0 -1
    outer loop
      vertex -103.864 -35.4207 -24
      vertex -103.864 -34.2293 -24
      vertex -103.834 -34.1906 -24
    endloop
  endfacet
  facet normal 0 0 -1
    outer loop
      vertex -103.892 -35.3806 -24
      vertex -103.864 -34.2293 -24
      vertex -103.864 -35.4207 -24
    endloop
  endfacet
  facet normal 0 0 -1
    outer loop
      vertex -103.892 -35.3806 -24
      vertex -103.892 -34.2694 -24
      vertex -103.864 -34.2293 -24
    endloop
  endfacet
  facet normal 0 0 -1
    outer loop
      vertex -103.919 -35.3391 -24
      vertex -103.892 -34.2694 -24
      vertex -103.892 -35.3806 -24
    endloop
  endfacet
  facet normal 0 0 -1
    outer loop
      vertex -103.919 -35.3391 -24
      vertex -103.919 -34.3109 -24
      vertex -103.892 -34.2694 -24
    endloop
  endfacet
  facet normal 0 0 -1
    outer loop
      vertex -103.943 -35.2964 -24
      vertex -103.919 -34.3109 -24
      vertex -103.919 -35.3391 -24
    endloop
  endfacet
  facet normal 0 0 -1
    outer loop
      vertex -103.943 -35.2964 -24
      vertex -103.943 -34.3536 -24
      vertex -103.919 -34.3109 -24
    endloop
  endfacet
  facet normal 0 0 -1
    outer loop
      vertex -103.965 -35.2526 -24
      vertex -103.943 -34.3536 -24
      vertex -103.943 -35.2964 -24
    endloop
  endfacet
  facet normal 0 0 -1
    outer loop
      vertex -103.965 -35.2526 -24
      vertex -103.965 -34.3975 -24
      vertex -103.943 -34.3536 -24
    endloop
  endfacet
  facet normal 0 0 -1
    outer loop
      vertex -103.985 -35.2077 -24
      vertex -103.965 -34.3975 -24
      vertex -103.965 -35.2526 -24
    endloop
  endfacet
  facet normal 0 0 -1
    outer loop
      vertex -103.985 -35.2077 -24
      vertex -103.985 -34.4423 -24
      vertex -103.965 -34.3975 -24
    endloop
  endfacet
  facet normal 0 0 -1
    outer loop
      vertex -104.002 -35.1619 -24
      vertex -103.985 -34.4423 -24
      vertex -103.985 -35.2077 -24
    endloop
  endfacet
  facet normal 0 0 -1
    outer loop
      vertex -104.002 -35.1619 -24
      vertex -104.002 -34.4881 -24
      vertex -103.985 -34.4423 -24
    endloop
  endfacet
  facet normal 0 0 -1
    outer loop
      vertex -104.018 -35.1153 -24
      vertex -104.002 -34.4881 -24
      vertex -104.002 -35.1619 -24
    endloop
  endfacet
  facet normal 0 0 -1
    outer loop
      vertex -104.018 -35.1153 -24
      vertex -104.018 -34.5347 -24
      vertex -104.002 -34.4881 -24
    endloop
  endfacet
  facet normal 0 0 -1
    outer loop
      vertex -104.031 -35.068 -24
      vertex -104.018 -34.5347 -24
      vertex -104.018 -35.1153 -24
    endloop
  endfacet
  facet normal 0 0 -1
    outer loop
      vertex -104.031 -35.068 -24
      vertex -104.031 -34.582 -24
      vertex -104.018 -34.5347 -24
    endloop
  endfacet
  facet normal 0 0 -1
    outer loop
      vertex -104.042 -35.0201 -24
      vertex -104.031 -34.582 -24
      vertex -104.031 -35.068 -24
    endloop
  endfacet
  facet normal 0 0 -1
    outer loop
      vertex -104.042 -35.0201 -24
      vertex -104.042 -34.6299 -24
      vertex -104.031 -34.582 -24
    endloop
  endfacet
  facet normal 0 0 -1
    outer loop
      vertex -104.05 -34.9717 -24
      vertex -104.042 -34.6299 -24
      vertex -104.042 -35.0201 -24
    endloop
  endfacet
  facet normal 0 0 -1
    outer loop
      vertex -104.05 -34.9717 -24
      vertex -104.05 -34.6783 -24
      vertex -104.042 -34.6299 -24
    endloop
  endfacet
  facet normal 0 0 -1
    outer loop
      vertex -104.056 -34.923 -24
      vertex -104.05 -34.6783 -24
      vertex -104.05 -34.9717 -24
    endloop
  endfacet
  facet normal 0 0 -1
    outer loop
      vertex -104.056 -34.923 -24
      vertex -104.056 -34.727 -24
      vertex -104.05 -34.6783 -24
    endloop
  endfacet
  facet normal 0 0 -1
    outer loop
      vertex -104.06 -34.8741 -24
      vertex -104.056 -34.727 -24
      vertex -104.056 -34.923 -24
    endloop
  endfacet
  facet normal 0 0 -1
    outer loop
      vertex -104.06 -34.8741 -24
      vertex -104.06 -34.7759 -24
      vertex -104.056 -34.727 -24
    endloop
  endfacet
  facet normal 0 -0 -1
    outer loop
      vertex -104.06 -34.7759 -24
      vertex -104.06 -34.8741 -24
      vertex -104.061 -34.825 -24
    endloop
  endfacet
  facet normal -0.992496 -0.122279 0
    outer loop
      vertex -104.05 -34.9717 -24
      vertex -104.056 -34.923 24
      vertex -104.056 -34.923 -24
    endloop
  endfacet
  facet normal -0.992496 -0.122279 0
    outer loop
      vertex -104.056 -34.923 24
      vertex -104.05 -34.9717 -24
      vertex -104.05 -34.9717 24
    endloop
  endfacet
  facet normal -0.913476 -0.406893 0
    outer loop
      vertex -103.965 -35.2526 -24
      vertex -103.985 -35.2077 24
      vertex -103.985 -35.2077 -24
    endloop
  endfacet
  facet normal -0.913476 -0.406893 0
    outer loop
      vertex -103.985 -35.2077 24
      vertex -103.965 -35.2526 -24
      vertex -103.965 -35.2526 24
    endloop
  endfacet
  facet normal -0.790341 -0.612667 0
    outer loop
      vertex -103.834 -35.4594 -24
      vertex -103.864 -35.4207 24
      vertex -103.864 -35.4207 -24
    endloop
  endfacet
  facet normal -0.790341 -0.612667 0
    outer loop
      vertex -103.864 -35.4207 24
      vertex -103.834 -35.4594 -24
      vertex -103.834 -35.4594 24
    endloop
  endfacet
  facet normal -0.7222 -0.691684 0
    outer loop
      vertex -103.768 -35.5321 -24
      vertex -103.802 -35.4966 24
      vertex -103.802 -35.4966 -24
    endloop
  endfacet
  facet normal -0.7222 -0.691684 0
    outer loop
      vertex -103.802 -35.4966 24
      vertex -103.768 -35.5321 -24
      vertex -103.768 -35.5321 24
    endloop
  endfacet
  facet normal -0.653141 0.757236 0
    outer loop
      vertex 34.1906 103.834 -24
      vertex 34.1535 103.802 24
      vertex 34.1906 103.834 24
    endloop
  endfacet
  facet normal -0.653141 0.757236 0
    outer loop
      vertex 34.1535 103.802 24
      vertex 34.1906 103.834 -24
      vertex 34.1535 103.802 -24
    endloop
  endfacet
  facet normal -0.757236 0.653141 0
    outer loop
      vertex -103.834 -34.1906 -24
      vertex -103.802 -34.1535 24
      vertex -103.802 -34.1535 -24
    endloop
  endfacet
  facet normal -0.757236 0.653141 0
    outer loop
      vertex -103.802 -34.1535 24
      vertex -103.834 -34.1906 -24
      vertex -103.834 -34.1906 24
    endloop
  endfacet
  facet normal -0.723171 0.690669 0
    outer loop
      vertex -103.802 -34.1535 -24
      vertex -103.768 -34.1179 24
      vertex -103.768 -34.1179 -24
    endloop
  endfacet
  facet normal -0.723171 0.690669 0
    outer loop
      vertex -103.768 -34.1179 24
      vertex -103.802 -34.1535 -24
      vertex -103.802 -34.1535 24
    endloop
  endfacet
  facet normal -0.265014 0.964244 0
    outer loop
      vertex 34.582 104.031 -24
      vertex 34.5347 104.018 24
      vertex 34.582 104.031 24
    endloop
  endfacet
  facet normal -0.265014 0.964244 0
    outer loop
      vertex 34.5347 104.018 24
      vertex 34.582 104.031 -24
      vertex 34.5347 104.018 -24
    endloop
  endfacet
  facet normal -0.122279 0.992496 0
    outer loop
      vertex 34.727 104.056 -24
      vertex 34.6783 104.05 24
      vertex 34.727 104.056 24
    endloop
  endfacet
  facet normal -0.122279 0.992496 0
    outer loop
      vertex 34.6783 104.05 24
      vertex 34.727 104.056 -24
      vertex 34.6783 104.05 -24
    endloop
  endfacet
  facet normal 0.0815273 0.996671 -0
    outer loop
      vertex 34.923 104.056 -24
      vertex 34.8741 104.06 24
      vertex 34.923 104.056 24
    endloop
  endfacet
  facet normal 0.0815273 0.996671 0
    outer loop
      vertex 34.8741 104.06 24
      vertex 34.923 104.056 -24
      vertex 34.8741 104.06 -24
    endloop
  endfacet
  facet normal 0.0203624 0.999793 -0
    outer loop
      vertex 34.8741 104.06 -24
      vertex 34.825 104.061 24
      vertex 34.8741 104.06 24
    endloop
  endfacet
  facet normal 0.0203624 0.999793 0
    outer loop
      vertex 34.825 104.061 24
      vertex 34.8741 104.06 -24
      vertex 34.825 104.061 -24
    endloop
  endfacet
  facet normal 0.48997 0.871739 -0
    outer loop
      vertex 35.3391 103.919 -24
      vertex 35.2964 103.943 24
      vertex 35.3391 103.919 24
    endloop
  endfacet
  facet normal 0.48997 0.871739 0
    outer loop
      vertex 35.2964 103.943 24
      vertex 35.3391 103.919 -24
      vertex 35.2964 103.943 -24
    endloop
  endfacet
  facet normal 0.545343 0.838213 -0
    outer loop
      vertex 35.3806 103.892 -24
      vertex 35.3391 103.919 24
      vertex 35.3806 103.892 24
    endloop
  endfacet
  facet normal 0.545343 0.838213 0
    outer loop
      vertex 35.3391 103.919 24
      vertex 35.3806 103.892 -24
      vertex 35.3391 103.919 -24
    endloop
  endfacet
  facet normal 0.406893 0.913476 -0
    outer loop
      vertex 35.2526 103.965 -24
      vertex 35.2077 103.985 24
      vertex 35.2526 103.965 24
    endloop
  endfacet
  facet normal 0.406893 0.913476 0
    outer loop
      vertex 35.2077 103.985 24
      vertex 35.2526 103.965 -24
      vertex 35.2077 103.985 -24
    endloop
  endfacet
  facet normal 0.324739 0.945804 -0
    outer loop
      vertex 35.1619 104.002 -24
      vertex 35.1153 104.018 24
      vertex 35.1619 104.002 24
    endloop
  endfacet
  facet normal 0.324739 0.945804 0
    outer loop
      vertex 35.1153 104.018 24
      vertex 35.1619 104.002 -24
      vertex 35.1153 104.018 -24
    endloop
  endfacet
  facet normal 0.223819 0.974631 -0
    outer loop
      vertex 35.068 104.031 -24
      vertex 35.0201 104.042 24
      vertex 35.068 104.031 24
    endloop
  endfacet
  facet normal 0.223819 0.974631 0
    outer loop
      vertex 35.0201 104.042 24
      vertex 35.068 104.031 -24
      vertex 35.0201 104.042 -24
    endloop
  endfacet
  facet normal 0.974631 -0.223819 0
    outer loop
      vertex 104.031 34.582 24
      vertex 104.042 34.6299 -24
      vertex 104.042 34.6299 24
    endloop
  endfacet
  facet normal 0.974631 -0.223819 0
    outer loop
      vertex 104.042 34.6299 -24
      vertex 104.031 34.582 24
      vertex 104.031 34.582 -24
    endloop
  endfacet
  facet normal 0.999793 -0.0203624 0
    outer loop
      vertex 104.06 34.7759 24
      vertex 104.061 34.825 -24
      vertex 104.061 34.825 24
    endloop
  endfacet
  facet normal 0.999793 -0.0203624 0
    outer loop
      vertex 104.061 34.825 -24
      vertex 104.06 34.7759 24
      vertex 104.06 34.7759 -24
    endloop
  endfacet
  facet normal 0.819904 0.572501 0
    outer loop
      vertex 103.892 35.3806 24
      vertex 103.864 35.4207 -24
      vertex 103.864 35.4207 24
    endloop
  endfacet
  facet normal 0.819904 0.572501 0
    outer loop
      vertex 103.864 35.4207 -24
      vertex 103.892 35.3806 24
      vertex 103.892 35.3806 -24
    endloop
  endfacet
  facet normal 0.913476 0.406893 0
    outer loop
      vertex 103.985 35.2077 24
      vertex 103.965 35.2526 -24
      vertex 103.965 35.2526 24
    endloop
  endfacet
  facet normal 0.913476 0.406893 0
    outer loop
      vertex 103.965 35.2526 -24
      vertex 103.985 35.2077 24
      vertex 103.985 35.2077 -24
    endloop
  endfacet
  facet normal 0.964244 0.265014 0
    outer loop
      vertex 104.031 35.068 24
      vertex 104.018 35.1153 -24
      vertex 104.018 35.1153 24
    endloop
  endfacet
  facet normal 0.964244 0.265014 0
    outer loop
      vertex 104.018 35.1153 -24
      vertex 104.031 35.068 24
      vertex 104.031 35.068 -24
    endloop
  endfacet
  facet normal 0.757236 -0.653141 0
    outer loop
      vertex 103.802 34.1535 24
      vertex 103.834 34.1906 -24
      vertex 103.834 34.1906 24
    endloop
  endfacet
  facet normal 0.757236 -0.653141 0
    outer loop
      vertex 103.834 34.1906 -24
      vertex 103.802 34.1535 24
      vertex 103.802 34.1535 -24
    endloop
  endfacet
  facet normal 0.723171 -0.690669 0
    outer loop
      vertex 103.768 34.1179 24
      vertex 103.802 34.1535 -24
      vertex 103.802 34.1535 24
    endloop
  endfacet
  facet normal 0.723171 -0.690669 0
    outer loop
      vertex 103.802 34.1535 -24
      vertex 103.768 34.1179 24
      vertex 103.768 34.1179 -24
    endloop
  endfacet
  facet normal -0.223819 -0.974631 0
    outer loop
      vertex -35.068 -104.031 -24
      vertex -35.0201 -104.042 24
      vertex -35.068 -104.031 24
    endloop
  endfacet
  facet normal -0.223819 -0.974631 -0
    outer loop
      vertex -35.0201 -104.042 24
      vertex -35.068 -104.031 -24
      vertex -35.0201 -104.042 -24
    endloop
  endfacet
  facet normal -0.265014 -0.964244 0
    outer loop
      vertex -35.1153 -104.018 -24
      vertex -35.068 -104.031 24
      vertex -35.1153 -104.018 24
    endloop
  endfacet
  facet normal -0.265014 -0.964244 -0
    outer loop
      vertex -35.068 -104.031 24
      vertex -35.1153 -104.018 -24
      vertex -35.068 -104.031 -24
    endloop
  endfacet
  facet normal -0.347981 -0.937502 0
    outer loop
      vertex -35.2077 -103.985 -24
      vertex -35.1619 -104.002 24
      vertex -35.2077 -103.985 24
    endloop
  endfacet
  facet normal -0.347981 -0.937502 -0
    outer loop
      vertex -35.1619 -104.002 24
      vertex -35.2077 -103.985 -24
      vertex -35.1619 -104.002 -24
    endloop
  endfacet
  facet normal -0.545343 -0.838213 0
    outer loop
      vertex -35.3806 -103.892 -24
      vertex -35.3391 -103.919 24
      vertex -35.3806 -103.892 24
    endloop
  endfacet
  facet normal -0.545343 -0.838213 -0
    outer loop
      vertex -35.3391 -103.919 24
      vertex -35.3806 -103.892 -24
      vertex -35.3391 -103.919 -24
    endloop
  endfacet
  facet normal -0.572501 -0.819904 0
    outer loop
      vertex -35.4207 -103.864 -24
      vertex -35.3806 -103.892 24
      vertex -35.4207 -103.864 24
    endloop
  endfacet
  facet normal -0.572501 -0.819904 -0
    outer loop
      vertex -35.3806 -103.892 24
      vertex -35.4207 -103.864 -24
      vertex -35.3806 -103.892 -24
    endloop
  endfacet
  facet normal -0.999793 0.0203624 0
    outer loop
      vertex -104.061 -34.825 -24
      vertex -104.06 -34.7759 24
      vertex -104.06 -34.7759 -24
    endloop
  endfacet
  facet normal -0.999793 0.0203624 0
    outer loop
      vertex -104.06 -34.7759 24
      vertex -104.061 -34.825 -24
      vertex -104.061 -34.825 24
    endloop
  endfacet
  facet normal -0.996671 0.0815273 0
    outer loop
      vertex -104.06 -34.7759 -24
      vertex -104.056 -34.727 24
      vertex -104.056 -34.727 -24
    endloop
  endfacet
  facet normal -0.996671 0.0815273 0
    outer loop
      vertex -104.056 -34.727 24
      vertex -104.06 -34.7759 -24
      vertex -104.06 -34.7759 24
    endloop
  endfacet
  facet normal -0.937502 -0.347981 0
    outer loop
      vertex -103.985 -35.2077 -24
      vertex -104.002 -35.1619 24
      vertex -104.002 -35.1619 -24
    endloop
  endfacet
  facet normal -0.937502 -0.347981 0
    outer loop
      vertex -104.002 -35.1619 24
      vertex -103.985 -35.2077 -24
      vertex -103.985 -35.2077 24
    endloop
  endfacet
  facet normal -0.758105 -0.652133 0
    outer loop
      vertex -103.802 -35.4966 -24
      vertex -103.834 -35.4594 24
      vertex -103.834 -35.4594 -24
    endloop
  endfacet
  facet normal -0.758105 -0.652133 0
    outer loop
      vertex -103.834 -35.4594 24
      vertex -103.802 -35.4966 -24
      vertex -103.802 -35.4966 24
    endloop
  endfacet
  facet normal 0.122279 0.992496 -0
    outer loop
      vertex 34.9717 104.05 -24
      vertex 34.923 104.056 24
      vertex 34.9717 104.05 24
    endloop
  endfacet
  facet normal 0.122279 0.992496 0
    outer loop
      vertex 34.923 104.056 24
      vertex 34.9717 104.05 -24
      vertex 34.923 104.056 -24
    endloop
  endfacet
  facet normal 0.163077 0.986613 -0
    outer loop
      vertex 35.0201 104.042 -24
      vertex 34.9717 104.05 24
      vertex 35.0201 104.042 24
    endloop
  endfacet
  facet normal 0.163077 0.986613 0
    outer loop
      vertex 34.9717 104.05 24
      vertex 35.0201 104.042 -24
      vertex 34.9717 104.05 -24
    endloop
  endfacet
  facet normal -0.0815273 0.996671 0
    outer loop
      vertex 34.7759 104.06 -24
      vertex 34.727 104.056 24
      vertex 34.7759 104.06 24
    endloop
  endfacet
  facet normal -0.0815273 0.996671 0
    outer loop
      vertex 34.727 104.056 24
      vertex 34.7759 104.06 -24
      vertex 34.727 104.056 -24
    endloop
  endfacet
  facet normal -0.0203624 0.999793 0
    outer loop
      vertex 34.825 104.061 -24
      vertex 34.7759 104.06 24
      vertex 34.825 104.061 24
    endloop
  endfacet
  facet normal -0.0203624 0.999793 0
    outer loop
      vertex 34.7759 104.06 24
      vertex 34.825 104.061 -24
      vertex 34.7759 104.06 -24
    endloop
  endfacet
  facet normal 0.572501 0.819904 -0
    outer loop
      vertex 35.4207 103.864 -24
      vertex 35.3806 103.892 24
      vertex 35.4207 103.864 24
    endloop
  endfacet
  facet normal 0.572501 0.819904 0
    outer loop
      vertex 35.3806 103.892 24
      vertex 35.4207 103.864 -24
      vertex 35.3806 103.892 -24
    endloop
  endfacet
  facet normal 0.652133 0.758105 -0
    outer loop
      vertex 35.4966 103.802 -24
      vertex 35.4594 103.834 24
      vertex 35.4966 103.802 24
    endloop
  endfacet
  facet normal 0.652133 0.758105 0
    outer loop
      vertex 35.4594 103.834 24
      vertex 35.4966 103.802 -24
      vertex 35.4594 103.834 -24
    endloop
  endfacet
  facet normal 0.691684 0.7222 -0
    outer loop
      vertex 35.5321 103.768 -24
      vertex 35.4966 103.802 24
      vertex 35.5321 103.768 24
    endloop
  endfacet
  facet normal 0.691684 0.7222 0
    outer loop
      vertex 35.4966 103.802 24
      vertex 35.5321 103.768 -24
      vertex 35.4966 103.802 -24
    endloop
  endfacet
  facet normal 0.347981 0.937502 -0
    outer loop
      vertex 35.2077 103.985 -24
      vertex 35.1619 104.002 24
      vertex 35.2077 103.985 24
    endloop
  endfacet
  facet normal 0.347981 0.937502 0
    outer loop
      vertex 35.1619 104.002 24
      vertex 35.2077 103.985 -24
      vertex 35.1619 104.002 -24
    endloop
  endfacet
  facet normal 0.265014 0.964244 -0
    outer loop
      vertex 35.1153 104.018 -24
      vertex 35.068 104.031 24
      vertex 35.1153 104.018 24
    endloop
  endfacet
  facet normal 0.265014 0.964244 0
    outer loop
      vertex 35.068 104.031 24
      vertex 35.1153 104.018 -24
      vertex 35.068 104.031 -24
    endloop
  endfacet
  facet normal -0.652133 -0.758105 0
    outer loop
      vertex -35.4966 -103.802 -24
      vertex -35.4594 -103.834 24
      vertex -35.4966 -103.802 24
    endloop
  endfacet
  facet normal -0.652133 -0.758105 -0
    outer loop
      vertex -35.4594 -103.834 24
      vertex -35.4966 -103.802 -24
      vertex -35.4594 -103.834 -24
    endloop
  endfacet
  facet normal -0.691684 -0.7222 0
    outer loop
      vertex -35.5321 -103.768 -24
      vertex -35.4966 -103.802 24
      vertex -35.5321 -103.768 24
    endloop
  endfacet
  facet normal -0.691684 -0.7222 -0
    outer loop
      vertex -35.4966 -103.802 24
      vertex -35.5321 -103.768 -24
      vertex -35.4966 -103.802 -24
    endloop
  endfacet
  facet normal -0.612667 -0.790341 0
    outer loop
      vertex -35.4594 -103.834 -24
      vertex -35.4207 -103.864 24
      vertex -35.4594 -103.834 24
    endloop
  endfacet
  facet normal -0.612667 -0.790341 -0
    outer loop
      vertex -35.4207 -103.864 24
      vertex -35.4594 -103.834 -24
      vertex -35.4207 -103.864 -24
    endloop
  endfacet
  facet normal -0.223819 0.974631 0
    outer loop
      vertex 34.6299 104.042 -24
      vertex 34.582 104.031 24
      vertex 34.6299 104.042 24
    endloop
  endfacet
  facet normal -0.223819 0.974631 0
    outer loop
      vertex 34.582 104.031 24
      vertex 34.6299 104.042 -24
      vertex 34.582 104.031 -24
    endloop
  endfacet
  facet normal 0.707107 0.707107 0
    outer loop
      vertex -34.825 -101.647 24
      vertex -101.647 -34.825 -22
      vertex -101.647 -34.825 24
    endloop
  endfacet
  facet normal 0.707107 0.707107 0
    outer loop
      vertex -101.647 -34.825 -22
      vertex -34.825 -101.647 24
      vertex -34.825 -101.647 -22
    endloop
  endfacet
  facet normal -0.707107 -0.707107 0
    outer loop
      vertex 101.647 34.825 -22
      vertex 34.825 101.647 24
      vertex 34.825 101.647 -22
    endloop
  endfacet
  facet normal -0.707107 -0.707107 0
    outer loop
      vertex 34.825 101.647 24
      vertex 101.647 34.825 -22
      vertex 101.647 34.825 24
    endloop
  endfacet
  facet normal 0.707107 -0.707107 0
    outer loop
      vertex -101.647 -34.825 24
      vertex 34.825 101.647 -22
      vertex 34.825 101.647 24
    endloop
  endfacet
  facet normal 0.707107 -0.707107 0
    outer loop
      vertex 34.825 101.647 -22
      vertex -101.647 -34.825 24
      vertex -101.647 -34.825 -22
    endloop
  endfacet
  facet normal 0 0 1
    outer loop
      vertex 34.825 101.647 -22
      vertex -34.825 -101.647 -22
      vertex 101.647 34.825 -22
    endloop
  endfacet
  facet normal 0 -0 1
    outer loop
      vertex -34.825 -101.647 -22
      vertex 34.825 101.647 -22
      vertex -101.647 -34.825 -22
    endloop
  endfacet
  facet normal -0.707107 0.707107 0
    outer loop
      vertex -34.825 -101.647 -22
      vertex 101.647 34.825 24
      vertex 101.647 34.825 -22
    endloop
  endfacet
  facet normal -0.707107 0.707107 0
    outer loop
      vertex 101.647 34.825 24
      vertex -34.825 -101.647 -22
      vertex -34.825 -101.647 24
    endloop
  endfacet
endsolid OpenSCAD_Model
