solid OpenSCAD_Model
  facet normal -0.707107 -0.707107 0
    outer loop
      vertex -0.707107 -68.9429 -24
      vertex -68.9429 -0.707107 24
      vertex -68.9429 -0.707107 -24
    endloop
  endfacet
  facet normal -0.707107 -0.707107 0
    outer loop
      vertex -68.9429 -0.707107 24
      vertex -0.707107 -68.9429 -24
      vertex -0.707107 -68.9429 24
    endloop
  endfacet
  facet normal 0 0 -1
    outer loop
      vertex 69.2346 -0.0490677 -24
      vertex 69.2346 0.0490677 -24
      vertex 69.2358 0 -24
    endloop
  endfacet
  facet normal 0 0 -1
    outer loop
      vertex 69.231 -0.0980174 -24
      vertex 69.2346 0.0490677 -24
      vertex 69.2346 -0.0490677 -24
    endloop
  endfacet
  facet normal 0 0 -1
    outer loop
      vertex 69.231 -0.0980174 -24
      vertex 69.231 0.0980174 -24
      vertex 69.2346 0.0490677 -24
    endloop
  endfacet
  facet normal 0 0 -1
    outer loop
      vertex 69.225 -0.146731 -24
      vertex 69.231 0.0980174 -24
      vertex 69.231 -0.0980174 -24
    endloop
  endfacet
  facet normal 0 0 -1
    outer loop
      vertex 69.225 -0.146731 -24
      vertex 69.225 0.146731 -24
      vertex 69.231 0.0980174 -24
    endloop
  endfacet
  facet normal 0 0 -1
    outer loop
      vertex 69.2166 -0.195091 -24
      vertex 69.225 0.146731 -24
      vertex 69.225 -0.146731 -24
    endloop
  endfacet
  facet normal 0 0 -1
    outer loop
      vertex 69.2166 -0.195091 -24
      vertex 69.2166 0.195091 -24
      vertex 69.225 0.146731 -24
    endloop
  endfacet
  facet normal 0 0 -1
    outer loop
      vertex 69.2058 -0.24298 -24
      vertex 69.2166 0.195091 -24
      vertex 69.2166 -0.195091 -24
    endloop
  endfacet
  facet normal 0 0 -1
    outer loop
      vertex 69.2058 -0.24298 -24
      vertex 69.2058 0.24298 -24
      vertex 69.2166 0.195091 -24
    endloop
  endfacet
  facet normal 0 0 -1
    outer loop
      vertex 69.1927 -0.290285 -24
      vertex 69.2058 0.24298 -24
      vertex 69.2058 -0.24298 -24
    endloop
  endfacet
  facet normal 0 0 -1
    outer loop
      vertex 69.1927 -0.290285 -24
      vertex 69.1927 0.290285 -24
      vertex 69.2058 0.24298 -24
    endloop
  endfacet
  facet normal 0 0 -1
    outer loop
      vertex 69.1773 -0.33689 -24
      vertex 69.1927 0.290285 -24
      vertex 69.1927 -0.290285 -24
    endloop
  endfacet
  facet normal 0 0 -1
    outer loop
      vertex 69.1773 -0.33689 -24
      vertex 69.1773 0.33689 -24
      vertex 69.1927 0.290285 -24
    endloop
  endfacet
  facet normal 0 0 -1
    outer loop
      vertex 69.1597 -0.382683 -24
      vertex 69.1773 0.33689 -24
      vertex 69.1773 -0.33689 -24
    endloop
  endfacet
  facet normal 0 0 -1
    outer loop
      vertex 69.1597 -0.382683 -24
      vertex 69.1597 0.382683 -24
      vertex 69.1773 0.33689 -24
    endloop
  endfacet
  facet normal 0 0 -1
    outer loop
      vertex 69.1398 -0.427555 -24
      vertex 69.1597 0.382683 -24
      vertex 69.1597 -0.382683 -24
    endloop
  endfacet
  facet normal 0 0 -1
    outer loop
      vertex 69.1398 -0.427555 -24
      vertex 69.1398 0.427555 -24
      vertex 69.1597 0.382683 -24
    endloop
  endfacet
  facet normal 0 0 -1
    outer loop
      vertex 69.1177 -0.471397 -24
      vertex 69.1398 0.427555 -24
      vertex 69.1398 -0.427555 -24
    endloop
  endfacet
  facet normal 0 0 -1
    outer loop
      vertex 69.1177 -0.471397 -24
      vertex 69.1177 0.471397 -24
      vertex 69.1398 0.427555 -24
    endloop
  endfacet
  facet normal 0 0 -1
    outer loop
      vertex 69.0935 -0.514103 -24
      vertex 69.1177 0.471397 -24
      vertex 69.1177 -0.471397 -24
    endloop
  endfacet
  facet normal 0 0 -1
    outer loop
      vertex 69.0935 -0.514103 -24
      vertex 69.0935 0.514103 -24
      vertex 69.1177 0.471397 -24
    endloop
  endfacet
  facet normal 0 0 -1
    outer loop
      vertex 69.0673 -0.55557 -24
      vertex 69.0935 0.514103 -24
      vertex 69.0935 -0.514103 -24
    endloop
  endfacet
  facet normal 0 0 -1
    outer loop
      vertex 69.0673 -0.55557 -24
      vertex 69.0673 0.55557 -24
      vertex 69.0935 0.514103 -24
    endloop
  endfacet
  facet normal 0 0 -1
    outer loop
      vertex 69.039 -0.595699 -24
      vertex 69.0673 0.55557 -24
      vertex 69.0673 -0.55557 -24
    endloop
  endfacet
  facet normal 0 0 -1
    outer loop
      vertex 69.039 -0.595699 -24
      vertex 69.039 0.595699 -24
      vertex 69.0673 0.55557 -24
    endloop
  endfacet
  facet normal 0 0 -1
    outer loop
      vertex 69.0088 -0.634393 -24
      vertex 69.039 0.595699 -24
      vertex 69.039 -0.595699 -24
    endloop
  endfacet
  facet normal 0 0 -1
    outer loop
      vertex 69.0088 -0.634393 -24
      vertex 69.0088 0.634393 -24
      vertex 69.039 0.595699 -24
    endloop
  endfacet
  facet normal 0 0 -1
    outer loop
      vertex 68.9768 -0.671558 -24
      vertex 69.0088 0.634393 -24
      vertex 69.0088 -0.634393 -24
    endloop
  endfacet
  facet normal 0 0 -1
    outer loop
      vertex 68.9768 -0.671558 -24
      vertex 68.9768 0.671558 -24
      vertex 69.0088 0.634393 -24
    endloop
  endfacet
  facet normal 0 0 -1
    outer loop
      vertex 68.9429 -0.707107 -24
      vertex 68.9768 0.671558 -24
      vertex 68.9768 -0.671558 -24
    endloop
  endfacet
  facet normal 0 0 -1
    outer loop
      vertex 68.9429 -0.707107 -24
      vertex 68.9429 0.707107 -24
      vertex 68.9768 0.671558 -24
    endloop
  endfacet
  facet normal 0 0 -1
    outer loop
      vertex 0.707107 -68.9429 -24
      vertex 68.9429 0.707107 -24
      vertex 68.9429 -0.707107 -24
    endloop
  endfacet
  facet normal 0 0 -1
    outer loop
      vertex 0.707107 -68.9429 -24
      vertex 0.707107 68.9429 -24
      vertex 68.9429 0.707107 -24
    endloop
  endfacet
  facet normal 0 0 -1
    outer loop
      vertex -0.707107 -68.9429 -24
      vertex 0.707107 -68.9429 -24
      vertex 0.671558 -68.9768 -24
    endloop
  endfacet
  facet normal 0 0 -1
    outer loop
      vertex 0.707107 -68.9429 -24
      vertex -0.707107 -68.9429 -24
      vertex 0.707107 68.9429 -24
    endloop
  endfacet
  facet normal 0 0 -1
    outer loop
      vertex -0.707107 -68.9429 -24
      vertex 0.671558 -68.9768 -24
      vertex 0.634393 -69.0088 -24
    endloop
  endfacet
  facet normal 0 0 -1
    outer loop
      vertex -0.707107 68.9429 -24
      vertex 0.707107 68.9429 -24
      vertex -0.707107 -68.9429 -24
    endloop
  endfacet
  facet normal 0 0 -1
    outer loop
      vertex -0.707107 -68.9429 -24
      vertex 0.634393 -69.0088 -24
      vertex 0.595699 -69.039 -24
    endloop
  endfacet
  facet normal 0 0 -1
    outer loop
      vertex 0.707107 68.9429 -24
      vertex -0.707107 68.9429 -24
      vertex 0.671558 68.9768 -24
    endloop
  endfacet
  facet normal 0 0 -1
    outer loop
      vertex -0.707107 -68.9429 -24
      vertex 0.595699 -69.039 -24
      vertex 0.55557 -69.0673 -24
    endloop
  endfacet
  facet normal -0 0 -1
    outer loop
      vertex 0.671558 68.9768 -24
      vertex -0.707107 68.9429 -24
      vertex 0.634393 69.0088 -24
    endloop
  endfacet
  facet normal 0 0 -1
    outer loop
      vertex -0.707107 -68.9429 -24
      vertex 0.55557 -69.0673 -24
      vertex 0.514103 -69.0935 -24
    endloop
  endfacet
  facet normal -0 0 -1
    outer loop
      vertex 0.634393 69.0088 -24
      vertex -0.707107 68.9429 -24
      vertex 0.595699 69.039 -24
    endloop
  endfacet
  facet normal 0 0 -1
    outer loop
      vertex -0.707107 -68.9429 -24
      vertex 0.514103 -69.0935 -24
      vertex 0.471397 -69.1177 -24
    endloop
  endfacet
  facet normal -0 0 -1
    outer loop
      vertex 0.595699 69.039 -24
      vertex -0.707107 68.9429 -24
      vertex 0.55557 69.0673 -24
    endloop
  endfacet
  facet normal 0 0 -1
    outer loop
      vertex -0.707107 -68.9429 -24
      vertex 0.471397 -69.1177 -24
      vertex 0.427555 -69.1398 -24
    endloop
  endfacet
  facet normal -0 0 -1
    outer loop
      vertex 0.55557 69.0673 -24
      vertex -0.707107 68.9429 -24
      vertex 0.514103 69.0935 -24
    endloop
  endfacet
  facet normal 0 0 -1
    outer loop
      vertex -0.707107 -68.9429 -24
      vertex 0.427555 -69.1398 -24
      vertex 0.382683 -69.1597 -24
    endloop
  endfacet
  facet normal -0 0 -1
    outer loop
      vertex 0.514103 69.0935 -24
      vertex -0.707107 68.9429 -24
      vertex 0.471397 69.1177 -24
    endloop
  endfacet
  facet normal 0 0 -1
    outer loop
      vertex -0.707107 -68.9429 -24
      vertex 0.382683 -69.1597 -24
      vertex 0.33689 -69.1773 -24
    endloop
  endfacet
  facet normal -0 0 -1
    outer loop
      vertex 0.471397 69.1177 -24
      vertex -0.707107 68.9429 -24
      vertex 0.427555 69.1398 -24
    endloop
  endfacet
  facet normal 0 0 -1
    outer loop
      vertex -0.707107 -68.9429 -24
      vertex 0.33689 -69.1773 -24
      vertex 0.290285 -69.1927 -24
    endloop
  endfacet
  facet normal -0 0 -1
    outer loop
      vertex 0.427555 69.1398 -24
      vertex -0.707107 68.9429 -24
      vertex 0.382683 69.1597 -24
    endloop
  endfacet
  facet normal 0 0 -1
    outer loop
      vertex -0.707107 -68.9429 -24
      vertex 0.290285 -69.1927 -24
      vertex 0.24298 -69.2058 -24
    endloop
  endfacet
  facet normal -0 0 -1
    outer loop
      vertex 0.382683 69.1597 -24
      vertex -0.707107 68.9429 -24
      vertex 0.33689 69.1773 -24
    endloop
  endfacet
  facet normal 0 0 -1
    outer loop
      vertex -0.707107 -68.9429 -24
      vertex 0.24298 -69.2058 -24
      vertex 0.195091 -69.2166 -24
    endloop
  endfacet
  facet normal -0 0 -1
    outer loop
      vertex 0.33689 69.1773 -24
      vertex -0.707107 68.9429 -24
      vertex 0.290285 69.1927 -24
    endloop
  endfacet
  facet normal 0 0 -1
    outer loop
      vertex -0.707107 -68.9429 -24
      vertex 0.195091 -69.2166 -24
      vertex 0.146731 -69.225 -24
    endloop
  endfacet
  facet normal -0 0 -1
    outer loop
      vertex 0.290285 69.1927 -24
      vertex -0.707107 68.9429 -24
      vertex 0.24298 69.2058 -24
    endloop
  endfacet
  facet normal 0 0 -1
    outer loop
      vertex -0.707107 -68.9429 -24
      vertex 0.146731 -69.225 -24
      vertex 0.0980174 -69.231 -24
    endloop
  endfacet
  facet normal -0 0 -1
    outer loop
      vertex 0.24298 69.2058 -24
      vertex -0.707107 68.9429 -24
      vertex 0.195091 69.2166 -24
    endloop
  endfacet
  facet normal 0 0 -1
    outer loop
      vertex -0.707107 -68.9429 -24
      vertex 0.0980174 -69.231 -24
      vertex 0.0490677 -69.2346 -24
    endloop
  endfacet
  facet normal -0 0 -1
    outer loop
      vertex 0.195091 69.2166 -24
      vertex -0.707107 68.9429 -24
      vertex 0.146731 69.225 -24
    endloop
  endfacet
  facet normal 0 0 -1
    outer loop
      vertex -0.707107 -68.9429 -24
      vertex 0.0490677 -69.2346 -24
      vertex 0 -69.2358 -24
    endloop
  endfacet
  facet normal -0 0 -1
    outer loop
      vertex 0.146731 69.225 -24
      vertex -0.707107 68.9429 -24
      vertex 0.0980174 69.231 -24
    endloop
  endfacet
  facet normal 0 0 -1
    outer loop
      vertex -0.707107 -68.9429 -24
      vertex 0 -69.2358 -24
      vertex -0.0490677 -69.2346 -24
    endloop
  endfacet
  facet normal -0 0 -1
    outer loop
      vertex 0.0980174 69.231 -24
      vertex -0.707107 68.9429 -24
      vertex 0.0490677 69.2346 -24
    endloop
  endfacet
  facet normal 0 0 -1
    outer loop
      vertex -0.707107 -68.9429 -24
      vertex -0.0490677 -69.2346 -24
      vertex -0.0980174 -69.231 -24
    endloop
  endfacet
  facet normal -0 0 -1
    outer loop
      vertex 0.0490677 69.2346 -24
      vertex -0.707107 68.9429 -24
      vertex 0 69.2358 -24
    endloop
  endfacet
  facet normal 0 0 -1
    outer loop
      vertex -0.707107 -68.9429 -24
      vertex -0.0980174 -69.231 -24
      vertex -0.146731 -69.225 -24
    endloop
  endfacet
  facet normal 0 0 -1
    outer loop
      vertex 0 69.2358 -24
      vertex -0.707107 68.9429 -24
      vertex -0.0490677 69.2346 -24
    endloop
  endfacet
  facet normal 0 0 -1
    outer loop
      vertex -0.707107 -68.9429 -24
      vertex -0.146731 -69.225 -24
      vertex -0.195091 -69.2166 -24
    endloop
  endfacet
  facet normal 0 0 -1
    outer loop
      vertex -0.0490677 69.2346 -24
      vertex -0.707107 68.9429 -24
      vertex -0.0980174 69.231 -24
    endloop
  endfacet
  facet normal 0 0 -1
    outer loop
      vertex -0.707107 -68.9429 -24
      vertex -0.195091 -69.2166 -24
      vertex -0.24298 -69.2058 -24
    endloop
  endfacet
  facet normal 0 0 -1
    outer loop
      vertex -0.0980174 69.231 -24
      vertex -0.707107 68.9429 -24
      vertex -0.146731 69.225 -24
    endloop
  endfacet
  facet normal 0 0 -1
    outer loop
      vertex -0.707107 -68.9429 -24
      vertex -0.24298 -69.2058 -24
      vertex -0.290285 -69.1927 -24
    endloop
  endfacet
  facet normal 0 0 -1
    outer loop
      vertex -0.146731 69.225 -24
      vertex -0.707107 68.9429 -24
      vertex -0.195091 69.2166 -24
    endloop
  endfacet
  facet normal 0 0 -1
    outer loop
      vertex -0.707107 -68.9429 -24
      vertex -0.290285 -69.1927 -24
      vertex -0.33689 -69.1773 -24
    endloop
  endfacet
  facet normal 0 0 -1
    outer loop
      vertex -0.195091 69.2166 -24
      vertex -0.707107 68.9429 -24
      vertex -0.24298 69.2058 -24
    endloop
  endfacet
  facet normal 0 0 -1
    outer loop
      vertex -0.707107 -68.9429 -24
      vertex -0.33689 -69.1773 -24
      vertex -0.382683 -69.1597 -24
    endloop
  endfacet
  facet normal 0 0 -1
    outer loop
      vertex -0.24298 69.2058 -24
      vertex -0.707107 68.9429 -24
      vertex -0.290285 69.1927 -24
    endloop
  endfacet
  facet normal 0 0 -1
    outer loop
      vertex -0.707107 -68.9429 -24
      vertex -0.382683 -69.1597 -24
      vertex -0.427555 -69.1398 -24
    endloop
  endfacet
  facet normal 0 0 -1
    outer loop
      vertex -0.290285 69.1927 -24
      vertex -0.707107 68.9429 -24
      vertex -0.33689 69.1773 -24
    endloop
  endfacet
  facet normal 0 0 -1
    outer loop
      vertex -0.707107 -68.9429 -24
      vertex -0.427555 -69.1398 -24
      vertex -0.471397 -69.1177 -24
    endloop
  endfacet
  facet normal 0 0 -1
    outer loop
      vertex -0.33689 69.1773 -24
      vertex -0.707107 68.9429 -24
      vertex -0.382683 69.1597 -24
    endloop
  endfacet
  facet normal 0 0 -1
    outer loop
      vertex -0.707107 -68.9429 -24
      vertex -0.471397 -69.1177 -24
      vertex -0.514103 -69.0935 -24
    endloop
  endfacet
  facet normal 0 0 -1
    outer loop
      vertex -0.382683 69.1597 -24
      vertex -0.707107 68.9429 -24
      vertex -0.427555 69.1398 -24
    endloop
  endfacet
  facet normal 0 0 -1
    outer loop
      vertex -0.707107 -68.9429 -24
      vertex -0.514103 -69.0935 -24
      vertex -0.55557 -69.0673 -24
    endloop
  endfacet
  facet normal 0 0 -1
    outer loop
      vertex -0.427555 69.1398 -24
      vertex -0.707107 68.9429 -24
      vertex -0.471397 69.1177 -24
    endloop
  endfacet
  facet normal 0 0 -1
    outer loop
      vertex -0.707107 -68.9429 -24
      vertex -0.55557 -69.0673 -24
      vertex -0.595699 -69.039 -24
    endloop
  endfacet
  facet normal 0 0 -1
    outer loop
      vertex -0.471397 69.1177 -24
      vertex -0.707107 68.9429 -24
      vertex -0.514103 69.0935 -24
    endloop
  endfacet
  facet normal 0 0 -1
    outer loop
      vertex -0.707107 -68.9429 -24
      vertex -0.595699 -69.039 -24
      vertex -0.634393 -69.0088 -24
    endloop
  endfacet
  facet normal 0 0 -1
    outer loop
      vertex -0.514103 69.0935 -24
      vertex -0.707107 68.9429 -24
      vertex -0.55557 69.0673 -24
    endloop
  endfacet
  facet normal 0 0 -1
    outer loop
      vertex -0.707107 -68.9429 -24
      vertex -0.634393 -69.0088 -24
      vertex -0.671558 -68.9768 -24
    endloop
  endfacet
  facet normal 0 0 -1
    outer loop
      vertex -0.55557 69.0673 -24
      vertex -0.707107 68.9429 -24
      vertex -0.595699 69.039 -24
    endloop
  endfacet
  facet normal 0 0 -1
    outer loop
      vertex -0.595699 69.039 -24
      vertex -0.707107 68.9429 -24
      vertex -0.634393 69.0088 -24
    endloop
  endfacet
  facet normal 0 0 -1
    outer loop
      vertex -0.634393 69.0088 -24
      vertex -0.707107 68.9429 -24
      vertex -0.671558 68.9768 -24
    endloop
  endfacet
  facet normal 0 0 -1
    outer loop
      vertex -68.9429 -0.707107 -24
      vertex -0.707107 68.9429 -24
      vertex -0.707107 -68.9429 -24
    endloop
  endfacet
  facet normal 0 0 -1
    outer loop
      vertex -68.9429 -0.707107 -24
      vertex -68.9429 0.707107 -24
      vertex -0.707107 68.9429 -24
    endloop
  endfacet
  facet normal 0 0 -1
    outer loop
      vertex -68.9768 -0.671558 -24
      vertex -68.9429 0.707107 -24
      vertex -68.9429 -0.707107 -24
    endloop
  endfacet
  facet normal 0 0 -1
    outer loop
      vertex -68.9768 -0.671558 -24
      vertex -68.9768 0.671558 -24
      vertex -68.9429 0.707107 -24
    endloop
  endfacet
  facet normal 0 0 -1
    outer loop
      vertex -69.0088 -0.634393 -24
      vertex -68.9768 0.671558 -24
      vertex -68.9768 -0.671558 -24
    endloop
  endfacet
  facet normal 0 0 -1
    outer loop
      vertex -69.0088 -0.634393 -24
      vertex -69.0088 0.634393 -24
      vertex -68.9768 0.671558 -24
    endloop
  endfacet
  facet normal 0 0 -1
    outer loop
      vertex -69.039 -0.595699 -24
      vertex -69.0088 0.634393 -24
      vertex -69.0088 -0.634393 -24
    endloop
  endfacet
  facet normal 0 0 -1
    outer loop
      vertex -69.039 -0.595699 -24
      vertex -69.039 0.595699 -24
      vertex -69.0088 0.634393 -24
    endloop
  endfacet
  facet normal 0 0 -1
    outer loop
      vertex -69.0673 -0.55557 -24
      vertex -69.039 0.595699 -24
      vertex -69.039 -0.595699 -24
    endloop
  endfacet
  facet normal 0 0 -1
    outer loop
      vertex -69.0673 -0.55557 -24
      vertex -69.0673 0.55557 -24
      vertex -69.039 0.595699 -24
    endloop
  endfacet
  facet normal 0 0 -1
    outer loop
      vertex -69.0935 -0.514103 -24
      vertex -69.0673 0.55557 -24
      vertex -69.0673 -0.55557 -24
    endloop
  endfacet
  facet normal 0 0 -1
    outer loop
      vertex -69.0935 -0.514103 -24
      vertex -69.0935 0.514103 -24
      vertex -69.0673 0.55557 -24
    endloop
  endfacet
  facet normal 0 0 -1
    outer loop
      vertex -69.1177 -0.471397 -24
      vertex -69.0935 0.514103 -24
      vertex -69.0935 -0.514103 -24
    endloop
  endfacet
  facet normal 0 0 -1
    outer loop
      vertex -69.1177 -0.471397 -24
      vertex -69.1177 0.471397 -24
      vertex -69.0935 0.514103 -24
    endloop
  endfacet
  facet normal 0 0 -1
    outer loop
      vertex -69.1398 -0.427555 -24
      vertex -69.1177 0.471397 -24
      vertex -69.1177 -0.471397 -24
    endloop
  endfacet
  facet normal 0 0 -1
    outer loop
      vertex -69.1398 -0.427555 -24
      vertex -69.1398 0.427555 -24
      vertex -69.1177 0.471397 -24
    endloop
  endfacet
  facet normal 0 0 -1
    outer loop
      vertex -69.1597 -0.382683 -24
      vertex -69.1398 0.427555 -24
      vertex -69.1398 -0.427555 -24
    endloop
  endfacet
  facet normal 0 0 -1
    outer loop
      vertex -69.1597 -0.382683 -24
      vertex -69.1597 0.382683 -24
      vertex -69.1398 0.427555 -24
    endloop
  endfacet
  facet normal 0 0 -1
    outer loop
      vertex -69.1773 -0.33689 -24
      vertex -69.1597 0.382683 -24
      vertex -69.1597 -0.382683 -24
    endloop
  endfacet
  facet normal 0 0 -1
    outer loop
      vertex -69.1773 -0.33689 -24
      vertex -69.1773 0.33689 -24
      vertex -69.1597 0.382683 -24
    endloop
  endfacet
  facet normal 0 0 -1
    outer loop
      vertex -69.1927 -0.290285 -24
      vertex -69.1773 0.33689 -24
      vertex -69.1773 -0.33689 -24
    endloop
  endfacet
  facet normal 0 0 -1
    outer loop
      vertex -69.1927 -0.290285 -24
      vertex -69.1927 0.290285 -24
      vertex -69.1773 0.33689 -24
    endloop
  endfacet
  facet normal 0 0 -1
    outer loop
      vertex -69.2058 -0.24298 -24
      vertex -69.1927 0.290285 -24
      vertex -69.1927 -0.290285 -24
    endloop
  endfacet
  facet normal 0 0 -1
    outer loop
      vertex -69.2058 -0.24298 -24
      vertex -69.2058 0.24298 -24
      vertex -69.1927 0.290285 -24
    endloop
  endfacet
  facet normal 0 0 -1
    outer loop
      vertex -69.2166 -0.195091 -24
      vertex -69.2058 0.24298 -24
      vertex -69.2058 -0.24298 -24
    endloop
  endfacet
  facet normal 0 0 -1
    outer loop
      vertex -69.2166 -0.195091 -24
      vertex -69.2166 0.195091 -24
      vertex -69.2058 0.24298 -24
    endloop
  endfacet
  facet normal 0 0 -1
    outer loop
      vertex -69.225 -0.146731 -24
      vertex -69.2166 0.195091 -24
      vertex -69.2166 -0.195091 -24
    endloop
  endfacet
  facet normal 0 0 -1
    outer loop
      vertex -69.225 -0.146731 -24
      vertex -69.225 0.146731 -24
      vertex -69.2166 0.195091 -24
    endloop
  endfacet
  facet normal 0 0 -1
    outer loop
      vertex -69.231 -0.0980174 -24
      vertex -69.225 0.146731 -24
      vertex -69.225 -0.146731 -24
    endloop
  endfacet
  facet normal 0 0 -1
    outer loop
      vertex -69.231 -0.0980174 -24
      vertex -69.231 0.0980174 -24
      vertex -69.225 0.146731 -24
    endloop
  endfacet
  facet normal 0 0 -1
    outer loop
      vertex -69.2346 -0.0490677 -24
      vertex -69.231 0.0980174 -24
      vertex -69.231 -0.0980174 -24
    endloop
  endfacet
  facet normal 0 0 -1
    outer loop
      vertex -69.2346 -0.0490677 -24
      vertex -69.2346 0.0490677 -24
      vertex -69.231 0.0980174 -24
    endloop
  endfacet
  facet normal 0 -0 -1
    outer loop
      vertex -69.2346 0.0490677 -24
      vertex -69.2346 -0.0490677 -24
      vertex -69.2358 0 -24
    endloop
  endfacet
  facet normal 0.707107 -0.707107 0
    outer loop
      vertex 0.707107 -68.9429 24
      vertex 68.9429 -0.707107 -24
      vertex 68.9429 -0.707107 24
    endloop
  endfacet
  facet normal 0.707107 -0.707107 0
    outer loop
      vertex 68.9429 -0.707107 -24
      vertex 0.707107 -68.9429 24
      vertex 0.707107 -68.9429 -24
    endloop
  endfacet
  facet normal -0.358754 -0.933432 0
    outer loop
      vertex -0.382683 -69.1597 -24
      vertex -0.33689 -69.1773 24
      vertex -0.382683 -69.1597 24
    endloop
  endfacet
  facet normal -0.358754 -0.933432 -0
    outer loop
      vertex -0.33689 -69.1773 24
      vertex -0.382683 -69.1597 -24
      vertex -0.33689 -69.1773 -24
    endloop
  endfacet
  facet normal -0.219996 -0.975501 0
    outer loop
      vertex -0.24298 -69.2058 -24
      vertex -0.195091 -69.2166 24
      vertex -0.24298 -69.2058 24
    endloop
  endfacet
  facet normal -0.219996 -0.975501 -0
    outer loop
      vertex -0.195091 -69.2166 24
      vertex -0.24298 -69.2058 -24
      vertex -0.195091 -69.2166 -24
    endloop
  endfacet
  facet normal 0.707107 0.707107 0
    outer loop
      vertex 68.9429 0.707107 24
      vertex 0.707107 68.9429 -24
      vertex 0.707107 68.9429 24
    endloop
  endfacet
  facet normal 0.707107 0.707107 0
    outer loop
      vertex 0.707107 68.9429 -24
      vertex 68.9429 0.707107 24
      vertex 68.9429 0.707107 -24
    endloop
  endfacet
  facet normal -0.707107 0.707107 0
    outer loop
      vertex -68.9429 0.707107 -24
      vertex -0.707107 68.9429 24
      vertex -0.707107 68.9429 -24
    endloop
  endfacet
  facet normal -0.707107 0.707107 0
    outer loop
      vertex -0.707107 68.9429 24
      vertex -68.9429 0.707107 -24
      vertex -68.9429 0.707107 24
    endloop
  endfacet
  facet normal 0 0 1
    outer loop
      vertex 69.2346 0.0490677 24
      vertex 69.2346 -0.0490677 24
      vertex 69.2358 0 24
    endloop
  endfacet
  facet normal 0 0 1
    outer loop
      vertex 69.231 0.0980174 24
      vertex 69.2346 -0.0490677 24
      vertex 69.2346 0.0490677 24
    endloop
  endfacet
  facet normal 0 0 1
    outer loop
      vertex 69.231 0.0980174 24
      vertex 69.231 -0.0980174 24
      vertex 69.2346 -0.0490677 24
    endloop
  endfacet
  facet normal 0 0 1
    outer loop
      vertex 69.225 0.146731 24
      vertex 69.231 -0.0980174 24
      vertex 69.231 0.0980174 24
    endloop
  endfacet
  facet normal 0 0 1
    outer loop
      vertex 69.225 0.146731 24
      vertex 69.225 -0.146731 24
      vertex 69.231 -0.0980174 24
    endloop
  endfacet
  facet normal 0 0 1
    outer loop
      vertex 69.2166 0.195091 24
      vertex 69.225 -0.146731 24
      vertex 69.225 0.146731 24
    endloop
  endfacet
  facet normal 0 0 1
    outer loop
      vertex 69.2166 0.195091 24
      vertex 69.2166 -0.195091 24
      vertex 69.225 -0.146731 24
    endloop
  endfacet
  facet normal 0 0 1
    outer loop
      vertex 69.2058 0.24298 24
      vertex 69.2166 -0.195091 24
      vertex 69.2166 0.195091 24
    endloop
  endfacet
  facet normal 0 0 1
    outer loop
      vertex 69.2058 0.24298 24
      vertex 69.2058 -0.24298 24
      vertex 69.2166 -0.195091 24
    endloop
  endfacet
  facet normal 0 0 1
    outer loop
      vertex 69.1927 0.290285 24
      vertex 69.2058 -0.24298 24
      vertex 69.2058 0.24298 24
    endloop
  endfacet
  facet normal 0 0 1
    outer loop
      vertex 69.1927 0.290285 24
      vertex 69.1927 -0.290285 24
      vertex 69.2058 -0.24298 24
    endloop
  endfacet
  facet normal 0 0 1
    outer loop
      vertex 69.1773 0.33689 24
      vertex 69.1927 -0.290285 24
      vertex 69.1927 0.290285 24
    endloop
  endfacet
  facet normal 0 0 1
    outer loop
      vertex 69.1773 0.33689 24
      vertex 69.1773 -0.33689 24
      vertex 69.1927 -0.290285 24
    endloop
  endfacet
  facet normal 0 0 1
    outer loop
      vertex 69.1597 0.382683 24
      vertex 69.1773 -0.33689 24
      vertex 69.1773 0.33689 24
    endloop
  endfacet
  facet normal 0 0 1
    outer loop
      vertex 69.1597 0.382683 24
      vertex 69.1597 -0.382683 24
      vertex 69.1773 -0.33689 24
    endloop
  endfacet
  facet normal 0 0 1
    outer loop
      vertex 69.1398 0.427555 24
      vertex 69.1597 -0.382683 24
      vertex 69.1597 0.382683 24
    endloop
  endfacet
  facet normal 0 0 1
    outer loop
      vertex 69.1398 0.427555 24
      vertex 69.1398 -0.427555 24
      vertex 69.1597 -0.382683 24
    endloop
  endfacet
  facet normal 0 0 1
    outer loop
      vertex 69.1177 0.471397 24
      vertex 69.1398 -0.427555 24
      vertex 69.1398 0.427555 24
    endloop
  endfacet
  facet normal 0 0 1
    outer loop
      vertex 69.1177 0.471397 24
      vertex 69.1177 -0.471397 24
      vertex 69.1398 -0.427555 24
    endloop
  endfacet
  facet normal 0 0 1
    outer loop
      vertex 69.0935 0.514103 24
      vertex 69.1177 -0.471397 24
      vertex 69.1177 0.471397 24
    endloop
  endfacet
  facet normal 0 0 1
    outer loop
      vertex 69.0935 0.514103 24
      vertex 69.0935 -0.514103 24
      vertex 69.1177 -0.471397 24
    endloop
  endfacet
  facet normal 0 0 1
    outer loop
      vertex 69.0673 0.55557 24
      vertex 69.0935 -0.514103 24
      vertex 69.0935 0.514103 24
    endloop
  endfacet
  facet normal 0 0 1
    outer loop
      vertex 69.0673 0.55557 24
      vertex 69.0673 -0.55557 24
      vertex 69.0935 -0.514103 24
    endloop
  endfacet
  facet normal 0 0 1
    outer loop
      vertex 69.039 0.595699 24
      vertex 69.0673 -0.55557 24
      vertex 69.0673 0.55557 24
    endloop
  endfacet
  facet normal 0 0 1
    outer loop
      vertex 69.039 0.595699 24
      vertex 69.039 -0.595699 24
      vertex 69.0673 -0.55557 24
    endloop
  endfacet
  facet normal 0 0 1
    outer loop
      vertex 69.0088 0.634393 24
      vertex 69.039 -0.595699 24
      vertex 69.039 0.595699 24
    endloop
  endfacet
  facet normal 0 0 1
    outer loop
      vertex 69.0088 0.634393 24
      vertex 69.0088 -0.634393 24
      vertex 69.039 -0.595699 24
    endloop
  endfacet
  facet normal 0 0 1
    outer loop
      vertex 68.9768 0.671558 24
      vertex 69.0088 -0.634393 24
      vertex 69.0088 0.634393 24
    endloop
  endfacet
  facet normal 0 0 1
    outer loop
      vertex 68.9768 0.671558 24
      vertex 68.9768 -0.671558 24
      vertex 69.0088 -0.634393 24
    endloop
  endfacet
  facet normal 0 0 1
    outer loop
      vertex 68.9429 0.707107 24
      vertex 68.9768 -0.671558 24
      vertex 68.9768 0.671558 24
    endloop
  endfacet
  facet normal 0 0 1
    outer loop
      vertex 68.9429 0.707107 24
      vertex 68.9429 -0.707107 24
      vertex 68.9768 -0.671558 24
    endloop
  endfacet
  facet normal 0 0 1
    outer loop
      vertex 68.9429 0.707107 24
      vertex 66.8216 0 24
      vertex 68.9429 -0.707107 24
    endloop
  endfacet
  facet normal 0 0 1
    outer loop
      vertex 0.707107 68.9429 24
      vertex 66.8216 0 24
      vertex 68.9429 0.707107 24
    endloop
  endfacet
  facet normal 0 0 1
    outer loop
      vertex 0 66.8216 24
      vertex 0.707107 68.9429 24
      vertex 0.671558 68.9768 24
    endloop
  endfacet
  facet normal 0 0 1
    outer loop
      vertex 0 66.8216 24
      vertex 0.671558 68.9768 24
      vertex 0.634393 69.0088 24
    endloop
  endfacet
  facet normal 0 0 1
    outer loop
      vertex 0 66.8216 24
      vertex 0.634393 69.0088 24
      vertex 0.595699 69.039 24
    endloop
  endfacet
  facet normal 0 0 1
    outer loop
      vertex 0 66.8216 24
      vertex 0.595699 69.039 24
      vertex 0.55557 69.0673 24
    endloop
  endfacet
  facet normal 0 0 1
    outer loop
      vertex 0 66.8216 24
      vertex 0.55557 69.0673 24
      vertex 0.514103 69.0935 24
    endloop
  endfacet
  facet normal 0 0 1
    outer loop
      vertex 0 66.8216 24
      vertex 0.514103 69.0935 24
      vertex 0.471397 69.1177 24
    endloop
  endfacet
  facet normal 0 0 1
    outer loop
      vertex 0 66.8216 24
      vertex 0.471397 69.1177 24
      vertex 0.427555 69.1398 24
    endloop
  endfacet
  facet normal 0 0 1
    outer loop
      vertex 0 66.8216 24
      vertex 0.427555 69.1398 24
      vertex 0.382683 69.1597 24
    endloop
  endfacet
  facet normal 0 0 1
    outer loop
      vertex 0 66.8216 24
      vertex 0.382683 69.1597 24
      vertex 0.33689 69.1773 24
    endloop
  endfacet
  facet normal 0 0 1
    outer loop
      vertex 0 66.8216 24
      vertex 0.33689 69.1773 24
      vertex 0.290285 69.1927 24
    endloop
  endfacet
  facet normal 0 0 1
    outer loop
      vertex 0 66.8216 24
      vertex 0.290285 69.1927 24
      vertex 0.24298 69.2058 24
    endloop
  endfacet
  facet normal 0 0 1
    outer loop
      vertex 0 66.8216 24
      vertex 0.24298 69.2058 24
      vertex 0.195091 69.2166 24
    endloop
  endfacet
  facet normal 0 0 1
    outer loop
      vertex 0 66.8216 24
      vertex 0.195091 69.2166 24
      vertex 0.146731 69.225 24
    endloop
  endfacet
  facet normal 0 0 1
    outer loop
      vertex 0 66.8216 24
      vertex 0.146731 69.225 24
      vertex 0.0980174 69.231 24
    endloop
  endfacet
  facet normal 0 0 1
    outer loop
      vertex 0 66.8216 24
      vertex 0.0980174 69.231 24
      vertex 0.0490677 69.2346 24
    endloop
  endfacet
  facet normal 0 0 1
    outer loop
      vertex 0 66.8216 24
      vertex 0.0490677 69.2346 24
      vertex 0 69.2358 24
    endloop
  endfacet
  facet normal 0 0 1
    outer loop
      vertex 0.707107 68.9429 24
      vertex 0 66.8216 24
      vertex 66.8216 0 24
    endloop
  endfacet
  facet normal -0 0 1
    outer loop
      vertex -0.0490677 69.2346 24
      vertex 0 66.8216 24
      vertex 0 69.2358 24
    endloop
  endfacet
  facet normal -0 0 1
    outer loop
      vertex -0.0980174 69.231 24
      vertex 0 66.8216 24
      vertex -0.0490677 69.2346 24
    endloop
  endfacet
  facet normal -0 0 1
    outer loop
      vertex -0.146731 69.225 24
      vertex 0 66.8216 24
      vertex -0.0980174 69.231 24
    endloop
  endfacet
  facet normal -0 0 1
    outer loop
      vertex -0.195091 69.2166 24
      vertex 0 66.8216 24
      vertex -0.146731 69.225 24
    endloop
  endfacet
  facet normal -0 0 1
    outer loop
      vertex -0.24298 69.2058 24
      vertex 0 66.8216 24
      vertex -0.195091 69.2166 24
    endloop
  endfacet
  facet normal -0 0 1
    outer loop
      vertex -0.290285 69.1927 24
      vertex 0 66.8216 24
      vertex -0.24298 69.2058 24
    endloop
  endfacet
  facet normal -0 0 1
    outer loop
      vertex -0.33689 69.1773 24
      vertex 0 66.8216 24
      vertex -0.290285 69.1927 24
    endloop
  endfacet
  facet normal -0 0 1
    outer loop
      vertex -0.382683 69.1597 24
      vertex 0 66.8216 24
      vertex -0.33689 69.1773 24
    endloop
  endfacet
  facet normal -0 0 1
    outer loop
      vertex -0.427555 69.1398 24
      vertex 0 66.8216 24
      vertex -0.382683 69.1597 24
    endloop
  endfacet
  facet normal -0 0 1
    outer loop
      vertex -0.471397 69.1177 24
      vertex 0 66.8216 24
      vertex -0.427555 69.1398 24
    endloop
  endfacet
  facet normal -0 0 1
    outer loop
      vertex -0.514103 69.0935 24
      vertex 0 66.8216 24
      vertex -0.471397 69.1177 24
    endloop
  endfacet
  facet normal -0 0 1
    outer loop
      vertex -0.55557 69.0673 24
      vertex 0 66.8216 24
      vertex -0.514103 69.0935 24
    endloop
  endfacet
  facet normal -0 0 1
    outer loop
      vertex -0.595699 69.039 24
      vertex 0 66.8216 24
      vertex -0.55557 69.0673 24
    endloop
  endfacet
  facet normal -0 0 1
    outer loop
      vertex -0.634393 69.0088 24
      vertex 0 66.8216 24
      vertex -0.595699 69.039 24
    endloop
  endfacet
  facet normal -0 0 1
    outer loop
      vertex -0.671558 68.9768 24
      vertex 0 66.8216 24
      vertex -0.634393 69.0088 24
    endloop
  endfacet
  facet normal -0 0 1
    outer loop
      vertex -0.707107 68.9429 24
      vertex 0 66.8216 24
      vertex -0.671558 68.9768 24
    endloop
  endfacet
  facet normal 0 0 1
    outer loop
      vertex -0.707107 68.9429 24
      vertex -66.8216 0 24
      vertex 0 66.8216 24
    endloop
  endfacet
  facet normal 0 -0 1
    outer loop
      vertex -66.8216 0 24
      vertex -0.707107 68.9429 24
      vertex -68.9429 0.707107 24
    endloop
  endfacet
  facet normal 0 0 1
    outer loop
      vertex 66.8216 0 24
      vertex 0.707107 -68.9429 24
      vertex 68.9429 -0.707107 24
    endloop
  endfacet
  facet normal -0 0 1
    outer loop
      vertex 0 -66.8216 24
      vertex 0.707107 -68.9429 24
      vertex 66.8216 0 24
    endloop
  endfacet
  facet normal 0 0 1
    outer loop
      vertex 0.707107 -68.9429 24
      vertex 0 -66.8216 24
      vertex 0.671558 -68.9768 24
    endloop
  endfacet
  facet normal 0 0 1
    outer loop
      vertex 0.671558 -68.9768 24
      vertex 0 -66.8216 24
      vertex 0.634393 -69.0088 24
    endloop
  endfacet
  facet normal 0 0 1
    outer loop
      vertex 0.634393 -69.0088 24
      vertex 0 -66.8216 24
      vertex 0.595699 -69.039 24
    endloop
  endfacet
  facet normal 0 0 1
    outer loop
      vertex 0.595699 -69.039 24
      vertex 0 -66.8216 24
      vertex 0.55557 -69.0673 24
    endloop
  endfacet
  facet normal 0 0 1
    outer loop
      vertex 0.55557 -69.0673 24
      vertex 0 -66.8216 24
      vertex 0.514103 -69.0935 24
    endloop
  endfacet
  facet normal 0 0 1
    outer loop
      vertex 0.514103 -69.0935 24
      vertex 0 -66.8216 24
      vertex 0.471397 -69.1177 24
    endloop
  endfacet
  facet normal 0 0 1
    outer loop
      vertex 0.471397 -69.1177 24
      vertex 0 -66.8216 24
      vertex 0.427555 -69.1398 24
    endloop
  endfacet
  facet normal 0 0 1
    outer loop
      vertex 0.427555 -69.1398 24
      vertex 0 -66.8216 24
      vertex 0.382683 -69.1597 24
    endloop
  endfacet
  facet normal 0 0 1
    outer loop
      vertex 0.382683 -69.1597 24
      vertex 0 -66.8216 24
      vertex 0.33689 -69.1773 24
    endloop
  endfacet
  facet normal 0 0 1
    outer loop
      vertex 0.33689 -69.1773 24
      vertex 0 -66.8216 24
      vertex 0.290285 -69.1927 24
    endloop
  endfacet
  facet normal 0 0 1
    outer loop
      vertex 0.290285 -69.1927 24
      vertex 0 -66.8216 24
      vertex 0.24298 -69.2058 24
    endloop
  endfacet
  facet normal 0 0 1
    outer loop
      vertex 0.24298 -69.2058 24
      vertex 0 -66.8216 24
      vertex 0.195091 -69.2166 24
    endloop
  endfacet
  facet normal 0 0 1
    outer loop
      vertex 0.195091 -69.2166 24
      vertex 0 -66.8216 24
      vertex 0.146731 -69.225 24
    endloop
  endfacet
  facet normal 0 0 1
    outer loop
      vertex 0.146731 -69.225 24
      vertex 0 -66.8216 24
      vertex 0.0980174 -69.231 24
    endloop
  endfacet
  facet normal 0 0 1
    outer loop
      vertex 0.0980174 -69.231 24
      vertex 0 -66.8216 24
      vertex 0.0490677 -69.2346 24
    endloop
  endfacet
  facet normal 0 0 1
    outer loop
      vertex 0 -66.8216 24
      vertex 0 -69.2358 24
      vertex 0.0490677 -69.2346 24
    endloop
  endfacet
  facet normal 0 0 1
    outer loop
      vertex 0 -66.8216 24
      vertex -0.0490677 -69.2346 24
      vertex 0 -69.2358 24
    endloop
  endfacet
  facet normal 0 0 1
    outer loop
      vertex 0 -66.8216 24
      vertex -0.0980174 -69.231 24
      vertex -0.0490677 -69.2346 24
    endloop
  endfacet
  facet normal 0 0 1
    outer loop
      vertex 0 -66.8216 24
      vertex -0.146731 -69.225 24
      vertex -0.0980174 -69.231 24
    endloop
  endfacet
  facet normal 0 0 1
    outer loop
      vertex 0 -66.8216 24
      vertex -0.195091 -69.2166 24
      vertex -0.146731 -69.225 24
    endloop
  endfacet
  facet normal 0 0 1
    outer loop
      vertex 0 -66.8216 24
      vertex -0.24298 -69.2058 24
      vertex -0.195091 -69.2166 24
    endloop
  endfacet
  facet normal 0 0 1
    outer loop
      vertex 0 -66.8216 24
      vertex -0.290285 -69.1927 24
      vertex -0.24298 -69.2058 24
    endloop
  endfacet
  facet normal 0 0 1
    outer loop
      vertex 0 -66.8216 24
      vertex -0.33689 -69.1773 24
      vertex -0.290285 -69.1927 24
    endloop
  endfacet
  facet normal 0 0 1
    outer loop
      vertex 0 -66.8216 24
      vertex -0.382683 -69.1597 24
      vertex -0.33689 -69.1773 24
    endloop
  endfacet
  facet normal 0 0 1
    outer loop
      vertex 0 -66.8216 24
      vertex -0.427555 -69.1398 24
      vertex -0.382683 -69.1597 24
    endloop
  endfacet
  facet normal 0 0 1
    outer loop
      vertex 0 -66.8216 24
      vertex -0.471397 -69.1177 24
      vertex -0.427555 -69.1398 24
    endloop
  endfacet
  facet normal 0 0 1
    outer loop
      vertex 0 -66.8216 24
      vertex -0.514103 -69.0935 24
      vertex -0.471397 -69.1177 24
    endloop
  endfacet
  facet normal 0 0 1
    outer loop
      vertex 0 -66.8216 24
      vertex -0.55557 -69.0673 24
      vertex -0.514103 -69.0935 24
    endloop
  endfacet
  facet normal 0 0 1
    outer loop
      vertex 0 -66.8216 24
      vertex -0.595699 -69.039 24
      vertex -0.55557 -69.0673 24
    endloop
  endfacet
  facet normal 0 0 1
    outer loop
      vertex 0 -66.8216 24
      vertex -0.634393 -69.0088 24
      vertex -0.595699 -69.039 24
    endloop
  endfacet
  facet normal 0 0 1
    outer loop
      vertex 0 -66.8216 24
      vertex -0.671558 -68.9768 24
      vertex -0.634393 -69.0088 24
    endloop
  endfacet
  facet normal 0 0 1
    outer loop
      vertex 0 -66.8216 24
      vertex -0.707107 -68.9429 24
      vertex -0.671558 -68.9768 24
    endloop
  endfacet
  facet normal 0 0 1
    outer loop
      vertex -66.8216 0 24
      vertex -0.707107 -68.9429 24
      vertex 0 -66.8216 24
    endloop
  endfacet
  facet normal 0 0 1
    outer loop
      vertex -68.9429 -0.707107 24
      vertex -66.8216 0 24
      vertex -68.9429 0.707107 24
    endloop
  endfacet
  facet normal 0 0 1
    outer loop
      vertex -66.8216 0 24
      vertex -68.9429 -0.707107 24
      vertex -0.707107 -68.9429 24
    endloop
  endfacet
  facet normal -0 0 1
    outer loop
      vertex -68.9768 0.671558 24
      vertex -68.9429 -0.707107 24
      vertex -68.9429 0.707107 24
    endloop
  endfacet
  facet normal 0 0 1
    outer loop
      vertex -68.9768 0.671558 24
      vertex -68.9768 -0.671558 24
      vertex -68.9429 -0.707107 24
    endloop
  endfacet
  facet normal -0 0 1
    outer loop
      vertex -69.0088 0.634393 24
      vertex -68.9768 -0.671558 24
      vertex -68.9768 0.671558 24
    endloop
  endfacet
  facet normal 0 0 1
    outer loop
      vertex -69.0088 0.634393 24
      vertex -69.0088 -0.634393 24
      vertex -68.9768 -0.671558 24
    endloop
  endfacet
  facet normal -0 0 1
    outer loop
      vertex -69.039 0.595699 24
      vertex -69.0088 -0.634393 24
      vertex -69.0088 0.634393 24
    endloop
  endfacet
  facet normal 0 0 1
    outer loop
      vertex -69.039 0.595699 24
      vertex -69.039 -0.595699 24
      vertex -69.0088 -0.634393 24
    endloop
  endfacet
  facet normal -0 0 1
    outer loop
      vertex -69.0673 0.55557 24
      vertex -69.039 -0.595699 24
      vertex -69.039 0.595699 24
    endloop
  endfacet
  facet normal 0 0 1
    outer loop
      vertex -69.0673 0.55557 24
      vertex -69.0673 -0.55557 24
      vertex -69.039 -0.595699 24
    endloop
  endfacet
  facet normal -0 0 1
    outer loop
      vertex -69.0935 0.514103 24
      vertex -69.0673 -0.55557 24
      vertex -69.0673 0.55557 24
    endloop
  endfacet
  facet normal 0 0 1
    outer loop
      vertex -69.0935 0.514103 24
      vertex -69.0935 -0.514103 24
      vertex -69.0673 -0.55557 24
    endloop
  endfacet
  facet normal -0 0 1
    outer loop
      vertex -69.1177 0.471397 24
      vertex -69.0935 -0.514103 24
      vertex -69.0935 0.514103 24
    endloop
  endfacet
  facet normal 0 0 1
    outer loop
      vertex -69.1177 0.471397 24
      vertex -69.1177 -0.471397 24
      vertex -69.0935 -0.514103 24
    endloop
  endfacet
  facet normal -0 0 1
    outer loop
      vertex -69.1398 0.427555 24
      vertex -69.1177 -0.471397 24
      vertex -69.1177 0.471397 24
    endloop
  endfacet
  facet normal 0 0 1
    outer loop
      vertex -69.1398 0.427555 24
      vertex -69.1398 -0.427555 24
      vertex -69.1177 -0.471397 24
    endloop
  endfacet
  facet normal -0 0 1
    outer loop
      vertex -69.1597 0.382683 24
      vertex -69.1398 -0.427555 24
      vertex -69.1398 0.427555 24
    endloop
  endfacet
  facet normal 0 0 1
    outer loop
      vertex -69.1597 0.382683 24
      vertex -69.1597 -0.382683 24
      vertex -69.1398 -0.427555 24
    endloop
  endfacet
  facet normal -0 0 1
    outer loop
      vertex -69.1773 0.33689 24
      vertex -69.1597 -0.382683 24
      vertex -69.1597 0.382683 24
    endloop
  endfacet
  facet normal 0 0 1
    outer loop
      vertex -69.1773 0.33689 24
      vertex -69.1773 -0.33689 24
      vertex -69.1597 -0.382683 24
    endloop
  endfacet
  facet normal -0 0 1
    outer loop
      vertex -69.1927 0.290285 24
      vertex -69.1773 -0.33689 24
      vertex -69.1773 0.33689 24
    endloop
  endfacet
  facet normal 0 0 1
    outer loop
      vertex -69.1927 0.290285 24
      vertex -69.1927 -0.290285 24
      vertex -69.1773 -0.33689 24
    endloop
  endfacet
  facet normal -0 0 1
    outer loop
      vertex -69.2058 0.24298 24
      vertex -69.1927 -0.290285 24
      vertex -69.1927 0.290285 24
    endloop
  endfacet
  facet normal 0 0 1
    outer loop
      vertex -69.2058 0.24298 24
      vertex -69.2058 -0.24298 24
      vertex -69.1927 -0.290285 24
    endloop
  endfacet
  facet normal -0 0 1
    outer loop
      vertex -69.2166 0.195091 24
      vertex -69.2058 -0.24298 24
      vertex -69.2058 0.24298 24
    endloop
  endfacet
  facet normal 0 0 1
    outer loop
      vertex -69.2166 0.195091 24
      vertex -69.2166 -0.195091 24
      vertex -69.2058 -0.24298 24
    endloop
  endfacet
  facet normal -0 0 1
    outer loop
      vertex -69.225 0.146731 24
      vertex -69.2166 -0.195091 24
      vertex -69.2166 0.195091 24
    endloop
  endfacet
  facet normal 0 0 1
    outer loop
      vertex -69.225 0.146731 24
      vertex -69.225 -0.146731 24
      vertex -69.2166 -0.195091 24
    endloop
  endfacet
  facet normal -0 0 1
    outer loop
      vertex -69.231 0.0980174 24
      vertex -69.225 -0.146731 24
      vertex -69.225 0.146731 24
    endloop
  endfacet
  facet normal 0 0 1
    outer loop
      vertex -69.231 0.0980174 24
      vertex -69.231 -0.0980174 24
      vertex -69.225 -0.146731 24
    endloop
  endfacet
  facet normal -0 0 1
    outer loop
      vertex -69.2346 0.0490677 24
      vertex -69.231 -0.0980174 24
      vertex -69.231 0.0980174 24
    endloop
  endfacet
  facet normal 0 0 1
    outer loop
      vertex -69.2346 0.0490677 24
      vertex -69.2346 -0.0490677 24
      vertex -69.231 -0.0980174 24
    endloop
  endfacet
  facet normal 0 -0 1
    outer loop
      vertex -69.2346 -0.0490677 24
      vertex -69.2346 0.0490677 24
      vertex -69.2358 0 24
    endloop
  endfacet
  facet normal 0.690123 -0.723692 0
    outer loop
      vertex 0.671558 -68.9768 -24
      vertex 0.707107 -68.9429 24
      vertex 0.671558 -68.9768 24
    endloop
  endfacet
  facet normal 0.690123 -0.723692 0
    outer loop
      vertex 0.707107 -68.9429 24
      vertex 0.671558 -68.9768 -24
      vertex 0.707107 -68.9429 -24
    endloop
  endfacet
  facet normal 0.493012 -0.870023 0
    outer loop
      vertex 0.471397 -69.1177 -24
      vertex 0.514103 -69.0935 24
      vertex 0.471397 -69.1177 24
    endloop
  endfacet
  facet normal 0.493012 -0.870023 0
    outer loop
      vertex 0.514103 -69.0935 24
      vertex 0.471397 -69.1177 -24
      vertex 0.514103 -69.0935 -24
    endloop
  endfacet
  facet normal 0.358754 -0.933432 0
    outer loop
      vertex 0.33689 -69.1773 -24
      vertex 0.382683 -69.1597 24
      vertex 0.33689 -69.1773 24
    endloop
  endfacet
  facet normal 0.358754 -0.933432 0
    outer loop
      vertex 0.382683 -69.1597 24
      vertex 0.33689 -69.1773 -24
      vertex 0.382683 -69.1597 -24
    endloop
  endfacet
  facet normal 0.122245 -0.9925 0
    outer loop
      vertex 0.0980174 -69.231 -24
      vertex 0.146731 -69.225 24
      vertex 0.0980174 -69.231 24
    endloop
  endfacet
  facet normal 0.122245 -0.9925 0
    outer loop
      vertex 0.146731 -69.225 24
      vertex 0.0980174 -69.231 -24
      vertex 0.146731 -69.225 -24
    endloop
  endfacet
  facet normal -0.0244487 -0.999701 0
    outer loop
      vertex -0.0490677 -69.2346 -24
      vertex 0 -69.2358 24
      vertex -0.0490677 -69.2346 24
    endloop
  endfacet
  facet normal -0.0244487 -0.999701 -0
    outer loop
      vertex 0 -69.2358 24
      vertex -0.0490677 -69.2346 -24
      vertex 0 -69.2358 -24
    endloop
  endfacet
  facet normal -0.652486 -0.757801 0
    outer loop
      vertex -0.671558 -68.9768 -24
      vertex -0.634393 -69.0088 24
      vertex -0.671558 -68.9768 24
    endloop
  endfacet
  facet normal -0.652486 -0.757801 -0
    outer loop
      vertex -0.634393 -69.0088 24
      vertex -0.671558 -68.9768 -24
      vertex -0.634393 -69.0088 -24
    endloop
  endfacet
  facet normal -0.690123 -0.723692 0
    outer loop
      vertex -0.707107 -68.9429 -24
      vertex -0.671558 -68.9768 24
      vertex -0.707107 -68.9429 24
    endloop
  endfacet
  facet normal -0.690123 -0.723692 -0
    outer loop
      vertex -0.671558 -68.9768 24
      vertex -0.707107 -68.9429 -24
      vertex -0.671558 -68.9768 -24
    endloop
  endfacet
  facet normal -0.576325 0.817221 0
    outer loop
      vertex -0.55557 69.0673 -24
      vertex -0.595699 69.039 24
      vertex -0.55557 69.0673 24
    endloop
  endfacet
  facet normal -0.576325 0.817221 0
    outer loop
      vertex -0.595699 69.039 24
      vertex -0.55557 69.0673 -24
      vertex -0.595699 69.039 -24
    endloop
  endfacet
  facet normal -0.985248 -0.171135 0
    outer loop
      vertex -69.2166 -0.195091 -24
      vertex -69.225 -0.146731 24
      vertex -69.225 -0.146731 -24
    endloop
  endfacet
  facet normal -0.985248 -0.171135 0
    outer loop
      vertex -69.225 -0.146731 24
      vertex -69.2166 -0.195091 -24
      vertex -69.2166 -0.195091 24
    endloop
  endfacet
  facet normal 0.652486 -0.757801 0
    outer loop
      vertex 0.634393 -69.0088 -24
      vertex 0.671558 -68.9768 24
      vertex 0.634393 -69.0088 24
    endloop
  endfacet
  facet normal 0.652486 -0.757801 0
    outer loop
      vertex 0.671558 -68.9768 24
      vertex 0.634393 -69.0088 -24
      vertex 0.671558 -68.9768 -24
    endloop
  endfacet
  facet normal 0.615268 -0.788318 0
    outer loop
      vertex 0.595699 -69.039 -24
      vertex 0.634393 -69.0088 24
      vertex 0.595699 -69.039 24
    endloop
  endfacet
  facet normal 0.615268 -0.788318 0
    outer loop
      vertex 0.634393 -69.0088 24
      vertex 0.595699 -69.039 -24
      vertex 0.634393 -69.0088 -24
    endloop
  endfacet
  facet normal 0.450128 -0.892964 0
    outer loop
      vertex 0.427555 -69.1398 -24
      vertex 0.471397 -69.1177 24
      vertex 0.427555 -69.1398 24
    endloop
  endfacet
  facet normal 0.450128 -0.892964 0
    outer loop
      vertex 0.471397 -69.1177 24
      vertex 0.427555 -69.1398 -24
      vertex 0.471397 -69.1177 -24
    endloop
  endfacet
  facet normal 0.0244487 -0.999701 0
    outer loop
      vertex 0 -69.2358 -24
      vertex 0.0490677 -69.2346 24
      vertex 0 -69.2358 24
    endloop
  endfacet
  facet normal 0.0244487 -0.999701 0
    outer loop
      vertex 0.0490677 -69.2346 24
      vertex 0 -69.2358 -24
      vertex 0.0490677 -69.2346 -24
    endloop
  endfacet
  facet normal 0.0733468 -0.997306 0
    outer loop
      vertex 0.0490677 -69.2346 -24
      vertex 0.0980174 -69.231 24
      vertex 0.0490677 -69.2346 24
    endloop
  endfacet
  facet normal 0.0733468 -0.997306 0
    outer loop
      vertex 0.0980174 -69.231 24
      vertex 0.0490677 -69.2346 -24
      vertex 0.0980174 -69.231 -24
    endloop
  endfacet
  facet normal 0.171135 -0.985248 0
    outer loop
      vertex 0.146731 -69.225 -24
      vertex 0.195091 -69.2166 24
      vertex 0.146731 -69.225 24
    endloop
  endfacet
  facet normal 0.171135 -0.985248 0
    outer loop
      vertex 0.195091 -69.2166 24
      vertex 0.146731 -69.225 -24
      vertex 0.195091 -69.2166 -24
    endloop
  endfacet
  facet normal -0.266882 -0.963729 0
    outer loop
      vertex -0.290285 -69.1927 -24
      vertex -0.24298 -69.2058 24
      vertex -0.290285 -69.1927 24
    endloop
  endfacet
  facet normal -0.266882 -0.963729 -0
    outer loop
      vertex -0.24298 -69.2058 24
      vertex -0.290285 -69.1927 -24
      vertex -0.24298 -69.2058 -24
    endloop
  endfacet
  facet normal 0.313751 0.949505 -0
    outer loop
      vertex 0.33689 69.1773 -24
      vertex 0.290285 69.1927 24
      vertex 0.33689 69.1773 24
    endloop
  endfacet
  facet normal 0.313751 0.949505 0
    outer loop
      vertex 0.290285 69.1927 24
      vertex 0.33689 69.1773 -24
      vertex 0.290285 69.1927 -24
    endloop
  endfacet
  facet normal 0.817221 0.576325 0
    outer loop
      vertex 69.0673 0.55557 24
      vertex 69.039 0.595699 -24
      vertex 69.039 0.595699 24
    endloop
  endfacet
  facet normal 0.817221 0.576325 0
    outer loop
      vertex 69.039 0.595699 -24
      vertex 69.0673 0.55557 24
      vertex 69.0673 0.55557 -24
    endloop
  endfacet
  facet normal 0.914137 -0.405405 0
    outer loop
      vertex 69.1398 -0.427555 24
      vertex 69.1597 -0.382683 -24
      vertex 69.1597 -0.382683 24
    endloop
  endfacet
  facet normal 0.914137 -0.405405 0
    outer loop
      vertex 69.1597 -0.382683 -24
      vertex 69.1398 -0.427555 24
      vertex 69.1398 -0.427555 -24
    endloop
  endfacet
  facet normal 0.817221 -0.576325 0
    outer loop
      vertex 69.039 -0.595699 24
      vertex 69.0673 -0.55557 -24
      vertex 69.0673 -0.55557 24
    endloop
  endfacet
  facet normal 0.817221 -0.576325 0
    outer loop
      vertex 69.0673 -0.55557 -24
      vertex 69.039 -0.595699 24
      vertex 69.039 -0.595699 -24
    endloop
  endfacet
  facet normal 0.963729 -0.266882 0
    outer loop
      vertex 69.1927 -0.290285 24
      vertex 69.2058 -0.24298 -24
      vertex 69.2058 -0.24298 24
    endloop
  endfacet
  facet normal 0.963729 -0.266882 0
    outer loop
      vertex 69.2058 -0.24298 -24
      vertex 69.1927 -0.290285 24
      vertex 69.1927 -0.290285 -24
    endloop
  endfacet
  facet normal -0.405405 0.914137 0
    outer loop
      vertex -0.382683 69.1597 -24
      vertex -0.427555 69.1398 24
      vertex -0.382683 69.1597 24
    endloop
  endfacet
  facet normal -0.405405 0.914137 0
    outer loop
      vertex -0.427555 69.1398 24
      vertex -0.382683 69.1597 -24
      vertex -0.427555 69.1398 -24
    endloop
  endfacet
  facet normal -0.949505 0.313751 0
    outer loop
      vertex -69.1927 0.290285 -24
      vertex -69.1773 0.33689 24
      vertex -69.1773 0.33689 -24
    endloop
  endfacet
  facet normal -0.949505 0.313751 0
    outer loop
      vertex -69.1773 0.33689 24
      vertex -69.1927 0.290285 -24
      vertex -69.1927 0.290285 24
    endloop
  endfacet
  facet normal -0.870023 -0.493012 0
    outer loop
      vertex -69.0935 -0.514103 -24
      vertex -69.1177 -0.471397 24
      vertex -69.1177 -0.471397 -24
    endloop
  endfacet
  facet normal -0.870023 -0.493012 0
    outer loop
      vertex -69.1177 -0.471397 24
      vertex -69.0935 -0.514103 -24
      vertex -69.0935 -0.514103 24
    endloop
  endfacet
  facet normal 0.534143 -0.845394 0
    outer loop
      vertex 0.514103 -69.0935 -24
      vertex 0.55557 -69.0673 24
      vertex 0.514103 -69.0935 24
    endloop
  endfacet
  facet normal 0.534143 -0.845394 0
    outer loop
      vertex 0.55557 -69.0673 24
      vertex 0.514103 -69.0935 -24
      vertex 0.55557 -69.0673 -24
    endloop
  endfacet
  facet normal 0.576325 -0.817221 0
    outer loop
      vertex 0.55557 -69.0673 -24
      vertex 0.595699 -69.039 24
      vertex 0.55557 -69.0673 24
    endloop
  endfacet
  facet normal 0.576325 -0.817221 0
    outer loop
      vertex 0.595699 -69.039 24
      vertex 0.55557 -69.0673 -24
      vertex 0.595699 -69.039 -24
    endloop
  endfacet
  facet normal 0.405405 -0.914137 0
    outer loop
      vertex 0.382683 -69.1597 -24
      vertex 0.427555 -69.1398 24
      vertex 0.382683 -69.1597 24
    endloop
  endfacet
  facet normal 0.405405 -0.914137 0
    outer loop
      vertex 0.427555 -69.1398 24
      vertex 0.382683 -69.1597 -24
      vertex 0.427555 -69.1398 -24
    endloop
  endfacet
  facet normal 0.313751 -0.949505 0
    outer loop
      vertex 0.290285 -69.1927 -24
      vertex 0.33689 -69.1773 24
      vertex 0.290285 -69.1927 24
    endloop
  endfacet
  facet normal 0.313751 -0.949505 0
    outer loop
      vertex 0.33689 -69.1773 24
      vertex 0.290285 -69.1927 -24
      vertex 0.33689 -69.1773 -24
    endloop
  endfacet
  facet normal 0.219996 -0.975501 0
    outer loop
      vertex 0.195091 -69.2166 -24
      vertex 0.24298 -69.2058 24
      vertex 0.195091 -69.2166 24
    endloop
  endfacet
  facet normal 0.219996 -0.975501 0
    outer loop
      vertex 0.24298 -69.2058 24
      vertex 0.195091 -69.2166 -24
      vertex 0.24298 -69.2058 -24
    endloop
  endfacet
  facet normal 0.266882 -0.963729 0
    outer loop
      vertex 0.24298 -69.2058 -24
      vertex 0.290285 -69.1927 24
      vertex 0.24298 -69.2058 24
    endloop
  endfacet
  facet normal 0.266882 -0.963729 0
    outer loop
      vertex 0.290285 -69.1927 24
      vertex 0.24298 -69.2058 -24
      vertex 0.290285 -69.1927 -24
    endloop
  endfacet
  facet normal -0.0733468 -0.997306 0
    outer loop
      vertex -0.0980174 -69.231 -24
      vertex -0.0490677 -69.2346 24
      vertex -0.0980174 -69.231 24
    endloop
  endfacet
  facet normal -0.0733468 -0.997306 -0
    outer loop
      vertex -0.0490677 -69.2346 24
      vertex -0.0980174 -69.231 -24
      vertex -0.0490677 -69.2346 -24
    endloop
  endfacet
  facet normal -0.171135 -0.985248 0
    outer loop
      vertex -0.195091 -69.2166 -24
      vertex -0.146731 -69.225 24
      vertex -0.195091 -69.2166 24
    endloop
  endfacet
  facet normal -0.171135 -0.985248 -0
    outer loop
      vertex -0.146731 -69.225 24
      vertex -0.195091 -69.2166 -24
      vertex -0.146731 -69.225 -24
    endloop
  endfacet
  facet normal -0.450128 -0.892964 0
    outer loop
      vertex -0.471397 -69.1177 -24
      vertex -0.427555 -69.1398 24
      vertex -0.471397 -69.1177 24
    endloop
  endfacet
  facet normal -0.450128 -0.892964 -0
    outer loop
      vertex -0.427555 -69.1398 24
      vertex -0.471397 -69.1177 -24
      vertex -0.427555 -69.1398 -24
    endloop
  endfacet
  facet normal -0.171135 0.985248 0
    outer loop
      vertex -0.146731 69.225 -24
      vertex -0.195091 69.2166 24
      vertex -0.146731 69.225 24
    endloop
  endfacet
  facet normal -0.171135 0.985248 0
    outer loop
      vertex -0.195091 69.2166 24
      vertex -0.146731 69.225 -24
      vertex -0.195091 69.2166 -24
    endloop
  endfacet
  facet normal 0.0244487 0.999701 -0
    outer loop
      vertex 0.0490677 69.2346 -24
      vertex 0 69.2358 24
      vertex 0.0490677 69.2346 24
    endloop
  endfacet
  facet normal 0.0244487 0.999701 0
    outer loop
      vertex 0 69.2358 24
      vertex 0.0490677 69.2346 -24
      vertex 0 69.2358 -24
    endloop
  endfacet
  facet normal 0.358754 0.933432 -0
    outer loop
      vertex 0.382683 69.1597 -24
      vertex 0.33689 69.1773 24
      vertex 0.382683 69.1597 24
    endloop
  endfacet
  facet normal 0.358754 0.933432 0
    outer loop
      vertex 0.33689 69.1773 24
      vertex 0.382683 69.1597 -24
      vertex 0.33689 69.1773 -24
    endloop
  endfacet
  facet normal 0.975501 0.219996 0
    outer loop
      vertex 69.2166 0.195091 24
      vertex 69.2058 0.24298 -24
      vertex 69.2058 0.24298 24
    endloop
  endfacet
  facet normal 0.975501 0.219996 0
    outer loop
      vertex 69.2058 0.24298 -24
      vertex 69.2166 0.195091 24
      vertex 69.2166 0.195091 -24
    endloop
  endfacet
  facet normal 0.9925 0.122245 0
    outer loop
      vertex 69.231 0.0980174 24
      vertex 69.225 0.146731 -24
      vertex 69.225 0.146731 24
    endloop
  endfacet
  facet normal 0.9925 0.122245 0
    outer loop
      vertex 69.225 0.146731 -24
      vertex 69.231 0.0980174 24
      vertex 69.231 0.0980174 -24
    endloop
  endfacet
  facet normal 0.870023 0.493012 0
    outer loop
      vertex 69.1177 0.471397 24
      vertex 69.0935 0.514103 -24
      vertex 69.0935 0.514103 24
    endloop
  endfacet
  facet normal 0.870023 0.493012 0
    outer loop
      vertex 69.0935 0.514103 -24
      vertex 69.1177 0.471397 24
      vertex 69.1177 0.471397 -24
    endloop
  endfacet
  facet normal 0.870023 -0.493012 0
    outer loop
      vertex 69.0935 -0.514103 24
      vertex 69.1177 -0.471397 -24
      vertex 69.1177 -0.471397 24
    endloop
  endfacet
  facet normal 0.870023 -0.493012 0
    outer loop
      vertex 69.1177 -0.471397 -24
      vertex 69.0935 -0.514103 24
      vertex 69.0935 -0.514103 -24
    endloop
  endfacet
  facet normal 0.845394 -0.534143 0
    outer loop
      vertex 69.0673 -0.55557 24
      vertex 69.0935 -0.514103 -24
      vertex 69.0935 -0.514103 24
    endloop
  endfacet
  facet normal 0.845394 -0.534143 0
    outer loop
      vertex 69.0935 -0.514103 -24
      vertex 69.0673 -0.55557 24
      vertex 69.0673 -0.55557 -24
    endloop
  endfacet
  facet normal 0.892964 -0.450128 0
    outer loop
      vertex 69.1177 -0.471397 24
      vertex 69.1398 -0.427555 -24
      vertex 69.1398 -0.427555 24
    endloop
  endfacet
  facet normal 0.892964 -0.450128 0
    outer loop
      vertex 69.1398 -0.427555 -24
      vertex 69.1177 -0.471397 24
      vertex 69.1177 -0.471397 -24
    endloop
  endfacet
  facet normal 0.723692 -0.690123 0
    outer loop
      vertex 68.9429 -0.707107 24
      vertex 68.9768 -0.671558 -24
      vertex 68.9768 -0.671558 24
    endloop
  endfacet
  facet normal 0.723692 -0.690123 0
    outer loop
      vertex 68.9768 -0.671558 -24
      vertex 68.9429 -0.707107 24
      vertex 68.9429 -0.707107 -24
    endloop
  endfacet
  facet normal 0.788318 -0.615268 0
    outer loop
      vertex 69.0088 -0.634393 24
      vertex 69.039 -0.595699 -24
      vertex 69.039 -0.595699 24
    endloop
  endfacet
  facet normal 0.788318 -0.615268 0
    outer loop
      vertex 69.039 -0.595699 -24
      vertex 69.0088 -0.634393 24
      vertex 69.0088 -0.634393 -24
    endloop
  endfacet
  facet normal 0.975501 -0.219996 0
    outer loop
      vertex 69.2058 -0.24298 24
      vertex 69.2166 -0.195091 -24
      vertex 69.2166 -0.195091 24
    endloop
  endfacet
  facet normal 0.975501 -0.219996 0
    outer loop
      vertex 69.2166 -0.195091 -24
      vertex 69.2058 -0.24298 24
      vertex 69.2058 -0.24298 -24
    endloop
  endfacet
  facet normal 0.933432 -0.358754 0
    outer loop
      vertex 69.1597 -0.382683 24
      vertex 69.1773 -0.33689 -24
      vertex 69.1773 -0.33689 24
    endloop
  endfacet
  facet normal 0.933432 -0.358754 0
    outer loop
      vertex 69.1773 -0.33689 -24
      vertex 69.1597 -0.382683 24
      vertex 69.1597 -0.382683 -24
    endloop
  endfacet
  facet normal 0.985248 -0.171135 0
    outer loop
      vertex 69.2166 -0.195091 24
      vertex 69.225 -0.146731 -24
      vertex 69.225 -0.146731 24
    endloop
  endfacet
  facet normal 0.985248 -0.171135 0
    outer loop
      vertex 69.225 -0.146731 -24
      vertex 69.2166 -0.195091 24
      vertex 69.2166 -0.195091 -24
    endloop
  endfacet
  facet normal 0.997306 -0.0733468 0
    outer loop
      vertex 69.231 -0.0980174 24
      vertex 69.2346 -0.0490677 -24
      vertex 69.2346 -0.0490677 24
    endloop
  endfacet
  facet normal 0.997306 -0.0733468 0
    outer loop
      vertex 69.2346 -0.0490677 -24
      vertex 69.231 -0.0980174 24
      vertex 69.231 -0.0980174 -24
    endloop
  endfacet
  facet normal -0.358754 0.933432 0
    outer loop
      vertex -0.33689 69.1773 -24
      vertex -0.382683 69.1597 24
      vertex -0.33689 69.1773 24
    endloop
  endfacet
  facet normal -0.358754 0.933432 0
    outer loop
      vertex -0.382683 69.1597 24
      vertex -0.33689 69.1773 -24
      vertex -0.382683 69.1597 -24
    endloop
  endfacet
  facet normal -0.615268 0.788318 0
    outer loop
      vertex -0.595699 69.039 -24
      vertex -0.634393 69.0088 24
      vertex -0.595699 69.039 24
    endloop
  endfacet
  facet normal -0.615268 0.788318 0
    outer loop
      vertex -0.634393 69.0088 24
      vertex -0.595699 69.039 -24
      vertex -0.634393 69.0088 -24
    endloop
  endfacet
  facet normal -0.690123 0.723692 0
    outer loop
      vertex -0.671558 68.9768 -24
      vertex -0.707107 68.9429 24
      vertex -0.671558 68.9768 24
    endloop
  endfacet
  facet normal -0.690123 0.723692 0
    outer loop
      vertex -0.707107 68.9429 24
      vertex -0.671558 68.9768 -24
      vertex -0.707107 68.9429 -24
    endloop
  endfacet
  facet normal -0.652486 0.757801 0
    outer loop
      vertex -0.634393 69.0088 -24
      vertex -0.671558 68.9768 24
      vertex -0.634393 69.0088 24
    endloop
  endfacet
  facet normal -0.652486 0.757801 0
    outer loop
      vertex -0.671558 68.9768 24
      vertex -0.634393 69.0088 -24
      vertex -0.671558 68.9768 -24
    endloop
  endfacet
  facet normal -0.985248 0.171135 0
    outer loop
      vertex -69.225 0.146731 -24
      vertex -69.2166 0.195091 24
      vertex -69.2166 0.195091 -24
    endloop
  endfacet
  facet normal -0.985248 0.171135 0
    outer loop
      vertex -69.2166 0.195091 24
      vertex -69.225 0.146731 -24
      vertex -69.225 0.146731 24
    endloop
  endfacet
  facet normal -0.963729 0.266882 0
    outer loop
      vertex -69.2058 0.24298 -24
      vertex -69.1927 0.290285 24
      vertex -69.1927 0.290285 -24
    endloop
  endfacet
  facet normal -0.963729 0.266882 0
    outer loop
      vertex -69.1927 0.290285 24
      vertex -69.2058 0.24298 -24
      vertex -69.2058 0.24298 24
    endloop
  endfacet
  facet normal -0.975501 0.219996 0
    outer loop
      vertex -69.2166 0.195091 -24
      vertex -69.2058 0.24298 24
      vertex -69.2058 0.24298 -24
    endloop
  endfacet
  facet normal -0.975501 0.219996 0
    outer loop
      vertex -69.2058 0.24298 24
      vertex -69.2166 0.195091 -24
      vertex -69.2166 0.195091 24
    endloop
  endfacet
  facet normal -0.999701 0.0244487 0
    outer loop
      vertex -69.2358 0 -24
      vertex -69.2346 0.0490677 24
      vertex -69.2346 0.0490677 -24
    endloop
  endfacet
  facet normal -0.999701 0.0244487 0
    outer loop
      vertex -69.2346 0.0490677 24
      vertex -69.2358 0 -24
      vertex -69.2358 0 24
    endloop
  endfacet
  facet normal -0.997306 0.0733468 0
    outer loop
      vertex -69.2346 0.0490677 -24
      vertex -69.231 0.0980174 24
      vertex -69.231 0.0980174 -24
    endloop
  endfacet
  facet normal -0.997306 0.0733468 0
    outer loop
      vertex -69.231 0.0980174 24
      vertex -69.2346 0.0490677 -24
      vertex -69.2346 0.0490677 24
    endloop
  endfacet
  facet normal -0.9925 0.122245 0
    outer loop
      vertex -69.231 0.0980174 -24
      vertex -69.225 0.146731 24
      vertex -69.225 0.146731 -24
    endloop
  endfacet
  facet normal -0.9925 0.122245 0
    outer loop
      vertex -69.225 0.146731 24
      vertex -69.231 0.0980174 -24
      vertex -69.231 0.0980174 24
    endloop
  endfacet
  facet normal -0.997306 -0.0733468 0
    outer loop
      vertex -69.231 -0.0980174 -24
      vertex -69.2346 -0.0490677 24
      vertex -69.2346 -0.0490677 -24
    endloop
  endfacet
  facet normal -0.997306 -0.0733468 0
    outer loop
      vertex -69.2346 -0.0490677 24
      vertex -69.231 -0.0980174 -24
      vertex -69.231 -0.0980174 24
    endloop
  endfacet
  facet normal -0.914137 -0.405405 0
    outer loop
      vertex -69.1398 -0.427555 -24
      vertex -69.1597 -0.382683 24
      vertex -69.1597 -0.382683 -24
    endloop
  endfacet
  facet normal -0.914137 -0.405405 0
    outer loop
      vertex -69.1597 -0.382683 24
      vertex -69.1398 -0.427555 -24
      vertex -69.1398 -0.427555 24
    endloop
  endfacet
  facet normal -0.845394 -0.534143 0
    outer loop
      vertex -69.0673 -0.55557 -24
      vertex -69.0935 -0.514103 24
      vertex -69.0935 -0.514103 -24
    endloop
  endfacet
  facet normal -0.845394 -0.534143 0
    outer loop
      vertex -69.0935 -0.514103 24
      vertex -69.0673 -0.55557 -24
      vertex -69.0673 -0.55557 24
    endloop
  endfacet
  facet normal -0.817221 -0.576325 0
    outer loop
      vertex -69.039 -0.595699 -24
      vertex -69.0673 -0.55557 24
      vertex -69.0673 -0.55557 -24
    endloop
  endfacet
  facet normal -0.817221 -0.576325 0
    outer loop
      vertex -69.0673 -0.55557 24
      vertex -69.039 -0.595699 -24
      vertex -69.039 -0.595699 24
    endloop
  endfacet
  facet normal -0.788318 -0.615268 0
    outer loop
      vertex -69.0088 -0.634393 -24
      vertex -69.039 -0.595699 24
      vertex -69.039 -0.595699 -24
    endloop
  endfacet
  facet normal -0.788318 -0.615268 0
    outer loop
      vertex -69.039 -0.595699 24
      vertex -69.0088 -0.634393 -24
      vertex -69.0088 -0.634393 24
    endloop
  endfacet
  facet normal -0.892964 -0.450128 0
    outer loop
      vertex -69.1177 -0.471397 -24
      vertex -69.1398 -0.427555 24
      vertex -69.1398 -0.427555 -24
    endloop
  endfacet
  facet normal -0.892964 -0.450128 0
    outer loop
      vertex -69.1398 -0.427555 24
      vertex -69.1177 -0.471397 -24
      vertex -69.1177 -0.471397 24
    endloop
  endfacet
  facet normal -0.405405 -0.914137 0
    outer loop
      vertex -0.427555 -69.1398 -24
      vertex -0.382683 -69.1597 24
      vertex -0.427555 -69.1398 24
    endloop
  endfacet
  facet normal -0.405405 -0.914137 -0
    outer loop
      vertex -0.382683 -69.1597 24
      vertex -0.427555 -69.1398 -24
      vertex -0.382683 -69.1597 -24
    endloop
  endfacet
  facet normal -0.313751 0.949505 0
    outer loop
      vertex -0.290285 69.1927 -24
      vertex -0.33689 69.1773 24
      vertex -0.290285 69.1927 24
    endloop
  endfacet
  facet normal -0.313751 0.949505 0
    outer loop
      vertex -0.33689 69.1773 24
      vertex -0.290285 69.1927 -24
      vertex -0.33689 69.1773 -24
    endloop
  endfacet
  facet normal 0.122245 0.9925 -0
    outer loop
      vertex 0.146731 69.225 -24
      vertex 0.0980174 69.231 24
      vertex 0.146731 69.225 24
    endloop
  endfacet
  facet normal 0.122245 0.9925 0
    outer loop
      vertex 0.0980174 69.231 24
      vertex 0.146731 69.225 -24
      vertex 0.0980174 69.231 -24
    endloop
  endfacet
  facet normal 0.219996 0.975501 -0
    outer loop
      vertex 0.24298 69.2058 -24
      vertex 0.195091 69.2166 24
      vertex 0.24298 69.2058 24
    endloop
  endfacet
  facet normal 0.219996 0.975501 0
    outer loop
      vertex 0.195091 69.2166 24
      vertex 0.24298 69.2058 -24
      vertex 0.195091 69.2166 -24
    endloop
  endfacet
  facet normal 0.450128 0.892964 -0
    outer loop
      vertex 0.471397 69.1177 -24
      vertex 0.427555 69.1398 24
      vertex 0.471397 69.1177 24
    endloop
  endfacet
  facet normal 0.450128 0.892964 0
    outer loop
      vertex 0.427555 69.1398 24
      vertex 0.471397 69.1177 -24
      vertex 0.427555 69.1398 -24
    endloop
  endfacet
  facet normal 0.999701 0.0244487 0
    outer loop
      vertex 69.2358 0 24
      vertex 69.2346 0.0490677 -24
      vertex 69.2346 0.0490677 24
    endloop
  endfacet
  facet normal 0.999701 0.0244487 0
    outer loop
      vertex 69.2346 0.0490677 -24
      vertex 69.2358 0 24
      vertex 69.2358 0 -24
    endloop
  endfacet
  facet normal 0.985248 0.171135 0
    outer loop
      vertex 69.225 0.146731 24
      vertex 69.2166 0.195091 -24
      vertex 69.2166 0.195091 24
    endloop
  endfacet
  facet normal 0.985248 0.171135 0
    outer loop
      vertex 69.2166 0.195091 -24
      vertex 69.225 0.146731 24
      vertex 69.225 0.146731 -24
    endloop
  endfacet
  facet normal 0.933432 0.358754 0
    outer loop
      vertex 69.1773 0.33689 24
      vertex 69.1597 0.382683 -24
      vertex 69.1597 0.382683 24
    endloop
  endfacet
  facet normal 0.933432 0.358754 0
    outer loop
      vertex 69.1597 0.382683 -24
      vertex 69.1773 0.33689 24
      vertex 69.1773 0.33689 -24
    endloop
  endfacet
  facet normal 0.949505 0.313751 0
    outer loop
      vertex 69.1927 0.290285 24
      vertex 69.1773 0.33689 -24
      vertex 69.1773 0.33689 24
    endloop
  endfacet
  facet normal 0.949505 0.313751 0
    outer loop
      vertex 69.1773 0.33689 -24
      vertex 69.1927 0.290285 24
      vertex 69.1927 0.290285 -24
    endloop
  endfacet
  facet normal 0.845394 0.534143 0
    outer loop
      vertex 69.0935 0.514103 24
      vertex 69.0673 0.55557 -24
      vertex 69.0673 0.55557 24
    endloop
  endfacet
  facet normal 0.845394 0.534143 0
    outer loop
      vertex 69.0673 0.55557 -24
      vertex 69.0935 0.514103 24
      vertex 69.0935 0.514103 -24
    endloop
  endfacet
  facet normal 0.723692 0.690123 0
    outer loop
      vertex 68.9768 0.671558 24
      vertex 68.9429 0.707107 -24
      vertex 68.9429 0.707107 24
    endloop
  endfacet
  facet normal 0.723692 0.690123 0
    outer loop
      vertex 68.9429 0.707107 -24
      vertex 68.9768 0.671558 24
      vertex 68.9768 0.671558 -24
    endloop
  endfacet
  facet normal 0.757801 0.652486 0
    outer loop
      vertex 69.0088 0.634393 24
      vertex 68.9768 0.671558 -24
      vertex 68.9768 0.671558 24
    endloop
  endfacet
  facet normal 0.757801 0.652486 0
    outer loop
      vertex 68.9768 0.671558 -24
      vertex 69.0088 0.634393 24
      vertex 69.0088 0.634393 -24
    endloop
  endfacet
  facet normal 0.757801 -0.652486 0
    outer loop
      vertex 68.9768 -0.671558 24
      vertex 69.0088 -0.634393 -24
      vertex 69.0088 -0.634393 24
    endloop
  endfacet
  facet normal 0.757801 -0.652486 0
    outer loop
      vertex 69.0088 -0.634393 -24
      vertex 68.9768 -0.671558 24
      vertex 68.9768 -0.671558 -24
    endloop
  endfacet
  facet normal 0.949505 -0.313751 0
    outer loop
      vertex 69.1773 -0.33689 24
      vertex 69.1927 -0.290285 -24
      vertex 69.1927 -0.290285 24
    endloop
  endfacet
  facet normal 0.949505 -0.313751 0
    outer loop
      vertex 69.1927 -0.290285 -24
      vertex 69.1773 -0.33689 24
      vertex 69.1773 -0.33689 -24
    endloop
  endfacet
  facet normal 0.9925 -0.122245 0
    outer loop
      vertex 69.225 -0.146731 24
      vertex 69.231 -0.0980174 -24
      vertex 69.231 -0.0980174 24
    endloop
  endfacet
  facet normal 0.9925 -0.122245 0
    outer loop
      vertex 69.231 -0.0980174 -24
      vertex 69.225 -0.146731 24
      vertex 69.225 -0.146731 -24
    endloop
  endfacet
  facet normal 0.999701 -0.0244487 0
    outer loop
      vertex 69.2346 -0.0490677 24
      vertex 69.2358 0 -24
      vertex 69.2358 0 24
    endloop
  endfacet
  facet normal 0.999701 -0.0244487 0
    outer loop
      vertex 69.2358 0 -24
      vertex 69.2346 -0.0490677 24
      vertex 69.2346 -0.0490677 -24
    endloop
  endfacet
  facet normal -0.534143 0.845394 0
    outer loop
      vertex -0.514103 69.0935 -24
      vertex -0.55557 69.0673 24
      vertex -0.514103 69.0935 24
    endloop
  endfacet
  facet normal -0.534143 0.845394 0
    outer loop
      vertex -0.55557 69.0673 24
      vertex -0.514103 69.0935 -24
      vertex -0.55557 69.0673 -24
    endloop
  endfacet
  facet normal -0.757801 0.652486 0
    outer loop
      vertex -69.0088 0.634393 -24
      vertex -68.9768 0.671558 24
      vertex -68.9768 0.671558 -24
    endloop
  endfacet
  facet normal -0.757801 0.652486 0
    outer loop
      vertex -68.9768 0.671558 24
      vertex -69.0088 0.634393 -24
      vertex -69.0088 0.634393 24
    endloop
  endfacet
  facet normal -0.817221 0.576325 0
    outer loop
      vertex -69.0673 0.55557 -24
      vertex -69.039 0.595699 24
      vertex -69.039 0.595699 -24
    endloop
  endfacet
  facet normal -0.817221 0.576325 0
    outer loop
      vertex -69.039 0.595699 24
      vertex -69.0673 0.55557 -24
      vertex -69.0673 0.55557 24
    endloop
  endfacet
  facet normal -0.788318 0.615268 0
    outer loop
      vertex -69.039 0.595699 -24
      vertex -69.0088 0.634393 24
      vertex -69.0088 0.634393 -24
    endloop
  endfacet
  facet normal -0.788318 0.615268 0
    outer loop
      vertex -69.0088 0.634393 24
      vertex -69.039 0.595699 -24
      vertex -69.039 0.595699 24
    endloop
  endfacet
  facet normal -0.870023 0.493012 0
    outer loop
      vertex -69.1177 0.471397 -24
      vertex -69.0935 0.514103 24
      vertex -69.0935 0.514103 -24
    endloop
  endfacet
  facet normal -0.870023 0.493012 0
    outer loop
      vertex -69.0935 0.514103 24
      vertex -69.1177 0.471397 -24
      vertex -69.1177 0.471397 24
    endloop
  endfacet
  facet normal -0.933432 0.358754 0
    outer loop
      vertex -69.1773 0.33689 -24
      vertex -69.1597 0.382683 24
      vertex -69.1597 0.382683 -24
    endloop
  endfacet
  facet normal -0.933432 0.358754 0
    outer loop
      vertex -69.1597 0.382683 24
      vertex -69.1773 0.33689 -24
      vertex -69.1773 0.33689 24
    endloop
  endfacet
  facet normal -0.9925 -0.122245 0
    outer loop
      vertex -69.225 -0.146731 -24
      vertex -69.231 -0.0980174 24
      vertex -69.231 -0.0980174 -24
    endloop
  endfacet
  facet normal -0.9925 -0.122245 0
    outer loop
      vertex -69.231 -0.0980174 24
      vertex -69.225 -0.146731 -24
      vertex -69.225 -0.146731 24
    endloop
  endfacet
  facet normal -0.723692 -0.690123 0
    outer loop
      vertex -68.9429 -0.707107 -24
      vertex -68.9768 -0.671558 24
      vertex -68.9768 -0.671558 -24
    endloop
  endfacet
  facet normal -0.723692 -0.690123 0
    outer loop
      vertex -68.9768 -0.671558 24
      vertex -68.9429 -0.707107 -24
      vertex -68.9429 -0.707107 24
    endloop
  endfacet
  facet normal -0.757801 -0.652486 0
    outer loop
      vertex -68.9768 -0.671558 -24
      vertex -69.0088 -0.634393 24
      vertex -69.0088 -0.634393 -24
    endloop
  endfacet
  facet normal -0.757801 -0.652486 0
    outer loop
      vertex -69.0088 -0.634393 24
      vertex -68.9768 -0.671558 -24
      vertex -68.9768 -0.671558 24
    endloop
  endfacet
  facet normal -0.313751 -0.949505 0
    outer loop
      vertex -0.33689 -69.1773 -24
      vertex -0.290285 -69.1927 24
      vertex -0.33689 -69.1773 24
    endloop
  endfacet
  facet normal -0.313751 -0.949505 -0
    outer loop
      vertex -0.290285 -69.1927 24
      vertex -0.33689 -69.1773 -24
      vertex -0.290285 -69.1927 -24
    endloop
  endfacet
  facet normal -0.122245 -0.9925 0
    outer loop
      vertex -0.146731 -69.225 -24
      vertex -0.0980174 -69.231 24
      vertex -0.146731 -69.225 24
    endloop
  endfacet
  facet normal -0.122245 -0.9925 -0
    outer loop
      vertex -0.0980174 -69.231 24
      vertex -0.146731 -69.225 -24
      vertex -0.0980174 -69.231 -24
    endloop
  endfacet
  facet normal -0.534143 -0.845394 0
    outer loop
      vertex -0.55557 -69.0673 -24
      vertex -0.514103 -69.0935 24
      vertex -0.55557 -69.0673 24
    endloop
  endfacet
  facet normal -0.534143 -0.845394 -0
    outer loop
      vertex -0.514103 -69.0935 24
      vertex -0.55557 -69.0673 -24
      vertex -0.514103 -69.0935 -24
    endloop
  endfacet
  facet normal -0.576325 -0.817221 0
    outer loop
      vertex -0.595699 -69.039 -24
      vertex -0.55557 -69.0673 24
      vertex -0.595699 -69.039 24
    endloop
  endfacet
  facet normal -0.576325 -0.817221 -0
    outer loop
      vertex -0.55557 -69.0673 24
      vertex -0.595699 -69.039 -24
      vertex -0.55557 -69.0673 -24
    endloop
  endfacet
  facet normal -0.122245 0.9925 0
    outer loop
      vertex -0.0980174 69.231 -24
      vertex -0.146731 69.225 24
      vertex -0.0980174 69.231 24
    endloop
  endfacet
  facet normal -0.122245 0.9925 0
    outer loop
      vertex -0.146731 69.225 24
      vertex -0.0980174 69.231 -24
      vertex -0.146731 69.225 -24
    endloop
  endfacet
  facet normal -0.0733468 0.997306 0
    outer loop
      vertex -0.0490677 69.2346 -24
      vertex -0.0980174 69.231 24
      vertex -0.0490677 69.2346 24
    endloop
  endfacet
  facet normal -0.0733468 0.997306 0
    outer loop
      vertex -0.0980174 69.231 24
      vertex -0.0490677 69.2346 -24
      vertex -0.0980174 69.231 -24
    endloop
  endfacet
  facet normal -0.0244487 0.999701 0
    outer loop
      vertex 0 69.2358 -24
      vertex -0.0490677 69.2346 24
      vertex 0 69.2358 24
    endloop
  endfacet
  facet normal -0.0244487 0.999701 0
    outer loop
      vertex -0.0490677 69.2346 24
      vertex 0 69.2358 -24
      vertex -0.0490677 69.2346 -24
    endloop
  endfacet
  facet normal -0.266882 0.963729 0
    outer loop
      vertex -0.24298 69.2058 -24
      vertex -0.290285 69.1927 24
      vertex -0.24298 69.2058 24
    endloop
  endfacet
  facet normal -0.266882 0.963729 0
    outer loop
      vertex -0.290285 69.1927 24
      vertex -0.24298 69.2058 -24
      vertex -0.290285 69.1927 -24
    endloop
  endfacet
  facet normal -0.219996 0.975501 0
    outer loop
      vertex -0.195091 69.2166 -24
      vertex -0.24298 69.2058 24
      vertex -0.195091 69.2166 24
    endloop
  endfacet
  facet normal -0.219996 0.975501 0
    outer loop
      vertex -0.24298 69.2058 24
      vertex -0.195091 69.2166 -24
      vertex -0.24298 69.2058 -24
    endloop
  endfacet
  facet normal 0.0733468 0.997306 -0
    outer loop
      vertex 0.0980174 69.231 -24
      vertex 0.0490677 69.2346 24
      vertex 0.0980174 69.231 24
    endloop
  endfacet
  facet normal 0.0733468 0.997306 0
    outer loop
      vertex 0.0490677 69.2346 24
      vertex 0.0980174 69.231 -24
      vertex 0.0490677 69.2346 -24
    endloop
  endfacet
  facet normal 0.171135 0.985248 -0
    outer loop
      vertex 0.195091 69.2166 -24
      vertex 0.146731 69.225 24
      vertex 0.195091 69.2166 24
    endloop
  endfacet
  facet normal 0.171135 0.985248 0
    outer loop
      vertex 0.146731 69.225 24
      vertex 0.195091 69.2166 -24
      vertex 0.146731 69.225 -24
    endloop
  endfacet
  facet normal 0.266882 0.963729 -0
    outer loop
      vertex 0.290285 69.1927 -24
      vertex 0.24298 69.2058 24
      vertex 0.290285 69.1927 24
    endloop
  endfacet
  facet normal 0.266882 0.963729 0
    outer loop
      vertex 0.24298 69.2058 24
      vertex 0.290285 69.1927 -24
      vertex 0.24298 69.2058 -24
    endloop
  endfacet
  facet normal 0.405405 0.914137 -0
    outer loop
      vertex 0.427555 69.1398 -24
      vertex 0.382683 69.1597 24
      vertex 0.427555 69.1398 24
    endloop
  endfacet
  facet normal 0.405405 0.914137 0
    outer loop
      vertex 0.382683 69.1597 24
      vertex 0.427555 69.1398 -24
      vertex 0.382683 69.1597 -24
    endloop
  endfacet
  facet normal 0.493012 0.870023 -0
    outer loop
      vertex 0.514103 69.0935 -24
      vertex 0.471397 69.1177 24
      vertex 0.514103 69.0935 24
    endloop
  endfacet
  facet normal 0.493012 0.870023 0
    outer loop
      vertex 0.471397 69.1177 24
      vertex 0.514103 69.0935 -24
      vertex 0.471397 69.1177 -24
    endloop
  endfacet
  facet normal 0.997306 0.0733468 0
    outer loop
      vertex 69.2346 0.0490677 24
      vertex 69.231 0.0980174 -24
      vertex 69.231 0.0980174 24
    endloop
  endfacet
  facet normal 0.997306 0.0733468 0
    outer loop
      vertex 69.231 0.0980174 -24
      vertex 69.2346 0.0490677 24
      vertex 69.2346 0.0490677 -24
    endloop
  endfacet
  facet normal 0.963729 0.266882 0
    outer loop
      vertex 69.2058 0.24298 24
      vertex 69.1927 0.290285 -24
      vertex 69.1927 0.290285 24
    endloop
  endfacet
  facet normal 0.963729 0.266882 0
    outer loop
      vertex 69.1927 0.290285 -24
      vertex 69.2058 0.24298 24
      vertex 69.2058 0.24298 -24
    endloop
  endfacet
  facet normal 0.892964 0.450128 0
    outer loop
      vertex 69.1398 0.427555 24
      vertex 69.1177 0.471397 -24
      vertex 69.1177 0.471397 24
    endloop
  endfacet
  facet normal 0.892964 0.450128 0
    outer loop
      vertex 69.1177 0.471397 -24
      vertex 69.1398 0.427555 24
      vertex 69.1398 0.427555 -24
    endloop
  endfacet
  facet normal 0.914137 0.405405 0
    outer loop
      vertex 69.1597 0.382683 24
      vertex 69.1398 0.427555 -24
      vertex 69.1398 0.427555 24
    endloop
  endfacet
  facet normal 0.914137 0.405405 0
    outer loop
      vertex 69.1398 0.427555 -24
      vertex 69.1597 0.382683 24
      vertex 69.1597 0.382683 -24
    endloop
  endfacet
  facet normal 0.788318 0.615268 0
    outer loop
      vertex 69.039 0.595699 24
      vertex 69.0088 0.634393 -24
      vertex 69.0088 0.634393 24
    endloop
  endfacet
  facet normal 0.788318 0.615268 0
    outer loop
      vertex 69.0088 0.634393 -24
      vertex 69.039 0.595699 24
      vertex 69.039 0.595699 -24
    endloop
  endfacet
  facet normal -0.493012 0.870023 0
    outer loop
      vertex -0.471397 69.1177 -24
      vertex -0.514103 69.0935 24
      vertex -0.471397 69.1177 24
    endloop
  endfacet
  facet normal -0.493012 0.870023 0
    outer loop
      vertex -0.514103 69.0935 24
      vertex -0.471397 69.1177 -24
      vertex -0.514103 69.0935 -24
    endloop
  endfacet
  facet normal -0.450128 0.892964 0
    outer loop
      vertex -0.427555 69.1398 -24
      vertex -0.471397 69.1177 24
      vertex -0.427555 69.1398 24
    endloop
  endfacet
  facet normal -0.450128 0.892964 0
    outer loop
      vertex -0.471397 69.1177 24
      vertex -0.427555 69.1398 -24
      vertex -0.471397 69.1177 -24
    endloop
  endfacet
  facet normal -0.723692 0.690123 0
    outer loop
      vertex -68.9768 0.671558 -24
      vertex -68.9429 0.707107 24
      vertex -68.9429 0.707107 -24
    endloop
  endfacet
  facet normal -0.723692 0.690123 0
    outer loop
      vertex -68.9429 0.707107 24
      vertex -68.9768 0.671558 -24
      vertex -68.9768 0.671558 24
    endloop
  endfacet
  facet normal -0.845394 0.534143 0
    outer loop
      vertex -69.0935 0.514103 -24
      vertex -69.0673 0.55557 24
      vertex -69.0673 0.55557 -24
    endloop
  endfacet
  facet normal -0.845394 0.534143 0
    outer loop
      vertex -69.0673 0.55557 24
      vertex -69.0935 0.514103 -24
      vertex -69.0935 0.514103 24
    endloop
  endfacet
  facet normal -0.914137 0.405405 0
    outer loop
      vertex -69.1597 0.382683 -24
      vertex -69.1398 0.427555 24
      vertex -69.1398 0.427555 -24
    endloop
  endfacet
  facet normal -0.914137 0.405405 0
    outer loop
      vertex -69.1398 0.427555 24
      vertex -69.1597 0.382683 -24
      vertex -69.1597 0.382683 24
    endloop
  endfacet
  facet normal -0.892964 0.450128 0
    outer loop
      vertex -69.1398 0.427555 -24
      vertex -69.1177 0.471397 24
      vertex -69.1177 0.471397 -24
    endloop
  endfacet
  facet normal -0.892964 0.450128 0
    outer loop
      vertex -69.1177 0.471397 24
      vertex -69.1398 0.427555 -24
      vertex -69.1398 0.427555 24
    endloop
  endfacet
  facet normal -0.999701 -0.0244487 0
    outer loop
      vertex -69.2346 -0.0490677 -24
      vertex -69.2358 0 24
      vertex -69.2358 0 -24
    endloop
  endfacet
  facet normal -0.999701 -0.0244487 0
    outer loop
      vertex -69.2358 0 24
      vertex -69.2346 -0.0490677 -24
      vertex -69.2346 -0.0490677 24
    endloop
  endfacet
  facet normal -0.933432 -0.358754 0
    outer loop
      vertex -69.1597 -0.382683 -24
      vertex -69.1773 -0.33689 24
      vertex -69.1773 -0.33689 -24
    endloop
  endfacet
  facet normal -0.933432 -0.358754 0
    outer loop
      vertex -69.1773 -0.33689 24
      vertex -69.1597 -0.382683 -24
      vertex -69.1597 -0.382683 24
    endloop
  endfacet
  facet normal -0.963729 -0.266882 0
    outer loop
      vertex -69.1927 -0.290285 -24
      vertex -69.2058 -0.24298 24
      vertex -69.2058 -0.24298 -24
    endloop
  endfacet
  facet normal -0.963729 -0.266882 0
    outer loop
      vertex -69.2058 -0.24298 24
      vertex -69.1927 -0.290285 -24
      vertex -69.1927 -0.290285 24
    endloop
  endfacet
  facet normal -0.975501 -0.219996 0
    outer loop
      vertex -69.2058 -0.24298 -24
      vertex -69.2166 -0.195091 24
      vertex -69.2166 -0.195091 -24
    endloop
  endfacet
  facet normal -0.975501 -0.219996 0
    outer loop
      vertex -69.2166 -0.195091 24
      vertex -69.2058 -0.24298 -24
      vertex -69.2058 -0.24298 24
    endloop
  endfacet
  facet normal -0.493012 -0.870023 0
    outer loop
      vertex -0.514103 -69.0935 -24
      vertex -0.471397 -69.1177 24
      vertex -0.514103 -69.0935 24
    endloop
  endfacet
  facet normal -0.493012 -0.870023 -0
    outer loop
      vertex -0.471397 -69.1177 24
      vertex -0.514103 -69.0935 -24
      vertex -0.471397 -69.1177 -24
    endloop
  endfacet
  facet normal -0.615268 -0.788318 0
    outer loop
      vertex -0.634393 -69.0088 -24
      vertex -0.595699 -69.039 24
      vertex -0.634393 -69.0088 24
    endloop
  endfacet
  facet normal -0.615268 -0.788318 -0
    outer loop
      vertex -0.595699 -69.039 24
      vertex -0.634393 -69.0088 -24
      vertex -0.595699 -69.039 -24
    endloop
  endfacet
  facet normal 0.615268 0.788318 -0
    outer loop
      vertex 0.634393 69.0088 -24
      vertex 0.595699 69.039 24
      vertex 0.634393 69.0088 24
    endloop
  endfacet
  facet normal 0.615268 0.788318 0
    outer loop
      vertex 0.595699 69.039 24
      vertex 0.634393 69.0088 -24
      vertex 0.595699 69.039 -24
    endloop
  endfacet
  facet normal -0.949505 -0.313751 0
    outer loop
      vertex -69.1773 -0.33689 -24
      vertex -69.1927 -0.290285 24
      vertex -69.1927 -0.290285 -24
    endloop
  endfacet
  facet normal -0.949505 -0.313751 0
    outer loop
      vertex -69.1927 -0.290285 24
      vertex -69.1773 -0.33689 -24
      vertex -69.1773 -0.33689 24
    endloop
  endfacet
  facet normal 0.534143 0.845394 -0
    outer loop
      vertex 0.55557 69.0673 -24
      vertex 0.514103 69.0935 24
      vertex 0.55557 69.0673 24
    endloop
  endfacet
  facet normal 0.534143 0.845394 0
    outer loop
      vertex 0.514103 69.0935 24
      vertex 0.55557 69.0673 -24
      vertex 0.514103 69.0935 -24
    endloop
  endfacet
  facet normal 0.576325 0.817221 -0
    outer loop
      vertex 0.595699 69.039 -24
      vertex 0.55557 69.0673 24
      vertex 0.595699 69.039 24
    endloop
  endfacet
  facet normal 0.576325 0.817221 0
    outer loop
      vertex 0.55557 69.0673 24
      vertex 0.595699 69.039 -24
      vertex 0.55557 69.0673 -24
    endloop
  endfacet
  facet normal 0.652486 0.757801 -0
    outer loop
      vertex 0.671558 68.9768 -24
      vertex 0.634393 69.0088 24
      vertex 0.671558 68.9768 24
    endloop
  endfacet
  facet normal 0.652486 0.757801 0
    outer loop
      vertex 0.634393 69.0088 24
      vertex 0.671558 68.9768 -24
      vertex 0.634393 69.0088 -24
    endloop
  endfacet
  facet normal 0.690123 0.723692 -0
    outer loop
      vertex 0.707107 68.9429 -24
      vertex 0.671558 68.9768 24
      vertex 0.707107 68.9429 24
    endloop
  endfacet
  facet normal 0.690123 0.723692 0
    outer loop
      vertex 0.671558 68.9768 24
      vertex 0.707107 68.9429 -24
      vertex 0.671558 68.9768 -24
    endloop
  endfacet
  facet normal 0.707107 0.707107 0
    outer loop
      vertex 0 -66.8216 24
      vertex -66.8216 0 -22
      vertex -66.8216 0 24
    endloop
  endfacet
  facet normal 0.707107 0.707107 0
    outer loop
      vertex -66.8216 0 -22
      vertex 0 -66.8216 24
      vertex 0 -66.8216 -22
    endloop
  endfacet
  facet normal -0.707107 -0.707107 0
    outer loop
      vertex 66.8216 0 -22
      vertex 0 66.8216 24
      vertex 0 66.8216 -22
    endloop
  endfacet
  facet normal -0.707107 -0.707107 0
    outer loop
      vertex 0 66.8216 24
      vertex 66.8216 0 -22
      vertex 66.8216 0 24
    endloop
  endfacet
  facet normal 0.707107 -0.707107 0
    outer loop
      vertex -66.8216 0 24
      vertex 0 66.8216 -22
      vertex 0 66.8216 24
    endloop
  endfacet
  facet normal 0.707107 -0.707107 0
    outer loop
      vertex 0 66.8216 -22
      vertex -66.8216 0 24
      vertex -66.8216 0 -22
    endloop
  endfacet
  facet normal 0 0 1
    outer loop
      vertex 0 66.8216 -22
      vertex 0 -66.8216 -22
      vertex 66.8216 0 -22
    endloop
  endfacet
  facet normal 0 -0 1
    outer loop
      vertex 0 -66.8216 -22
      vertex 0 66.8216 -22
      vertex -66.8216 0 -22
    endloop
  endfacet
  facet normal -0.707107 0.707107 0
    outer loop
      vertex 0 -66.8216 -22
      vertex 66.8216 0 24
      vertex 66.8216 0 -22
    endloop
  endfacet
  facet normal -0.707107 0.707107 0
    outer loop
      vertex 66.8216 0 24
      vertex 0 -66.8216 -22
      vertex 0 -66.8216 24
    endloop
  endfacet
endsolid OpenSCAD_Model
