solid OpenSCAD_Model
  facet normal -0.0244326 -0.999701 0
    outer loop
      vertex -89.0491 -89.9988 -10
      vertex -89 -90 10
      vertex -89.0491 -89.9988 10
    endloop
  endfacet
  facet normal -0.0244326 -0.999701 -0
    outer loop
      vertex -89 -90 10
      vertex -89.0491 -89.9988 -10
      vertex -89 -90 -10
    endloop
  endfacet
  facet normal -0.0734209 -0.997301 0
    outer loop
      vertex -89.098 -89.9952 -10
      vertex -89.0491 -89.9988 10
      vertex -89.098 -89.9952 10
    endloop
  endfacet
  facet normal -0.0734209 -0.997301 -0
    outer loop
      vertex -89.0491 -89.9988 10
      vertex -89.098 -89.9952 -10
      vertex -89.0491 -89.9988 -10
    endloop
  endfacet
  facet normal -0.405194 -0.914231 0
    outer loop
      vertex -89.4276 -89.904 -10
      vertex -89.3827 -89.9239 10
      vertex -89.4276 -89.904 10
    endloop
  endfacet
  facet normal -0.405194 -0.914231 -0
    outer loop
      vertex -89.3827 -89.9239 10
      vertex -89.4276 -89.904 -10
      vertex -89.3827 -89.9239 -10
    endloop
  endfacet
  facet normal -1 0 0
    outer loop
      vertex -90 -89 -10
      vertex -90 89 10
      vertex -90 89 -10
    endloop
  endfacet
  facet normal -1 -0 0
    outer loop
      vertex -90 89 10
      vertex -90 -89 -10
      vertex -90 -89 10
    endloop
  endfacet
  facet normal -0.219948 -0.975512 0
    outer loop
      vertex -89.243 -89.97 -10
      vertex -89.1951 -89.9808 10
      vertex -89.243 -89.97 10
    endloop
  endfacet
  facet normal -0.219948 -0.975512 -0
    outer loop
      vertex -89.1951 -89.9808 10
      vertex -89.243 -89.97 -10
      vertex -89.1951 -89.9808 -10
    endloop
  endfacet
  facet normal -0.122279 -0.992496 0
    outer loop
      vertex -89.1467 -89.9892 -10
      vertex -89.098 -89.9952 10
      vertex -89.1467 -89.9892 10
    endloop
  endfacet
  facet normal -0.122279 -0.992496 -0
    outer loop
      vertex -89.098 -89.9952 10
      vertex -89.1467 -89.9892 -10
      vertex -89.098 -89.9952 -10
    endloop
  endfacet
  facet normal -0.313782 -0.949495 0
    outer loop
      vertex -89.3369 -89.9415 -10
      vertex -89.2903 -89.9569 10
      vertex -89.3369 -89.9415 10
    endloop
  endfacet
  facet normal -0.313782 -0.949495 -0
    outer loop
      vertex -89.2903 -89.9569 10
      vertex -89.3369 -89.9415 -10
      vertex -89.2903 -89.9569 -10
    endloop
  endfacet
  facet normal -0.266908 -0.963722 0
    outer loop
      vertex -89.2903 -89.9569 -10
      vertex -89.243 -89.97 10
      vertex -89.2903 -89.9569 10
    endloop
  endfacet
  facet normal -0.266908 -0.963722 -0
    outer loop
      vertex -89.243 -89.97 10
      vertex -89.2903 -89.9569 -10
      vertex -89.243 -89.97 -10
    endloop
  endfacet
  facet normal 0 -1 0
    outer loop
      vertex -89 -90 -10
      vertex 89 -90 10
      vertex -89 -90 10
    endloop
  endfacet
  facet normal 0 -1 -0
    outer loop
      vertex 89 -90 10
      vertex -89 -90 -10
      vertex 89 -90 -10
    endloop
  endfacet
  facet normal -0.170998 -0.985271 0
    outer loop
      vertex -89.1951 -89.9808 -10
      vertex -89.1467 -89.9892 10
      vertex -89.1951 -89.9808 10
    endloop
  endfacet
  facet normal -0.170998 -0.985271 -0
    outer loop
      vertex -89.1467 -89.9892 10
      vertex -89.1951 -89.9808 -10
      vertex -89.1467 -89.9892 -10
    endloop
  endfacet
  facet normal -0.358706 -0.933451 0
    outer loop
      vertex -89.3827 -89.9239 -10
      vertex -89.3369 -89.9415 10
      vertex -89.3827 -89.9239 10
    endloop
  endfacet
  facet normal -0.358706 -0.933451 -0
    outer loop
      vertex -89.3369 -89.9415 10
      vertex -89.3827 -89.9239 -10
      vertex -89.3369 -89.9415 -10
    endloop
  endfacet
  facet normal -0.450472 -0.892791 0
    outer loop
      vertex -89.4714 -89.8819 -10
      vertex -89.4276 -89.904 10
      vertex -89.4714 -89.8819 10
    endloop
  endfacet
  facet normal -0.450472 -0.892791 -0
    outer loop
      vertex -89.4276 -89.904 10
      vertex -89.4714 -89.8819 -10
      vertex -89.4276 -89.904 -10
    endloop
  endfacet
  facet normal -0.652133 -0.758105 0
    outer loop
      vertex -89.6716 -89.741 -10
      vertex -89.6344 -89.773 10
      vertex -89.6716 -89.741 10
    endloop
  endfacet
  facet normal -0.652133 -0.758105 -0
    outer loop
      vertex -89.6344 -89.773 10
      vertex -89.6716 -89.741 -10
      vertex -89.6344 -89.773 -10
    endloop
  endfacet
  facet normal -0.615209 -0.788364 0
    outer loop
      vertex -89.6344 -89.773 -10
      vertex -89.5957 -89.8032 10
      vertex -89.6344 -89.773 10
    endloop
  endfacet
  facet normal -0.615209 -0.788364 -0
    outer loop
      vertex -89.5957 -89.8032 10
      vertex -89.6344 -89.773 -10
      vertex -89.5957 -89.8032 -10
    endloop
  endfacet
  facet normal 0.0244326 -0.999701 0
    outer loop
      vertex 89 -90 -10
      vertex 89.0491 -89.9988 10
      vertex 89 -90 10
    endloop
  endfacet
  facet normal 0.0244326 -0.999701 0
    outer loop
      vertex 89.0491 -89.9988 10
      vertex 89 -90 -10
      vertex 89.0491 -89.9988 -10
    endloop
  endfacet
  facet normal 0.405194 -0.914231 0
    outer loop
      vertex 89.3827 -89.9239 -10
      vertex 89.4276 -89.904 10
      vertex 89.3827 -89.9239 10
    endloop
  endfacet
  facet normal 0.405194 -0.914231 0
    outer loop
      vertex 89.4276 -89.904 10
      vertex 89.3827 -89.9239 -10
      vertex 89.4276 -89.904 -10
    endloop
  endfacet
  facet normal 0 1 -0
    outer loop
      vertex 89 90 -10
      vertex -89 90 10
      vertex 89 90 10
    endloop
  endfacet
  facet normal 0 1 0
    outer loop
      vertex -89 90 10
      vertex 89 90 -10
      vertex -89 90 -10
    endloop
  endfacet
  facet normal 0 0 1
    outer loop
      vertex 88 88 10
      vertex 90 89 10
      vertex 89.9988 89.0491 10
    endloop
  endfacet
  facet normal 0 0 1
    outer loop
      vertex 90 89 10
      vertex 88 88 10
      vertex 90 -89 10
    endloop
  endfacet
  facet normal 0 0 1
    outer loop
      vertex 88 88 10
      vertex 89.9988 89.0491 10
      vertex 89.9952 89.098 10
    endloop
  endfacet
  facet normal -0 0 1
    outer loop
      vertex 88 -88 10
      vertex 90 -89 10
      vertex 88 88 10
    endloop
  endfacet
  facet normal 0 0 1
    outer loop
      vertex 88 88 10
      vertex 89.9952 89.098 10
      vertex 89.9892 89.1467 10
    endloop
  endfacet
  facet normal 0 0 1
    outer loop
      vertex 90 -89 10
      vertex 88 -88 10
      vertex 89.9988 -89.0491 10
    endloop
  endfacet
  facet normal 0 0 1
    outer loop
      vertex 88 88 10
      vertex 89.9892 89.1467 10
      vertex 89.9808 89.1951 10
    endloop
  endfacet
  facet normal 0 0 1
    outer loop
      vertex 89.9988 -89.0491 10
      vertex 88 -88 10
      vertex 89.9952 -89.098 10
    endloop
  endfacet
  facet normal 0 0 1
    outer loop
      vertex 88 88 10
      vertex 89.9808 89.1951 10
      vertex 89.97 89.243 10
    endloop
  endfacet
  facet normal 0 0 1
    outer loop
      vertex 89.9952 -89.098 10
      vertex 88 -88 10
      vertex 89.9892 -89.1467 10
    endloop
  endfacet
  facet normal 0 0 1
    outer loop
      vertex 88 88 10
      vertex 89.97 89.243 10
      vertex 89.9569 89.2903 10
    endloop
  endfacet
  facet normal 0 0 1
    outer loop
      vertex 89.9892 -89.1467 10
      vertex 88 -88 10
      vertex 89.9808 -89.1951 10
    endloop
  endfacet
  facet normal 0 0 1
    outer loop
      vertex 88 88 10
      vertex 89.9569 89.2903 10
      vertex 89.9415 89.3369 10
    endloop
  endfacet
  facet normal 0 0 1
    outer loop
      vertex 89.9808 -89.1951 10
      vertex 88 -88 10
      vertex 89.97 -89.243 10
    endloop
  endfacet
  facet normal 0 0 1
    outer loop
      vertex 88 88 10
      vertex 89.9415 89.3369 10
      vertex 89.9239 89.3827 10
    endloop
  endfacet
  facet normal 0 0 1
    outer loop
      vertex 89.97 -89.243 10
      vertex 88 -88 10
      vertex 89.9569 -89.2903 10
    endloop
  endfacet
  facet normal 0 0 1
    outer loop
      vertex 88 88 10
      vertex 89.9239 89.3827 10
      vertex 89.904 89.4276 10
    endloop
  endfacet
  facet normal 0 0 1
    outer loop
      vertex 89.9569 -89.2903 10
      vertex 88 -88 10
      vertex 89.9415 -89.3369 10
    endloop
  endfacet
  facet normal 0 0 1
    outer loop
      vertex 88 88 10
      vertex 89.904 89.4276 10
      vertex 89.8819 89.4714 10
    endloop
  endfacet
  facet normal 0 0 1
    outer loop
      vertex 89.9415 -89.3369 10
      vertex 88 -88 10
      vertex 89.9239 -89.3827 10
    endloop
  endfacet
  facet normal 0 0 1
    outer loop
      vertex 88 88 10
      vertex 89.8819 89.4714 10
      vertex 89.8577 89.5141 10
    endloop
  endfacet
  facet normal 0 0 1
    outer loop
      vertex 89.9239 -89.3827 10
      vertex 88 -88 10
      vertex 89.904 -89.4276 10
    endloop
  endfacet
  facet normal 0 0 1
    outer loop
      vertex 88 88 10
      vertex 89.8577 89.5141 10
      vertex 89.8315 89.5556 10
    endloop
  endfacet
  facet normal 0 0 1
    outer loop
      vertex 89.904 -89.4276 10
      vertex 88 -88 10
      vertex 89.8819 -89.4714 10
    endloop
  endfacet
  facet normal 0 0 1
    outer loop
      vertex 88 88 10
      vertex 89.8315 89.5556 10
      vertex 89.8032 89.5957 10
    endloop
  endfacet
  facet normal 0 0 1
    outer loop
      vertex 89.8819 -89.4714 10
      vertex 88 -88 10
      vertex 89.8577 -89.5141 10
    endloop
  endfacet
  facet normal 0 0 1
    outer loop
      vertex 88 88 10
      vertex 89.8032 89.5957 10
      vertex 89.773 89.6344 10
    endloop
  endfacet
  facet normal 0 0 1
    outer loop
      vertex 89.8577 -89.5141 10
      vertex 88 -88 10
      vertex 89.8315 -89.5556 10
    endloop
  endfacet
  facet normal 0 0 1
    outer loop
      vertex 88 88 10
      vertex 89.773 89.6344 10
      vertex 89.741 89.6716 10
    endloop
  endfacet
  facet normal 0 0 1
    outer loop
      vertex 89.8315 -89.5556 10
      vertex 88 -88 10
      vertex 89.8032 -89.5957 10
    endloop
  endfacet
  facet normal 0 0 1
    outer loop
      vertex 88 88 10
      vertex 89.741 89.6716 10
      vertex 89.7071 89.7071 10
    endloop
  endfacet
  facet normal 0 0 1
    outer loop
      vertex 89.8032 -89.5957 10
      vertex 88 -88 10
      vertex 89.773 -89.6344 10
    endloop
  endfacet
  facet normal 0 0 1
    outer loop
      vertex 88 88 10
      vertex 89.7071 89.7071 10
      vertex 89.6716 89.741 10
    endloop
  endfacet
  facet normal 0 0 1
    outer loop
      vertex 89.773 -89.6344 10
      vertex 88 -88 10
      vertex 89.741 -89.6716 10
    endloop
  endfacet
  facet normal 0 0 1
    outer loop
      vertex 88 88 10
      vertex 89.6716 89.741 10
      vertex 89.6344 89.773 10
    endloop
  endfacet
  facet normal 0 0 1
    outer loop
      vertex 89.741 -89.6716 10
      vertex 88 -88 10
      vertex 89.7071 -89.7071 10
    endloop
  endfacet
  facet normal 0 0 1
    outer loop
      vertex 88 88 10
      vertex 89.6344 89.773 10
      vertex 89.5957 89.8032 10
    endloop
  endfacet
  facet normal 0 0 1
    outer loop
      vertex 89.7071 -89.7071 10
      vertex 88 -88 10
      vertex 89.6716 -89.741 10
    endloop
  endfacet
  facet normal 0 0 1
    outer loop
      vertex 88 88 10
      vertex 89.5957 89.8032 10
      vertex 89.5556 89.8315 10
    endloop
  endfacet
  facet normal 0 0 1
    outer loop
      vertex 89.6716 -89.741 10
      vertex 88 -88 10
      vertex 89.6344 -89.773 10
    endloop
  endfacet
  facet normal 0 0 1
    outer loop
      vertex 88 88 10
      vertex 89.5556 89.8315 10
      vertex 89.5141 89.8577 10
    endloop
  endfacet
  facet normal 0 0 1
    outer loop
      vertex 89.6344 -89.773 10
      vertex 88 -88 10
      vertex 89.5957 -89.8032 10
    endloop
  endfacet
  facet normal 0 0 1
    outer loop
      vertex 88 88 10
      vertex 89.5141 89.8577 10
      vertex 89.4714 89.8819 10
    endloop
  endfacet
  facet normal 0 0 1
    outer loop
      vertex 89.5957 -89.8032 10
      vertex 88 -88 10
      vertex 89.5556 -89.8315 10
    endloop
  endfacet
  facet normal 0 0 1
    outer loop
      vertex 88 88 10
      vertex 89.4714 89.8819 10
      vertex 89.4276 89.904 10
    endloop
  endfacet
  facet normal 0 0 1
    outer loop
      vertex 89.5556 -89.8315 10
      vertex 88 -88 10
      vertex 89.5141 -89.8577 10
    endloop
  endfacet
  facet normal 0 0 1
    outer loop
      vertex 88 88 10
      vertex 89.4276 89.904 10
      vertex 89.3827 89.9239 10
    endloop
  endfacet
  facet normal 0 0 1
    outer loop
      vertex 89.5141 -89.8577 10
      vertex 88 -88 10
      vertex 89.4714 -89.8819 10
    endloop
  endfacet
  facet normal 0 0 1
    outer loop
      vertex 88 88 10
      vertex 89.3827 89.9239 10
      vertex 89.3369 89.9415 10
    endloop
  endfacet
  facet normal 0 0 1
    outer loop
      vertex 89.4714 -89.8819 10
      vertex 88 -88 10
      vertex 89.4276 -89.904 10
    endloop
  endfacet
  facet normal 0 0 1
    outer loop
      vertex 88 88 10
      vertex 89.3369 89.9415 10
      vertex 89.2903 89.9569 10
    endloop
  endfacet
  facet normal 0 0 1
    outer loop
      vertex 89.4276 -89.904 10
      vertex 88 -88 10
      vertex 89.3827 -89.9239 10
    endloop
  endfacet
  facet normal 0 0 1
    outer loop
      vertex 88 88 10
      vertex 89.2903 89.9569 10
      vertex 89.243 89.97 10
    endloop
  endfacet
  facet normal 0 0 1
    outer loop
      vertex 89.3827 -89.9239 10
      vertex 88 -88 10
      vertex 89.3369 -89.9415 10
    endloop
  endfacet
  facet normal 0 0 1
    outer loop
      vertex 88 88 10
      vertex 89.243 89.97 10
      vertex 89.1951 89.9808 10
    endloop
  endfacet
  facet normal 0 0 1
    outer loop
      vertex 89.3369 -89.9415 10
      vertex 88 -88 10
      vertex 89.2903 -89.9569 10
    endloop
  endfacet
  facet normal 0 0 1
    outer loop
      vertex 88 88 10
      vertex 89.1951 89.9808 10
      vertex 89.1467 89.9892 10
    endloop
  endfacet
  facet normal 0 0 1
    outer loop
      vertex 89.2903 -89.9569 10
      vertex 88 -88 10
      vertex 89.243 -89.97 10
    endloop
  endfacet
  facet normal 0 0 1
    outer loop
      vertex 88 88 10
      vertex 89.1467 89.9892 10
      vertex 89.098 89.9952 10
    endloop
  endfacet
  facet normal 0 0 1
    outer loop
      vertex 89.243 -89.97 10
      vertex 88 -88 10
      vertex 89.1951 -89.9808 10
    endloop
  endfacet
  facet normal 0 0 1
    outer loop
      vertex 88 88 10
      vertex 89.098 89.9952 10
      vertex 89.0491 89.9988 10
    endloop
  endfacet
  facet normal 0 0 1
    outer loop
      vertex 89.1951 -89.9808 10
      vertex 88 -88 10
      vertex 89.1467 -89.9892 10
    endloop
  endfacet
  facet normal 0 0 1
    outer loop
      vertex 88 88 10
      vertex 89.0491 89.9988 10
      vertex 89 90 10
    endloop
  endfacet
  facet normal 0 0 1
    outer loop
      vertex 89.1467 -89.9892 10
      vertex 88 -88 10
      vertex 89.098 -89.9952 10
    endloop
  endfacet
  facet normal 0 0 1
    outer loop
      vertex 89.098 -89.9952 10
      vertex 88 -88 10
      vertex 89.0491 -89.9988 10
    endloop
  endfacet
  facet normal 0 0 1
    outer loop
      vertex 89 90 10
      vertex -88 88 10
      vertex 88 88 10
    endloop
  endfacet
  facet normal -0 0 1
    outer loop
      vertex -90 89 10
      vertex -88 88 10
      vertex -89 90 10
    endloop
  endfacet
  facet normal -0 0 1
    outer loop
      vertex -89 90 10
      vertex -88 88 10
      vertex 89 90 10
    endloop
  endfacet
  facet normal 0 0 1
    outer loop
      vertex 89.0491 -89.9988 10
      vertex 88 -88 10
      vertex 89 -90 10
    endloop
  endfacet
  facet normal -0 0 1
    outer loop
      vertex -88 -88 10
      vertex 89 -90 10
      vertex 88 -88 10
    endloop
  endfacet
  facet normal 0 0 1
    outer loop
      vertex -88 -88 10
      vertex -89 -90 10
      vertex 89 -90 10
    endloop
  endfacet
  facet normal 0 0 1
    outer loop
      vertex -88 88 10
      vertex -90 89 10
      vertex -88 -88 10
    endloop
  endfacet
  facet normal 0 0 1
    outer loop
      vertex -90 89 10
      vertex -89 90 10
      vertex -89.0491 89.9988 10
    endloop
  endfacet
  facet normal 0 0 1
    outer loop
      vertex -90 -89 10
      vertex -88 -88 10
      vertex -90 89 10
    endloop
  endfacet
  facet normal 0 0 1
    outer loop
      vertex -90 89 10
      vertex -89.0491 89.9988 10
      vertex -89.098 89.9952 10
    endloop
  endfacet
  facet normal 0 0 1
    outer loop
      vertex -88 -88 10
      vertex -90 -89 10
      vertex -89 -90 10
    endloop
  endfacet
  facet normal 0 0 1
    outer loop
      vertex -90 89 10
      vertex -89.098 89.9952 10
      vertex -89.1467 89.9892 10
    endloop
  endfacet
  facet normal 0 0 1
    outer loop
      vertex -89 -90 10
      vertex -90 -89 10
      vertex -89.0491 -89.9988 10
    endloop
  endfacet
  facet normal 0 0 1
    outer loop
      vertex -90 89 10
      vertex -89.1467 89.9892 10
      vertex -89.1951 89.9808 10
    endloop
  endfacet
  facet normal 0 0 1
    outer loop
      vertex -89.0491 -89.9988 10
      vertex -90 -89 10
      vertex -89.098 -89.9952 10
    endloop
  endfacet
  facet normal 0 0 1
    outer loop
      vertex -90 89 10
      vertex -89.1951 89.9808 10
      vertex -89.243 89.97 10
    endloop
  endfacet
  facet normal 0 0 1
    outer loop
      vertex -89.098 -89.9952 10
      vertex -90 -89 10
      vertex -89.1467 -89.9892 10
    endloop
  endfacet
  facet normal 0 0 1
    outer loop
      vertex -90 89 10
      vertex -89.243 89.97 10
      vertex -89.2903 89.9569 10
    endloop
  endfacet
  facet normal 0 0 1
    outer loop
      vertex -89.1467 -89.9892 10
      vertex -90 -89 10
      vertex -89.1951 -89.9808 10
    endloop
  endfacet
  facet normal 0 0 1
    outer loop
      vertex -90 89 10
      vertex -89.2903 89.9569 10
      vertex -89.3369 89.9415 10
    endloop
  endfacet
  facet normal 0 0 1
    outer loop
      vertex -89.1951 -89.9808 10
      vertex -90 -89 10
      vertex -89.243 -89.97 10
    endloop
  endfacet
  facet normal 0 0 1
    outer loop
      vertex -90 89 10
      vertex -89.3369 89.9415 10
      vertex -89.3827 89.9239 10
    endloop
  endfacet
  facet normal 0 0 1
    outer loop
      vertex -89.243 -89.97 10
      vertex -90 -89 10
      vertex -89.2903 -89.9569 10
    endloop
  endfacet
  facet normal 0 0 1
    outer loop
      vertex -90 89 10
      vertex -89.3827 89.9239 10
      vertex -89.4276 89.904 10
    endloop
  endfacet
  facet normal 0 0 1
    outer loop
      vertex -89.2903 -89.9569 10
      vertex -90 -89 10
      vertex -89.3369 -89.9415 10
    endloop
  endfacet
  facet normal 0 0 1
    outer loop
      vertex -90 89 10
      vertex -89.4276 89.904 10
      vertex -89.4714 89.8819 10
    endloop
  endfacet
  facet normal 0 0 1
    outer loop
      vertex -89.3369 -89.9415 10
      vertex -90 -89 10
      vertex -89.3827 -89.9239 10
    endloop
  endfacet
  facet normal 0 0 1
    outer loop
      vertex -90 89 10
      vertex -89.4714 89.8819 10
      vertex -89.5141 89.8577 10
    endloop
  endfacet
  facet normal 0 0 1
    outer loop
      vertex -89.3827 -89.9239 10
      vertex -90 -89 10
      vertex -89.4276 -89.904 10
    endloop
  endfacet
  facet normal 0 0 1
    outer loop
      vertex -90 89 10
      vertex -89.5141 89.8577 10
      vertex -89.5556 89.8315 10
    endloop
  endfacet
  facet normal 0 0 1
    outer loop
      vertex -89.4276 -89.904 10
      vertex -90 -89 10
      vertex -89.4714 -89.8819 10
    endloop
  endfacet
  facet normal 0 0 1
    outer loop
      vertex -90 89 10
      vertex -89.5556 89.8315 10
      vertex -89.5957 89.8032 10
    endloop
  endfacet
  facet normal 0 0 1
    outer loop
      vertex -89.4714 -89.8819 10
      vertex -90 -89 10
      vertex -89.5141 -89.8577 10
    endloop
  endfacet
  facet normal 0 0 1
    outer loop
      vertex -90 89 10
      vertex -89.5957 89.8032 10
      vertex -89.6344 89.773 10
    endloop
  endfacet
  facet normal 0 0 1
    outer loop
      vertex -89.5141 -89.8577 10
      vertex -90 -89 10
      vertex -89.5556 -89.8315 10
    endloop
  endfacet
  facet normal 0 0 1
    outer loop
      vertex -90 89 10
      vertex -89.6344 89.773 10
      vertex -89.6716 89.741 10
    endloop
  endfacet
  facet normal 0 0 1
    outer loop
      vertex -89.5556 -89.8315 10
      vertex -90 -89 10
      vertex -89.5957 -89.8032 10
    endloop
  endfacet
  facet normal 0 0 1
    outer loop
      vertex -90 89 10
      vertex -89.6716 89.741 10
      vertex -89.7071 89.7071 10
    endloop
  endfacet
  facet normal 0 0 1
    outer loop
      vertex -89.5957 -89.8032 10
      vertex -90 -89 10
      vertex -89.6344 -89.773 10
    endloop
  endfacet
  facet normal 0 0 1
    outer loop
      vertex -90 89 10
      vertex -89.7071 89.7071 10
      vertex -89.741 89.6716 10
    endloop
  endfacet
  facet normal 0 0 1
    outer loop
      vertex -89.6344 -89.773 10
      vertex -90 -89 10
      vertex -89.6716 -89.741 10
    endloop
  endfacet
  facet normal 0 0 1
    outer loop
      vertex -90 89 10
      vertex -89.741 89.6716 10
      vertex -89.773 89.6344 10
    endloop
  endfacet
  facet normal 0 0 1
    outer loop
      vertex -89.6716 -89.741 10
      vertex -90 -89 10
      vertex -89.7071 -89.7071 10
    endloop
  endfacet
  facet normal 0 0 1
    outer loop
      vertex -90 89 10
      vertex -89.773 89.6344 10
      vertex -89.8032 89.5957 10
    endloop
  endfacet
  facet normal 0 0 1
    outer loop
      vertex -89.7071 -89.7071 10
      vertex -90 -89 10
      vertex -89.741 -89.6716 10
    endloop
  endfacet
  facet normal 0 0 1
    outer loop
      vertex -90 89 10
      vertex -89.8032 89.5957 10
      vertex -89.8315 89.5556 10
    endloop
  endfacet
  facet normal 0 0 1
    outer loop
      vertex -89.741 -89.6716 10
      vertex -90 -89 10
      vertex -89.773 -89.6344 10
    endloop
  endfacet
  facet normal 0 0 1
    outer loop
      vertex -90 89 10
      vertex -89.8315 89.5556 10
      vertex -89.8577 89.5141 10
    endloop
  endfacet
  facet normal 0 0 1
    outer loop
      vertex -89.773 -89.6344 10
      vertex -90 -89 10
      vertex -89.8032 -89.5957 10
    endloop
  endfacet
  facet normal 0 0 1
    outer loop
      vertex -90 89 10
      vertex -89.8577 89.5141 10
      vertex -89.8819 89.4714 10
    endloop
  endfacet
  facet normal 0 0 1
    outer loop
      vertex -89.8032 -89.5957 10
      vertex -90 -89 10
      vertex -89.8315 -89.5556 10
    endloop
  endfacet
  facet normal 0 0 1
    outer loop
      vertex -90 89 10
      vertex -89.8819 89.4714 10
      vertex -89.904 89.4276 10
    endloop
  endfacet
  facet normal 0 0 1
    outer loop
      vertex -89.8315 -89.5556 10
      vertex -90 -89 10
      vertex -89.8577 -89.5141 10
    endloop
  endfacet
  facet normal 0 0 1
    outer loop
      vertex -90 89 10
      vertex -89.904 89.4276 10
      vertex -89.9239 89.3827 10
    endloop
  endfacet
  facet normal 0 0 1
    outer loop
      vertex -89.8577 -89.5141 10
      vertex -90 -89 10
      vertex -89.8819 -89.4714 10
    endloop
  endfacet
  facet normal 0 0 1
    outer loop
      vertex -90 89 10
      vertex -89.9239 89.3827 10
      vertex -89.9415 89.3369 10
    endloop
  endfacet
  facet normal 0 0 1
    outer loop
      vertex -89.8819 -89.4714 10
      vertex -90 -89 10
      vertex -89.904 -89.4276 10
    endloop
  endfacet
  facet normal 0 0 1
    outer loop
      vertex -90 89 10
      vertex -89.9415 89.3369 10
      vertex -89.9569 89.2903 10
    endloop
  endfacet
  facet normal 0 0 1
    outer loop
      vertex -89.904 -89.4276 10
      vertex -90 -89 10
      vertex -89.9239 -89.3827 10
    endloop
  endfacet
  facet normal 0 0 1
    outer loop
      vertex -90 89 10
      vertex -89.9569 89.2903 10
      vertex -89.97 89.243 10
    endloop
  endfacet
  facet normal 0 0 1
    outer loop
      vertex -89.9239 -89.3827 10
      vertex -90 -89 10
      vertex -89.9415 -89.3369 10
    endloop
  endfacet
  facet normal 0 0 1
    outer loop
      vertex -90 89 10
      vertex -89.97 89.243 10
      vertex -89.9808 89.1951 10
    endloop
  endfacet
  facet normal 0 0 1
    outer loop
      vertex -89.9415 -89.3369 10
      vertex -90 -89 10
      vertex -89.9569 -89.2903 10
    endloop
  endfacet
  facet normal 0 0 1
    outer loop
      vertex -90 89 10
      vertex -89.9808 89.1951 10
      vertex -89.9892 89.1467 10
    endloop
  endfacet
  facet normal 0 0 1
    outer loop
      vertex -89.9569 -89.2903 10
      vertex -90 -89 10
      vertex -89.97 -89.243 10
    endloop
  endfacet
  facet normal 0 0 1
    outer loop
      vertex -90 89 10
      vertex -89.9892 89.1467 10
      vertex -89.9952 89.098 10
    endloop
  endfacet
  facet normal 0 0 1
    outer loop
      vertex -89.97 -89.243 10
      vertex -90 -89 10
      vertex -89.9808 -89.1951 10
    endloop
  endfacet
  facet normal 0 0 1
    outer loop
      vertex -90 89 10
      vertex -89.9952 89.098 10
      vertex -89.9988 89.0491 10
    endloop
  endfacet
  facet normal 0 0 1
    outer loop
      vertex -89.9808 -89.1951 10
      vertex -90 -89 10
      vertex -89.9892 -89.1467 10
    endloop
  endfacet
  facet normal 0 0 1
    outer loop
      vertex -89.9892 -89.1467 10
      vertex -90 -89 10
      vertex -89.9952 -89.098 10
    endloop
  endfacet
  facet normal 0 0 1
    outer loop
      vertex -89.9952 -89.098 10
      vertex -90 -89 10
      vertex -89.9988 -89.0491 10
    endloop
  endfacet
  facet normal -0.53384 -0.845586 0
    outer loop
      vertex -89.5556 -89.8315 -10
      vertex -89.5141 -89.8577 10
      vertex -89.5556 -89.8315 10
    endloop
  endfacet
  facet normal -0.53384 -0.845586 -0
    outer loop
      vertex -89.5141 -89.8577 10
      vertex -89.5556 -89.8315 -10
      vertex -89.5141 -89.8577 -10
    endloop
  endfacet
  facet normal -0.493064 -0.869993 0
    outer loop
      vertex -89.5141 -89.8577 -10
      vertex -89.4714 -89.8819 10
      vertex -89.5141 -89.8577 10
    endloop
  endfacet
  facet normal -0.493064 -0.869993 -0
    outer loop
      vertex -89.4714 -89.8819 10
      vertex -89.5141 -89.8577 -10
      vertex -89.4714 -89.8819 -10
    endloop
  endfacet
  facet normal -0.690621 -0.723217 0
    outer loop
      vertex -89.7071 -89.7071 -10
      vertex -89.6716 -89.741 10
      vertex -89.7071 -89.7071 10
    endloop
  endfacet
  facet normal -0.690621 -0.723217 -0
    outer loop
      vertex -89.6716 -89.741 10
      vertex -89.7071 -89.7071 -10
      vertex -89.6716 -89.741 -10
    endloop
  endfacet
  facet normal -0.817024 -0.576603 0
    outer loop
      vertex -89.8032 -89.5957 -10
      vertex -89.8315 -89.5556 10
      vertex -89.8315 -89.5556 -10
    endloop
  endfacet
  facet normal -0.817024 -0.576603 0
    outer loop
      vertex -89.8315 -89.5556 10
      vertex -89.8032 -89.5957 -10
      vertex -89.8032 -89.5957 10
    endloop
  endfacet
  facet normal 0.576603 -0.817024 0
    outer loop
      vertex 89.5556 -89.8315 -10
      vertex 89.5957 -89.8032 10
      vertex 89.5556 -89.8315 10
    endloop
  endfacet
  facet normal 0.576603 -0.817024 0
    outer loop
      vertex 89.5957 -89.8032 10
      vertex 89.5556 -89.8315 -10
      vertex 89.5957 -89.8032 -10
    endloop
  endfacet
  facet normal 1 -0 0
    outer loop
      vertex 90 -89 10
      vertex 90 89 -10
      vertex 90 89 10
    endloop
  endfacet
  facet normal 1 0 0
    outer loop
      vertex 90 89 -10
      vertex 90 -89 10
      vertex 90 -89 -10
    endloop
  endfacet
  facet normal 0.933451 -0.358706 0
    outer loop
      vertex 89.9239 -89.3827 10
      vertex 89.9415 -89.3369 -10
      vertex 89.9415 -89.3369 10
    endloop
  endfacet
  facet normal 0.933451 -0.358706 0
    outer loop
      vertex 89.9415 -89.3369 -10
      vertex 89.9239 -89.3827 10
      vertex 89.9239 -89.3827 -10
    endloop
  endfacet
  facet normal 0.0244326 0.999701 -0
    outer loop
      vertex 89.0491 89.9988 -10
      vertex 89 90 10
      vertex 89.0491 89.9988 10
    endloop
  endfacet
  facet normal 0.0244326 0.999701 0
    outer loop
      vertex 89 90 10
      vertex 89.0491 89.9988 -10
      vertex 89 90 -10
    endloop
  endfacet
  facet normal -0.576603 -0.817024 0
    outer loop
      vertex -89.5957 -89.8032 -10
      vertex -89.5556 -89.8315 10
      vertex -89.5957 -89.8032 10
    endloop
  endfacet
  facet normal -0.576603 -0.817024 -0
    outer loop
      vertex -89.5556 -89.8315 10
      vertex -89.5957 -89.8032 -10
      vertex -89.5556 -89.8315 -10
    endloop
  endfacet
  facet normal -0.723217 -0.690621 0
    outer loop
      vertex -89.7071 -89.7071 -10
      vertex -89.741 -89.6716 10
      vertex -89.741 -89.6716 -10
    endloop
  endfacet
  facet normal -0.723217 -0.690621 0
    outer loop
      vertex -89.741 -89.6716 10
      vertex -89.7071 -89.7071 -10
      vertex -89.7071 -89.7071 10
    endloop
  endfacet
  facet normal -0.892791 -0.450472 0
    outer loop
      vertex -89.8819 -89.4714 -10
      vertex -89.904 -89.4276 10
      vertex -89.904 -89.4276 -10
    endloop
  endfacet
  facet normal -0.892791 -0.450472 0
    outer loop
      vertex -89.904 -89.4276 10
      vertex -89.8819 -89.4714 -10
      vertex -89.8819 -89.4714 10
    endloop
  endfacet
  facet normal -0.869993 -0.493064 0
    outer loop
      vertex -89.8577 -89.5141 -10
      vertex -89.8819 -89.4714 10
      vertex -89.8819 -89.4714 -10
    endloop
  endfacet
  facet normal -0.869993 -0.493064 0
    outer loop
      vertex -89.8819 -89.4714 10
      vertex -89.8577 -89.5141 -10
      vertex -89.8577 -89.5141 10
    endloop
  endfacet
  facet normal -0.963722 -0.266908 0
    outer loop
      vertex -89.9569 -89.2903 -10
      vertex -89.97 -89.243 10
      vertex -89.97 -89.243 -10
    endloop
  endfacet
  facet normal -0.963722 -0.266908 0
    outer loop
      vertex -89.97 -89.243 10
      vertex -89.9569 -89.2903 -10
      vertex -89.9569 -89.2903 10
    endloop
  endfacet
  facet normal 0.313782 -0.949495 0
    outer loop
      vertex 89.2903 -89.9569 -10
      vertex 89.3369 -89.9415 10
      vertex 89.2903 -89.9569 10
    endloop
  endfacet
  facet normal 0.313782 -0.949495 0
    outer loop
      vertex 89.3369 -89.9415 10
      vertex 89.2903 -89.9569 -10
      vertex 89.3369 -89.9415 -10
    endloop
  endfacet
  facet normal 0.493064 -0.869993 0
    outer loop
      vertex 89.4714 -89.8819 -10
      vertex 89.5141 -89.8577 10
      vertex 89.4714 -89.8819 10
    endloop
  endfacet
  facet normal 0.493064 -0.869993 0
    outer loop
      vertex 89.5141 -89.8577 10
      vertex 89.4714 -89.8819 -10
      vertex 89.5141 -89.8577 -10
    endloop
  endfacet
  facet normal 0.975512 0.219948 0
    outer loop
      vertex 89.9808 89.1951 10
      vertex 89.97 89.243 -10
      vertex 89.97 89.243 10
    endloop
  endfacet
  facet normal 0.975512 0.219948 0
    outer loop
      vertex 89.97 89.243 -10
      vertex 89.9808 89.1951 10
      vertex 89.9808 89.1951 -10
    endloop
  endfacet
  facet normal -0.758105 0.652133 0
    outer loop
      vertex -89.773 89.6344 -10
      vertex -89.741 89.6716 10
      vertex -89.741 89.6716 -10
    endloop
  endfacet
  facet normal -0.758105 0.652133 0
    outer loop
      vertex -89.741 89.6716 10
      vertex -89.773 89.6344 -10
      vertex -89.773 89.6344 10
    endloop
  endfacet
  facet normal -0.975512 0.219948 0
    outer loop
      vertex -89.9808 89.1951 -10
      vertex -89.97 89.243 10
      vertex -89.97 89.243 -10
    endloop
  endfacet
  facet normal -0.975512 0.219948 0
    outer loop
      vertex -89.97 89.243 10
      vertex -89.9808 89.1951 -10
      vertex -89.9808 89.1951 10
    endloop
  endfacet
  facet normal -0.788364 -0.615209 0
    outer loop
      vertex -89.773 -89.6344 -10
      vertex -89.8032 -89.5957 10
      vertex -89.8032 -89.5957 -10
    endloop
  endfacet
  facet normal -0.788364 -0.615209 0
    outer loop
      vertex -89.8032 -89.5957 10
      vertex -89.773 -89.6344 -10
      vertex -89.773 -89.6344 10
    endloop
  endfacet
  facet normal -0.758105 -0.652133 0
    outer loop
      vertex -89.741 -89.6716 -10
      vertex -89.773 -89.6344 10
      vertex -89.773 -89.6344 -10
    endloop
  endfacet
  facet normal -0.758105 -0.652133 0
    outer loop
      vertex -89.773 -89.6344 10
      vertex -89.741 -89.6716 -10
      vertex -89.741 -89.6716 10
    endloop
  endfacet
  facet normal -0.845586 -0.53384 0
    outer loop
      vertex -89.8315 -89.5556 -10
      vertex -89.8577 -89.5141 10
      vertex -89.8577 -89.5141 -10
    endloop
  endfacet
  facet normal -0.845586 -0.53384 0
    outer loop
      vertex -89.8577 -89.5141 10
      vertex -89.8315 -89.5556 -10
      vertex -89.8315 -89.5556 10
    endloop
  endfacet
  facet normal 0 0 -1
    outer loop
      vertex 89 -90 -10
      vertex 90 -89 -10
      vertex 89.9988 -89.0491 -10
    endloop
  endfacet
  facet normal -0 0 -1
    outer loop
      vertex 90 -89 -10
      vertex 89 -90 -10
      vertex 90 89 -10
    endloop
  endfacet
  facet normal 0 0 -1
    outer loop
      vertex 89 -90 -10
      vertex 89.9988 -89.0491 -10
      vertex 89.9952 -89.098 -10
    endloop
  endfacet
  facet normal 0 0 -1
    outer loop
      vertex 89 90 -10
      vertex 90 89 -10
      vertex 89 -90 -10
    endloop
  endfacet
  facet normal 0 0 -1
    outer loop
      vertex 89 -90 -10
      vertex 89.9952 -89.098 -10
      vertex 89.9892 -89.1467 -10
    endloop
  endfacet
  facet normal 0 0 -1
    outer loop
      vertex 90 89 -10
      vertex 89 90 -10
      vertex 89.9988 89.0491 -10
    endloop
  endfacet
  facet normal 0 0 -1
    outer loop
      vertex 89 -90 -10
      vertex 89.9892 -89.1467 -10
      vertex 89.9808 -89.1951 -10
    endloop
  endfacet
  facet normal 0 0 -1
    outer loop
      vertex 89.9988 89.0491 -10
      vertex 89 90 -10
      vertex 89.9952 89.098 -10
    endloop
  endfacet
  facet normal 0 0 -1
    outer loop
      vertex 89 -90 -10
      vertex 89.9808 -89.1951 -10
      vertex 89.97 -89.243 -10
    endloop
  endfacet
  facet normal 0 0 -1
    outer loop
      vertex 89.9952 89.098 -10
      vertex 89 90 -10
      vertex 89.9892 89.1467 -10
    endloop
  endfacet
  facet normal 0 0 -1
    outer loop
      vertex 89 -90 -10
      vertex 89.97 -89.243 -10
      vertex 89.9569 -89.2903 -10
    endloop
  endfacet
  facet normal 0 0 -1
    outer loop
      vertex 89.9892 89.1467 -10
      vertex 89 90 -10
      vertex 89.9808 89.1951 -10
    endloop
  endfacet
  facet normal 0 0 -1
    outer loop
      vertex 89 -90 -10
      vertex 89.9569 -89.2903 -10
      vertex 89.9415 -89.3369 -10
    endloop
  endfacet
  facet normal 0 0 -1
    outer loop
      vertex 89.9808 89.1951 -10
      vertex 89 90 -10
      vertex 89.97 89.243 -10
    endloop
  endfacet
  facet normal 0 0 -1
    outer loop
      vertex 89 -90 -10
      vertex 89.9415 -89.3369 -10
      vertex 89.9239 -89.3827 -10
    endloop
  endfacet
  facet normal 0 0 -1
    outer loop
      vertex 89.97 89.243 -10
      vertex 89 90 -10
      vertex 89.9569 89.2903 -10
    endloop
  endfacet
  facet normal 0 0 -1
    outer loop
      vertex 89 -90 -10
      vertex 89.9239 -89.3827 -10
      vertex 89.904 -89.4276 -10
    endloop
  endfacet
  facet normal 0 0 -1
    outer loop
      vertex 89.9569 89.2903 -10
      vertex 89 90 -10
      vertex 89.9415 89.3369 -10
    endloop
  endfacet
  facet normal 0 0 -1
    outer loop
      vertex 89 -90 -10
      vertex 89.904 -89.4276 -10
      vertex 89.8819 -89.4714 -10
    endloop
  endfacet
  facet normal 0 0 -1
    outer loop
      vertex 89.9415 89.3369 -10
      vertex 89 90 -10
      vertex 89.9239 89.3827 -10
    endloop
  endfacet
  facet normal 0 0 -1
    outer loop
      vertex 89 -90 -10
      vertex 89.8819 -89.4714 -10
      vertex 89.8577 -89.5141 -10
    endloop
  endfacet
  facet normal 0 0 -1
    outer loop
      vertex 89.9239 89.3827 -10
      vertex 89 90 -10
      vertex 89.904 89.4276 -10
    endloop
  endfacet
  facet normal 0 0 -1
    outer loop
      vertex 89 -90 -10
      vertex 89.8577 -89.5141 -10
      vertex 89.8315 -89.5556 -10
    endloop
  endfacet
  facet normal 0 0 -1
    outer loop
      vertex 89.904 89.4276 -10
      vertex 89 90 -10
      vertex 89.8819 89.4714 -10
    endloop
  endfacet
  facet normal 0 0 -1
    outer loop
      vertex 89 -90 -10
      vertex 89.8315 -89.5556 -10
      vertex 89.8032 -89.5957 -10
    endloop
  endfacet
  facet normal 0 0 -1
    outer loop
      vertex 89.8819 89.4714 -10
      vertex 89 90 -10
      vertex 89.8577 89.5141 -10
    endloop
  endfacet
  facet normal 0 0 -1
    outer loop
      vertex 89 -90 -10
      vertex 89.8032 -89.5957 -10
      vertex 89.773 -89.6344 -10
    endloop
  endfacet
  facet normal 0 0 -1
    outer loop
      vertex 89.8577 89.5141 -10
      vertex 89 90 -10
      vertex 89.8315 89.5556 -10
    endloop
  endfacet
  facet normal 0 0 -1
    outer loop
      vertex 89 -90 -10
      vertex 89.773 -89.6344 -10
      vertex 89.741 -89.6716 -10
    endloop
  endfacet
  facet normal 0 0 -1
    outer loop
      vertex 89.8315 89.5556 -10
      vertex 89 90 -10
      vertex 89.8032 89.5957 -10
    endloop
  endfacet
  facet normal 0 0 -1
    outer loop
      vertex 89 -90 -10
      vertex 89.741 -89.6716 -10
      vertex 89.7071 -89.7071 -10
    endloop
  endfacet
  facet normal 0 0 -1
    outer loop
      vertex 89.8032 89.5957 -10
      vertex 89 90 -10
      vertex 89.773 89.6344 -10
    endloop
  endfacet
  facet normal 0 0 -1
    outer loop
      vertex 89 -90 -10
      vertex 89.7071 -89.7071 -10
      vertex 89.6716 -89.741 -10
    endloop
  endfacet
  facet normal 0 0 -1
    outer loop
      vertex 89.773 89.6344 -10
      vertex 89 90 -10
      vertex 89.741 89.6716 -10
    endloop
  endfacet
  facet normal 0 0 -1
    outer loop
      vertex 89 -90 -10
      vertex 89.6716 -89.741 -10
      vertex 89.6344 -89.773 -10
    endloop
  endfacet
  facet normal 0 0 -1
    outer loop
      vertex 89.741 89.6716 -10
      vertex 89 90 -10
      vertex 89.7071 89.7071 -10
    endloop
  endfacet
  facet normal 0 0 -1
    outer loop
      vertex 89 -90 -10
      vertex 89.6344 -89.773 -10
      vertex 89.5957 -89.8032 -10
    endloop
  endfacet
  facet normal 0 0 -1
    outer loop
      vertex 89.7071 89.7071 -10
      vertex 89 90 -10
      vertex 89.6716 89.741 -10
    endloop
  endfacet
  facet normal 0 0 -1
    outer loop
      vertex 89 -90 -10
      vertex 89.5957 -89.8032 -10
      vertex 89.5556 -89.8315 -10
    endloop
  endfacet
  facet normal 0 0 -1
    outer loop
      vertex 89.6716 89.741 -10
      vertex 89 90 -10
      vertex 89.6344 89.773 -10
    endloop
  endfacet
  facet normal 0 0 -1
    outer loop
      vertex 89 -90 -10
      vertex 89.5556 -89.8315 -10
      vertex 89.5141 -89.8577 -10
    endloop
  endfacet
  facet normal 0 0 -1
    outer loop
      vertex 89.6344 89.773 -10
      vertex 89 90 -10
      vertex 89.5957 89.8032 -10
    endloop
  endfacet
  facet normal 0 0 -1
    outer loop
      vertex 89 -90 -10
      vertex 89.5141 -89.8577 -10
      vertex 89.4714 -89.8819 -10
    endloop
  endfacet
  facet normal 0 0 -1
    outer loop
      vertex 89.5957 89.8032 -10
      vertex 89 90 -10
      vertex 89.5556 89.8315 -10
    endloop
  endfacet
  facet normal 0 0 -1
    outer loop
      vertex 89 -90 -10
      vertex 89.4714 -89.8819 -10
      vertex 89.4276 -89.904 -10
    endloop
  endfacet
  facet normal 0 0 -1
    outer loop
      vertex 89.5556 89.8315 -10
      vertex 89 90 -10
      vertex 89.5141 89.8577 -10
    endloop
  endfacet
  facet normal 0 0 -1
    outer loop
      vertex 89 -90 -10
      vertex 89.4276 -89.904 -10
      vertex 89.3827 -89.9239 -10
    endloop
  endfacet
  facet normal 0 0 -1
    outer loop
      vertex 89.5141 89.8577 -10
      vertex 89 90 -10
      vertex 89.4714 89.8819 -10
    endloop
  endfacet
  facet normal 0 0 -1
    outer loop
      vertex 89 -90 -10
      vertex 89.3827 -89.9239 -10
      vertex 89.3369 -89.9415 -10
    endloop
  endfacet
  facet normal 0 0 -1
    outer loop
      vertex 89.4714 89.8819 -10
      vertex 89 90 -10
      vertex 89.4276 89.904 -10
    endloop
  endfacet
  facet normal 0 0 -1
    outer loop
      vertex 89 -90 -10
      vertex 89.3369 -89.9415 -10
      vertex 89.2903 -89.9569 -10
    endloop
  endfacet
  facet normal 0 0 -1
    outer loop
      vertex 89.4276 89.904 -10
      vertex 89 90 -10
      vertex 89.3827 89.9239 -10
    endloop
  endfacet
  facet normal 0 0 -1
    outer loop
      vertex 89 -90 -10
      vertex 89.2903 -89.9569 -10
      vertex 89.243 -89.97 -10
    endloop
  endfacet
  facet normal 0 0 -1
    outer loop
      vertex 89.3827 89.9239 -10
      vertex 89 90 -10
      vertex 89.3369 89.9415 -10
    endloop
  endfacet
  facet normal 0 0 -1
    outer loop
      vertex 89 -90 -10
      vertex 89.243 -89.97 -10
      vertex 89.1951 -89.9808 -10
    endloop
  endfacet
  facet normal 0 0 -1
    outer loop
      vertex 89.3369 89.9415 -10
      vertex 89 90 -10
      vertex 89.2903 89.9569 -10
    endloop
  endfacet
  facet normal 0 0 -1
    outer loop
      vertex 89 -90 -10
      vertex 89.1951 -89.9808 -10
      vertex 89.1467 -89.9892 -10
    endloop
  endfacet
  facet normal 0 0 -1
    outer loop
      vertex 89.2903 89.9569 -10
      vertex 89 90 -10
      vertex 89.243 89.97 -10
    endloop
  endfacet
  facet normal 0 0 -1
    outer loop
      vertex 89 -90 -10
      vertex 89.1467 -89.9892 -10
      vertex 89.098 -89.9952 -10
    endloop
  endfacet
  facet normal 0 0 -1
    outer loop
      vertex 89.243 89.97 -10
      vertex 89 90 -10
      vertex 89.1951 89.9808 -10
    endloop
  endfacet
  facet normal 0 0 -1
    outer loop
      vertex 89 -90 -10
      vertex 89.098 -89.9952 -10
      vertex 89.0491 -89.9988 -10
    endloop
  endfacet
  facet normal 0 0 -1
    outer loop
      vertex 89.1951 89.9808 -10
      vertex 89 90 -10
      vertex 89.1467 89.9892 -10
    endloop
  endfacet
  facet normal 0 0 -1
    outer loop
      vertex 89.1467 89.9892 -10
      vertex 89 90 -10
      vertex 89.098 89.9952 -10
    endloop
  endfacet
  facet normal 0 0 -1
    outer loop
      vertex 89.098 89.9952 -10
      vertex 89 90 -10
      vertex 89.0491 89.9988 -10
    endloop
  endfacet
  facet normal 0 0 -1
    outer loop
      vertex -89 -90 -10
      vertex 89 90 -10
      vertex 89 -90 -10
    endloop
  endfacet
  facet normal 0 0 -1
    outer loop
      vertex -89 -90 -10
      vertex -89 90 -10
      vertex 89 90 -10
    endloop
  endfacet
  facet normal 0 0 -1
    outer loop
      vertex -90 -89 -10
      vertex -89 -90 -10
      vertex -89.0491 -89.9988 -10
    endloop
  endfacet
  facet normal 0 0 -1
    outer loop
      vertex -89 -90 -10
      vertex -90 -89 -10
      vertex -89 90 -10
    endloop
  endfacet
  facet normal 0 0 -1
    outer loop
      vertex -90 -89 -10
      vertex -89.0491 -89.9988 -10
      vertex -89.098 -89.9952 -10
    endloop
  endfacet
  facet normal 0 0 -1
    outer loop
      vertex -90 89 -10
      vertex -89 90 -10
      vertex -90 -89 -10
    endloop
  endfacet
  facet normal 0 0 -1
    outer loop
      vertex -90 -89 -10
      vertex -89.098 -89.9952 -10
      vertex -89.1467 -89.9892 -10
    endloop
  endfacet
  facet normal 0 0 -1
    outer loop
      vertex -89 90 -10
      vertex -90 89 -10
      vertex -89.0491 89.9988 -10
    endloop
  endfacet
  facet normal 0 0 -1
    outer loop
      vertex -90 -89 -10
      vertex -89.1467 -89.9892 -10
      vertex -89.1951 -89.9808 -10
    endloop
  endfacet
  facet normal 0 0 -1
    outer loop
      vertex -89.0491 89.9988 -10
      vertex -90 89 -10
      vertex -89.098 89.9952 -10
    endloop
  endfacet
  facet normal 0 0 -1
    outer loop
      vertex -90 -89 -10
      vertex -89.1951 -89.9808 -10
      vertex -89.243 -89.97 -10
    endloop
  endfacet
  facet normal 0 0 -1
    outer loop
      vertex -89.098 89.9952 -10
      vertex -90 89 -10
      vertex -89.1467 89.9892 -10
    endloop
  endfacet
  facet normal 0 0 -1
    outer loop
      vertex -90 -89 -10
      vertex -89.243 -89.97 -10
      vertex -89.2903 -89.9569 -10
    endloop
  endfacet
  facet normal 0 0 -1
    outer loop
      vertex -89.1467 89.9892 -10
      vertex -90 89 -10
      vertex -89.1951 89.9808 -10
    endloop
  endfacet
  facet normal 0 0 -1
    outer loop
      vertex -90 -89 -10
      vertex -89.2903 -89.9569 -10
      vertex -89.3369 -89.9415 -10
    endloop
  endfacet
  facet normal 0 0 -1
    outer loop
      vertex -89.1951 89.9808 -10
      vertex -90 89 -10
      vertex -89.243 89.97 -10
    endloop
  endfacet
  facet normal 0 0 -1
    outer loop
      vertex -90 -89 -10
      vertex -89.3369 -89.9415 -10
      vertex -89.3827 -89.9239 -10
    endloop
  endfacet
  facet normal 0 0 -1
    outer loop
      vertex -89.243 89.97 -10
      vertex -90 89 -10
      vertex -89.2903 89.9569 -10
    endloop
  endfacet
  facet normal 0 0 -1
    outer loop
      vertex -90 -89 -10
      vertex -89.3827 -89.9239 -10
      vertex -89.4276 -89.904 -10
    endloop
  endfacet
  facet normal 0 0 -1
    outer loop
      vertex -89.2903 89.9569 -10
      vertex -90 89 -10
      vertex -89.3369 89.9415 -10
    endloop
  endfacet
  facet normal 0 0 -1
    outer loop
      vertex -90 -89 -10
      vertex -89.4276 -89.904 -10
      vertex -89.4714 -89.8819 -10
    endloop
  endfacet
  facet normal 0 0 -1
    outer loop
      vertex -89.3369 89.9415 -10
      vertex -90 89 -10
      vertex -89.3827 89.9239 -10
    endloop
  endfacet
  facet normal 0 0 -1
    outer loop
      vertex -90 -89 -10
      vertex -89.4714 -89.8819 -10
      vertex -89.5141 -89.8577 -10
    endloop
  endfacet
  facet normal 0 0 -1
    outer loop
      vertex -89.3827 89.9239 -10
      vertex -90 89 -10
      vertex -89.4276 89.904 -10
    endloop
  endfacet
  facet normal 0 0 -1
    outer loop
      vertex -90 -89 -10
      vertex -89.5141 -89.8577 -10
      vertex -89.5556 -89.8315 -10
    endloop
  endfacet
  facet normal 0 0 -1
    outer loop
      vertex -89.4276 89.904 -10
      vertex -90 89 -10
      vertex -89.4714 89.8819 -10
    endloop
  endfacet
  facet normal 0 0 -1
    outer loop
      vertex -90 -89 -10
      vertex -89.5556 -89.8315 -10
      vertex -89.5957 -89.8032 -10
    endloop
  endfacet
  facet normal 0 0 -1
    outer loop
      vertex -89.4714 89.8819 -10
      vertex -90 89 -10
      vertex -89.5141 89.8577 -10
    endloop
  endfacet
  facet normal 0 0 -1
    outer loop
      vertex -90 -89 -10
      vertex -89.5957 -89.8032 -10
      vertex -89.6344 -89.773 -10
    endloop
  endfacet
  facet normal 0 0 -1
    outer loop
      vertex -89.5141 89.8577 -10
      vertex -90 89 -10
      vertex -89.5556 89.8315 -10
    endloop
  endfacet
  facet normal 0 0 -1
    outer loop
      vertex -90 -89 -10
      vertex -89.6344 -89.773 -10
      vertex -89.6716 -89.741 -10
    endloop
  endfacet
  facet normal 0 0 -1
    outer loop
      vertex -89.5556 89.8315 -10
      vertex -90 89 -10
      vertex -89.5957 89.8032 -10
    endloop
  endfacet
  facet normal 0 0 -1
    outer loop
      vertex -90 -89 -10
      vertex -89.6716 -89.741 -10
      vertex -89.7071 -89.7071 -10
    endloop
  endfacet
  facet normal 0 0 -1
    outer loop
      vertex -89.5957 89.8032 -10
      vertex -90 89 -10
      vertex -89.6344 89.773 -10
    endloop
  endfacet
  facet normal 0 0 -1
    outer loop
      vertex -90 -89 -10
      vertex -89.7071 -89.7071 -10
      vertex -89.741 -89.6716 -10
    endloop
  endfacet
  facet normal 0 0 -1
    outer loop
      vertex -89.6344 89.773 -10
      vertex -90 89 -10
      vertex -89.6716 89.741 -10
    endloop
  endfacet
  facet normal 0 0 -1
    outer loop
      vertex -90 -89 -10
      vertex -89.741 -89.6716 -10
      vertex -89.773 -89.6344 -10
    endloop
  endfacet
  facet normal 0 0 -1
    outer loop
      vertex -89.6716 89.741 -10
      vertex -90 89 -10
      vertex -89.7071 89.7071 -10
    endloop
  endfacet
  facet normal 0 0 -1
    outer loop
      vertex -90 -89 -10
      vertex -89.773 -89.6344 -10
      vertex -89.8032 -89.5957 -10
    endloop
  endfacet
  facet normal 0 0 -1
    outer loop
      vertex -89.7071 89.7071 -10
      vertex -90 89 -10
      vertex -89.741 89.6716 -10
    endloop
  endfacet
  facet normal 0 0 -1
    outer loop
      vertex -90 -89 -10
      vertex -89.8032 -89.5957 -10
      vertex -89.8315 -89.5556 -10
    endloop
  endfacet
  facet normal 0 0 -1
    outer loop
      vertex -89.741 89.6716 -10
      vertex -90 89 -10
      vertex -89.773 89.6344 -10
    endloop
  endfacet
  facet normal 0 0 -1
    outer loop
      vertex -90 -89 -10
      vertex -89.8315 -89.5556 -10
      vertex -89.8577 -89.5141 -10
    endloop
  endfacet
  facet normal 0 0 -1
    outer loop
      vertex -89.773 89.6344 -10
      vertex -90 89 -10
      vertex -89.8032 89.5957 -10
    endloop
  endfacet
  facet normal 0 0 -1
    outer loop
      vertex -90 -89 -10
      vertex -89.8577 -89.5141 -10
      vertex -89.8819 -89.4714 -10
    endloop
  endfacet
  facet normal 0 0 -1
    outer loop
      vertex -89.8032 89.5957 -10
      vertex -90 89 -10
      vertex -89.8315 89.5556 -10
    endloop
  endfacet
  facet normal 0 0 -1
    outer loop
      vertex -90 -89 -10
      vertex -89.8819 -89.4714 -10
      vertex -89.904 -89.4276 -10
    endloop
  endfacet
  facet normal 0 0 -1
    outer loop
      vertex -89.8315 89.5556 -10
      vertex -90 89 -10
      vertex -89.8577 89.5141 -10
    endloop
  endfacet
  facet normal 0 0 -1
    outer loop
      vertex -90 -89 -10
      vertex -89.904 -89.4276 -10
      vertex -89.9239 -89.3827 -10
    endloop
  endfacet
  facet normal 0 0 -1
    outer loop
      vertex -89.8577 89.5141 -10
      vertex -90 89 -10
      vertex -89.8819 89.4714 -10
    endloop
  endfacet
  facet normal 0 0 -1
    outer loop
      vertex -90 -89 -10
      vertex -89.9239 -89.3827 -10
      vertex -89.9415 -89.3369 -10
    endloop
  endfacet
  facet normal 0 0 -1
    outer loop
      vertex -89.8819 89.4714 -10
      vertex -90 89 -10
      vertex -89.904 89.4276 -10
    endloop
  endfacet
  facet normal 0 0 -1
    outer loop
      vertex -90 -89 -10
      vertex -89.9415 -89.3369 -10
      vertex -89.9569 -89.2903 -10
    endloop
  endfacet
  facet normal 0 0 -1
    outer loop
      vertex -89.904 89.4276 -10
      vertex -90 89 -10
      vertex -89.9239 89.3827 -10
    endloop
  endfacet
  facet normal 0 0 -1
    outer loop
      vertex -90 -89 -10
      vertex -89.9569 -89.2903 -10
      vertex -89.97 -89.243 -10
    endloop
  endfacet
  facet normal 0 0 -1
    outer loop
      vertex -89.9239 89.3827 -10
      vertex -90 89 -10
      vertex -89.9415 89.3369 -10
    endloop
  endfacet
  facet normal 0 0 -1
    outer loop
      vertex -90 -89 -10
      vertex -89.97 -89.243 -10
      vertex -89.9808 -89.1951 -10
    endloop
  endfacet
  facet normal 0 0 -1
    outer loop
      vertex -89.9415 89.3369 -10
      vertex -90 89 -10
      vertex -89.9569 89.2903 -10
    endloop
  endfacet
  facet normal 0 0 -1
    outer loop
      vertex -90 -89 -10
      vertex -89.9808 -89.1951 -10
      vertex -89.9892 -89.1467 -10
    endloop
  endfacet
  facet normal 0 0 -1
    outer loop
      vertex -89.9569 89.2903 -10
      vertex -90 89 -10
      vertex -89.97 89.243 -10
    endloop
  endfacet
  facet normal 0 0 -1
    outer loop
      vertex -90 -89 -10
      vertex -89.9892 -89.1467 -10
      vertex -89.9952 -89.098 -10
    endloop
  endfacet
  facet normal 0 0 -1
    outer loop
      vertex -89.97 89.243 -10
      vertex -90 89 -10
      vertex -89.9808 89.1951 -10
    endloop
  endfacet
  facet normal 0 0 -1
    outer loop
      vertex -90 -89 -10
      vertex -89.9952 -89.098 -10
      vertex -89.9988 -89.0491 -10
    endloop
  endfacet
  facet normal 0 0 -1
    outer loop
      vertex -89.9808 89.1951 -10
      vertex -90 89 -10
      vertex -89.9892 89.1467 -10
    endloop
  endfacet
  facet normal 0 0 -1
    outer loop
      vertex -89.9892 89.1467 -10
      vertex -90 89 -10
      vertex -89.9952 89.098 -10
    endloop
  endfacet
  facet normal 0 0 -1
    outer loop
      vertex -89.9952 89.098 -10
      vertex -90 89 -10
      vertex -89.9988 89.0491 -10
    endloop
  endfacet
  facet normal -0.949495 -0.313782 0
    outer loop
      vertex -89.9415 -89.3369 -10
      vertex -89.9569 -89.2903 10
      vertex -89.9569 -89.2903 -10
    endloop
  endfacet
  facet normal -0.949495 -0.313782 0
    outer loop
      vertex -89.9569 -89.2903 10
      vertex -89.9415 -89.3369 -10
      vertex -89.9415 -89.3369 10
    endloop
  endfacet
  facet normal 0.0734209 -0.997301 0
    outer loop
      vertex 89.0491 -89.9988 -10
      vertex 89.098 -89.9952 10
      vertex 89.0491 -89.9988 10
    endloop
  endfacet
  facet normal 0.0734209 -0.997301 0
    outer loop
      vertex 89.098 -89.9952 10
      vertex 89.0491 -89.9988 -10
      vertex 89.098 -89.9952 -10
    endloop
  endfacet
  facet normal 0.358706 -0.933451 0
    outer loop
      vertex 89.3369 -89.9415 -10
      vertex 89.3827 -89.9239 10
      vertex 89.3369 -89.9415 10
    endloop
  endfacet
  facet normal 0.358706 -0.933451 0
    outer loop
      vertex 89.3827 -89.9239 10
      vertex 89.3369 -89.9415 -10
      vertex 89.3827 -89.9239 -10
    endloop
  endfacet
  facet normal 0.53384 -0.845586 0
    outer loop
      vertex 89.5141 -89.8577 -10
      vertex 89.5556 -89.8315 10
      vertex 89.5141 -89.8577 10
    endloop
  endfacet
  facet normal 0.53384 -0.845586 0
    outer loop
      vertex 89.5556 -89.8315 10
      vertex 89.5141 -89.8577 -10
      vertex 89.5556 -89.8315 -10
    endloop
  endfacet
  facet normal 0.892791 -0.450472 0
    outer loop
      vertex 89.8819 -89.4714 10
      vertex 89.904 -89.4276 -10
      vertex 89.904 -89.4276 10
    endloop
  endfacet
  facet normal 0.892791 -0.450472 0
    outer loop
      vertex 89.904 -89.4276 -10
      vertex 89.8819 -89.4714 10
      vertex 89.8819 -89.4714 -10
    endloop
  endfacet
  facet normal 0.997301 -0.0734209 0
    outer loop
      vertex 89.9952 -89.098 10
      vertex 89.9988 -89.0491 -10
      vertex 89.9988 -89.0491 10
    endloop
  endfacet
  facet normal 0.997301 -0.0734209 0
    outer loop
      vertex 89.9988 -89.0491 -10
      vertex 89.9952 -89.098 10
      vertex 89.9952 -89.098 -10
    endloop
  endfacet
  facet normal 0.53384 0.845586 -0
    outer loop
      vertex 89.5556 89.8315 -10
      vertex 89.5141 89.8577 10
      vertex 89.5556 89.8315 10
    endloop
  endfacet
  facet normal 0.53384 0.845586 0
    outer loop
      vertex 89.5141 89.8577 10
      vertex 89.5556 89.8315 -10
      vertex 89.5141 89.8577 -10
    endloop
  endfacet
  facet normal 0.788364 0.615209 0
    outer loop
      vertex 89.8032 89.5957 10
      vertex 89.773 89.6344 -10
      vertex 89.773 89.6344 10
    endloop
  endfacet
  facet normal 0.788364 0.615209 0
    outer loop
      vertex 89.773 89.6344 -10
      vertex 89.8032 89.5957 10
      vertex 89.8032 89.5957 -10
    endloop
  endfacet
  facet normal 0.992496 0.122279 0
    outer loop
      vertex 89.9952 89.098 10
      vertex 89.9892 89.1467 -10
      vertex 89.9892 89.1467 10
    endloop
  endfacet
  facet normal 0.992496 0.122279 0
    outer loop
      vertex 89.9892 89.1467 -10
      vertex 89.9952 89.098 10
      vertex 89.9952 89.098 -10
    endloop
  endfacet
  facet normal -0.914231 0.405194 0
    outer loop
      vertex -89.9239 89.3827 -10
      vertex -89.904 89.4276 10
      vertex -89.904 89.4276 -10
    endloop
  endfacet
  facet normal -0.914231 0.405194 0
    outer loop
      vertex -89.904 89.4276 10
      vertex -89.9239 89.3827 -10
      vertex -89.9239 89.3827 10
    endloop
  endfacet
  facet normal -0.869993 0.493064 0
    outer loop
      vertex -89.8819 89.4714 -10
      vertex -89.8577 89.5141 10
      vertex -89.8577 89.5141 -10
    endloop
  endfacet
  facet normal -0.869993 0.493064 0
    outer loop
      vertex -89.8577 89.5141 10
      vertex -89.8819 89.4714 -10
      vertex -89.8819 89.4714 10
    endloop
  endfacet
  facet normal -0.723217 0.690621 0
    outer loop
      vertex -89.741 89.6716 -10
      vertex -89.7071 89.7071 10
      vertex -89.7071 89.7071 -10
    endloop
  endfacet
  facet normal -0.723217 0.690621 0
    outer loop
      vertex -89.7071 89.7071 10
      vertex -89.741 89.6716 -10
      vertex -89.741 89.6716 10
    endloop
  endfacet
  facet normal -0.963722 0.266908 0
    outer loop
      vertex -89.97 89.243 -10
      vertex -89.9569 89.2903 10
      vertex -89.9569 89.2903 -10
    endloop
  endfacet
  facet normal -0.963722 0.266908 0
    outer loop
      vertex -89.9569 89.2903 10
      vertex -89.97 89.243 -10
      vertex -89.97 89.243 10
    endloop
  endfacet
  facet normal -0.997301 0.0734209 0
    outer loop
      vertex -89.9988 89.0491 -10
      vertex -89.9952 89.098 10
      vertex -89.9952 89.098 -10
    endloop
  endfacet
  facet normal -0.997301 0.0734209 0
    outer loop
      vertex -89.9952 89.098 10
      vertex -89.9988 89.0491 -10
      vertex -89.9988 89.0491 10
    endloop
  endfacet
  facet normal -0.999701 0.0244326 0
    outer loop
      vertex -90 89 -10
      vertex -89.9988 89.0491 10
      vertex -89.9988 89.0491 -10
    endloop
  endfacet
  facet normal -0.999701 0.0244326 0
    outer loop
      vertex -89.9988 89.0491 10
      vertex -90 89 -10
      vertex -90 89 10
    endloop
  endfacet
  facet normal -0.992496 -0.122279 0
    outer loop
      vertex -89.9892 -89.1467 -10
      vertex -89.9952 -89.098 10
      vertex -89.9952 -89.098 -10
    endloop
  endfacet
  facet normal -0.992496 -0.122279 0
    outer loop
      vertex -89.9952 -89.098 10
      vertex -89.9892 -89.1467 -10
      vertex -89.9892 -89.1467 10
    endloop
  endfacet
  facet normal -0.999701 -0.0244326 0
    outer loop
      vertex -89.9988 -89.0491 -10
      vertex -90 -89 10
      vertex -90 -89 -10
    endloop
  endfacet
  facet normal -0.999701 -0.0244326 0
    outer loop
      vertex -90 -89 10
      vertex -89.9988 -89.0491 -10
      vertex -89.9988 -89.0491 10
    endloop
  endfacet
  facet normal 0.170998 -0.985271 0
    outer loop
      vertex 89.1467 -89.9892 -10
      vertex 89.1951 -89.9808 10
      vertex 89.1467 -89.9892 10
    endloop
  endfacet
  facet normal 0.170998 -0.985271 0
    outer loop
      vertex 89.1951 -89.9808 10
      vertex 89.1467 -89.9892 -10
      vertex 89.1951 -89.9808 -10
    endloop
  endfacet
  facet normal 0.266908 -0.963722 0
    outer loop
      vertex 89.243 -89.97 -10
      vertex 89.2903 -89.9569 10
      vertex 89.243 -89.97 10
    endloop
  endfacet
  facet normal 0.266908 -0.963722 0
    outer loop
      vertex 89.2903 -89.9569 10
      vertex 89.243 -89.97 -10
      vertex 89.2903 -89.9569 -10
    endloop
  endfacet
  facet normal 0.450472 -0.892791 0
    outer loop
      vertex 89.4276 -89.904 -10
      vertex 89.4714 -89.8819 10
      vertex 89.4276 -89.904 10
    endloop
  endfacet
  facet normal 0.450472 -0.892791 0
    outer loop
      vertex 89.4714 -89.8819 10
      vertex 89.4276 -89.904 -10
      vertex 89.4714 -89.8819 -10
    endloop
  endfacet
  facet normal 0.615209 -0.788364 0
    outer loop
      vertex 89.5957 -89.8032 -10
      vertex 89.6344 -89.773 10
      vertex 89.5957 -89.8032 10
    endloop
  endfacet
  facet normal 0.615209 -0.788364 0
    outer loop
      vertex 89.6344 -89.773 10
      vertex 89.5957 -89.8032 -10
      vertex 89.6344 -89.773 -10
    endloop
  endfacet
  facet normal 0.690621 -0.723217 0
    outer loop
      vertex 89.6716 -89.741 -10
      vertex 89.7071 -89.7071 10
      vertex 89.6716 -89.741 10
    endloop
  endfacet
  facet normal 0.690621 -0.723217 0
    outer loop
      vertex 89.7071 -89.7071 10
      vertex 89.6716 -89.741 -10
      vertex 89.7071 -89.7071 -10
    endloop
  endfacet
  facet normal 0.652133 -0.758105 0
    outer loop
      vertex 89.6344 -89.773 -10
      vertex 89.6716 -89.741 10
      vertex 89.6344 -89.773 10
    endloop
  endfacet
  facet normal 0.652133 -0.758105 0
    outer loop
      vertex 89.6716 -89.741 10
      vertex 89.6344 -89.773 -10
      vertex 89.6716 -89.741 -10
    endloop
  endfacet
  facet normal 0.723217 -0.690621 0
    outer loop
      vertex 89.7071 -89.7071 10
      vertex 89.741 -89.6716 -10
      vertex 89.741 -89.6716 10
    endloop
  endfacet
  facet normal 0.723217 -0.690621 0
    outer loop
      vertex 89.741 -89.6716 -10
      vertex 89.7071 -89.7071 10
      vertex 89.7071 -89.7071 -10
    endloop
  endfacet
  facet normal 0.845586 -0.53384 0
    outer loop
      vertex 89.8315 -89.5556 10
      vertex 89.8577 -89.5141 -10
      vertex 89.8577 -89.5141 10
    endloop
  endfacet
  facet normal 0.845586 -0.53384 0
    outer loop
      vertex 89.8577 -89.5141 -10
      vertex 89.8315 -89.5556 10
      vertex 89.8315 -89.5556 -10
    endloop
  endfacet
  facet normal 0.817024 -0.576603 0
    outer loop
      vertex 89.8032 -89.5957 10
      vertex 89.8315 -89.5556 -10
      vertex 89.8315 -89.5556 10
    endloop
  endfacet
  facet normal 0.817024 -0.576603 0
    outer loop
      vertex 89.8315 -89.5556 -10
      vertex 89.8032 -89.5957 10
      vertex 89.8032 -89.5957 -10
    endloop
  endfacet
  facet normal 0.788364 -0.615209 0
    outer loop
      vertex 89.773 -89.6344 10
      vertex 89.8032 -89.5957 -10
      vertex 89.8032 -89.5957 10
    endloop
  endfacet
  facet normal 0.788364 -0.615209 0
    outer loop
      vertex 89.8032 -89.5957 -10
      vertex 89.773 -89.6344 10
      vertex 89.773 -89.6344 -10
    endloop
  endfacet
  facet normal 0.963722 -0.266908 0
    outer loop
      vertex 89.9569 -89.2903 10
      vertex 89.97 -89.243 -10
      vertex 89.97 -89.243 10
    endloop
  endfacet
  facet normal 0.963722 -0.266908 0
    outer loop
      vertex 89.97 -89.243 -10
      vertex 89.9569 -89.2903 10
      vertex 89.9569 -89.2903 -10
    endloop
  endfacet
  facet normal 0.975512 -0.219948 0
    outer loop
      vertex 89.97 -89.243 10
      vertex 89.9808 -89.1951 -10
      vertex 89.9808 -89.1951 10
    endloop
  endfacet
  facet normal 0.975512 -0.219948 0
    outer loop
      vertex 89.9808 -89.1951 -10
      vertex 89.97 -89.243 10
      vertex 89.97 -89.243 -10
    endloop
  endfacet
  facet normal 0.999701 -0.0244326 0
    outer loop
      vertex 89.9988 -89.0491 10
      vertex 90 -89 -10
      vertex 90 -89 10
    endloop
  endfacet
  facet normal 0.999701 -0.0244326 0
    outer loop
      vertex 90 -89 -10
      vertex 89.9988 -89.0491 10
      vertex 89.9988 -89.0491 -10
    endloop
  endfacet
  facet normal 0.266908 0.963722 -0
    outer loop
      vertex 89.2903 89.9569 -10
      vertex 89.243 89.97 10
      vertex 89.2903 89.9569 10
    endloop
  endfacet
  facet normal 0.266908 0.963722 0
    outer loop
      vertex 89.243 89.97 10
      vertex 89.2903 89.9569 -10
      vertex 89.243 89.97 -10
    endloop
  endfacet
  facet normal 0.758105 0.652133 0
    outer loop
      vertex 89.773 89.6344 10
      vertex 89.741 89.6716 -10
      vertex 89.741 89.6716 10
    endloop
  endfacet
  facet normal 0.758105 0.652133 0
    outer loop
      vertex 89.741 89.6716 -10
      vertex 89.773 89.6344 10
      vertex 89.773 89.6344 -10
    endloop
  endfacet
  facet normal 0.892791 0.450472 0
    outer loop
      vertex 89.904 89.4276 10
      vertex 89.8819 89.4714 -10
      vertex 89.8819 89.4714 10
    endloop
  endfacet
  facet normal 0.892791 0.450472 0
    outer loop
      vertex 89.8819 89.4714 -10
      vertex 89.904 89.4276 10
      vertex 89.904 89.4276 -10
    endloop
  endfacet
  facet normal 0.999701 0.0244326 0
    outer loop
      vertex 90 89 10
      vertex 89.9988 89.0491 -10
      vertex 89.9988 89.0491 10
    endloop
  endfacet
  facet normal 0.999701 0.0244326 0
    outer loop
      vertex 89.9988 89.0491 -10
      vertex 90 89 10
      vertex 90 89 -10
    endloop
  endfacet
  facet normal -0.266908 0.963722 0
    outer loop
      vertex -89.243 89.97 -10
      vertex -89.2903 89.9569 10
      vertex -89.243 89.97 10
    endloop
  endfacet
  facet normal -0.266908 0.963722 0
    outer loop
      vertex -89.2903 89.9569 10
      vertex -89.243 89.97 -10
      vertex -89.2903 89.9569 -10
    endloop
  endfacet
  facet normal -0.53384 0.845586 0
    outer loop
      vertex -89.5141 89.8577 -10
      vertex -89.5556 89.8315 10
      vertex -89.5141 89.8577 10
    endloop
  endfacet
  facet normal -0.53384 0.845586 0
    outer loop
      vertex -89.5556 89.8315 10
      vertex -89.5141 89.8577 -10
      vertex -89.5556 89.8315 -10
    endloop
  endfacet
  facet normal -0.690621 0.723217 0
    outer loop
      vertex -89.6716 89.741 -10
      vertex -89.7071 89.7071 10
      vertex -89.6716 89.741 10
    endloop
  endfacet
  facet normal -0.690621 0.723217 0
    outer loop
      vertex -89.7071 89.7071 10
      vertex -89.6716 89.741 -10
      vertex -89.7071 89.7071 -10
    endloop
  endfacet
  facet normal -0.892791 0.450472 0
    outer loop
      vertex -89.904 89.4276 -10
      vertex -89.8819 89.4714 10
      vertex -89.8819 89.4714 -10
    endloop
  endfacet
  facet normal -0.892791 0.450472 0
    outer loop
      vertex -89.8819 89.4714 10
      vertex -89.904 89.4276 -10
      vertex -89.904 89.4276 10
    endloop
  endfacet
  facet normal -0.817024 0.576603 0
    outer loop
      vertex -89.8315 89.5556 -10
      vertex -89.8032 89.5957 10
      vertex -89.8032 89.5957 -10
    endloop
  endfacet
  facet normal -0.817024 0.576603 0
    outer loop
      vertex -89.8032 89.5957 10
      vertex -89.8315 89.5556 -10
      vertex -89.8315 89.5556 10
    endloop
  endfacet
  facet normal -0.845586 0.53384 0
    outer loop
      vertex -89.8577 89.5141 -10
      vertex -89.8315 89.5556 10
      vertex -89.8315 89.5556 -10
    endloop
  endfacet
  facet normal -0.845586 0.53384 0
    outer loop
      vertex -89.8315 89.5556 10
      vertex -89.8577 89.5141 -10
      vertex -89.8577 89.5141 10
    endloop
  endfacet
  facet normal -0.949495 0.313782 0
    outer loop
      vertex -89.9569 89.2903 -10
      vertex -89.9415 89.3369 10
      vertex -89.9415 89.3369 -10
    endloop
  endfacet
  facet normal -0.949495 0.313782 0
    outer loop
      vertex -89.9415 89.3369 10
      vertex -89.9569 89.2903 -10
      vertex -89.9569 89.2903 10
    endloop
  endfacet
  facet normal -0.933451 0.358706 0
    outer loop
      vertex -89.9415 89.3369 -10
      vertex -89.9239 89.3827 10
      vertex -89.9239 89.3827 -10
    endloop
  endfacet
  facet normal -0.933451 0.358706 0
    outer loop
      vertex -89.9239 89.3827 10
      vertex -89.9415 89.3369 -10
      vertex -89.9415 89.3369 10
    endloop
  endfacet
  facet normal -0.992496 0.122279 0
    outer loop
      vertex -89.9952 89.098 -10
      vertex -89.9892 89.1467 10
      vertex -89.9892 89.1467 -10
    endloop
  endfacet
  facet normal -0.992496 0.122279 0
    outer loop
      vertex -89.9892 89.1467 10
      vertex -89.9952 89.098 -10
      vertex -89.9952 89.098 10
    endloop
  endfacet
  facet normal -0.985271 0.170998 0
    outer loop
      vertex -89.9892 89.1467 -10
      vertex -89.9808 89.1951 10
      vertex -89.9808 89.1951 -10
    endloop
  endfacet
  facet normal -0.985271 0.170998 0
    outer loop
      vertex -89.9808 89.1951 10
      vertex -89.9892 89.1467 -10
      vertex -89.9892 89.1467 10
    endloop
  endfacet
  facet normal -0.914231 -0.405194 0
    outer loop
      vertex -89.904 -89.4276 -10
      vertex -89.9239 -89.3827 10
      vertex -89.9239 -89.3827 -10
    endloop
  endfacet
  facet normal -0.914231 -0.405194 0
    outer loop
      vertex -89.9239 -89.3827 10
      vertex -89.904 -89.4276 -10
      vertex -89.904 -89.4276 10
    endloop
  endfacet
  facet normal -0.933451 -0.358706 0
    outer loop
      vertex -89.9239 -89.3827 -10
      vertex -89.9415 -89.3369 10
      vertex -89.9415 -89.3369 -10
    endloop
  endfacet
  facet normal -0.933451 -0.358706 0
    outer loop
      vertex -89.9415 -89.3369 10
      vertex -89.9239 -89.3827 -10
      vertex -89.9239 -89.3827 10
    endloop
  endfacet
  facet normal -0.985271 -0.170998 0
    outer loop
      vertex -89.9808 -89.1951 -10
      vertex -89.9892 -89.1467 10
      vertex -89.9892 -89.1467 -10
    endloop
  endfacet
  facet normal -0.985271 -0.170998 0
    outer loop
      vertex -89.9892 -89.1467 10
      vertex -89.9808 -89.1951 -10
      vertex -89.9808 -89.1951 10
    endloop
  endfacet
  facet normal -0.997301 -0.0734209 0
    outer loop
      vertex -89.9952 -89.098 -10
      vertex -89.9988 -89.0491 10
      vertex -89.9988 -89.0491 -10
    endloop
  endfacet
  facet normal -0.997301 -0.0734209 0
    outer loop
      vertex -89.9988 -89.0491 10
      vertex -89.9952 -89.098 -10
      vertex -89.9952 -89.098 10
    endloop
  endfacet
  facet normal 0.122279 -0.992496 0
    outer loop
      vertex 89.098 -89.9952 -10
      vertex 89.1467 -89.9892 10
      vertex 89.098 -89.9952 10
    endloop
  endfacet
  facet normal 0.122279 -0.992496 0
    outer loop
      vertex 89.1467 -89.9892 10
      vertex 89.098 -89.9952 -10
      vertex 89.1467 -89.9892 -10
    endloop
  endfacet
  facet normal 0.219948 -0.975512 0
    outer loop
      vertex 89.1951 -89.9808 -10
      vertex 89.243 -89.97 10
      vertex 89.1951 -89.9808 10
    endloop
  endfacet
  facet normal 0.219948 -0.975512 0
    outer loop
      vertex 89.243 -89.97 10
      vertex 89.1951 -89.9808 -10
      vertex 89.243 -89.97 -10
    endloop
  endfacet
  facet normal 0.914231 -0.405194 0
    outer loop
      vertex 89.904 -89.4276 10
      vertex 89.9239 -89.3827 -10
      vertex 89.9239 -89.3827 10
    endloop
  endfacet
  facet normal 0.914231 -0.405194 0
    outer loop
      vertex 89.9239 -89.3827 -10
      vertex 89.904 -89.4276 10
      vertex 89.904 -89.4276 -10
    endloop
  endfacet
  facet normal 0.758105 -0.652133 0
    outer loop
      vertex 89.741 -89.6716 10
      vertex 89.773 -89.6344 -10
      vertex 89.773 -89.6344 10
    endloop
  endfacet
  facet normal 0.758105 -0.652133 0
    outer loop
      vertex 89.773 -89.6344 -10
      vertex 89.741 -89.6716 10
      vertex 89.741 -89.6716 -10
    endloop
  endfacet
  facet normal 0.949495 -0.313782 0
    outer loop
      vertex 89.9415 -89.3369 10
      vertex 89.9569 -89.2903 -10
      vertex 89.9569 -89.2903 10
    endloop
  endfacet
  facet normal 0.949495 -0.313782 0
    outer loop
      vertex 89.9569 -89.2903 -10
      vertex 89.9415 -89.3369 10
      vertex 89.9415 -89.3369 -10
    endloop
  endfacet
  facet normal 0.992496 -0.122279 0
    outer loop
      vertex 89.9892 -89.1467 10
      vertex 89.9952 -89.098 -10
      vertex 89.9952 -89.098 10
    endloop
  endfacet
  facet normal 0.992496 -0.122279 0
    outer loop
      vertex 89.9952 -89.098 -10
      vertex 89.9892 -89.1467 10
      vertex 89.9892 -89.1467 -10
    endloop
  endfacet
  facet normal 0.985271 -0.170998 0
    outer loop
      vertex 89.9808 -89.1951 10
      vertex 89.9892 -89.1467 -10
      vertex 89.9892 -89.1467 10
    endloop
  endfacet
  facet normal 0.985271 -0.170998 0
    outer loop
      vertex 89.9892 -89.1467 -10
      vertex 89.9808 -89.1951 10
      vertex 89.9808 -89.1951 -10
    endloop
  endfacet
  facet normal 0.576603 0.817024 -0
    outer loop
      vertex 89.5957 89.8032 -10
      vertex 89.5556 89.8315 10
      vertex 89.5957 89.8032 10
    endloop
  endfacet
  facet normal 0.576603 0.817024 0
    outer loop
      vertex 89.5556 89.8315 10
      vertex 89.5957 89.8032 -10
      vertex 89.5556 89.8315 -10
    endloop
  endfacet
  facet normal 0.615209 0.788364 -0
    outer loop
      vertex 89.6344 89.773 -10
      vertex 89.5957 89.8032 10
      vertex 89.6344 89.773 10
    endloop
  endfacet
  facet normal 0.615209 0.788364 0
    outer loop
      vertex 89.5957 89.8032 10
      vertex 89.6344 89.773 -10
      vertex 89.5957 89.8032 -10
    endloop
  endfacet
  facet normal 0.450472 0.892791 -0
    outer loop
      vertex 89.4714 89.8819 -10
      vertex 89.4276 89.904 10
      vertex 89.4714 89.8819 10
    endloop
  endfacet
  facet normal 0.450472 0.892791 0
    outer loop
      vertex 89.4276 89.904 10
      vertex 89.4714 89.8819 -10
      vertex 89.4276 89.904 -10
    endloop
  endfacet
  facet normal 0.723217 0.690621 0
    outer loop
      vertex 89.741 89.6716 10
      vertex 89.7071 89.7071 -10
      vertex 89.7071 89.7071 10
    endloop
  endfacet
  facet normal 0.723217 0.690621 0
    outer loop
      vertex 89.7071 89.7071 -10
      vertex 89.741 89.6716 10
      vertex 89.741 89.6716 -10
    endloop
  endfacet
  facet normal 0.652133 0.758105 -0
    outer loop
      vertex 89.6716 89.741 -10
      vertex 89.6344 89.773 10
      vertex 89.6716 89.741 10
    endloop
  endfacet
  facet normal 0.652133 0.758105 0
    outer loop
      vertex 89.6344 89.773 10
      vertex 89.6716 89.741 -10
      vertex 89.6344 89.773 -10
    endloop
  endfacet
  facet normal 0.817024 0.576603 0
    outer loop
      vertex 89.8315 89.5556 10
      vertex 89.8032 89.5957 -10
      vertex 89.8032 89.5957 10
    endloop
  endfacet
  facet normal 0.817024 0.576603 0
    outer loop
      vertex 89.8032 89.5957 -10
      vertex 89.8315 89.5556 10
      vertex 89.8315 89.5556 -10
    endloop
  endfacet
  facet normal 0.949495 0.313782 0
    outer loop
      vertex 89.9569 89.2903 10
      vertex 89.9415 89.3369 -10
      vertex 89.9415 89.3369 10
    endloop
  endfacet
  facet normal 0.949495 0.313782 0
    outer loop
      vertex 89.9415 89.3369 -10
      vertex 89.9569 89.2903 10
      vertex 89.9569 89.2903 -10
    endloop
  endfacet
  facet normal 0.914231 0.405194 0
    outer loop
      vertex 89.9239 89.3827 10
      vertex 89.904 89.4276 -10
      vertex 89.904 89.4276 10
    endloop
  endfacet
  facet normal 0.914231 0.405194 0
    outer loop
      vertex 89.904 89.4276 -10
      vertex 89.9239 89.3827 10
      vertex 89.9239 89.3827 -10
    endloop
  endfacet
  facet normal 0.963722 0.266908 0
    outer loop
      vertex 89.97 89.243 10
      vertex 89.9569 89.2903 -10
      vertex 89.9569 89.2903 10
    endloop
  endfacet
  facet normal 0.963722 0.266908 0
    outer loop
      vertex 89.9569 89.2903 -10
      vertex 89.97 89.243 10
      vertex 89.97 89.243 -10
    endloop
  endfacet
  facet normal 0.985271 0.170998 0
    outer loop
      vertex 89.9892 89.1467 10
      vertex 89.9808 89.1951 -10
      vertex 89.9808 89.1951 10
    endloop
  endfacet
  facet normal 0.985271 0.170998 0
    outer loop
      vertex 89.9808 89.1951 -10
      vertex 89.9892 89.1467 10
      vertex 89.9892 89.1467 -10
    endloop
  endfacet
  facet normal 0.845586 0.53384 0
    outer loop
      vertex 89.8577 89.5141 10
      vertex 89.8315 89.5556 -10
      vertex 89.8315 89.5556 10
    endloop
  endfacet
  facet normal 0.845586 0.53384 0
    outer loop
      vertex 89.8315 89.5556 -10
      vertex 89.8577 89.5141 10
      vertex 89.8577 89.5141 -10
    endloop
  endfacet
  facet normal 0.997301 0.0734209 0
    outer loop
      vertex 89.9988 89.0491 10
      vertex 89.9952 89.098 -10
      vertex 89.9952 89.098 10
    endloop
  endfacet
  facet normal 0.997301 0.0734209 0
    outer loop
      vertex 89.9952 89.098 -10
      vertex 89.9988 89.0491 10
      vertex 89.9988 89.0491 -10
    endloop
  endfacet
  facet normal -0.358706 0.933451 0
    outer loop
      vertex -89.3369 89.9415 -10
      vertex -89.3827 89.9239 10
      vertex -89.3369 89.9415 10
    endloop
  endfacet
  facet normal -0.358706 0.933451 0
    outer loop
      vertex -89.3827 89.9239 10
      vertex -89.3369 89.9415 -10
      vertex -89.3827 89.9239 -10
    endloop
  endfacet
  facet normal -0.219948 0.975512 0
    outer loop
      vertex -89.1951 89.9808 -10
      vertex -89.243 89.97 10
      vertex -89.1951 89.9808 10
    endloop
  endfacet
  facet normal -0.219948 0.975512 0
    outer loop
      vertex -89.243 89.97 10
      vertex -89.1951 89.9808 -10
      vertex -89.243 89.97 -10
    endloop
  endfacet
  facet normal -0.313782 0.949495 0
    outer loop
      vertex -89.2903 89.9569 -10
      vertex -89.3369 89.9415 10
      vertex -89.2903 89.9569 10
    endloop
  endfacet
  facet normal -0.313782 0.949495 0
    outer loop
      vertex -89.3369 89.9415 10
      vertex -89.2903 89.9569 -10
      vertex -89.3369 89.9415 -10
    endloop
  endfacet
  facet normal -0.170998 0.985271 0
    outer loop
      vertex -89.1467 89.9892 -10
      vertex -89.1951 89.9808 10
      vertex -89.1467 89.9892 10
    endloop
  endfacet
  facet normal -0.170998 0.985271 0
    outer loop
      vertex -89.1951 89.9808 10
      vertex -89.1467 89.9892 -10
      vertex -89.1951 89.9808 -10
    endloop
  endfacet
  facet normal -0.493064 0.869993 0
    outer loop
      vertex -89.4714 89.8819 -10
      vertex -89.5141 89.8577 10
      vertex -89.4714 89.8819 10
    endloop
  endfacet
  facet normal -0.493064 0.869993 0
    outer loop
      vertex -89.5141 89.8577 10
      vertex -89.4714 89.8819 -10
      vertex -89.5141 89.8577 -10
    endloop
  endfacet
  facet normal -0.450472 0.892791 0
    outer loop
      vertex -89.4276 89.904 -10
      vertex -89.4714 89.8819 10
      vertex -89.4276 89.904 10
    endloop
  endfacet
  facet normal -0.450472 0.892791 0
    outer loop
      vertex -89.4714 89.8819 10
      vertex -89.4276 89.904 -10
      vertex -89.4714 89.8819 -10
    endloop
  endfacet
  facet normal -0.405194 0.914231 0
    outer loop
      vertex -89.3827 89.9239 -10
      vertex -89.4276 89.904 10
      vertex -89.3827 89.9239 10
    endloop
  endfacet
  facet normal -0.405194 0.914231 0
    outer loop
      vertex -89.4276 89.904 10
      vertex -89.3827 89.9239 -10
      vertex -89.4276 89.904 -10
    endloop
  endfacet
  facet normal -0.615209 0.788364 0
    outer loop
      vertex -89.5957 89.8032 -10
      vertex -89.6344 89.773 10
      vertex -89.5957 89.8032 10
    endloop
  endfacet
  facet normal -0.615209 0.788364 0
    outer loop
      vertex -89.6344 89.773 10
      vertex -89.5957 89.8032 -10
      vertex -89.6344 89.773 -10
    endloop
  endfacet
  facet normal -0.576603 0.817024 0
    outer loop
      vertex -89.5556 89.8315 -10
      vertex -89.5957 89.8032 10
      vertex -89.5556 89.8315 10
    endloop
  endfacet
  facet normal -0.576603 0.817024 0
    outer loop
      vertex -89.5957 89.8032 10
      vertex -89.5556 89.8315 -10
      vertex -89.5957 89.8032 -10
    endloop
  endfacet
  facet normal -0.652133 0.758105 0
    outer loop
      vertex -89.6344 89.773 -10
      vertex -89.6716 89.741 10
      vertex -89.6344 89.773 10
    endloop
  endfacet
  facet normal -0.652133 0.758105 0
    outer loop
      vertex -89.6716 89.741 10
      vertex -89.6344 89.773 -10
      vertex -89.6716 89.741 -10
    endloop
  endfacet
  facet normal -0.788364 0.615209 0
    outer loop
      vertex -89.8032 89.5957 -10
      vertex -89.773 89.6344 10
      vertex -89.773 89.6344 -10
    endloop
  endfacet
  facet normal -0.788364 0.615209 0
    outer loop
      vertex -89.773 89.6344 10
      vertex -89.8032 89.5957 -10
      vertex -89.8032 89.5957 10
    endloop
  endfacet
  facet normal -0.975512 -0.219948 0
    outer loop
      vertex -89.97 -89.243 -10
      vertex -89.9808 -89.1951 10
      vertex -89.9808 -89.1951 -10
    endloop
  endfacet
  facet normal -0.975512 -0.219948 0
    outer loop
      vertex -89.9808 -89.1951 10
      vertex -89.97 -89.243 -10
      vertex -89.97 -89.243 10
    endloop
  endfacet
  facet normal 0.869993 -0.493064 0
    outer loop
      vertex 89.8577 -89.5141 10
      vertex 89.8819 -89.4714 -10
      vertex 89.8819 -89.4714 10
    endloop
  endfacet
  facet normal 0.869993 -0.493064 0
    outer loop
      vertex 89.8819 -89.4714 -10
      vertex 89.8577 -89.5141 10
      vertex 89.8577 -89.5141 -10
    endloop
  endfacet
  facet normal 0.493064 0.869993 -0
    outer loop
      vertex 89.5141 89.8577 -10
      vertex 89.4714 89.8819 10
      vertex 89.5141 89.8577 10
    endloop
  endfacet
  facet normal 0.493064 0.869993 0
    outer loop
      vertex 89.4714 89.8819 10
      vertex 89.5141 89.8577 -10
      vertex 89.4714 89.8819 -10
    endloop
  endfacet
  facet normal 0.690621 0.723217 -0
    outer loop
      vertex 89.7071 89.7071 -10
      vertex 89.6716 89.741 10
      vertex 89.7071 89.7071 10
    endloop
  endfacet
  facet normal 0.690621 0.723217 0
    outer loop
      vertex 89.6716 89.741 10
      vertex 89.7071 89.7071 -10
      vertex 89.6716 89.741 -10
    endloop
  endfacet
  facet normal 0.122279 0.992496 -0
    outer loop
      vertex 89.1467 89.9892 -10
      vertex 89.098 89.9952 10
      vertex 89.1467 89.9892 10
    endloop
  endfacet
  facet normal 0.122279 0.992496 0
    outer loop
      vertex 89.098 89.9952 10
      vertex 89.1467 89.9892 -10
      vertex 89.098 89.9952 -10
    endloop
  endfacet
  facet normal 0.0734209 0.997301 -0
    outer loop
      vertex 89.098 89.9952 -10
      vertex 89.0491 89.9988 10
      vertex 89.098 89.9952 10
    endloop
  endfacet
  facet normal 0.0734209 0.997301 0
    outer loop
      vertex 89.0491 89.9988 10
      vertex 89.098 89.9952 -10
      vertex 89.0491 89.9988 -10
    endloop
  endfacet
  facet normal 0.358706 0.933451 -0
    outer loop
      vertex 89.3827 89.9239 -10
      vertex 89.3369 89.9415 10
      vertex 89.3827 89.9239 10
    endloop
  endfacet
  facet normal 0.358706 0.933451 0
    outer loop
      vertex 89.3369 89.9415 10
      vertex 89.3827 89.9239 -10
      vertex 89.3369 89.9415 -10
    endloop
  endfacet
  facet normal 0.405194 0.914231 -0
    outer loop
      vertex 89.4276 89.904 -10
      vertex 89.3827 89.9239 10
      vertex 89.4276 89.904 10
    endloop
  endfacet
  facet normal 0.405194 0.914231 0
    outer loop
      vertex 89.3827 89.9239 10
      vertex 89.4276 89.904 -10
      vertex 89.3827 89.9239 -10
    endloop
  endfacet
  facet normal 0.313782 0.949495 -0
    outer loop
      vertex 89.3369 89.9415 -10
      vertex 89.2903 89.9569 10
      vertex 89.3369 89.9415 10
    endloop
  endfacet
  facet normal 0.313782 0.949495 0
    outer loop
      vertex 89.2903 89.9569 10
      vertex 89.3369 89.9415 -10
      vertex 89.2903 89.9569 -10
    endloop
  endfacet
  facet normal 0.933451 0.358706 0
    outer loop
      vertex 89.9415 89.3369 10
      vertex 89.9239 89.3827 -10
      vertex 89.9239 89.3827 10
    endloop
  endfacet
  facet normal 0.933451 0.358706 0
    outer loop
      vertex 89.9239 89.3827 -10
      vertex 89.9415 89.3369 10
      vertex 89.9415 89.3369 -10
    endloop
  endfacet
  facet normal 0.869993 0.493064 0
    outer loop
      vertex 89.8819 89.4714 10
      vertex 89.8577 89.5141 -10
      vertex 89.8577 89.5141 10
    endloop
  endfacet
  facet normal 0.869993 0.493064 0
    outer loop
      vertex 89.8577 89.5141 -10
      vertex 89.8819 89.4714 10
      vertex 89.8819 89.4714 -10
    endloop
  endfacet
  facet normal -0.122279 0.992496 0
    outer loop
      vertex -89.098 89.9952 -10
      vertex -89.1467 89.9892 10
      vertex -89.098 89.9952 10
    endloop
  endfacet
  facet normal -0.122279 0.992496 0
    outer loop
      vertex -89.1467 89.9892 10
      vertex -89.098 89.9952 -10
      vertex -89.1467 89.9892 -10
    endloop
  endfacet
  facet normal -0.0734209 0.997301 0
    outer loop
      vertex -89.0491 89.9988 -10
      vertex -89.098 89.9952 10
      vertex -89.0491 89.9988 10
    endloop
  endfacet
  facet normal -0.0734209 0.997301 0
    outer loop
      vertex -89.098 89.9952 10
      vertex -89.0491 89.9988 -10
      vertex -89.098 89.9952 -10
    endloop
  endfacet
  facet normal -0.0244326 0.999701 0
    outer loop
      vertex -89 90 -10
      vertex -89.0491 89.9988 10
      vertex -89 90 10
    endloop
  endfacet
  facet normal -0.0244326 0.999701 0
    outer loop
      vertex -89.0491 89.9988 10
      vertex -89 90 -10
      vertex -89.0491 89.9988 -10
    endloop
  endfacet
  facet normal 0.170998 0.985271 -0
    outer loop
      vertex 89.1951 89.9808 -10
      vertex 89.1467 89.9892 10
      vertex 89.1951 89.9808 10
    endloop
  endfacet
  facet normal 0.170998 0.985271 0
    outer loop
      vertex 89.1467 89.9892 10
      vertex 89.1951 89.9808 -10
      vertex 89.1467 89.9892 -10
    endloop
  endfacet
  facet normal 0.219948 0.975512 -0
    outer loop
      vertex 89.243 89.97 -10
      vertex 89.1951 89.9808 10
      vertex 89.243 89.97 10
    endloop
  endfacet
  facet normal 0.219948 0.975512 0
    outer loop
      vertex 89.1951 89.9808 10
      vertex 89.243 89.97 -10
      vertex 89.1951 89.9808 -10
    endloop
  endfacet
  facet normal 1 -0 0
    outer loop
      vertex -88 -88 10
      vertex -88 88 -8
      vertex -88 88 10
    endloop
  endfacet
  facet normal 1 0 0
    outer loop
      vertex -88 88 -8
      vertex -88 -88 10
      vertex -88 -88 -8
    endloop
  endfacet
  facet normal -1 0 0
    outer loop
      vertex 88 -88 -8
      vertex 88 88 10
      vertex 88 88 -8
    endloop
  endfacet
  facet normal -1 -0 0
    outer loop
      vertex 88 88 10
      vertex 88 -88 -8
      vertex 88 -88 10
    endloop
  endfacet
  facet normal 0 -1 0
    outer loop
      vertex -88 88 -8
      vertex 88 88 10
      vertex -88 88 10
    endloop
  endfacet
  facet normal 0 -1 -0
    outer loop
      vertex 88 88 10
      vertex -88 88 -8
      vertex 88 88 -8
    endloop
  endfacet
  facet normal -0 0 1
    outer loop
      vertex -88 88 -8
      vertex 88 -88 -8
      vertex 88 88 -8
    endloop
  endfacet
  facet normal 0 0 1
    outer loop
      vertex 88 -88 -8
      vertex -88 88 -8
      vertex -88 -88 -8
    endloop
  endfacet
  facet normal 0 1 -0
    outer loop
      vertex 88 -88 -8
      vertex -88 -88 10
      vertex 88 -88 10
    endloop
  endfacet
  facet normal 0 1 0
    outer loop
      vertex -88 -88 10
      vertex 88 -88 -8
      vertex -88 -88 -8
    endloop
  endfacet
endsolid OpenSCAD_Model
