solid OpenSCAD_Model
  facet normal 1 -0 0
    outer loop
      vertex -22.5 -25 5.75
      vertex -22.5 25 3.25
      vertex -22.5 25 5.75
    endloop
  endfacet
  facet normal 1 0 0
    outer loop
      vertex -22.5 25 3.25
      vertex -22.5 -25 5.75
      vertex -22.5 -25 3.25
    endloop
  endfacet
  facet normal -0 0 1
    outer loop
      vertex 22.5 25 5.75
      vertex 27.5 -25 5.75
      vertex 27.5 25 5.75
    endloop
  endfacet
  facet normal 0 0 1
    outer loop
      vertex 27.5 -25 5.75
      vertex 22.5 25 5.75
      vertex 22.5 -25 5.75
    endloop
  endfacet
  facet normal -0 0 1
    outer loop
      vertex -27.5 25 5.75
      vertex -22.5 -25 5.75
      vertex -22.5 25 5.75
    endloop
  endfacet
  facet normal 0 0 1
    outer loop
      vertex -22.5 -25 5.75
      vertex -27.5 25 5.75
      vertex -27.5 -25 5.75
    endloop
  endfacet
  facet normal -1 0 0
    outer loop
      vertex 22.5 -25 3.25
      vertex 22.5 25 5.75
      vertex 22.5 25 3.25
    endloop
  endfacet
  facet normal -1 -0 0
    outer loop
      vertex 22.5 25 5.75
      vertex 22.5 -25 3.25
      vertex 22.5 -25 5.75
    endloop
  endfacet
  facet normal 0 1 0
    outer loop
      vertex 27.5 25 5.75
      vertex 25 25 3.25
      vertex 22.5 25 5.75
    endloop
  endfacet
  facet normal 0 1 0
    outer loop
      vertex 27.5 25 5.75
      vertex 25 25 -3.25
      vertex 25 25 3.25
    endloop
  endfacet
  facet normal 0 1 0
    outer loop
      vertex 25 25 -3.25
      vertex 27.5 25 -58.25
      vertex -25 25 -3.25
    endloop
  endfacet
  facet normal 0 1 -0
    outer loop
      vertex 27.5 25 -58.25
      vertex 25 25 -3.25
      vertex 27.5 25 5.75
    endloop
  endfacet
  facet normal 0 1 0
    outer loop
      vertex 22.5 25 5.75
      vertex 25 25 3.25
      vertex 22.5 25 3.25
    endloop
  endfacet
  facet normal 0 1 0
    outer loop
      vertex -25 25 3.25
      vertex -22.5 25 5.75
      vertex -22.5 25 3.25
    endloop
  endfacet
  facet normal 0 1 0
    outer loop
      vertex -22.5 25 5.75
      vertex -25 25 3.25
      vertex -27.5 25 5.75
    endloop
  endfacet
  facet normal 0 1 -0
    outer loop
      vertex -25 25 -3.25
      vertex -27.5 25 5.75
      vertex -25 25 3.25
    endloop
  endfacet
  facet normal 0 1 0
    outer loop
      vertex -25 25 -3.25
      vertex -27.5 25 -58.25
      vertex -27.5 25 5.75
    endloop
  endfacet
  facet normal 0 1 0
    outer loop
      vertex -27.5 25 -58.25
      vertex -25 25 -3.25
      vertex 27.5 25 -58.25
    endloop
  endfacet
  facet normal 0 -1 0
    outer loop
      vertex -27.5 -25 5.75
      vertex -25 -25 3.25
      vertex -22.5 -25 5.75
    endloop
  endfacet
  facet normal 0 -1 0
    outer loop
      vertex -27.5 -25 5.75
      vertex -25 -25 -3.25
      vertex -25 -25 3.25
    endloop
  endfacet
  facet normal 0 -1 -0
    outer loop
      vertex -25 -25 -3.25
      vertex -27.5 -25 -58.25
      vertex 25 -25 -3.25
    endloop
  endfacet
  facet normal 0 -1 0
    outer loop
      vertex -27.5 -25 -58.25
      vertex -25 -25 -3.25
      vertex -27.5 -25 5.75
    endloop
  endfacet
  facet normal 0 -1 -0
    outer loop
      vertex -22.5 -25 5.75
      vertex -25 -25 3.25
      vertex -22.5 -25 3.25
    endloop
  endfacet
  facet normal 0 -1 0
    outer loop
      vertex 25 -25 3.25
      vertex 22.5 -25 5.75
      vertex 22.5 -25 3.25
    endloop
  endfacet
  facet normal 0 -1 0
    outer loop
      vertex 22.5 -25 5.75
      vertex 25 -25 3.25
      vertex 27.5 -25 5.75
    endloop
  endfacet
  facet normal 0 -1 0
    outer loop
      vertex 25 -25 -3.25
      vertex 27.5 -25 5.75
      vertex 25 -25 3.25
    endloop
  endfacet
  facet normal 0 -1 0
    outer loop
      vertex 25 -25 -3.25
      vertex 27.5 -25 -58.25
      vertex 27.5 -25 5.75
    endloop
  endfacet
  facet normal 0 -1 0
    outer loop
      vertex 27.5 -25 -58.25
      vertex 25 -25 -3.25
      vertex -27.5 -25 -58.25
    endloop
  endfacet
  facet normal 1 -0 0
    outer loop
      vertex -25 -25 3.25
      vertex -25 25 -3.25
      vertex -25 25 3.25
    endloop
  endfacet
  facet normal 1 0 0
    outer loop
      vertex -25 25 -3.25
      vertex -25 -25 3.25
      vertex -25 -25 -3.25
    endloop
  endfacet
  facet normal 0 0 -1
    outer loop
      vertex 22.5 -25 3.25
      vertex 25 25 3.25
      vertex 25 -25 3.25
    endloop
  endfacet
  facet normal -0 0 -1
    outer loop
      vertex 25 25 3.25
      vertex 22.5 -25 3.25
      vertex 22.5 25 3.25
    endloop
  endfacet
  facet normal 0 0 -1
    outer loop
      vertex -25 -25 3.25
      vertex -22.5 25 3.25
      vertex -22.5 -25 3.25
    endloop
  endfacet
  facet normal -0 0 -1
    outer loop
      vertex -22.5 25 3.25
      vertex -25 -25 3.25
      vertex -25 25 3.25
    endloop
  endfacet
  facet normal -1 0 0
    outer loop
      vertex 25 -25 -3.25
      vertex 25 25 3.25
      vertex 25 25 -3.25
    endloop
  endfacet
  facet normal -1 -0 0
    outer loop
      vertex 25 25 3.25
      vertex 25 -25 -3.25
      vertex 25 -25 3.25
    endloop
  endfacet
  facet normal -0 0 1
    outer loop
      vertex -25 25 -3.25
      vertex 25 -25 -3.25
      vertex 25 25 -3.25
    endloop
  endfacet
  facet normal 0 0 1
    outer loop
      vertex 25 -25 -3.25
      vertex -25 25 -3.25
      vertex -25 -25 -3.25
    endloop
  endfacet
  facet normal -1 0 0
    outer loop
      vertex -27.5 -25 -58.25
      vertex -27.5 25 5.75
      vertex -27.5 25 -58.25
    endloop
  endfacet
  facet normal -1 -0 0
    outer loop
      vertex -27.5 25 5.75
      vertex -27.5 -25 -58.25
      vertex -27.5 -25 5.75
    endloop
  endfacet
  facet normal 1 -0 0
    outer loop
      vertex 27.5 -25 5.75
      vertex 27.5 25 -58.25
      vertex 27.5 25 5.75
    endloop
  endfacet
  facet normal 1 0 0
    outer loop
      vertex 27.5 25 -58.25
      vertex 27.5 -25 5.75
      vertex 27.5 -25 -58.25
    endloop
  endfacet
  facet normal 0 0 -1
    outer loop
      vertex -27.5 -25 -58.25
      vertex 27.5 25 -58.25
      vertex 27.5 -25 -58.25
    endloop
  endfacet
  facet normal -0 0 -1
    outer loop
      vertex 27.5 25 -58.25
      vertex -27.5 -25 -58.25
      vertex -27.5 25 -58.25
    endloop
  endfacet
endsolid OpenSCAD_Model
