solid OpenSCAD_Model
  facet normal 0 0 1
    outer loop
      vertex 0 35.3553 0.1
      vertex 0 -35.3553 0.1
      vertex 35.3553 0 0.1
    endloop
  endfacet
  facet normal 0 -0 1
    outer loop
      vertex 0 -35.3553 0.1
      vertex 0 35.3553 0.1
      vertex -35.3553 0 0.1
    endloop
  endfacet
  facet normal 0 0 -1
    outer loop
      vertex 0 -35.3553 -0.1
      vertex 0 35.3553 -0.1
      vertex 35.3553 0 -0.1
    endloop
  endfacet
  facet normal 0 -0 -1
    outer loop
      vertex 0 35.3553 -0.1
      vertex 0 -35.3553 -0.1
      vertex -35.3553 0 -0.1
    endloop
  endfacet
  facet normal 0.707107 -0.707107 0
    outer loop
      vertex 0 -35.3553 0.1
      vertex 35.3553 0 -0.1
      vertex 35.3553 0 0.1
    endloop
  endfacet
  facet normal 0.707107 -0.707107 0
    outer loop
      vertex 35.3553 0 -0.1
      vertex 0 -35.3553 0.1
      vertex 0 -35.3553 -0.1
    endloop
  endfacet
  facet normal 0.707107 0.707107 0
    outer loop
      vertex 35.3553 0 0.1
      vertex 0 35.3553 -0.1
      vertex 0 35.3553 0.1
    endloop
  endfacet
  facet normal 0.707107 0.707107 0
    outer loop
      vertex 0 35.3553 -0.1
      vertex 35.3553 0 0.1
      vertex 35.3553 0 -0.1
    endloop
  endfacet
  facet normal -0.707107 0.707107 0
    outer loop
      vertex -35.3553 0 -0.1
      vertex 0 35.3553 0.1
      vertex 0 35.3553 -0.1
    endloop
  endfacet
  facet normal -0.707107 0.707107 0
    outer loop
      vertex 0 35.3553 0.1
      vertex -35.3553 0 -0.1
      vertex -35.3553 0 0.1
    endloop
  endfacet
  facet normal -0.707107 -0.707107 0
    outer loop
      vertex 0 -35.3553 -0.1
      vertex -35.3553 0 0.1
      vertex -35.3553 0 -0.1
    endloop
  endfacet
  facet normal -0.707107 -0.707107 0
    outer loop
      vertex -35.3553 0 0.1
      vertex 0 -35.3553 -0.1
      vertex 0 -35.3553 0.1
    endloop
  endfacet
endsolid OpenSCAD_Model
