solid OpenSCAD_Model
  facet normal 0 0 -1
    outer loop
      vertex 8 -8 -32
      vertex -8 -8 -32
      vertex 4 -4 -32
    endloop
  endfacet
  facet normal 0 0 1
    outer loop
      vertex 4 3.8 32
      vertex 8 -8 32
      vertex 8 8 32
    endloop
  endfacet
  facet normal 1 0 0
    outer loop
      vertex 8 -8 32
      vertex 8 8 -32
      vertex 8 8 32
    endloop
  endfacet
  facet normal 0 0 1
    outer loop
      vertex 8 8 32
      vertex -8 8 32
      vertex 4 3.8 32
    endloop
  endfacet
  facet normal 0 1 0
    outer loop
      vertex 8 8 -32
      vertex -8 8 32
      vertex 8 8 32
    endloop
  endfacet
  facet normal 0 0 -1
    outer loop
      vertex 4 -4 -32
      vertex 4 4 -32
      vertex 8 8 -32
    endloop
  endfacet
  facet normal 0 0 -1
    outer loop
      vertex 8 8 -32
      vertex 4 4 -32
      vertex -4 4 -32
    endloop
  endfacet
  facet normal 0 0 1
    outer loop
      vertex 4 -3.8 32
      vertex 8 -8 32
      vertex 4 3.8 32
    endloop
  endfacet
  facet normal 0 0 1
    outer loop
      vertex -4 -3.8 32
      vertex 8 -8 32
      vertex 4 -3.8 32
    endloop
  endfacet
  facet normal 1 0 0
    outer loop
      vertex 8 -8 32
      vertex 8 -8 -32
      vertex 8 8 -32
    endloop
  endfacet
  facet normal 0 0 -1
    outer loop
      vertex 4 -4 -32
      vertex 8 8 -32
      vertex 8 -8 -32
    endloop
  endfacet
  facet normal 0 -1 0
    outer loop
      vertex 8 -8 32
      vertex -8 -8 -32
      vertex 8 -8 -32
    endloop
  endfacet
  facet normal 0 0 -1
    outer loop
      vertex -4 4 -32
      vertex -4 -4 -32
      vertex -8 -8 -32
    endloop
  endfacet
  facet normal 0 0 1
    outer loop
      vertex -4 3.8 32
      vertex 4 3.8 32
      vertex -8 8 32
    endloop
  endfacet
  facet normal 0 0 1
    outer loop
      vertex -8 8 32
      vertex -4 -3.8 32
      vertex -4 3.8 32
    endloop
  endfacet
  facet normal 0 1 0
    outer loop
      vertex 8 8 -32
      vertex -8 8 -32
      vertex -8 8 32
    endloop
  endfacet
  facet normal 0 -1 0
    outer loop
      vertex -8 -8 32
      vertex -8 -8 -32
      vertex 8 -8 32
    endloop
  endfacet
  facet normal 0 0 -1
    outer loop
      vertex -8 -8 -32
      vertex -4 -4 -32
      vertex 4 -4 -32
    endloop
  endfacet
  facet normal -1 0 0
    outer loop
      vertex -8 -8 -32
      vertex -8 -8 32
      vertex -8 8 32
    endloop
  endfacet
  facet normal 0 0 1
    outer loop
      vertex -8 8 32
      vertex -8 -8 32
      vertex -4 -3.8 32
    endloop
  endfacet
  facet normal 0 0 -1
    outer loop
      vertex -8 8 -32
      vertex 8 8 -32
      vertex -4 4 -32
    endloop
  endfacet
  facet normal 0 0 1
    outer loop
      vertex -4 -3.8 32
      vertex -8 -8 32
      vertex 8 -8 32
    endloop
  endfacet
  facet normal 0 0 -1
    outer loop
      vertex -4 4 -32
      vertex -8 -8 -32
      vertex -8 8 -32
    endloop
  endfacet
  facet normal -1 0 0
    outer loop
      vertex -8 -8 -32
      vertex -8 8 32
      vertex -8 8 -32
    endloop
  endfacet
  facet normal 0 0 1
    outer loop
      vertex -4 3.8 39.6
      vertex -4 -3.8 39.6
      vertex 4 -3.8 39.6
    endloop
  endfacet
  facet normal 1 0 0
    outer loop
      vertex 4 3.8 39.6
      vertex 4 -3.8 39.6
      vertex 4 3.8 32
    endloop
  endfacet
  facet normal 0 -1 0
    outer loop
      vertex -4 -3.8 39.6
      vertex -4 -3.8 32
      vertex 4 -3.8 39.6
    endloop
  endfacet
  facet normal -1 0 0
    outer loop
      vertex -4 -3.8 32
      vertex -4 -3.8 39.6
      vertex -4 3.8 39.6
    endloop
  endfacet
  facet normal 0 -1 0
    outer loop
      vertex 4 -3.8 39.6
      vertex -4 -3.8 32
      vertex 4 -3.8 32
    endloop
  endfacet
  facet normal 0 1 0
    outer loop
      vertex -4 3.8 32
      vertex -4 3.8 39.6
      vertex 4 3.8 32
    endloop
  endfacet
  facet normal 1 0 0
    outer loop
      vertex 4 -3.8 39.6
      vertex 4 -3.8 32
      vertex 4 3.8 32
    endloop
  endfacet
  facet normal -1 0 0
    outer loop
      vertex -4 3.8 32
      vertex -4 -3.8 32
      vertex -4 3.8 39.6
    endloop
  endfacet
  facet normal 0 1 0
    outer loop
      vertex 4 3.8 32
      vertex -4 3.8 39.6
      vertex 4 3.8 39.6
    endloop
  endfacet
  facet normal 0 0 1
    outer loop
      vertex -4 3.8 39.6
      vertex 4 -3.8 39.6
      vertex 4 3.8 39.6
    endloop
  endfacet
  facet normal 0 -1 0
    outer loop
      vertex 4 4 -32
      vertex -4 4 -24
      vertex -4 4 -32
    endloop
  endfacet
  facet normal 1 0 0
    outer loop
      vertex -4 -4 -24
      vertex -4 -4 -32
      vertex -4 4 -24
    endloop
  endfacet
  facet normal 0 1 0
    outer loop
      vertex 4 -4 -24
      vertex -4 -4 -32
      vertex -4 -4 -24
    endloop
  endfacet
  facet normal 0 0 -1
    outer loop
      vertex -4 -4 -24
      vertex -4 4 -24
      vertex 4 -4 -24
    endloop
  endfacet
  facet normal 1 0 0
    outer loop
      vertex -4 4 -24
      vertex -4 -4 -32
      vertex -4 4 -32
    endloop
  endfacet
  facet normal -1 0 0
    outer loop
      vertex 4 4 -32
      vertex 4 -4 -24
      vertex 4 4 -24
    endloop
  endfacet
  facet normal 0 -1 0
    outer loop
      vertex -4 4 -24
      vertex 4 4 -32
      vertex 4 4 -24
    endloop
  endfacet
  facet normal 0 0 -1
    outer loop
      vertex 4 -4 -24
      vertex -4 4 -24
      vertex 4 4 -24
    endloop
  endfacet
  facet normal -1 0 0
    outer loop
      vertex 4 -4 -32
      vertex 4 -4 -24
      vertex 4 4 -32
    endloop
  endfacet
  facet normal 0 1 0
    outer loop
      vertex -4 -4 -32
      vertex 4 -4 -24
      vertex 4 -4 -32
    endloop
  endfacet
endsolid OpenSCAD_Model
