solid OpenSCAD_Model
  facet normal 0 0 1
    outer loop
      vertex -32 -12 -4
      vertex -32 -20 -4
      vertex -24 -12 -4
    endloop
  endfacet
  facet normal 0 0 1
    outer loop
      vertex -32 -20 -4
      vertex -24 -20 -4
      vertex -24 -12 -4
    endloop
  endfacet
  facet normal 0 1 0
    outer loop
      vertex -24 -20 -4
      vertex -32 -20 -4
      vertex -24 -20 4
    endloop
  endfacet
  facet normal -1 0 0
    outer loop
      vertex -24 -12 -4
      vertex -24 -20 -4
      vertex -24 -20 4
    endloop
  endfacet
  facet normal 0 1 0
    outer loop
      vertex -24 -20 4
      vertex -32 -20 -4
      vertex -32 -20 4
    endloop
  endfacet
  facet normal -1 0 0
    outer loop
      vertex -24 -12 4
      vertex -24 -12 -4
      vertex -24 -20 4
    endloop
  endfacet
  facet normal 0 0 -1
    outer loop
      vertex -24 -12 4
      vertex -24 -20 4
      vertex -32 -12 4
    endloop
  endfacet
  facet normal 0 0 -1
    outer loop
      vertex -24 -20 4
      vertex -32 -20 4
      vertex -32 -12 4
    endloop
  endfacet
  facet normal 0 -1 0
    outer loop
      vertex -32 -12 -4
      vertex -24 -12 -4
      vertex -32 -12 4
    endloop
  endfacet
  facet normal 0 -1 0
    outer loop
      vertex -32 -12 4
      vertex -24 -12 -4
      vertex -24 -12 4
    endloop
  endfacet
  facet normal 1 0 0
    outer loop
      vertex -20 24 -4
      vertex -20 32 -4
      vertex -20 32 4
    endloop
  endfacet
  facet normal -1 0 0
    outer loop
      vertex -12 32 -4
      vertex -12 24 -4
      vertex -12 24 4
    endloop
  endfacet
  facet normal 0 1 0
    outer loop
      vertex -12 24 4
      vertex -20 24 -4
      vertex -20 24 4
    endloop
  endfacet
  facet normal 1 0 0
    outer loop
      vertex -20 24 -4
      vertex -20 32 4
      vertex -20 24 4
    endloop
  endfacet
  facet normal 0 1 0
    outer loop
      vertex -12 24 -4
      vertex -20 24 -4
      vertex -12 24 4
    endloop
  endfacet
  facet normal 0 0 -1
    outer loop
      vertex -12 24 4
      vertex -20 24 4
      vertex -20 32 4
    endloop
  endfacet
  facet normal 0 0 1
    outer loop
      vertex -12 32 -4
      vertex -20 24 -4
      vertex -12 24 -4
    endloop
  endfacet
  facet normal 0 0 1
    outer loop
      vertex -20 24 -4
      vertex -12 32 -4
      vertex -20 32 -4
    endloop
  endfacet
  facet normal -1 0 0
    outer loop
      vertex -12 32 -4
      vertex -12 24 4
      vertex -12 32 4
    endloop
  endfacet
  facet normal 0 0 -1
    outer loop
      vertex -12 24 4
      vertex -20 32 4
      vertex -12 32 4
    endloop
  endfacet
  facet normal -1 0 0
    outer loop
      vertex 28 -28 -8
      vertex 28 -28 0
      vertex 28 -20 -8
    endloop
  endfacet
  facet normal 0 -1 0
    outer loop
      vertex 20 -20 0
      vertex 28 -20 -8
      vertex 28 -20 0
    endloop
  endfacet
  facet normal 1 0 0
    outer loop
      vertex 20 -28 -8
      vertex 20 -20 -8
      vertex 20 -20 0
    endloop
  endfacet
  facet normal -1 0 0
    outer loop
      vertex 28 -20 0
      vertex 28 -20 -8
      vertex 28 -28 0
    endloop
  endfacet
  facet normal 0 1 0
    outer loop
      vertex 28 -28 -8
      vertex 20 -28 -8
      vertex 28 -28 0
    endloop
  endfacet
  facet normal 0 0 -1
    outer loop
      vertex 28 -28 0
      vertex 20 -28 0
      vertex 20 -20 0
    endloop
  endfacet
  facet normal 0 0 -1
    outer loop
      vertex 28 -20 0
      vertex 28 -28 0
      vertex 20 -20 0
    endloop
  endfacet
  facet normal 0 -1 0
    outer loop
      vertex 20 -20 0
      vertex 20 -20 -8
      vertex 28 -20 -8
    endloop
  endfacet
  facet normal 1 0 0
    outer loop
      vertex 20 -28 -8
      vertex 20 -20 0
      vertex 20 -28 0
    endloop
  endfacet
  facet normal 0 1 0
    outer loop
      vertex 28 -28 0
      vertex 20 -28 -8
      vertex 20 -28 0
    endloop
  endfacet
  facet normal 0 0 -1
    outer loop
      vertex 32 -32 -8
      vertex 20 -28 -8
      vertex 28 -28 -8
    endloop
  endfacet
  facet normal 0 0 1
    outer loop
      vertex 20 -28 8
      vertex 20 -20 8
      vertex -32 -32 8
    endloop
  endfacet
  facet normal 0 0 -1
    outer loop
      vertex 20 -20 -8
      vertex -32 -32 -8
      vertex 32 32 -8
    endloop
  endfacet
  facet normal 0 1 0
    outer loop
      vertex 32 32 -8
      vertex -20 32 -4
      vertex -12 32 -4
    endloop
  endfacet
  facet normal 0 1 0
    outer loop
      vertex -12 32 4
      vertex 32 32 8
      vertex 19.9 32 3.9
    endloop
  endfacet
  facet normal 0 1 0
    outer loop
      vertex -12 32 4
      vertex -20 32 4
      vertex 32 32 8
    endloop
  endfacet
  facet normal 0 0 1
    outer loop
      vertex 32 32 8
      vertex -32 32 8
      vertex 20 -20 8
    endloop
  endfacet
  facet normal 0 1 0
    outer loop
      vertex 32 32 8
      vertex 32 32 -8
      vertex 19.9 32 3.9
    endloop
  endfacet
  facet normal 0 1 0
    outer loop
      vertex 32 32 -8
      vertex 19.9 32 -3.9
      vertex 19.9 32 3.9
    endloop
  endfacet
  facet normal 0 1 0
    outer loop
      vertex 32 32 -8
      vertex 12.1 32 -3.9
      vertex 19.9 32 -3.9
    endloop
  endfacet
  facet normal 1 0 0
    outer loop
      vertex 32 32 8
      vertex 32 -32 8
      vertex 32 32 -8
    endloop
  endfacet
  facet normal 0 1 0
    outer loop
      vertex 12.1 32 3.9
      vertex -12 32 4
      vertex 19.9 32 3.9
    endloop
  endfacet
  facet normal 0 1 0
    outer loop
      vertex -12 32 -4
      vertex 12.1 32 3.9
      vertex 12.1 32 -3.9
    endloop
  endfacet
  facet normal 0 1 0
    outer loop
      vertex 12.1 32 -3.9
      vertex 32 32 -8
      vertex -12 32 -4
    endloop
  endfacet
  facet normal 0 0 -1
    outer loop
      vertex 32 32 -8
      vertex 28 -28 -8
      vertex 28 -20 -8
    endloop
  endfacet
  facet normal 0 0 1
    outer loop
      vertex 32 32 8
      vertex 20 -20 8
      vertex 28 -20 8
    endloop
  endfacet
  facet normal 0 0 1
    outer loop
      vertex 28 -28 8
      vertex 32 -32 8
      vertex 32 32 8
    endloop
  endfacet
  facet normal 0 0 1
    outer loop
      vertex 28 -28 8
      vertex 32 32 8
      vertex 28 -20 8
    endloop
  endfacet
  facet normal 0 0 1
    outer loop
      vertex -32 -32 8
      vertex 32 -32 8
      vertex 28 -28 8
    endloop
  endfacet
  facet normal 0 0 1
    outer loop
      vertex 20 -28 8
      vertex -32 -32 8
      vertex 28 -28 8
    endloop
  endfacet
  facet normal 0 -1 0
    outer loop
      vertex 32 -32 8
      vertex -32 -32 -8
      vertex 32 -32 -8
    endloop
  endfacet
  facet normal 0 0 -1
    outer loop
      vertex 28 -20 -8
      vertex 20 -20 -8
      vertex 32 32 -8
    endloop
  endfacet
  facet normal 1 0 0
    outer loop
      vertex 32 -32 8
      vertex 32 -32 -8
      vertex 32 32 -8
    endloop
  endfacet
  facet normal 0 0 -1
    outer loop
      vertex 32 -32 -8
      vertex 28 -28 -8
      vertex 32 32 -8
    endloop
  endfacet
  facet normal 0 0 -1
    outer loop
      vertex -32 -32 -8
      vertex 20 -28 -8
      vertex 32 -32 -8
    endloop
  endfacet
  facet normal -1 0 0
    outer loop
      vertex -32 -20 -4
      vertex -32 -12 -4
      vertex -32 -32 -8
    endloop
  endfacet
  facet normal -1 0 0
    outer loop
      vertex -32 -20 4
      vertex -32 -32 -8
      vertex -32 -32 8
    endloop
  endfacet
  facet normal -1 0 0
    outer loop
      vertex -32 -32 -8
      vertex -32 -12 -4
      vertex -32 32 -8
    endloop
  endfacet
  facet normal -1 0 0
    outer loop
      vertex -32 -12 -4
      vertex -32 -12 4
      vertex -32 12.1 3.9
    endloop
  endfacet
  facet normal 0 -1 0
    outer loop
      vertex -32 -32 8
      vertex -32 -32 -8
      vertex 32 -32 8
    endloop
  endfacet
  facet normal -1 0 0
    outer loop
      vertex -32 -20 4
      vertex -32 -32 8
      vertex -32 32 8
    endloop
  endfacet
  facet normal -1 0 0
    outer loop
      vertex -32 -12 4
      vertex -32 -20 4
      vertex -32 32 8
    endloop
  endfacet
  facet normal 0 0 1
    outer loop
      vertex 20 -20 8
      vertex -32 32 8
      vertex -32 -32 8
    endloop
  endfacet
  facet normal -1 0 0
    outer loop
      vertex -32 12.1 -3.9
      vertex -32 32 -8
      vertex -32 -12 -4
    endloop
  endfacet
  facet normal -1 0 0
    outer loop
      vertex -32 32 -8
      vertex -32 12.1 -3.9
      vertex -32 19.9 -3.9
    endloop
  endfacet
  facet normal -1 0 0
    outer loop
      vertex -32 -12 -4
      vertex -32 12.1 3.9
      vertex -32 12.1 -3.9
    endloop
  endfacet
  facet normal -1 0 0
    outer loop
      vertex -32 12.1 3.9
      vertex -32 -12 4
      vertex -32 19.9 3.9
    endloop
  endfacet
  facet normal 0 1 0
    outer loop
      vertex -12 32 -4
      vertex -12 32 4
      vertex 12.1 32 3.9
    endloop
  endfacet
  facet normal -1 0 0
    outer loop
      vertex -32 32 8
      vertex -32 32 -8
      vertex -32 19.9 3.9
    endloop
  endfacet
  facet normal 0 1 0
    outer loop
      vertex -32 32 -8
      vertex -32 32 8
      vertex -20 32 -4
    endloop
  endfacet
  facet normal -1 0 0
    outer loop
      vertex -32 32 -8
      vertex -32 19.9 -3.9
      vertex -32 19.9 3.9
    endloop
  endfacet
  facet normal 0 1 0
    outer loop
      vertex -20 32 4
      vertex -20 32 -4
      vertex -32 32 8
    endloop
  endfacet
  facet normal 0 0 -1
    outer loop
      vertex -32 -32 -8
      vertex -32 32 -8
      vertex 32 32 -8
    endloop
  endfacet
  facet normal 0 1 0
    outer loop
      vertex 32 32 -8
      vertex -32 32 -8
      vertex -20 32 -4
    endloop
  endfacet
  facet normal -1 0 0
    outer loop
      vertex -32 -12 4
      vertex -32 32 8
      vertex -32 19.9 3.9
    endloop
  endfacet
  facet normal 0 1 0
    outer loop
      vertex -20 32 4
      vertex -32 32 8
      vertex 32 32 8
    endloop
  endfacet
  facet normal 0 0 -1
    outer loop
      vertex -32 -32 -8
      vertex 20 -20 -8
      vertex 20 -28 -8
    endloop
  endfacet
  facet normal -1 0 0
    outer loop
      vertex -32 -20 -4
      vertex -32 -32 -8
      vertex -32 -20 4
    endloop
  endfacet
  facet normal 0 1 0
    outer loop
      vertex 19.9 39.8 -3.9
      vertex 12.1 39.8 3.9
      vertex 19.9 39.8 3.9
    endloop
  endfacet
  facet normal 0 0 1
    outer loop
      vertex 12.1 39.8 3.9
      vertex 12.1 32 3.9
      vertex 19.9 32 3.9
    endloop
  endfacet
  facet normal 1 0 0
    outer loop
      vertex 19.9 39.8 -3.9
      vertex 19.9 32 3.9
      vertex 19.9 32 -3.9
    endloop
  endfacet
  facet normal 0 1 0
    outer loop
      vertex 19.9 39.8 -3.9
      vertex 12.1 39.8 -3.9
      vertex 12.1 39.8 3.9
    endloop
  endfacet
  facet normal 0 0 -1
    outer loop
      vertex 19.9 39.8 -3.9
      vertex 12.1 32 -3.9
      vertex 12.1 39.8 -3.9
    endloop
  endfacet
  facet normal 0 0 -1
    outer loop
      vertex 12.1 32 -3.9
      vertex 19.9 39.8 -3.9
      vertex 19.9 32 -3.9
    endloop
  endfacet
  facet normal 0 0 1
    outer loop
      vertex 12.1 39.8 3.9
      vertex 19.9 32 3.9
      vertex 19.9 39.8 3.9
    endloop
  endfacet
  facet normal 1 0 0
    outer loop
      vertex 19.9 32 3.9
      vertex 19.9 39.8 -3.9
      vertex 19.9 39.8 3.9
    endloop
  endfacet
  facet normal -1 0 0
    outer loop
      vertex 12.1 39.8 3.9
      vertex 12.1 32 -3.9
      vertex 12.1 32 3.9
    endloop
  endfacet
  facet normal -1 0 0
    outer loop
      vertex 12.1 32 -3.9
      vertex 12.1 39.8 3.9
      vertex 12.1 39.8 -3.9
    endloop
  endfacet
  facet normal 0 0 -1
    outer loop
      vertex -32 19.9 -3.9
      vertex -39.8 12.1 -3.9
      vertex -39.8 19.9 -3.9
    endloop
  endfacet
  facet normal 0 0 -1
    outer loop
      vertex -32 12.1 -3.9
      vertex -39.8 12.1 -3.9
      vertex -32 19.9 -3.9
    endloop
  endfacet
  facet normal 0 0 1
    outer loop
      vertex -32 12.1 3.9
      vertex -39.8 19.9 3.9
      vertex -39.8 12.1 3.9
    endloop
  endfacet
  facet normal -1 0 0
    outer loop
      vertex -39.8 19.9 3.9
      vertex -39.8 12.1 -3.9
      vertex -39.8 12.1 3.9
    endloop
  endfacet
  facet normal 0 1 0
    outer loop
      vertex -39.8 19.9 3.9
      vertex -32 19.9 -3.9
      vertex -39.8 19.9 -3.9
    endloop
  endfacet
  facet normal -1 0 0
    outer loop
      vertex -39.8 19.9 -3.9
      vertex -39.8 12.1 -3.9
      vertex -39.8 19.9 3.9
    endloop
  endfacet
  facet normal 0 1 0
    outer loop
      vertex -32 19.9 -3.9
      vertex -39.8 19.9 3.9
      vertex -32 19.9 3.9
    endloop
  endfacet
  facet normal 0 -1 0
    outer loop
      vertex -39.8 12.1 -3.9
      vertex -32 12.1 3.9
      vertex -39.8 12.1 3.9
    endloop
  endfacet
  facet normal 0 -1 0
    outer loop
      vertex -39.8 12.1 -3.9
      vertex -32 12.1 -3.9
      vertex -32 12.1 3.9
    endloop
  endfacet
  facet normal 0 0 1
    outer loop
      vertex -32 19.9 3.9
      vertex -39.8 19.9 3.9
      vertex -32 12.1 3.9
    endloop
  endfacet
  facet normal 0 -1 0
    outer loop
      vertex 28 -28 8
      vertex 28 -28 16
      vertex 20 -28 8
    endloop
  endfacet
  facet normal 0 1 0
    outer loop
      vertex 20 -20 8
      vertex 20 -20 16
      vertex 28 -20 8
    endloop
  endfacet
  facet normal -1 0 0
    outer loop
      vertex 20 -28 8
      vertex 20 -20 16
      vertex 20 -20 8
    endloop
  endfacet
  facet normal 0 0 1
    outer loop
      vertex 20 -20 16
      vertex 20 -28 16
      vertex 28 -28 16
    endloop
  endfacet
  facet normal -1 0 0
    outer loop
      vertex 20 -20 16
      vertex 20 -28 8
      vertex 20 -28 16
    endloop
  endfacet
  facet normal 0 -1 0
    outer loop
      vertex 20 -28 8
      vertex 28 -28 16
      vertex 20 -28 16
    endloop
  endfacet
  facet normal 1 0 0
    outer loop
      vertex 28 -28 16
      vertex 28 -28 8
      vertex 28 -20 8
    endloop
  endfacet
  facet normal 0 1 0
    outer loop
      vertex 28 -20 8
      vertex 20 -20 16
      vertex 28 -20 16
    endloop
  endfacet
  facet normal 0 0 1
    outer loop
      vertex 28 -20 16
      vertex 20 -20 16
      vertex 28 -28 16
    endloop
  endfacet
  facet normal 1 0 0
    outer loop
      vertex 28 -28 16
      vertex 28 -20 8
      vertex 28 -20 16
    endloop
  endfacet
endsolid OpenSCAD_Model
