solid OpenSCAD_Model
  facet normal -1 0 0
    outer loop
      vertex -12 32 -4
      vertex -12 24 4
      vertex -12 32 4
    endloop
  endfacet
  facet normal 0 0 1
    outer loop
      vertex -20 24 -4
      vertex -12 32 -4
      vertex -20 32 -4
    endloop
  endfacet
  facet normal 0 0 1
    outer loop
      vertex -12 32 -4
      vertex -20 24 -4
      vertex -12 24 -4
    endloop
  endfacet
  facet normal 0 0 -1
    outer loop
      vertex -12 24 4
      vertex -20 32 4
      vertex -12 32 4
    endloop
  endfacet
  facet normal 0 0 -1
    outer loop
      vertex -12 24 4
      vertex -20 24 4
      vertex -20 32 4
    endloop
  endfacet
  facet normal 0 1 0
    outer loop
      vertex -12 24 4
      vertex -20 24 -4
      vertex -20 24 4
    endloop
  endfacet
  facet normal 1 0 0
    outer loop
      vertex -20 24 -4
      vertex -20 32 4
      vertex -20 24 4
    endloop
  endfacet
  facet normal -1 0 0
    outer loop
      vertex -12 32 -4
      vertex -12 24 -4
      vertex -12 24 4
    endloop
  endfacet
  facet normal 0 1 0
    outer loop
      vertex -12 24 -4
      vertex -20 24 -4
      vertex -12 24 4
    endloop
  endfacet
  facet normal 1 0 0
    outer loop
      vertex -20 24 -4
      vertex -20 32 -4
      vertex -20 32 4
    endloop
  endfacet
  facet normal -1 0 0
    outer loop
      vertex 20 -24 -4
      vertex 20 -32 4
      vertex 20 -24 4
    endloop
  endfacet
  facet normal 0 -1 0
    outer loop
      vertex 12 -24 4
      vertex 20 -24 -4
      vertex 20 -24 4
    endloop
  endfacet
  facet normal 0 0 -1
    outer loop
      vertex 20 -32 4
      vertex 12 -32 4
      vertex 12 -24 4
    endloop
  endfacet
  facet normal 0 0 -1
    outer loop
      vertex 20 -32 4
      vertex 12 -24 4
      vertex 20 -24 4
    endloop
  endfacet
  facet normal 1 0 0
    outer loop
      vertex 12 -32 4
      vertex 12 -32 -4
      vertex 12 -24 4
    endloop
  endfacet
  facet normal -1 0 0
    outer loop
      vertex 20 -24 -4
      vertex 20 -32 -4
      vertex 20 -32 4
    endloop
  endfacet
  facet normal 0 -1 0
    outer loop
      vertex 12 -24 4
      vertex 12 -24 -4
      vertex 20 -24 -4
    endloop
  endfacet
  facet normal 0 0 1
    outer loop
      vertex 20 -24 -4
      vertex 12 -32 -4
      vertex 20 -32 -4
    endloop
  endfacet
  facet normal 0 0 1
    outer loop
      vertex 12 -32 -4
      vertex 20 -24 -4
      vertex 12 -24 -4
    endloop
  endfacet
  facet normal 1 0 0
    outer loop
      vertex 12 -32 -4
      vertex 12 -24 -4
      vertex 12 -24 4
    endloop
  endfacet
  facet normal 0 0 -1
    outer loop
      vertex -24 -12 4
      vertex -24 -20 4
      vertex -32 -12 4
    endloop
  endfacet
  facet normal 0 0 -1
    outer loop
      vertex -24 -20 4
      vertex -32 -20 4
      vertex -32 -12 4
    endloop
  endfacet
  facet normal 0 1 0
    outer loop
      vertex -24 -20 4
      vertex -32 -20 -4
      vertex -32 -20 4
    endloop
  endfacet
  facet normal -1 0 0
    outer loop
      vertex -24 -12 4
      vertex -24 -12 -4
      vertex -24 -20 4
    endloop
  endfacet
  facet normal 0 -1 0
    outer loop
      vertex -32 -12 4
      vertex -24 -12 -4
      vertex -24 -12 4
    endloop
  endfacet
  facet normal -1 0 0
    outer loop
      vertex -24 -12 -4
      vertex -24 -20 -4
      vertex -24 -20 4
    endloop
  endfacet
  facet normal 0 -1 0
    outer loop
      vertex -32 -12 -4
      vertex -24 -12 -4
      vertex -32 -12 4
    endloop
  endfacet
  facet normal 0 0 1
    outer loop
      vertex -32 -12 -4
      vertex -32 -20 -4
      vertex -24 -12 -4
    endloop
  endfacet
  facet normal 0 0 1
    outer loop
      vertex -32 -20 -4
      vertex -24 -20 -4
      vertex -24 -12 -4
    endloop
  endfacet
  facet normal 0 1 0
    outer loop
      vertex -24 -20 -4
      vertex -32 -20 -4
      vertex -24 -20 4
    endloop
  endfacet
  facet normal 0 1 0
    outer loop
      vertex -12 32 -4
      vertex -12 32 4
      vertex 12.2 32 3.8
    endloop
  endfacet
  facet normal 0 -1 0
    outer loop
      vertex -32 -32 8
      vertex 12 -32 4
      vertex 20 -32 4
    endloop
  endfacet
  facet normal 0 1 0
    outer loop
      vertex -20 32 4
      vertex -32 32 8
      vertex 32 32 8
    endloop
  endfacet
  facet normal 0 -1 0
    outer loop
      vertex 12 -32 -4
      vertex -32 -32 -8
      vertex 20 -32 -4
    endloop
  endfacet
  facet normal 0 -1 0
    outer loop
      vertex -32 -32 -8
      vertex 32 -32 -8
      vertex 20 -32 -4
    endloop
  endfacet
  facet normal 0 1 0
    outer loop
      vertex -20 32 4
      vertex -20 32 -4
      vertex -32 32 8
    endloop
  endfacet
  facet normal -1 0 0
    outer loop
      vertex -32 32 8
      vertex -32 32 -8
      vertex -32 19.8 3.8
    endloop
  endfacet
  facet normal -1 0 0
    outer loop
      vertex -32 -12 4
      vertex -32 32 8
      vertex -32 19.8 3.8
    endloop
  endfacet
  facet normal 0 1 0
    outer loop
      vertex -12 32 -4
      vertex 12.2 32 3.8
      vertex 12.2 32 -3.8
    endloop
  endfacet
  facet normal 0 1 0
    outer loop
      vertex 32 32 8
      vertex 32 32 -8
      vertex 19.8 32 3.8
    endloop
  endfacet
  facet normal 1 0 0
    outer loop
      vertex 32 32 8
      vertex 32 -32 8
      vertex 32 32 -8
    endloop
  endfacet
  facet normal 0 1 0
    outer loop
      vertex -12 32 4
      vertex 32 32 8
      vertex 19.8 32 3.8
    endloop
  endfacet
  facet normal 0 1 0
    outer loop
      vertex -12 32 4
      vertex -20 32 4
      vertex 32 32 8
    endloop
  endfacet
  facet normal 0 1 0
    outer loop
      vertex 12.2 32 3.8
      vertex -12 32 4
      vertex 19.8 32 3.8
    endloop
  endfacet
  facet normal 0 0 1
    outer loop
      vertex 32 32 8
      vertex -32 32 8
      vertex 32 -32 8
    endloop
  endfacet
  facet normal 0 1 0
    outer loop
      vertex 32 32 -8
      vertex 19.8 32 -3.8
      vertex 19.8 32 3.8
    endloop
  endfacet
  facet normal 0 1 0
    outer loop
      vertex 32 32 -8
      vertex 12.2 32 -3.8
      vertex 19.8 32 -3.8
    endloop
  endfacet
  facet normal 0 0 -1
    outer loop
      vertex 32 -32 -8
      vertex -32 -32 -8
      vertex 32 32 -8
    endloop
  endfacet
  facet normal 0 1 0
    outer loop
      vertex 12.2 32 -3.8
      vertex 32 32 -8
      vertex -12 32 -4
    endloop
  endfacet
  facet normal 0 1 0
    outer loop
      vertex 32 32 -8
      vertex -20 32 -4
      vertex -12 32 -4
    endloop
  endfacet
  facet normal 0 -1 0
    outer loop
      vertex 20 -32 4
      vertex 20 -32 -4
      vertex 32 -32 8
    endloop
  endfacet
  facet normal 0 -1 0
    outer loop
      vertex 32 -32 8
      vertex -32 -32 8
      vertex 20 -32 4
    endloop
  endfacet
  facet normal -1 0 0
    outer loop
      vertex -32 -20 -4
      vertex -32 -32 -8
      vertex -32 -20 4
    endloop
  endfacet
  facet normal 0 -1 0
    outer loop
      vertex 12 -32 -4
      vertex 12 -32 4
      vertex -12.2 -32 3.8
    endloop
  endfacet
  facet normal 1 0 0
    outer loop
      vertex 32 -32 8
      vertex 32 -32 -8
      vertex 32 32 -8
    endloop
  endfacet
  facet normal 0 -1 0
    outer loop
      vertex 20 -32 -4
      vertex 32 -32 -8
      vertex 32 -32 8
    endloop
  endfacet
  facet normal -1 0 0
    outer loop
      vertex -32 -20 -4
      vertex -32 -12 -4
      vertex -32 -32 -8
    endloop
  endfacet
  facet normal 0 -1 0
    outer loop
      vertex 12 -32 -4
      vertex -12.2 -32 3.8
      vertex -12.2 -32 -3.8
    endloop
  endfacet
  facet normal -1 0 0
    outer loop
      vertex -32 -20 4
      vertex -32 -32 -8
      vertex -32 -32 8
    endloop
  endfacet
  facet normal 0 -1 0
    outer loop
      vertex -32 -32 8
      vertex -32 -32 -8
      vertex -19.8 -32 3.8
    endloop
  endfacet
  facet normal -1 0 0
    outer loop
      vertex -32 -12 -4
      vertex -32 -12 4
      vertex -32 12.2 3.8
    endloop
  endfacet
  facet normal -1 0 0
    outer loop
      vertex -32 -20 4
      vertex -32 -32 8
      vertex -32 32 8
    endloop
  endfacet
  facet normal -1 0 0
    outer loop
      vertex -32 -12 4
      vertex -32 -20 4
      vertex -32 32 8
    endloop
  endfacet
  facet normal 0 -1 0
    outer loop
      vertex -12.2 -32 3.8
      vertex 12 -32 4
      vertex -19.8 -32 3.8
    endloop
  endfacet
  facet normal 0 -1 0
    outer loop
      vertex 12 -32 4
      vertex -32 -32 8
      vertex -19.8 -32 3.8
    endloop
  endfacet
  facet normal 0 0 1
    outer loop
      vertex -32 32 8
      vertex -32 -32 8
      vertex 32 -32 8
    endloop
  endfacet
  facet normal -1 0 0
    outer loop
      vertex -32 12.2 -3.8
      vertex -32 32 -8
      vertex -32 -12 -4
    endloop
  endfacet
  facet normal -1 0 0
    outer loop
      vertex -32 -12 -4
      vertex -32 12.2 3.8
      vertex -32 12.2 -3.8
    endloop
  endfacet
  facet normal 0 -1 0
    outer loop
      vertex -12.2 -32 -3.8
      vertex -32 -32 -8
      vertex 12 -32 -4
    endloop
  endfacet
  facet normal 0 -1 0
    outer loop
      vertex -32 -32 -8
      vertex -12.2 -32 -3.8
      vertex -19.8 -32 -3.8
    endloop
  endfacet
  facet normal -1 0 0
    outer loop
      vertex -32 32 -8
      vertex -32 12.2 -3.8
      vertex -32 19.8 -3.8
    endloop
  endfacet
  facet normal -1 0 0
    outer loop
      vertex -32 -32 -8
      vertex -32 -12 -4
      vertex -32 32 -8
    endloop
  endfacet
  facet normal -1 0 0
    outer loop
      vertex -32 32 -8
      vertex -32 19.8 -3.8
      vertex -32 19.8 3.8
    endloop
  endfacet
  facet normal 0 -1 0
    outer loop
      vertex -32 -32 -8
      vertex -19.8 -32 -3.8
      vertex -19.8 -32 3.8
    endloop
  endfacet
  facet normal 0 1 0
    outer loop
      vertex -32 32 -8
      vertex -32 32 8
      vertex -20 32 -4
    endloop
  endfacet
  facet normal 0 0 -1
    outer loop
      vertex -32 -32 -8
      vertex -32 32 -8
      vertex 32 32 -8
    endloop
  endfacet
  facet normal 0 1 0
    outer loop
      vertex 32 32 -8
      vertex -32 32 -8
      vertex -20 32 -4
    endloop
  endfacet
  facet normal -1 0 0
    outer loop
      vertex -32 12.2 3.8
      vertex -32 -12 4
      vertex -32 19.8 3.8
    endloop
  endfacet
  facet normal -1 0 0
    outer loop
      vertex 12.2 32 -3.8
      vertex 12.2 39.6 3.8
      vertex 12.2 39.6 -3.8
    endloop
  endfacet
  facet normal 0 0 -1
    outer loop
      vertex 12.2 32 -3.8
      vertex 19.8 39.6 -3.8
      vertex 19.8 32 -3.8
    endloop
  endfacet
  facet normal 0 0 -1
    outer loop
      vertex 19.8 39.6 -3.8
      vertex 12.2 32 -3.8
      vertex 12.2 39.6 -3.8
    endloop
  endfacet
  facet normal 0 0 1
    outer loop
      vertex 12.2 39.6 3.8
      vertex 19.8 32 3.8
      vertex 19.8 39.6 3.8
    endloop
  endfacet
  facet normal 0 0 1
    outer loop
      vertex 12.2 39.6 3.8
      vertex 12.2 32 3.8
      vertex 19.8 32 3.8
    endloop
  endfacet
  facet normal 1 0 0
    outer loop
      vertex 19.8 32 3.8
      vertex 19.8 39.6 -3.8
      vertex 19.8 39.6 3.8
    endloop
  endfacet
  facet normal 0 1 0
    outer loop
      vertex 19.8 39.6 -3.8
      vertex 12.2 39.6 3.8
      vertex 19.8 39.6 3.8
    endloop
  endfacet
  facet normal 0 1 0
    outer loop
      vertex 19.8 39.6 -3.8
      vertex 12.2 39.6 -3.8
      vertex 12.2 39.6 3.8
    endloop
  endfacet
  facet normal 1 0 0
    outer loop
      vertex 19.8 39.6 -3.8
      vertex 19.8 32 3.8
      vertex 19.8 32 -3.8
    endloop
  endfacet
  facet normal -1 0 0
    outer loop
      vertex 12.2 39.6 3.8
      vertex 12.2 32 -3.8
      vertex 12.2 32 3.8
    endloop
  endfacet
  facet normal -1 0 0
    outer loop
      vertex -19.8 -32 3.8
      vertex -19.8 -39.6 -3.8
      vertex -19.8 -39.6 3.8
    endloop
  endfacet
  facet normal 0 0 -1
    outer loop
      vertex -19.8 -39.6 -3.8
      vertex -12.2 -32 -3.8
      vertex -12.2 -39.6 -3.8
    endloop
  endfacet
  facet normal 0 0 -1
    outer loop
      vertex -12.2 -32 -3.8
      vertex -19.8 -39.6 -3.8
      vertex -19.8 -32 -3.8
    endloop
  endfacet
  facet normal 0 -1 0
    outer loop
      vertex -19.8 -39.6 -3.8
      vertex -12.2 -39.6 -3.8
      vertex -12.2 -39.6 3.8
    endloop
  endfacet
  facet normal 1 0 0
    outer loop
      vertex -12.2 -32 -3.8
      vertex -12.2 -39.6 3.8
      vertex -12.2 -39.6 -3.8
    endloop
  endfacet
  facet normal 0 -1 0
    outer loop
      vertex -19.8 -39.6 3.8
      vertex -19.8 -39.6 -3.8
      vertex -12.2 -39.6 3.8
    endloop
  endfacet
  facet normal 0 0 1
    outer loop
      vertex -12.2 -39.6 3.8
      vertex -19.8 -32 3.8
      vertex -19.8 -39.6 3.8
    endloop
  endfacet
  facet normal 0 0 1
    outer loop
      vertex -19.8 -32 3.8
      vertex -12.2 -39.6 3.8
      vertex -12.2 -32 3.8
    endloop
  endfacet
  facet normal 1 0 0
    outer loop
      vertex -12.2 -39.6 3.8
      vertex -12.2 -32 -3.8
      vertex -12.2 -32 3.8
    endloop
  endfacet
  facet normal -1 0 0
    outer loop
      vertex -19.8 -32 -3.8
      vertex -19.8 -39.6 -3.8
      vertex -19.8 -32 3.8
    endloop
  endfacet
  facet normal 0 0 1
    outer loop
      vertex -39.6 19.8 3.8
      vertex -32 12.2 3.8
      vertex -32 19.8 3.8
    endloop
  endfacet
  facet normal 0 1 0
    outer loop
      vertex -32 19.8 -3.8
      vertex -39.6 19.8 3.8
      vertex -32 19.8 3.8
    endloop
  endfacet
  facet normal 0 0 1
    outer loop
      vertex -32 12.2 3.8
      vertex -39.6 19.8 3.8
      vertex -39.6 12.2 3.8
    endloop
  endfacet
  facet normal 0 -1 0
    outer loop
      vertex -39.6 12.2 -3.8
      vertex -32 12.2 3.8
      vertex -39.6 12.2 3.8
    endloop
  endfacet
  facet normal -1 0 0
    outer loop
      vertex -39.6 19.8 3.8
      vertex -39.6 12.2 -3.8
      vertex -39.6 12.2 3.8
    endloop
  endfacet
  facet normal 0 1 0
    outer loop
      vertex -39.6 19.8 3.8
      vertex -32 19.8 -3.8
      vertex -39.6 19.8 -3.8
    endloop
  endfacet
  facet normal 0 -1 0
    outer loop
      vertex -39.6 12.2 -3.8
      vertex -32 12.2 -3.8
      vertex -32 12.2 3.8
    endloop
  endfacet
  facet normal -1 0 0
    outer loop
      vertex -39.6 19.8 -3.8
      vertex -39.6 12.2 -3.8
      vertex -39.6 19.8 3.8
    endloop
  endfacet
  facet normal 0 0 -1
    outer loop
      vertex -39.6 12.2 -3.8
      vertex -32 19.8 -3.8
      vertex -32 12.2 -3.8
    endloop
  endfacet
  facet normal 0 0 -1
    outer loop
      vertex -32 19.8 -3.8
      vertex -39.6 12.2 -3.8
      vertex -39.6 19.8 -3.8
    endloop
  endfacet
endsolid OpenSCAD_Model
