<svg xmlns="http://www.w3.org/2000/svg" viewBox="0 0 64 64" role="img" aria-labelledby="title desc">
  <title>No Kings</title>
  <desc>Black crown crossed out by a red prohibition X on a white background.</desc>
  <rect width="64" height="64" fill="#ffffff" />
  <path
    fill="none"
    stroke="#000000"
    stroke-width="1.25"
    stroke-linecap="round"
    stroke-linejoin="round"
    transform="translate(13 15) scale(1.5833333333)"
    d="M12 8L15 13.2L18 10.5L17.3 14H6.7L6 10.5L9 13.2L12 8M12 4L8.5 10L3 5L5 16H19L21 5L15.5 10L12 4M19 18H5V19C5 19.6 5.4 20 6 20H18C18.6 20 19 19.6 19 19V18Z"
  />
  <rect x="12.5" y="28.156" width="39" height="7" rx="2" fill="#c1121f" transform="rotate(-45 32 32)" />
  <rect x="12.5" y="28.156" width="39" height="7" rx="2" fill="#c1121f" transform="rotate(45 32 32)" />
</svg>