solid OpenSCAD_Model
  facet normal -1 0 0
    outer loop
      vertex -77.5 -2.5 -2.5
      vertex -77.5 2.5 2.9
      vertex -77.5 2.5 -2.5
    endloop
  endfacet
  facet normal -1 -0 0
    outer loop
      vertex -77.5 2.5 2.9
      vertex -77.5 -2.5 -2.5
      vertex -77.5 -2.5 2.9
    endloop
  endfacet
  facet normal -0 0 1
    outer loop
      vertex -77.5 2.5 2.9
      vertex 77.5 -2.5 2.9
      vertex 77.5 2.5 2.9
    endloop
  endfacet
  facet normal 0 0 1
    outer loop
      vertex 77.5 -2.5 2.9
      vertex -77.5 2.5 2.9
      vertex -77.5 -2.5 2.9
    endloop
  endfacet
  facet normal 1 -0 0
    outer loop
      vertex 77.5 -2.5 2.9
      vertex 77.5 2.5 -2.5
      vertex 77.5 2.5 2.9
    endloop
  endfacet
  facet normal 1 0 0
    outer loop
      vertex 77.5 2.5 -2.5
      vertex 77.5 -2.5 2.9
      vertex 77.5 -2.5 -2.5
    endloop
  endfacet
  facet normal 0 0 -1
    outer loop
      vertex -72.5 -2.5 2.1
      vertex 72.5 2.5 2.1
      vertex 72.5 -2.5 2.1
    endloop
  endfacet
  facet normal -0 0 -1
    outer loop
      vertex 72.5 2.5 2.1
      vertex -72.5 -2.5 2.1
      vertex -72.5 2.5 2.1
    endloop
  endfacet
  facet normal 0 -1 0
    outer loop
      vertex -77.5 -2.5 2.9
      vertex -72.5 -2.5 2.1
      vertex 77.5 -2.5 2.9
    endloop
  endfacet
  facet normal 0 -1 0
    outer loop
      vertex -77.5 -2.5 -2.5
      vertex -72.5 -2.5 2.1
      vertex -77.5 -2.5 2.9
    endloop
  endfacet
  facet normal 0 -1 -0
    outer loop
      vertex -72.5 -2.5 2.1
      vertex -77.5 -2.5 -2.5
      vertex -72.5 -2.5 -2.5
    endloop
  endfacet
  facet normal 0 -1 0
    outer loop
      vertex 72.5 -2.5 2.1
      vertex 77.5 -2.5 2.9
      vertex -72.5 -2.5 2.1
    endloop
  endfacet
  facet normal 0 -1 0
    outer loop
      vertex 77.5 -2.5 -2.5
      vertex 72.5 -2.5 2.1
      vertex 72.5 -2.5 -2.5
    endloop
  endfacet
  facet normal 0 -1 0
    outer loop
      vertex 72.5 -2.5 2.1
      vertex 77.5 -2.5 -2.5
      vertex 77.5 -2.5 2.9
    endloop
  endfacet
  facet normal 0 1 0
    outer loop
      vertex 77.5 2.5 2.9
      vertex 72.5 2.5 2.1
      vertex -77.5 2.5 2.9
    endloop
  endfacet
  facet normal 0 1 -0
    outer loop
      vertex 77.5 2.5 -2.5
      vertex 72.5 2.5 2.1
      vertex 77.5 2.5 2.9
    endloop
  endfacet
  facet normal 0 1 0
    outer loop
      vertex 72.5 2.5 2.1
      vertex 77.5 2.5 -2.5
      vertex 72.5 2.5 -2.5
    endloop
  endfacet
  facet normal 0 1 -0
    outer loop
      vertex -72.5 2.5 2.1
      vertex -77.5 2.5 2.9
      vertex 72.5 2.5 2.1
    endloop
  endfacet
  facet normal 0 1 0
    outer loop
      vertex -77.5 2.5 -2.5
      vertex -72.5 2.5 2.1
      vertex -72.5 2.5 -2.5
    endloop
  endfacet
  facet normal 0 1 0
    outer loop
      vertex -72.5 2.5 2.1
      vertex -77.5 2.5 -2.5
      vertex -77.5 2.5 2.9
    endloop
  endfacet
  facet normal 1 -0 0
    outer loop
      vertex -72.5 -2.5 2.1
      vertex -72.5 2.5 -2.5
      vertex -72.5 2.5 2.1
    endloop
  endfacet
  facet normal 1 0 0
    outer loop
      vertex -72.5 2.5 -2.5
      vertex -72.5 -2.5 2.1
      vertex -72.5 -2.5 -2.5
    endloop
  endfacet
  facet normal 0 0 -1
    outer loop
      vertex -77.5 -2.5 -2.5
      vertex -72.5 2.5 -2.5
      vertex -72.5 -2.5 -2.5
    endloop
  endfacet
  facet normal -0 0 -1
    outer loop
      vertex -72.5 2.5 -2.5
      vertex -77.5 -2.5 -2.5
      vertex -77.5 2.5 -2.5
    endloop
  endfacet
  facet normal -1 0 0
    outer loop
      vertex 72.5 -2.5 -2.5
      vertex 72.5 2.5 2.1
      vertex 72.5 2.5 -2.5
    endloop
  endfacet
  facet normal -1 -0 0
    outer loop
      vertex 72.5 2.5 2.1
      vertex 72.5 -2.5 -2.5
      vertex 72.5 -2.5 2.1
    endloop
  endfacet
  facet normal 0 0 -1
    outer loop
      vertex 72.5 -2.5 -2.5
      vertex 77.5 2.5 -2.5
      vertex 77.5 -2.5 -2.5
    endloop
  endfacet
  facet normal -0 0 -1
    outer loop
      vertex 77.5 2.5 -2.5
      vertex 72.5 -2.5 -2.5
      vertex 72.5 2.5 -2.5
    endloop
  endfacet
endsolid OpenSCAD_Model
