solid OpenSCAD_Model
  facet normal -1 0 0
    outer loop
      vertex -54 -107 -10
      vertex -54 107 10
      vertex -54 107 -10
    endloop
  endfacet
  facet normal -1 -0 0
    outer loop
      vertex -54 107 10
      vertex -54 -107 -10
      vertex -54 -107 10
    endloop
  endfacet
  facet normal -0.122279 -0.992496 0
    outer loop
      vertex -53.1467 -107.989 -10
      vertex -53.098 -107.995 10
      vertex -53.1467 -107.989 10
    endloop
  endfacet
  facet normal -0.122279 -0.992496 -0
    outer loop
      vertex -53.098 -107.995 10
      vertex -53.1467 -107.989 -10
      vertex -53.098 -107.995 -10
    endloop
  endfacet
  facet normal -0.406893 -0.913476 0
    outer loop
      vertex -53.4276 -107.904 -10
      vertex -53.3827 -107.924 10
      vertex -53.4276 -107.904 10
    endloop
  endfacet
  facet normal -0.406893 -0.913476 -0
    outer loop
      vertex -53.3827 -107.924 10
      vertex -53.4276 -107.904 -10
      vertex -53.3827 -107.924 -10
    endloop
  endfacet
  facet normal 0 0 1
    outer loop
      vertex 52 106 10
      vertex 54 107 10
      vertex 53.9988 107.049 10
    endloop
  endfacet
  facet normal 0 0 1
    outer loop
      vertex 54 107 10
      vertex 52 106 10
      vertex 54 -107 10
    endloop
  endfacet
  facet normal 0 0 1
    outer loop
      vertex 52 106 10
      vertex 53.9988 107.049 10
      vertex 53.9952 107.098 10
    endloop
  endfacet
  facet normal -0 0 1
    outer loop
      vertex 52 -106 10
      vertex 54 -107 10
      vertex 52 106 10
    endloop
  endfacet
  facet normal 0 0 1
    outer loop
      vertex 52 106 10
      vertex 53.9952 107.098 10
      vertex 53.9892 107.147 10
    endloop
  endfacet
  facet normal 0 0 1
    outer loop
      vertex 54 -107 10
      vertex 52 -106 10
      vertex 53.9988 -107.049 10
    endloop
  endfacet
  facet normal 0 0 1
    outer loop
      vertex 52 106 10
      vertex 53.9892 107.147 10
      vertex 53.9808 107.195 10
    endloop
  endfacet
  facet normal 0 0 1
    outer loop
      vertex 53.9988 -107.049 10
      vertex 52 -106 10
      vertex 53.9952 -107.098 10
    endloop
  endfacet
  facet normal 0 0 1
    outer loop
      vertex 52 106 10
      vertex 53.9808 107.195 10
      vertex 53.97 107.243 10
    endloop
  endfacet
  facet normal 0 0 1
    outer loop
      vertex 53.9952 -107.098 10
      vertex 52 -106 10
      vertex 53.9892 -107.147 10
    endloop
  endfacet
  facet normal 0 0 1
    outer loop
      vertex 52 106 10
      vertex 53.97 107.243 10
      vertex 53.9569 107.29 10
    endloop
  endfacet
  facet normal 0 0 1
    outer loop
      vertex 53.9892 -107.147 10
      vertex 52 -106 10
      vertex 53.9808 -107.195 10
    endloop
  endfacet
  facet normal 0 0 1
    outer loop
      vertex 52 106 10
      vertex 53.9569 107.29 10
      vertex 53.9415 107.337 10
    endloop
  endfacet
  facet normal 0 0 1
    outer loop
      vertex 53.9808 -107.195 10
      vertex 52 -106 10
      vertex 53.97 -107.243 10
    endloop
  endfacet
  facet normal 0 0 1
    outer loop
      vertex 52 106 10
      vertex 53.9415 107.337 10
      vertex 53.9239 107.383 10
    endloop
  endfacet
  facet normal 0 0 1
    outer loop
      vertex 53.97 -107.243 10
      vertex 52 -106 10
      vertex 53.9569 -107.29 10
    endloop
  endfacet
  facet normal 0 0 1
    outer loop
      vertex 52 106 10
      vertex 53.9239 107.383 10
      vertex 53.904 107.428 10
    endloop
  endfacet
  facet normal 0 0 1
    outer loop
      vertex 53.9569 -107.29 10
      vertex 52 -106 10
      vertex 53.9415 -107.337 10
    endloop
  endfacet
  facet normal 0 0 1
    outer loop
      vertex 52 106 10
      vertex 53.904 107.428 10
      vertex 53.8819 107.471 10
    endloop
  endfacet
  facet normal 0 0 1
    outer loop
      vertex 53.9415 -107.337 10
      vertex 52 -106 10
      vertex 53.9239 -107.383 10
    endloop
  endfacet
  facet normal 0 0 1
    outer loop
      vertex 52 106 10
      vertex 53.8819 107.471 10
      vertex 53.8577 107.514 10
    endloop
  endfacet
  facet normal 0 0 1
    outer loop
      vertex 53.9239 -107.383 10
      vertex 52 -106 10
      vertex 53.904 -107.428 10
    endloop
  endfacet
  facet normal 0 0 1
    outer loop
      vertex 52 106 10
      vertex 53.8577 107.514 10
      vertex 53.8315 107.556 10
    endloop
  endfacet
  facet normal 0 0 1
    outer loop
      vertex 53.904 -107.428 10
      vertex 52 -106 10
      vertex 53.8819 -107.471 10
    endloop
  endfacet
  facet normal 0 0 1
    outer loop
      vertex 52 106 10
      vertex 53.8315 107.556 10
      vertex 53.8032 107.596 10
    endloop
  endfacet
  facet normal 0 0 1
    outer loop
      vertex 53.8819 -107.471 10
      vertex 52 -106 10
      vertex 53.8577 -107.514 10
    endloop
  endfacet
  facet normal 0 0 1
    outer loop
      vertex 52 106 10
      vertex 53.8032 107.596 10
      vertex 53.773 107.634 10
    endloop
  endfacet
  facet normal 0 0 1
    outer loop
      vertex 53.8577 -107.514 10
      vertex 52 -106 10
      vertex 53.8315 -107.556 10
    endloop
  endfacet
  facet normal 0 0 1
    outer loop
      vertex 52 106 10
      vertex 53.773 107.634 10
      vertex 53.741 107.672 10
    endloop
  endfacet
  facet normal 0 0 1
    outer loop
      vertex 53.8315 -107.556 10
      vertex 52 -106 10
      vertex 53.8032 -107.596 10
    endloop
  endfacet
  facet normal 0 0 1
    outer loop
      vertex 52 106 10
      vertex 53.741 107.672 10
      vertex 53.7071 107.707 10
    endloop
  endfacet
  facet normal 0 0 1
    outer loop
      vertex 53.8032 -107.596 10
      vertex 52 -106 10
      vertex 53.773 -107.634 10
    endloop
  endfacet
  facet normal 0 0 1
    outer loop
      vertex 52 106 10
      vertex 53.7071 107.707 10
      vertex 53.6716 107.741 10
    endloop
  endfacet
  facet normal 0 0 1
    outer loop
      vertex 53.773 -107.634 10
      vertex 52 -106 10
      vertex 53.741 -107.672 10
    endloop
  endfacet
  facet normal 0 0 1
    outer loop
      vertex 52 106 10
      vertex 53.6716 107.741 10
      vertex 53.6344 107.773 10
    endloop
  endfacet
  facet normal 0 0 1
    outer loop
      vertex 53.741 -107.672 10
      vertex 52 -106 10
      vertex 53.7071 -107.707 10
    endloop
  endfacet
  facet normal 0 0 1
    outer loop
      vertex 52 106 10
      vertex 53.6344 107.773 10
      vertex 53.5957 107.803 10
    endloop
  endfacet
  facet normal 0 0 1
    outer loop
      vertex 53.7071 -107.707 10
      vertex 52 -106 10
      vertex 53.6716 -107.741 10
    endloop
  endfacet
  facet normal 0 0 1
    outer loop
      vertex 52 106 10
      vertex 53.5957 107.803 10
      vertex 53.5556 107.831 10
    endloop
  endfacet
  facet normal 0 0 1
    outer loop
      vertex 53.6716 -107.741 10
      vertex 52 -106 10
      vertex 53.6344 -107.773 10
    endloop
  endfacet
  facet normal 0 0 1
    outer loop
      vertex 52 106 10
      vertex 53.5556 107.831 10
      vertex 53.5141 107.858 10
    endloop
  endfacet
  facet normal 0 0 1
    outer loop
      vertex 53.6344 -107.773 10
      vertex 52 -106 10
      vertex 53.5957 -107.803 10
    endloop
  endfacet
  facet normal 0 0 1
    outer loop
      vertex 52 106 10
      vertex 53.5141 107.858 10
      vertex 53.4714 107.882 10
    endloop
  endfacet
  facet normal 0 0 1
    outer loop
      vertex 53.5957 -107.803 10
      vertex 52 -106 10
      vertex 53.5556 -107.831 10
    endloop
  endfacet
  facet normal 0 0 1
    outer loop
      vertex 52 106 10
      vertex 53.4714 107.882 10
      vertex 53.4276 107.904 10
    endloop
  endfacet
  facet normal 0 0 1
    outer loop
      vertex 53.5556 -107.831 10
      vertex 52 -106 10
      vertex 53.5141 -107.858 10
    endloop
  endfacet
  facet normal 0 0 1
    outer loop
      vertex 52 106 10
      vertex 53.4276 107.904 10
      vertex 53.3827 107.924 10
    endloop
  endfacet
  facet normal 0 0 1
    outer loop
      vertex 53.5141 -107.858 10
      vertex 52 -106 10
      vertex 53.4714 -107.882 10
    endloop
  endfacet
  facet normal 0 0 1
    outer loop
      vertex 52 106 10
      vertex 53.3827 107.924 10
      vertex 53.3369 107.942 10
    endloop
  endfacet
  facet normal 0 0 1
    outer loop
      vertex 53.4714 -107.882 10
      vertex 52 -106 10
      vertex 53.4276 -107.904 10
    endloop
  endfacet
  facet normal 0 0 1
    outer loop
      vertex 52 106 10
      vertex 53.3369 107.942 10
      vertex 53.2903 107.957 10
    endloop
  endfacet
  facet normal 0 0 1
    outer loop
      vertex 53.4276 -107.904 10
      vertex 52 -106 10
      vertex 53.3827 -107.924 10
    endloop
  endfacet
  facet normal 0 0 1
    outer loop
      vertex 52 106 10
      vertex 53.2903 107.957 10
      vertex 53.243 107.97 10
    endloop
  endfacet
  facet normal 0 0 1
    outer loop
      vertex 53.3827 -107.924 10
      vertex 52 -106 10
      vertex 53.3369 -107.942 10
    endloop
  endfacet
  facet normal 0 0 1
    outer loop
      vertex 52 106 10
      vertex 53.243 107.97 10
      vertex 53.1951 107.981 10
    endloop
  endfacet
  facet normal 0 0 1
    outer loop
      vertex 53.3369 -107.942 10
      vertex 52 -106 10
      vertex 53.2903 -107.957 10
    endloop
  endfacet
  facet normal 0 0 1
    outer loop
      vertex 52 106 10
      vertex 53.1951 107.981 10
      vertex 53.1467 107.989 10
    endloop
  endfacet
  facet normal 0 0 1
    outer loop
      vertex 53.2903 -107.957 10
      vertex 52 -106 10
      vertex 53.243 -107.97 10
    endloop
  endfacet
  facet normal 0 0 1
    outer loop
      vertex 52 106 10
      vertex 53.1467 107.989 10
      vertex 53.098 107.995 10
    endloop
  endfacet
  facet normal 0 0 1
    outer loop
      vertex 53.243 -107.97 10
      vertex 52 -106 10
      vertex 53.1951 -107.981 10
    endloop
  endfacet
  facet normal 0 0 1
    outer loop
      vertex 52 106 10
      vertex 53.098 107.995 10
      vertex 53.0491 107.999 10
    endloop
  endfacet
  facet normal 0 0 1
    outer loop
      vertex 53.1951 -107.981 10
      vertex 52 -106 10
      vertex 53.1467 -107.989 10
    endloop
  endfacet
  facet normal 0 0 1
    outer loop
      vertex 52 106 10
      vertex 53.0491 107.999 10
      vertex 53 108 10
    endloop
  endfacet
  facet normal 0 0 1
    outer loop
      vertex 53.1467 -107.989 10
      vertex 52 -106 10
      vertex 53.098 -107.995 10
    endloop
  endfacet
  facet normal 0 0 1
    outer loop
      vertex 53.098 -107.995 10
      vertex 52 -106 10
      vertex 53.0491 -107.999 10
    endloop
  endfacet
  facet normal 0 0 1
    outer loop
      vertex 53 108 10
      vertex -52 106 10
      vertex 52 106 10
    endloop
  endfacet
  facet normal -0 0 1
    outer loop
      vertex -54 107 10
      vertex -52 106 10
      vertex -53 108 10
    endloop
  endfacet
  facet normal -0 0 1
    outer loop
      vertex -53 108 10
      vertex -52 106 10
      vertex 53 108 10
    endloop
  endfacet
  facet normal 0 0 1
    outer loop
      vertex 53.0491 -107.999 10
      vertex 52 -106 10
      vertex 53 -108 10
    endloop
  endfacet
  facet normal -0 0 1
    outer loop
      vertex -52 -106 10
      vertex 53 -108 10
      vertex 52 -106 10
    endloop
  endfacet
  facet normal 0 0 1
    outer loop
      vertex -52 -106 10
      vertex -53 -108 10
      vertex 53 -108 10
    endloop
  endfacet
  facet normal 0 0 1
    outer loop
      vertex -52 106 10
      vertex -54 107 10
      vertex -52 -106 10
    endloop
  endfacet
  facet normal 0 0 1
    outer loop
      vertex -54 107 10
      vertex -53 108 10
      vertex -53.0491 107.999 10
    endloop
  endfacet
  facet normal 0 0 1
    outer loop
      vertex -54 -107 10
      vertex -52 -106 10
      vertex -54 107 10
    endloop
  endfacet
  facet normal 0 0 1
    outer loop
      vertex -54 107 10
      vertex -53.0491 107.999 10
      vertex -53.098 107.995 10
    endloop
  endfacet
  facet normal 0 0 1
    outer loop
      vertex -52 -106 10
      vertex -54 -107 10
      vertex -53 -108 10
    endloop
  endfacet
  facet normal 0 0 1
    outer loop
      vertex -54 107 10
      vertex -53.098 107.995 10
      vertex -53.1467 107.989 10
    endloop
  endfacet
  facet normal 0 0 1
    outer loop
      vertex -53 -108 10
      vertex -54 -107 10
      vertex -53.0491 -107.999 10
    endloop
  endfacet
  facet normal 0 0 1
    outer loop
      vertex -54 107 10
      vertex -53.1467 107.989 10
      vertex -53.1951 107.981 10
    endloop
  endfacet
  facet normal 0 0 1
    outer loop
      vertex -53.0491 -107.999 10
      vertex -54 -107 10
      vertex -53.098 -107.995 10
    endloop
  endfacet
  facet normal 0 0 1
    outer loop
      vertex -54 107 10
      vertex -53.1951 107.981 10
      vertex -53.243 107.97 10
    endloop
  endfacet
  facet normal 0 0 1
    outer loop
      vertex -53.098 -107.995 10
      vertex -54 -107 10
      vertex -53.1467 -107.989 10
    endloop
  endfacet
  facet normal 0 0 1
    outer loop
      vertex -54 107 10
      vertex -53.243 107.97 10
      vertex -53.2903 107.957 10
    endloop
  endfacet
  facet normal 0 0 1
    outer loop
      vertex -53.1467 -107.989 10
      vertex -54 -107 10
      vertex -53.1951 -107.981 10
    endloop
  endfacet
  facet normal 0 0 1
    outer loop
      vertex -54 107 10
      vertex -53.2903 107.957 10
      vertex -53.3369 107.942 10
    endloop
  endfacet
  facet normal 0 0 1
    outer loop
      vertex -53.1951 -107.981 10
      vertex -54 -107 10
      vertex -53.243 -107.97 10
    endloop
  endfacet
  facet normal 0 0 1
    outer loop
      vertex -54 107 10
      vertex -53.3369 107.942 10
      vertex -53.3827 107.924 10
    endloop
  endfacet
  facet normal 0 0 1
    outer loop
      vertex -53.243 -107.97 10
      vertex -54 -107 10
      vertex -53.2903 -107.957 10
    endloop
  endfacet
  facet normal 0 0 1
    outer loop
      vertex -54 107 10
      vertex -53.3827 107.924 10
      vertex -53.4276 107.904 10
    endloop
  endfacet
  facet normal 0 0 1
    outer loop
      vertex -53.2903 -107.957 10
      vertex -54 -107 10
      vertex -53.3369 -107.942 10
    endloop
  endfacet
  facet normal 0 0 1
    outer loop
      vertex -54 107 10
      vertex -53.4276 107.904 10
      vertex -53.4714 107.882 10
    endloop
  endfacet
  facet normal 0 0 1
    outer loop
      vertex -53.3369 -107.942 10
      vertex -54 -107 10
      vertex -53.3827 -107.924 10
    endloop
  endfacet
  facet normal 0 0 1
    outer loop
      vertex -54 107 10
      vertex -53.4714 107.882 10
      vertex -53.5141 107.858 10
    endloop
  endfacet
  facet normal 0 0 1
    outer loop
      vertex -53.3827 -107.924 10
      vertex -54 -107 10
      vertex -53.4276 -107.904 10
    endloop
  endfacet
  facet normal 0 0 1
    outer loop
      vertex -54 107 10
      vertex -53.5141 107.858 10
      vertex -53.5556 107.831 10
    endloop
  endfacet
  facet normal 0 0 1
    outer loop
      vertex -53.4276 -107.904 10
      vertex -54 -107 10
      vertex -53.4714 -107.882 10
    endloop
  endfacet
  facet normal 0 0 1
    outer loop
      vertex -54 107 10
      vertex -53.5556 107.831 10
      vertex -53.5957 107.803 10
    endloop
  endfacet
  facet normal 0 0 1
    outer loop
      vertex -53.4714 -107.882 10
      vertex -54 -107 10
      vertex -53.5141 -107.858 10
    endloop
  endfacet
  facet normal 0 0 1
    outer loop
      vertex -54 107 10
      vertex -53.5957 107.803 10
      vertex -53.6344 107.773 10
    endloop
  endfacet
  facet normal 0 0 1
    outer loop
      vertex -53.5141 -107.858 10
      vertex -54 -107 10
      vertex -53.5556 -107.831 10
    endloop
  endfacet
  facet normal 0 0 1
    outer loop
      vertex -54 107 10
      vertex -53.6344 107.773 10
      vertex -53.6716 107.741 10
    endloop
  endfacet
  facet normal 0 0 1
    outer loop
      vertex -53.5556 -107.831 10
      vertex -54 -107 10
      vertex -53.5957 -107.803 10
    endloop
  endfacet
  facet normal 0 0 1
    outer loop
      vertex -54 107 10
      vertex -53.6716 107.741 10
      vertex -53.7071 107.707 10
    endloop
  endfacet
  facet normal 0 0 1
    outer loop
      vertex -53.5957 -107.803 10
      vertex -54 -107 10
      vertex -53.6344 -107.773 10
    endloop
  endfacet
  facet normal 0 0 1
    outer loop
      vertex -54 107 10
      vertex -53.7071 107.707 10
      vertex -53.741 107.672 10
    endloop
  endfacet
  facet normal 0 0 1
    outer loop
      vertex -53.6344 -107.773 10
      vertex -54 -107 10
      vertex -53.6716 -107.741 10
    endloop
  endfacet
  facet normal 0 0 1
    outer loop
      vertex -54 107 10
      vertex -53.741 107.672 10
      vertex -53.773 107.634 10
    endloop
  endfacet
  facet normal 0 0 1
    outer loop
      vertex -53.6716 -107.741 10
      vertex -54 -107 10
      vertex -53.7071 -107.707 10
    endloop
  endfacet
  facet normal 0 0 1
    outer loop
      vertex -54 107 10
      vertex -53.773 107.634 10
      vertex -53.8032 107.596 10
    endloop
  endfacet
  facet normal 0 0 1
    outer loop
      vertex -53.7071 -107.707 10
      vertex -54 -107 10
      vertex -53.741 -107.672 10
    endloop
  endfacet
  facet normal 0 0 1
    outer loop
      vertex -54 107 10
      vertex -53.8032 107.596 10
      vertex -53.8315 107.556 10
    endloop
  endfacet
  facet normal 0 0 1
    outer loop
      vertex -53.741 -107.672 10
      vertex -54 -107 10
      vertex -53.773 -107.634 10
    endloop
  endfacet
  facet normal 0 0 1
    outer loop
      vertex -54 107 10
      vertex -53.8315 107.556 10
      vertex -53.8577 107.514 10
    endloop
  endfacet
  facet normal 0 0 1
    outer loop
      vertex -53.773 -107.634 10
      vertex -54 -107 10
      vertex -53.8032 -107.596 10
    endloop
  endfacet
  facet normal 0 0 1
    outer loop
      vertex -54 107 10
      vertex -53.8577 107.514 10
      vertex -53.8819 107.471 10
    endloop
  endfacet
  facet normal 0 0 1
    outer loop
      vertex -53.8032 -107.596 10
      vertex -54 -107 10
      vertex -53.8315 -107.556 10
    endloop
  endfacet
  facet normal 0 0 1
    outer loop
      vertex -54 107 10
      vertex -53.8819 107.471 10
      vertex -53.904 107.428 10
    endloop
  endfacet
  facet normal 0 0 1
    outer loop
      vertex -53.8315 -107.556 10
      vertex -54 -107 10
      vertex -53.8577 -107.514 10
    endloop
  endfacet
  facet normal 0 0 1
    outer loop
      vertex -54 107 10
      vertex -53.904 107.428 10
      vertex -53.9239 107.383 10
    endloop
  endfacet
  facet normal 0 0 1
    outer loop
      vertex -53.8577 -107.514 10
      vertex -54 -107 10
      vertex -53.8819 -107.471 10
    endloop
  endfacet
  facet normal 0 0 1
    outer loop
      vertex -54 107 10
      vertex -53.9239 107.383 10
      vertex -53.9415 107.337 10
    endloop
  endfacet
  facet normal 0 0 1
    outer loop
      vertex -53.8819 -107.471 10
      vertex -54 -107 10
      vertex -53.904 -107.428 10
    endloop
  endfacet
  facet normal 0 0 1
    outer loop
      vertex -54 107 10
      vertex -53.9415 107.337 10
      vertex -53.9569 107.29 10
    endloop
  endfacet
  facet normal 0 0 1
    outer loop
      vertex -53.904 -107.428 10
      vertex -54 -107 10
      vertex -53.9239 -107.383 10
    endloop
  endfacet
  facet normal 0 0 1
    outer loop
      vertex -54 107 10
      vertex -53.9569 107.29 10
      vertex -53.97 107.243 10
    endloop
  endfacet
  facet normal 0 0 1
    outer loop
      vertex -53.9239 -107.383 10
      vertex -54 -107 10
      vertex -53.9415 -107.337 10
    endloop
  endfacet
  facet normal 0 0 1
    outer loop
      vertex -54 107 10
      vertex -53.97 107.243 10
      vertex -53.9808 107.195 10
    endloop
  endfacet
  facet normal 0 0 1
    outer loop
      vertex -53.9415 -107.337 10
      vertex -54 -107 10
      vertex -53.9569 -107.29 10
    endloop
  endfacet
  facet normal 0 0 1
    outer loop
      vertex -54 107 10
      vertex -53.9808 107.195 10
      vertex -53.9892 107.147 10
    endloop
  endfacet
  facet normal 0 0 1
    outer loop
      vertex -53.9569 -107.29 10
      vertex -54 -107 10
      vertex -53.97 -107.243 10
    endloop
  endfacet
  facet normal 0 0 1
    outer loop
      vertex -54 107 10
      vertex -53.9892 107.147 10
      vertex -53.9952 107.098 10
    endloop
  endfacet
  facet normal 0 0 1
    outer loop
      vertex -53.97 -107.243 10
      vertex -54 -107 10
      vertex -53.9808 -107.195 10
    endloop
  endfacet
  facet normal 0 0 1
    outer loop
      vertex -54 107 10
      vertex -53.9952 107.098 10
      vertex -53.9988 107.049 10
    endloop
  endfacet
  facet normal 0 0 1
    outer loop
      vertex -53.9808 -107.195 10
      vertex -54 -107 10
      vertex -53.9892 -107.147 10
    endloop
  endfacet
  facet normal 0 0 1
    outer loop
      vertex -53.9892 -107.147 10
      vertex -54 -107 10
      vertex -53.9952 -107.098 10
    endloop
  endfacet
  facet normal 0 0 1
    outer loop
      vertex -53.9952 -107.098 10
      vertex -54 -107 10
      vertex -53.9988 -107.049 10
    endloop
  endfacet
  facet normal 0.914564 -0.404441 0
    outer loop
      vertex 53.904 -107.428 10
      vertex 53.9239 -107.383 -10
      vertex 53.9239 -107.383 10
    endloop
  endfacet
  facet normal 0.914564 -0.404441 0
    outer loop
      vertex 53.9239 -107.383 -10
      vertex 53.904 -107.428 10
      vertex 53.904 -107.428 -10
    endloop
  endfacet
  facet normal -0.48997 -0.871739 0
    outer loop
      vertex -53.5141 -107.858 -10
      vertex -53.4714 -107.882 10
      vertex -53.5141 -107.858 10
    endloop
  endfacet
  facet normal -0.48997 -0.871739 -0
    outer loop
      vertex -53.4714 -107.882 10
      vertex -53.5141 -107.858 -10
      vertex -53.4714 -107.882 -10
    endloop
  endfacet
  facet normal 0 -1 0
    outer loop
      vertex -53 -108 -10
      vertex 53 -108 10
      vertex -53 -108 10
    endloop
  endfacet
  facet normal 0 -1 -0
    outer loop
      vertex 53 -108 10
      vertex -53 -108 -10
      vertex 53 -108 -10
    endloop
  endfacet
  facet normal -0.223819 -0.974631 0
    outer loop
      vertex -53.243 -107.97 -10
      vertex -53.1951 -107.981 10
      vertex -53.243 -107.97 10
    endloop
  endfacet
  facet normal -0.223819 -0.974631 -0
    outer loop
      vertex -53.1951 -107.981 10
      vertex -53.243 -107.97 -10
      vertex -53.1951 -107.981 -10
    endloop
  endfacet
  facet normal -0.163077 -0.986613 0
    outer loop
      vertex -53.1951 -107.981 -10
      vertex -53.1467 -107.989 10
      vertex -53.1951 -107.981 10
    endloop
  endfacet
  facet normal -0.163077 -0.986613 -0
    outer loop
      vertex -53.1467 -107.989 10
      vertex -53.1951 -107.981 -10
      vertex -53.1467 -107.989 -10
    endloop
  endfacet
  facet normal -0.652133 -0.758105 0
    outer loop
      vertex -53.6716 -107.741 -10
      vertex -53.6344 -107.773 10
      vertex -53.6716 -107.741 10
    endloop
  endfacet
  facet normal -0.652133 -0.758105 -0
    outer loop
      vertex -53.6344 -107.773 10
      vertex -53.6716 -107.741 -10
      vertex -53.6344 -107.773 -10
    endloop
  endfacet
  facet normal -0.0203624 -0.999793 0
    outer loop
      vertex -53.0491 -107.999 -10
      vertex -53 -108 10
      vertex -53.0491 -107.999 10
    endloop
  endfacet
  facet normal -0.0203624 -0.999793 -0
    outer loop
      vertex -53 -108 10
      vertex -53.0491 -107.999 -10
      vertex -53 -108 -10
    endloop
  endfacet
  facet normal -0.0815273 -0.996671 0
    outer loop
      vertex -53.098 -107.995 -10
      vertex -53.0491 -107.999 10
      vertex -53.098 -107.995 10
    endloop
  endfacet
  facet normal -0.0815273 -0.996671 -0
    outer loop
      vertex -53.0491 -107.999 10
      vertex -53.098 -107.995 -10
      vertex -53.0491 -107.999 -10
    endloop
  endfacet
  facet normal -0.365778 -0.930702 0
    outer loop
      vertex -53.3827 -107.924 -10
      vertex -53.3369 -107.942 10
      vertex -53.3827 -107.924 10
    endloop
  endfacet
  facet normal -0.365778 -0.930702 -0
    outer loop
      vertex -53.3369 -107.942 10
      vertex -53.3827 -107.924 -10
      vertex -53.3369 -107.942 -10
    endloop
  endfacet
  facet normal -0.265014 -0.964244 0
    outer loop
      vertex -53.2903 -107.957 -10
      vertex -53.243 -107.97 10
      vertex -53.2903 -107.957 10
    endloop
  endfacet
  facet normal -0.265014 -0.964244 -0
    outer loop
      vertex -53.243 -107.97 10
      vertex -53.2903 -107.957 -10
      vertex -53.243 -107.97 -10
    endloop
  endfacet
  facet normal -0.306406 -0.951901 0
    outer loop
      vertex -53.3369 -107.942 -10
      vertex -53.2903 -107.957 10
      vertex -53.3369 -107.942 10
    endloop
  endfacet
  facet normal -0.306406 -0.951901 -0
    outer loop
      vertex -53.2903 -107.957 10
      vertex -53.3369 -107.942 -10
      vertex -53.2903 -107.957 -10
    endloop
  endfacet
  facet normal -0.816345 -0.577564 0
    outer loop
      vertex -53.8032 -107.596 -10
      vertex -53.8315 -107.556 10
      vertex -53.8315 -107.556 -10
    endloop
  endfacet
  facet normal -0.816345 -0.577564 0
    outer loop
      vertex -53.8315 -107.556 10
      vertex -53.8032 -107.596 -10
      vertex -53.8032 -107.596 10
    endloop
  endfacet
  facet normal -0.545343 -0.838213 0
    outer loop
      vertex -53.5556 -107.831 -10
      vertex -53.5141 -107.858 10
      vertex -53.5556 -107.831 10
    endloop
  endfacet
  facet normal -0.545343 -0.838213 -0
    outer loop
      vertex -53.5141 -107.858 10
      vertex -53.5556 -107.831 -10
      vertex -53.5141 -107.858 -10
    endloop
  endfacet
  facet normal -0.448845 -0.89361 0
    outer loop
      vertex -53.4714 -107.882 -10
      vertex -53.4276 -107.904 10
      vertex -53.4714 -107.882 10
    endloop
  endfacet
  facet normal -0.448845 -0.89361 -0
    outer loop
      vertex -53.4276 -107.904 10
      vertex -53.4714 -107.882 -10
      vertex -53.4276 -107.904 -10
    endloop
  endfacet
  facet normal -0.933972 -0.357346 0
    outer loop
      vertex -53.9239 -107.383 -10
      vertex -53.9415 -107.337 10
      vertex -53.9415 -107.337 -10
    endloop
  endfacet
  facet normal -0.933972 -0.357346 0
    outer loop
      vertex -53.9415 -107.337 10
      vertex -53.9239 -107.383 -10
      vertex -53.9239 -107.383 10
    endloop
  endfacet
  facet normal -0.9997 -0.0244825 0
    outer loop
      vertex -53.9988 -107.049 -10
      vertex -54 -107 10
      vertex -54 -107 -10
    endloop
  endfacet
  facet normal -0.9997 -0.0244825 0
    outer loop
      vertex -54 -107 10
      vertex -53.9988 -107.049 -10
      vertex -53.9988 -107.049 10
    endloop
  endfacet
  facet normal -0.691684 -0.7222 0
    outer loop
      vertex -53.7071 -107.707 -10
      vertex -53.6716 -107.741 10
      vertex -53.7071 -107.707 10
    endloop
  endfacet
  facet normal -0.691684 -0.7222 -0
    outer loop
      vertex -53.6716 -107.741 10
      vertex -53.7071 -107.707 -10
      vertex -53.6716 -107.741 -10
    endloop
  endfacet
  facet normal 1 -0 0
    outer loop
      vertex 54 -107 10
      vertex 54 107 -10
      vertex 54 107 10
    endloop
  endfacet
  facet normal 1 0 0
    outer loop
      vertex 54 107 -10
      vertex 54 -107 10
      vertex 54 -107 -10
    endloop
  endfacet
  facet normal 0.365778 0.930702 -0
    outer loop
      vertex 53.3827 107.924 -10
      vertex 53.3369 107.942 10
      vertex 53.3827 107.924 10
    endloop
  endfacet
  facet normal 0.365778 0.930702 0
    outer loop
      vertex 53.3369 107.942 10
      vertex 53.3827 107.924 -10
      vertex 53.3369 107.942 -10
    endloop
  endfacet
  facet normal -0.9997 0.0244825 0
    outer loop
      vertex -54 107 -10
      vertex -53.9988 107.049 10
      vertex -53.9988 107.049 -10
    endloop
  endfacet
  facet normal -0.9997 0.0244825 0
    outer loop
      vertex -53.9988 107.049 10
      vertex -54 107 -10
      vertex -54 107 10
    endloop
  endfacet
  facet normal -0.963283 0.268489 0
    outer loop
      vertex -53.97 107.243 -10
      vertex -53.9569 107.29 10
      vertex -53.9569 107.29 -10
    endloop
  endfacet
  facet normal -0.963283 0.268489 0
    outer loop
      vertex -53.9569 107.29 10
      vertex -53.97 107.243 -10
      vertex -53.97 107.243 10
    endloop
  endfacet
  facet normal -0.612667 -0.790341 0
    outer loop
      vertex -53.6344 -107.773 -10
      vertex -53.5957 -107.803 10
      vertex -53.6344 -107.773 10
    endloop
  endfacet
  facet normal -0.612667 -0.790341 -0
    outer loop
      vertex -53.5957 -107.803 10
      vertex -53.6344 -107.773 -10
      vertex -53.5957 -107.803 -10
    endloop
  endfacet
  facet normal -0.764911 -0.644136 0
    outer loop
      vertex -53.741 -107.672 -10
      vertex -53.773 -107.634 10
      vertex -53.773 -107.634 -10
    endloop
  endfacet
  facet normal -0.764911 -0.644136 0
    outer loop
      vertex -53.773 -107.634 10
      vertex -53.741 -107.672 -10
      vertex -53.741 -107.672 10
    endloop
  endfacet
  facet normal 0.691684 -0.7222 0
    outer loop
      vertex 53.6716 -107.741 -10
      vertex 53.7071 -107.707 10
      vertex 53.6716 -107.741 10
    endloop
  endfacet
  facet normal 0.691684 -0.7222 0
    outer loop
      vertex 53.7071 -107.707 10
      vertex 53.6716 -107.741 -10
      vertex 53.7071 -107.707 -10
    endloop
  endfacet
  facet normal 0 1 -0
    outer loop
      vertex 53 108 -10
      vertex -53 108 10
      vertex 53 108 10
    endloop
  endfacet
  facet normal 0 1 0
    outer loop
      vertex -53 108 10
      vertex 53 108 -10
      vertex -53 108 -10
    endloop
  endfacet
  facet normal -0.933972 0.357346 0
    outer loop
      vertex -53.9415 107.337 -10
      vertex -53.9239 107.383 10
      vertex -53.9239 107.383 -10
    endloop
  endfacet
  facet normal -0.933972 0.357346 0
    outer loop
      vertex -53.9239 107.383 10
      vertex -53.9415 107.337 -10
      vertex -53.9415 107.337 10
    endloop
  endfacet
  facet normal -0.889408 -0.457114 0
    outer loop
      vertex -53.8819 -107.471 -10
      vertex -53.904 -107.428 10
      vertex -53.904 -107.428 -10
    endloop
  endfacet
  facet normal -0.889408 -0.457114 0
    outer loop
      vertex -53.904 -107.428 10
      vertex -53.8819 -107.471 -10
      vertex -53.8819 -107.471 10
    endloop
  endfacet
  facet normal -0.572501 -0.819904 0
    outer loop
      vertex -53.5957 -107.803 -10
      vertex -53.5556 -107.831 10
      vertex -53.5957 -107.803 10
    endloop
  endfacet
  facet normal -0.572501 -0.819904 -0
    outer loop
      vertex -53.5556 -107.831 10
      vertex -53.5957 -107.803 -10
      vertex -53.5556 -107.831 -10
    endloop
  endfacet
  facet normal -0.718304 -0.695729 0
    outer loop
      vertex -53.7071 -107.707 -10
      vertex -53.741 -107.672 10
      vertex -53.741 -107.672 -10
    endloop
  endfacet
  facet normal -0.718304 -0.695729 0
    outer loop
      vertex -53.741 -107.672 10
      vertex -53.7071 -107.707 -10
      vertex -53.7071 -107.707 10
    endloop
  endfacet
  facet normal 0.782875 -0.622179 0
    outer loop
      vertex 53.773 -107.634 10
      vertex 53.8032 -107.596 -10
      vertex 53.8032 -107.596 10
    endloop
  endfacet
  facet normal 0.782875 -0.622179 0
    outer loop
      vertex 53.8032 -107.596 -10
      vertex 53.773 -107.634 10
      vertex 53.773 -107.634 -10
    endloop
  endfacet
  facet normal 0.992586 -0.121541 0
    outer loop
      vertex 53.9892 -107.147 10
      vertex 53.9952 -107.098 -10
      vertex 53.9952 -107.098 10
    endloop
  endfacet
  facet normal 0.992586 -0.121541 0
    outer loop
      vertex 53.9952 -107.098 -10
      vertex 53.9892 -107.147 10
      vertex 53.9892 -107.147 -10
    endloop
  endfacet
  facet normal -0.98503 0.17238 0
    outer loop
      vertex -53.9892 107.147 -10
      vertex -53.9808 107.195 10
      vertex -53.9808 107.195 -10
    endloop
  endfacet
  facet normal -0.98503 0.17238 0
    outer loop
      vertex -53.9808 107.195 10
      vertex -53.9892 107.147 -10
      vertex -53.9892 107.147 10
    endloop
  endfacet
  facet normal -0.914564 0.404441 0
    outer loop
      vertex -53.9239 107.383 -10
      vertex -53.904 107.428 10
      vertex -53.904 107.428 -10
    endloop
  endfacet
  facet normal -0.914564 0.404441 0
    outer loop
      vertex -53.904 107.428 10
      vertex -53.9239 107.383 -10
      vertex -53.9239 107.383 10
    endloop
  endfacet
  facet normal -0.848452 -0.529272 0
    outer loop
      vertex -53.8315 -107.556 -10
      vertex -53.8577 -107.514 10
      vertex -53.8577 -107.514 -10
    endloop
  endfacet
  facet normal -0.848452 -0.529272 0
    outer loop
      vertex -53.8577 -107.514 10
      vertex -53.8315 -107.556 -10
      vertex -53.8315 -107.556 10
    endloop
  endfacet
  facet normal -0.98503 -0.17238 0
    outer loop
      vertex -53.9808 -107.195 -10
      vertex -53.9892 -107.147 10
      vertex -53.9892 -107.147 -10
    endloop
  endfacet
  facet normal -0.98503 -0.17238 0
    outer loop
      vertex -53.9892 -107.147 10
      vertex -53.9808 -107.195 -10
      vertex -53.9808 -107.195 10
    endloop
  endfacet
  facet normal -0.950288 -0.311371 0
    outer loop
      vertex -53.9415 -107.337 -10
      vertex -53.9569 -107.29 10
      vertex -53.9569 -107.29 -10
    endloop
  endfacet
  facet normal -0.950288 -0.311371 0
    outer loop
      vertex -53.9569 -107.29 10
      vertex -53.9415 -107.337 -10
      vertex -53.9415 -107.337 10
    endloop
  endfacet
  facet normal -0.871467 -0.490454 0
    outer loop
      vertex -53.8577 -107.514 -10
      vertex -53.8819 -107.471 10
      vertex -53.8819 -107.471 -10
    endloop
  endfacet
  facet normal -0.871467 -0.490454 0
    outer loop
      vertex -53.8819 -107.471 10
      vertex -53.8577 -107.514 -10
      vertex -53.8577 -107.514 10
    endloop
  endfacet
  facet normal -0.782875 -0.622179 0
    outer loop
      vertex -53.773 -107.634 -10
      vertex -53.8032 -107.596 10
      vertex -53.8032 -107.596 -10
    endloop
  endfacet
  facet normal -0.782875 -0.622179 0
    outer loop
      vertex -53.8032 -107.596 10
      vertex -53.773 -107.634 -10
      vertex -53.773 -107.634 10
    endloop
  endfacet
  facet normal 0.889408 -0.457114 0
    outer loop
      vertex 53.8819 -107.471 10
      vertex 53.904 -107.428 -10
      vertex 53.904 -107.428 10
    endloop
  endfacet
  facet normal 0.889408 -0.457114 0
    outer loop
      vertex 53.904 -107.428 -10
      vertex 53.8819 -107.471 10
      vertex 53.8819 -107.471 -10
    endloop
  endfacet
  facet normal 0.652133 -0.758105 0
    outer loop
      vertex 53.6344 -107.773 -10
      vertex 53.6716 -107.741 10
      vertex 53.6344 -107.773 10
    endloop
  endfacet
  facet normal 0.652133 -0.758105 0
    outer loop
      vertex 53.6716 -107.741 10
      vertex 53.6344 -107.773 -10
      vertex 53.6716 -107.741 -10
    endloop
  endfacet
  facet normal 0.306406 -0.951901 0
    outer loop
      vertex 53.2903 -107.957 -10
      vertex 53.3369 -107.942 10
      vertex 53.2903 -107.957 10
    endloop
  endfacet
  facet normal 0.306406 -0.951901 0
    outer loop
      vertex 53.3369 -107.942 10
      vertex 53.2903 -107.957 -10
      vertex 53.3369 -107.942 -10
    endloop
  endfacet
  facet normal 0.448845 -0.89361 0
    outer loop
      vertex 53.4276 -107.904 -10
      vertex 53.4714 -107.882 10
      vertex 53.4276 -107.904 10
    endloop
  endfacet
  facet normal 0.448845 -0.89361 0
    outer loop
      vertex 53.4714 -107.882 10
      vertex 53.4276 -107.904 -10
      vertex 53.4714 -107.882 -10
    endloop
  endfacet
  facet normal 0.950288 -0.311371 0
    outer loop
      vertex 53.9415 -107.337 10
      vertex 53.9569 -107.29 -10
      vertex 53.9569 -107.29 10
    endloop
  endfacet
  facet normal 0.950288 -0.311371 0
    outer loop
      vertex 53.9569 -107.29 -10
      vertex 53.9415 -107.337 10
      vertex 53.9415 -107.337 -10
    endloop
  endfacet
  facet normal 0.97561 -0.219512 0
    outer loop
      vertex 53.97 -107.243 10
      vertex 53.9808 -107.195 -10
      vertex 53.9808 -107.195 10
    endloop
  endfacet
  facet normal 0.97561 -0.219512 0
    outer loop
      vertex 53.9808 -107.195 -10
      vertex 53.97 -107.243 10
      vertex 53.97 -107.243 -10
    endloop
  endfacet
  facet normal 0.98503 -0.17238 0
    outer loop
      vertex 53.9808 -107.195 10
      vertex 53.9892 -107.147 -10
      vertex 53.9892 -107.147 10
    endloop
  endfacet
  facet normal 0.98503 -0.17238 0
    outer loop
      vertex 53.9892 -107.147 -10
      vertex 53.9808 -107.195 10
      vertex 53.9808 -107.195 -10
    endloop
  endfacet
  facet normal 0.448845 0.89361 -0
    outer loop
      vertex 53.4714 107.882 -10
      vertex 53.4276 107.904 10
      vertex 53.4714 107.882 10
    endloop
  endfacet
  facet normal 0.448845 0.89361 0
    outer loop
      vertex 53.4276 107.904 10
      vertex 53.4714 107.882 -10
      vertex 53.4276 107.904 -10
    endloop
  endfacet
  facet normal 0.265014 0.964244 -0
    outer loop
      vertex 53.2903 107.957 -10
      vertex 53.243 107.97 10
      vertex 53.2903 107.957 10
    endloop
  endfacet
  facet normal 0.265014 0.964244 0
    outer loop
      vertex 53.243 107.97 10
      vertex 53.2903 107.957 -10
      vertex 53.243 107.97 -10
    endloop
  endfacet
  facet normal -0.992586 0.121541 0
    outer loop
      vertex -53.9952 107.098 -10
      vertex -53.9892 107.147 10
      vertex -53.9892 107.147 -10
    endloop
  endfacet
  facet normal -0.992586 0.121541 0
    outer loop
      vertex -53.9892 107.147 10
      vertex -53.9952 107.098 -10
      vertex -53.9952 107.098 10
    endloop
  endfacet
  facet normal -0.97561 0.219512 0
    outer loop
      vertex -53.9808 107.195 -10
      vertex -53.97 107.243 10
      vertex -53.97 107.243 -10
    endloop
  endfacet
  facet normal -0.97561 0.219512 0
    outer loop
      vertex -53.97 107.243 10
      vertex -53.9808 107.195 -10
      vertex -53.9808 107.195 10
    endloop
  endfacet
  facet normal -0.950288 0.311371 0
    outer loop
      vertex -53.9569 107.29 -10
      vertex -53.9415 107.337 10
      vertex -53.9415 107.337 -10
    endloop
  endfacet
  facet normal -0.950288 0.311371 0
    outer loop
      vertex -53.9415 107.337 10
      vertex -53.9569 107.29 -10
      vertex -53.9569 107.29 10
    endloop
  endfacet
  facet normal -0.914564 -0.404441 0
    outer loop
      vertex -53.904 -107.428 -10
      vertex -53.9239 -107.383 10
      vertex -53.9239 -107.383 -10
    endloop
  endfacet
  facet normal -0.914564 -0.404441 0
    outer loop
      vertex -53.9239 -107.383 10
      vertex -53.904 -107.428 -10
      vertex -53.904 -107.428 10
    endloop
  endfacet
  facet normal -0.992586 -0.121541 0
    outer loop
      vertex -53.9892 -107.147 -10
      vertex -53.9952 -107.098 10
      vertex -53.9952 -107.098 -10
    endloop
  endfacet
  facet normal -0.992586 -0.121541 0
    outer loop
      vertex -53.9952 -107.098 10
      vertex -53.9892 -107.147 -10
      vertex -53.9892 -107.147 10
    endloop
  endfacet
  facet normal -0.963283 -0.268489 0
    outer loop
      vertex -53.9569 -107.29 -10
      vertex -53.97 -107.243 10
      vertex -53.97 -107.243 -10
    endloop
  endfacet
  facet normal -0.963283 -0.268489 0
    outer loop
      vertex -53.97 -107.243 10
      vertex -53.9569 -107.29 -10
      vertex -53.9569 -107.29 10
    endloop
  endfacet
  facet normal 0.848452 -0.529272 0
    outer loop
      vertex 53.8315 -107.556 10
      vertex 53.8577 -107.514 -10
      vertex 53.8577 -107.514 10
    endloop
  endfacet
  facet normal 0.848452 -0.529272 0
    outer loop
      vertex 53.8577 -107.514 -10
      vertex 53.8315 -107.556 10
      vertex 53.8315 -107.556 -10
    endloop
  endfacet
  facet normal 0.572501 -0.819904 0
    outer loop
      vertex 53.5556 -107.831 -10
      vertex 53.5957 -107.803 10
      vertex 53.5556 -107.831 10
    endloop
  endfacet
  facet normal 0.572501 -0.819904 0
    outer loop
      vertex 53.5957 -107.803 10
      vertex 53.5556 -107.831 -10
      vertex 53.5957 -107.803 -10
    endloop
  endfacet
  facet normal 0.718304 -0.695729 0
    outer loop
      vertex 53.7071 -107.707 10
      vertex 53.741 -107.672 -10
      vertex 53.741 -107.672 10
    endloop
  endfacet
  facet normal 0.718304 -0.695729 0
    outer loop
      vertex 53.741 -107.672 -10
      vertex 53.7071 -107.707 10
      vertex 53.7071 -107.707 -10
    endloop
  endfacet
  facet normal 0.871467 -0.490454 0
    outer loop
      vertex 53.8577 -107.514 10
      vertex 53.8819 -107.471 -10
      vertex 53.8819 -107.471 10
    endloop
  endfacet
  facet normal 0.871467 -0.490454 0
    outer loop
      vertex 53.8819 -107.471 -10
      vertex 53.8577 -107.514 10
      vertex 53.8577 -107.514 -10
    endloop
  endfacet
  facet normal 0.816345 -0.577564 0
    outer loop
      vertex 53.8032 -107.596 10
      vertex 53.8315 -107.556 -10
      vertex 53.8315 -107.556 10
    endloop
  endfacet
  facet normal 0.816345 -0.577564 0
    outer loop
      vertex 53.8315 -107.556 -10
      vertex 53.8032 -107.596 10
      vertex 53.8032 -107.596 -10
    endloop
  endfacet
  facet normal 0.365778 -0.930702 0
    outer loop
      vertex 53.3369 -107.942 -10
      vertex 53.3827 -107.924 10
      vertex 53.3369 -107.942 10
    endloop
  endfacet
  facet normal 0.365778 -0.930702 0
    outer loop
      vertex 53.3827 -107.924 10
      vertex 53.3369 -107.942 -10
      vertex 53.3827 -107.924 -10
    endloop
  endfacet
  facet normal 0.265014 -0.964244 0
    outer loop
      vertex 53.243 -107.97 -10
      vertex 53.2903 -107.957 10
      vertex 53.243 -107.97 10
    endloop
  endfacet
  facet normal 0.265014 -0.964244 0
    outer loop
      vertex 53.2903 -107.957 10
      vertex 53.243 -107.97 -10
      vertex 53.2903 -107.957 -10
    endloop
  endfacet
  facet normal 0.122279 -0.992496 0
    outer loop
      vertex 53.098 -107.995 -10
      vertex 53.1467 -107.989 10
      vertex 53.098 -107.995 10
    endloop
  endfacet
  facet normal 0.122279 -0.992496 0
    outer loop
      vertex 53.1467 -107.989 10
      vertex 53.098 -107.995 -10
      vertex 53.1467 -107.989 -10
    endloop
  endfacet
  facet normal 0.9997 -0.0244825 0
    outer loop
      vertex 53.9988 -107.049 10
      vertex 54 -107 -10
      vertex 54 -107 10
    endloop
  endfacet
  facet normal 0.9997 -0.0244825 0
    outer loop
      vertex 54 -107 -10
      vertex 53.9988 -107.049 10
      vertex 53.9988 -107.049 -10
    endloop
  endfacet
  facet normal 0.997312 -0.0732719 0
    outer loop
      vertex 53.9952 -107.098 10
      vertex 53.9988 -107.049 -10
      vertex 53.9988 -107.049 10
    endloop
  endfacet
  facet normal 0.997312 -0.0732719 0
    outer loop
      vertex 53.9988 -107.049 -10
      vertex 53.9952 -107.098 10
      vertex 53.9952 -107.098 -10
    endloop
  endfacet
  facet normal 0.963283 -0.268489 0
    outer loop
      vertex 53.9569 -107.29 10
      vertex 53.97 -107.243 -10
      vertex 53.97 -107.243 10
    endloop
  endfacet
  facet normal 0.963283 -0.268489 0
    outer loop
      vertex 53.97 -107.243 -10
      vertex 53.9569 -107.29 10
      vertex 53.9569 -107.29 -10
    endloop
  endfacet
  facet normal 0.933972 -0.357346 0
    outer loop
      vertex 53.9239 -107.383 10
      vertex 53.9415 -107.337 -10
      vertex 53.9415 -107.337 10
    endloop
  endfacet
  facet normal 0.933972 -0.357346 0
    outer loop
      vertex 53.9415 -107.337 -10
      vertex 53.9239 -107.383 10
      vertex 53.9239 -107.383 -10
    endloop
  endfacet
  facet normal 0.992586 0.121541 0
    outer loop
      vertex 53.9952 107.098 10
      vertex 53.9892 107.147 -10
      vertex 53.9892 107.147 10
    endloop
  endfacet
  facet normal 0.992586 0.121541 0
    outer loop
      vertex 53.9892 107.147 -10
      vertex 53.9952 107.098 10
      vertex 53.9952 107.098 -10
    endloop
  endfacet
  facet normal 0.963283 0.268489 0
    outer loop
      vertex 53.97 107.243 10
      vertex 53.9569 107.29 -10
      vertex 53.9569 107.29 10
    endloop
  endfacet
  facet normal 0.963283 0.268489 0
    outer loop
      vertex 53.9569 107.29 -10
      vertex 53.97 107.243 10
      vertex 53.97 107.243 -10
    endloop
  endfacet
  facet normal 0.691684 0.7222 -0
    outer loop
      vertex 53.7071 107.707 -10
      vertex 53.6716 107.741 10
      vertex 53.7071 107.707 10
    endloop
  endfacet
  facet normal 0.691684 0.7222 0
    outer loop
      vertex 53.6716 107.741 10
      vertex 53.7071 107.707 -10
      vertex 53.6716 107.741 -10
    endloop
  endfacet
  facet normal 0.764911 0.644136 0
    outer loop
      vertex 53.773 107.634 10
      vertex 53.741 107.672 -10
      vertex 53.741 107.672 10
    endloop
  endfacet
  facet normal 0.764911 0.644136 0
    outer loop
      vertex 53.741 107.672 -10
      vertex 53.773 107.634 10
      vertex 53.773 107.634 -10
    endloop
  endfacet
  facet normal -0.889408 0.457114 0
    outer loop
      vertex -53.904 107.428 -10
      vertex -53.8819 107.471 10
      vertex -53.8819 107.471 -10
    endloop
  endfacet
  facet normal -0.889408 0.457114 0
    outer loop
      vertex -53.8819 107.471 10
      vertex -53.904 107.428 -10
      vertex -53.904 107.428 10
    endloop
  endfacet
  facet normal -0.545343 0.838213 0
    outer loop
      vertex -53.5141 107.858 -10
      vertex -53.5556 107.831 10
      vertex -53.5141 107.858 10
    endloop
  endfacet
  facet normal -0.545343 0.838213 0
    outer loop
      vertex -53.5556 107.831 10
      vertex -53.5141 107.858 -10
      vertex -53.5556 107.831 -10
    endloop
  endfacet
  facet normal -0.652133 0.758105 0
    outer loop
      vertex -53.6344 107.773 -10
      vertex -53.6716 107.741 10
      vertex -53.6344 107.773 10
    endloop
  endfacet
  facet normal -0.652133 0.758105 0
    outer loop
      vertex -53.6716 107.741 10
      vertex -53.6344 107.773 -10
      vertex -53.6716 107.741 -10
    endloop
  endfacet
  facet normal -0.997312 0.0732719 0
    outer loop
      vertex -53.9988 107.049 -10
      vertex -53.9952 107.098 10
      vertex -53.9952 107.098 -10
    endloop
  endfacet
  facet normal -0.997312 0.0732719 0
    outer loop
      vertex -53.9952 107.098 10
      vertex -53.9988 107.049 -10
      vertex -53.9988 107.049 10
    endloop
  endfacet
  facet normal 0 0 -1
    outer loop
      vertex 53 -108 -10
      vertex 54 -107 -10
      vertex 53.9988 -107.049 -10
    endloop
  endfacet
  facet normal 0 0 -1
    outer loop
      vertex 54 -107 -10
      vertex -54 -107 -10
      vertex 54 107 -10
    endloop
  endfacet
  facet normal 0 0 -1
    outer loop
      vertex 53 -108 -10
      vertex 53.9988 -107.049 -10
      vertex 53.9952 -107.098 -10
    endloop
  endfacet
  facet normal 0 0 -1
    outer loop
      vertex -54 107 -10
      vertex 54 107 -10
      vertex -54 -107 -10
    endloop
  endfacet
  facet normal 0 0 -1
    outer loop
      vertex 53 -108 -10
      vertex 53.9952 -107.098 -10
      vertex 53.9892 -107.147 -10
    endloop
  endfacet
  facet normal 0 -0 -1
    outer loop
      vertex 53 108 -10
      vertex 54 107 -10
      vertex -54 107 -10
    endloop
  endfacet
  facet normal 0 0 -1
    outer loop
      vertex 53 -108 -10
      vertex 53.9892 -107.147 -10
      vertex 53.9808 -107.195 -10
    endloop
  endfacet
  facet normal 0 0 -1
    outer loop
      vertex 54 107 -10
      vertex 53 108 -10
      vertex 53.9988 107.049 -10
    endloop
  endfacet
  facet normal 0 0 -1
    outer loop
      vertex 53 -108 -10
      vertex 53.9808 -107.195 -10
      vertex 53.97 -107.243 -10
    endloop
  endfacet
  facet normal 0 0 -1
    outer loop
      vertex 53.9988 107.049 -10
      vertex 53 108 -10
      vertex 53.9952 107.098 -10
    endloop
  endfacet
  facet normal 0 0 -1
    outer loop
      vertex 53 -108 -10
      vertex 53.97 -107.243 -10
      vertex 53.9569 -107.29 -10
    endloop
  endfacet
  facet normal 0 0 -1
    outer loop
      vertex 53.9952 107.098 -10
      vertex 53 108 -10
      vertex 53.9892 107.147 -10
    endloop
  endfacet
  facet normal 0 0 -1
    outer loop
      vertex 53 -108 -10
      vertex 53.9569 -107.29 -10
      vertex 53.9415 -107.337 -10
    endloop
  endfacet
  facet normal 0 0 -1
    outer loop
      vertex 53.9892 107.147 -10
      vertex 53 108 -10
      vertex 53.9808 107.195 -10
    endloop
  endfacet
  facet normal 0 0 -1
    outer loop
      vertex 53 -108 -10
      vertex 53.9415 -107.337 -10
      vertex 53.9239 -107.383 -10
    endloop
  endfacet
  facet normal 0 0 -1
    outer loop
      vertex 53.9808 107.195 -10
      vertex 53 108 -10
      vertex 53.97 107.243 -10
    endloop
  endfacet
  facet normal 0 0 -1
    outer loop
      vertex 53 -108 -10
      vertex 53.9239 -107.383 -10
      vertex 53.904 -107.428 -10
    endloop
  endfacet
  facet normal 0 0 -1
    outer loop
      vertex 53.97 107.243 -10
      vertex 53 108 -10
      vertex 53.9569 107.29 -10
    endloop
  endfacet
  facet normal 0 0 -1
    outer loop
      vertex 53 -108 -10
      vertex 53.904 -107.428 -10
      vertex 53.8819 -107.471 -10
    endloop
  endfacet
  facet normal 0 0 -1
    outer loop
      vertex 53.9569 107.29 -10
      vertex 53 108 -10
      vertex 53.9415 107.337 -10
    endloop
  endfacet
  facet normal 0 0 -1
    outer loop
      vertex 53 -108 -10
      vertex 53.8819 -107.471 -10
      vertex 53.8577 -107.514 -10
    endloop
  endfacet
  facet normal 0 0 -1
    outer loop
      vertex 53.9415 107.337 -10
      vertex 53 108 -10
      vertex 53.9239 107.383 -10
    endloop
  endfacet
  facet normal 0 0 -1
    outer loop
      vertex 53 -108 -10
      vertex 53.8577 -107.514 -10
      vertex 53.8315 -107.556 -10
    endloop
  endfacet
  facet normal 0 0 -1
    outer loop
      vertex 53.9239 107.383 -10
      vertex 53 108 -10
      vertex 53.904 107.428 -10
    endloop
  endfacet
  facet normal 0 0 -1
    outer loop
      vertex 53 -108 -10
      vertex 53.8315 -107.556 -10
      vertex 53.8032 -107.596 -10
    endloop
  endfacet
  facet normal 0 0 -1
    outer loop
      vertex 53.904 107.428 -10
      vertex 53 108 -10
      vertex 53.8819 107.471 -10
    endloop
  endfacet
  facet normal 0 0 -1
    outer loop
      vertex 53 -108 -10
      vertex 53.8032 -107.596 -10
      vertex 53.773 -107.634 -10
    endloop
  endfacet
  facet normal -0 0 -1
    outer loop
      vertex 54 -107 -10
      vertex 53 -108 -10
      vertex -54 -107 -10
    endloop
  endfacet
  facet normal 0 0 -1
    outer loop
      vertex 53 -108 -10
      vertex 53.773 -107.634 -10
      vertex 53.741 -107.672 -10
    endloop
  endfacet
  facet normal 0 0 -1
    outer loop
      vertex 53.8819 107.471 -10
      vertex 53 108 -10
      vertex 53.8577 107.514 -10
    endloop
  endfacet
  facet normal 0 0 -1
    outer loop
      vertex 53 -108 -10
      vertex 53.741 -107.672 -10
      vertex 53.7071 -107.707 -10
    endloop
  endfacet
  facet normal 0 0 -1
    outer loop
      vertex 53.8032 107.596 -10
      vertex 53 108 -10
      vertex 53.773 107.634 -10
    endloop
  endfacet
  facet normal 0 0 -1
    outer loop
      vertex 53 -108 -10
      vertex 53.7071 -107.707 -10
      vertex 53.6716 -107.741 -10
    endloop
  endfacet
  facet normal 0 0 -1
    outer loop
      vertex 53.773 107.634 -10
      vertex 53 108 -10
      vertex 53.741 107.672 -10
    endloop
  endfacet
  facet normal 0 0 -1
    outer loop
      vertex 53 -108 -10
      vertex 53.6716 -107.741 -10
      vertex 53.6344 -107.773 -10
    endloop
  endfacet
  facet normal 0 0 -1
    outer loop
      vertex 53.741 107.672 -10
      vertex 53 108 -10
      vertex 53.7071 107.707 -10
    endloop
  endfacet
  facet normal 0 0 -1
    outer loop
      vertex 53 -108 -10
      vertex 53.6344 -107.773 -10
      vertex 53.5957 -107.803 -10
    endloop
  endfacet
  facet normal 0 0 -1
    outer loop
      vertex 53.7071 107.707 -10
      vertex 53 108 -10
      vertex 53.6716 107.741 -10
    endloop
  endfacet
  facet normal 0 0 -1
    outer loop
      vertex 53 -108 -10
      vertex 53.5957 -107.803 -10
      vertex 53.5556 -107.831 -10
    endloop
  endfacet
  facet normal 0 0 -1
    outer loop
      vertex 53.6716 107.741 -10
      vertex 53 108 -10
      vertex 53.6344 107.773 -10
    endloop
  endfacet
  facet normal 0 0 -1
    outer loop
      vertex 53 -108 -10
      vertex 53.5556 -107.831 -10
      vertex 53.5141 -107.858 -10
    endloop
  endfacet
  facet normal 0 0 -1
    outer loop
      vertex 53.6344 107.773 -10
      vertex 53 108 -10
      vertex 53.5957 107.803 -10
    endloop
  endfacet
  facet normal 0 0 -1
    outer loop
      vertex 53 -108 -10
      vertex 53.5141 -107.858 -10
      vertex 53.4714 -107.882 -10
    endloop
  endfacet
  facet normal 0 0 -1
    outer loop
      vertex 53.5957 107.803 -10
      vertex 53 108 -10
      vertex 53.5556 107.831 -10
    endloop
  endfacet
  facet normal 0 0 -1
    outer loop
      vertex 53 -108 -10
      vertex 53.4714 -107.882 -10
      vertex 53.4276 -107.904 -10
    endloop
  endfacet
  facet normal 0 0 -1
    outer loop
      vertex 53.5556 107.831 -10
      vertex 53 108 -10
      vertex 53.5141 107.858 -10
    endloop
  endfacet
  facet normal 0 0 -1
    outer loop
      vertex 53 -108 -10
      vertex 53.4276 -107.904 -10
      vertex 53.3827 -107.924 -10
    endloop
  endfacet
  facet normal 0 0 -1
    outer loop
      vertex 53.5141 107.858 -10
      vertex 53 108 -10
      vertex 53.4714 107.882 -10
    endloop
  endfacet
  facet normal 0 0 -1
    outer loop
      vertex 53 -108 -10
      vertex 53.3827 -107.924 -10
      vertex 53.3369 -107.942 -10
    endloop
  endfacet
  facet normal 0 0 -1
    outer loop
      vertex 53.4714 107.882 -10
      vertex 53 108 -10
      vertex 53.4276 107.904 -10
    endloop
  endfacet
  facet normal 0 0 -1
    outer loop
      vertex 53 -108 -10
      vertex 53.3369 -107.942 -10
      vertex 53.2903 -107.957 -10
    endloop
  endfacet
  facet normal 0 0 -1
    outer loop
      vertex 53.4276 107.904 -10
      vertex 53 108 -10
      vertex 53.3827 107.924 -10
    endloop
  endfacet
  facet normal 0 0 -1
    outer loop
      vertex 53 -108 -10
      vertex 53.2903 -107.957 -10
      vertex 53.243 -107.97 -10
    endloop
  endfacet
  facet normal 0 0 -1
    outer loop
      vertex 53.3827 107.924 -10
      vertex 53 108 -10
      vertex 53.3369 107.942 -10
    endloop
  endfacet
  facet normal 0 0 -1
    outer loop
      vertex 53 -108 -10
      vertex 53.243 -107.97 -10
      vertex 53.1951 -107.981 -10
    endloop
  endfacet
  facet normal 0 0 -1
    outer loop
      vertex 53.3369 107.942 -10
      vertex 53 108 -10
      vertex 53.2903 107.957 -10
    endloop
  endfacet
  facet normal 0 0 -1
    outer loop
      vertex 53 -108 -10
      vertex 53.1951 -107.981 -10
      vertex 53.1467 -107.989 -10
    endloop
  endfacet
  facet normal 0 0 -1
    outer loop
      vertex 53.2903 107.957 -10
      vertex 53 108 -10
      vertex 53.243 107.97 -10
    endloop
  endfacet
  facet normal 0 0 -1
    outer loop
      vertex 53 -108 -10
      vertex 53.1467 -107.989 -10
      vertex 53.098 -107.995 -10
    endloop
  endfacet
  facet normal 0 0 -1
    outer loop
      vertex 53.243 107.97 -10
      vertex 53 108 -10
      vertex 53.1951 107.981 -10
    endloop
  endfacet
  facet normal 0 0 -1
    outer loop
      vertex 53 -108 -10
      vertex 53.098 -107.995 -10
      vertex 53.0491 -107.999 -10
    endloop
  endfacet
  facet normal 0 0 -1
    outer loop
      vertex 53.1951 107.981 -10
      vertex 53 108 -10
      vertex 53.1467 107.989 -10
    endloop
  endfacet
  facet normal 0 0 -1
    outer loop
      vertex 53.1467 107.989 -10
      vertex 53 108 -10
      vertex 53.098 107.995 -10
    endloop
  endfacet
  facet normal 0 0 -1
    outer loop
      vertex 53.098 107.995 -10
      vertex 53 108 -10
      vertex 53.0491 107.999 -10
    endloop
  endfacet
  facet normal 0 0 -1
    outer loop
      vertex -54 -107 -10
      vertex 53 -108 -10
      vertex -53 -108 -10
    endloop
  endfacet
  facet normal 0 0 -1
    outer loop
      vertex 53.8577 107.514 -10
      vertex 53 108 -10
      vertex 53.8315 107.556 -10
    endloop
  endfacet
  facet normal 0 0 -1
    outer loop
      vertex -54 -107 -10
      vertex -53 -108 -10
      vertex -53.0491 -107.999 -10
    endloop
  endfacet
  facet normal 0 0 -1
    outer loop
      vertex 53.8315 107.556 -10
      vertex 53 108 -10
      vertex 53.8032 107.596 -10
    endloop
  endfacet
  facet normal 0 0 -1
    outer loop
      vertex -54 -107 -10
      vertex -53.0491 -107.999 -10
      vertex -53.098 -107.995 -10
    endloop
  endfacet
  facet normal -0 0 -1
    outer loop
      vertex 53 108 -10
      vertex -54 107 -10
      vertex -53 108 -10
    endloop
  endfacet
  facet normal 0 0 -1
    outer loop
      vertex -54 -107 -10
      vertex -53.098 -107.995 -10
      vertex -53.1467 -107.989 -10
    endloop
  endfacet
  facet normal 0 0 -1
    outer loop
      vertex -53 108 -10
      vertex -54 107 -10
      vertex -53.0491 107.999 -10
    endloop
  endfacet
  facet normal 0 0 -1
    outer loop
      vertex -54 -107 -10
      vertex -53.1467 -107.989 -10
      vertex -53.1951 -107.981 -10
    endloop
  endfacet
  facet normal 0 0 -1
    outer loop
      vertex -53.0491 107.999 -10
      vertex -54 107 -10
      vertex -53.098 107.995 -10
    endloop
  endfacet
  facet normal 0 0 -1
    outer loop
      vertex -54 -107 -10
      vertex -53.1951 -107.981 -10
      vertex -53.243 -107.97 -10
    endloop
  endfacet
  facet normal 0 0 -1
    outer loop
      vertex -53.098 107.995 -10
      vertex -54 107 -10
      vertex -53.1467 107.989 -10
    endloop
  endfacet
  facet normal 0 0 -1
    outer loop
      vertex -54 -107 -10
      vertex -53.243 -107.97 -10
      vertex -53.2903 -107.957 -10
    endloop
  endfacet
  facet normal 0 0 -1
    outer loop
      vertex -53.1467 107.989 -10
      vertex -54 107 -10
      vertex -53.1951 107.981 -10
    endloop
  endfacet
  facet normal 0 0 -1
    outer loop
      vertex -54 -107 -10
      vertex -53.2903 -107.957 -10
      vertex -53.3369 -107.942 -10
    endloop
  endfacet
  facet normal 0 0 -1
    outer loop
      vertex -53.1951 107.981 -10
      vertex -54 107 -10
      vertex -53.243 107.97 -10
    endloop
  endfacet
  facet normal 0 0 -1
    outer loop
      vertex -54 -107 -10
      vertex -53.3369 -107.942 -10
      vertex -53.3827 -107.924 -10
    endloop
  endfacet
  facet normal 0 0 -1
    outer loop
      vertex -53.243 107.97 -10
      vertex -54 107 -10
      vertex -53.2903 107.957 -10
    endloop
  endfacet
  facet normal 0 0 -1
    outer loop
      vertex -54 -107 -10
      vertex -53.3827 -107.924 -10
      vertex -53.4276 -107.904 -10
    endloop
  endfacet
  facet normal 0 0 -1
    outer loop
      vertex -53.2903 107.957 -10
      vertex -54 107 -10
      vertex -53.3369 107.942 -10
    endloop
  endfacet
  facet normal 0 0 -1
    outer loop
      vertex -54 -107 -10
      vertex -53.4276 -107.904 -10
      vertex -53.4714 -107.882 -10
    endloop
  endfacet
  facet normal 0 0 -1
    outer loop
      vertex -53.3369 107.942 -10
      vertex -54 107 -10
      vertex -53.3827 107.924 -10
    endloop
  endfacet
  facet normal 0 0 -1
    outer loop
      vertex -54 -107 -10
      vertex -53.4714 -107.882 -10
      vertex -53.5141 -107.858 -10
    endloop
  endfacet
  facet normal 0 0 -1
    outer loop
      vertex -53.3827 107.924 -10
      vertex -54 107 -10
      vertex -53.4276 107.904 -10
    endloop
  endfacet
  facet normal 0 0 -1
    outer loop
      vertex -54 -107 -10
      vertex -53.5141 -107.858 -10
      vertex -53.5556 -107.831 -10
    endloop
  endfacet
  facet normal 0 0 -1
    outer loop
      vertex -53.4276 107.904 -10
      vertex -54 107 -10
      vertex -53.4714 107.882 -10
    endloop
  endfacet
  facet normal 0 0 -1
    outer loop
      vertex -54 -107 -10
      vertex -53.5556 -107.831 -10
      vertex -53.5957 -107.803 -10
    endloop
  endfacet
  facet normal 0 0 -1
    outer loop
      vertex -53.4714 107.882 -10
      vertex -54 107 -10
      vertex -53.5141 107.858 -10
    endloop
  endfacet
  facet normal 0 0 -1
    outer loop
      vertex -54 -107 -10
      vertex -53.5957 -107.803 -10
      vertex -53.6344 -107.773 -10
    endloop
  endfacet
  facet normal 0 0 -1
    outer loop
      vertex -53.5141 107.858 -10
      vertex -54 107 -10
      vertex -53.5556 107.831 -10
    endloop
  endfacet
  facet normal 0 0 -1
    outer loop
      vertex -54 -107 -10
      vertex -53.6344 -107.773 -10
      vertex -53.6716 -107.741 -10
    endloop
  endfacet
  facet normal 0 0 -1
    outer loop
      vertex -53.5556 107.831 -10
      vertex -54 107 -10
      vertex -53.5957 107.803 -10
    endloop
  endfacet
  facet normal 0 0 -1
    outer loop
      vertex -54 -107 -10
      vertex -53.6716 -107.741 -10
      vertex -53.7071 -107.707 -10
    endloop
  endfacet
  facet normal 0 0 -1
    outer loop
      vertex -53.5957 107.803 -10
      vertex -54 107 -10
      vertex -53.6344 107.773 -10
    endloop
  endfacet
  facet normal 0 0 -1
    outer loop
      vertex -54 -107 -10
      vertex -53.7071 -107.707 -10
      vertex -53.741 -107.672 -10
    endloop
  endfacet
  facet normal 0 0 -1
    outer loop
      vertex -53.6344 107.773 -10
      vertex -54 107 -10
      vertex -53.6716 107.741 -10
    endloop
  endfacet
  facet normal 0 0 -1
    outer loop
      vertex -54 -107 -10
      vertex -53.741 -107.672 -10
      vertex -53.773 -107.634 -10
    endloop
  endfacet
  facet normal 0 0 -1
    outer loop
      vertex -53.6716 107.741 -10
      vertex -54 107 -10
      vertex -53.7071 107.707 -10
    endloop
  endfacet
  facet normal 0 0 -1
    outer loop
      vertex -54 -107 -10
      vertex -53.773 -107.634 -10
      vertex -53.8032 -107.596 -10
    endloop
  endfacet
  facet normal 0 0 -1
    outer loop
      vertex -53.7071 107.707 -10
      vertex -54 107 -10
      vertex -53.741 107.672 -10
    endloop
  endfacet
  facet normal 0 0 -1
    outer loop
      vertex -54 -107 -10
      vertex -53.8032 -107.596 -10
      vertex -53.8315 -107.556 -10
    endloop
  endfacet
  facet normal 0 0 -1
    outer loop
      vertex -53.741 107.672 -10
      vertex -54 107 -10
      vertex -53.773 107.634 -10
    endloop
  endfacet
  facet normal 0 0 -1
    outer loop
      vertex -54 -107 -10
      vertex -53.8315 -107.556 -10
      vertex -53.8577 -107.514 -10
    endloop
  endfacet
  facet normal 0 0 -1
    outer loop
      vertex -53.773 107.634 -10
      vertex -54 107 -10
      vertex -53.8032 107.596 -10
    endloop
  endfacet
  facet normal 0 0 -1
    outer loop
      vertex -54 -107 -10
      vertex -53.8577 -107.514 -10
      vertex -53.8819 -107.471 -10
    endloop
  endfacet
  facet normal 0 0 -1
    outer loop
      vertex -53.8032 107.596 -10
      vertex -54 107 -10
      vertex -53.8315 107.556 -10
    endloop
  endfacet
  facet normal 0 0 -1
    outer loop
      vertex -54 -107 -10
      vertex -53.8819 -107.471 -10
      vertex -53.904 -107.428 -10
    endloop
  endfacet
  facet normal 0 0 -1
    outer loop
      vertex -53.8315 107.556 -10
      vertex -54 107 -10
      vertex -53.8577 107.514 -10
    endloop
  endfacet
  facet normal 0 0 -1
    outer loop
      vertex -54 -107 -10
      vertex -53.904 -107.428 -10
      vertex -53.9239 -107.383 -10
    endloop
  endfacet
  facet normal 0 0 -1
    outer loop
      vertex -53.8577 107.514 -10
      vertex -54 107 -10
      vertex -53.8819 107.471 -10
    endloop
  endfacet
  facet normal 0 0 -1
    outer loop
      vertex -54 -107 -10
      vertex -53.9239 -107.383 -10
      vertex -53.9415 -107.337 -10
    endloop
  endfacet
  facet normal 0 0 -1
    outer loop
      vertex -53.8819 107.471 -10
      vertex -54 107 -10
      vertex -53.904 107.428 -10
    endloop
  endfacet
  facet normal 0 0 -1
    outer loop
      vertex -54 -107 -10
      vertex -53.9415 -107.337 -10
      vertex -53.9569 -107.29 -10
    endloop
  endfacet
  facet normal 0 0 -1
    outer loop
      vertex -53.904 107.428 -10
      vertex -54 107 -10
      vertex -53.9239 107.383 -10
    endloop
  endfacet
  facet normal 0 0 -1
    outer loop
      vertex -54 -107 -10
      vertex -53.9569 -107.29 -10
      vertex -53.97 -107.243 -10
    endloop
  endfacet
  facet normal 0 0 -1
    outer loop
      vertex -53.9239 107.383 -10
      vertex -54 107 -10
      vertex -53.9415 107.337 -10
    endloop
  endfacet
  facet normal 0 0 -1
    outer loop
      vertex -54 -107 -10
      vertex -53.97 -107.243 -10
      vertex -53.9808 -107.195 -10
    endloop
  endfacet
  facet normal 0 0 -1
    outer loop
      vertex -53.9415 107.337 -10
      vertex -54 107 -10
      vertex -53.9569 107.29 -10
    endloop
  endfacet
  facet normal 0 0 -1
    outer loop
      vertex -54 -107 -10
      vertex -53.9808 -107.195 -10
      vertex -53.9892 -107.147 -10
    endloop
  endfacet
  facet normal 0 0 -1
    outer loop
      vertex -53.9569 107.29 -10
      vertex -54 107 -10
      vertex -53.97 107.243 -10
    endloop
  endfacet
  facet normal 0 0 -1
    outer loop
      vertex -54 -107 -10
      vertex -53.9892 -107.147 -10
      vertex -53.9952 -107.098 -10
    endloop
  endfacet
  facet normal 0 0 -1
    outer loop
      vertex -53.97 107.243 -10
      vertex -54 107 -10
      vertex -53.9808 107.195 -10
    endloop
  endfacet
  facet normal 0 0 -1
    outer loop
      vertex -54 -107 -10
      vertex -53.9952 -107.098 -10
      vertex -53.9988 -107.049 -10
    endloop
  endfacet
  facet normal 0 0 -1
    outer loop
      vertex -53.9808 107.195 -10
      vertex -54 107 -10
      vertex -53.9892 107.147 -10
    endloop
  endfacet
  facet normal 0 0 -1
    outer loop
      vertex -53.9892 107.147 -10
      vertex -54 107 -10
      vertex -53.9952 107.098 -10
    endloop
  endfacet
  facet normal 0 0 -1
    outer loop
      vertex -53.9952 107.098 -10
      vertex -54 107 -10
      vertex -53.9988 107.049 -10
    endloop
  endfacet
  facet normal -0.997312 -0.0732719 0
    outer loop
      vertex -53.9952 -107.098 -10
      vertex -53.9988 -107.049 10
      vertex -53.9988 -107.049 -10
    endloop
  endfacet
  facet normal -0.997312 -0.0732719 0
    outer loop
      vertex -53.9988 -107.049 10
      vertex -53.9952 -107.098 -10
      vertex -53.9952 -107.098 10
    endloop
  endfacet
  facet normal -0.97561 -0.219512 0
    outer loop
      vertex -53.97 -107.243 -10
      vertex -53.9808 -107.195 10
      vertex -53.9808 -107.195 -10
    endloop
  endfacet
  facet normal -0.97561 -0.219512 0
    outer loop
      vertex -53.9808 -107.195 10
      vertex -53.97 -107.243 -10
      vertex -53.97 -107.243 10
    endloop
  endfacet
  facet normal 0.612667 -0.790341 0
    outer loop
      vertex 53.5957 -107.803 -10
      vertex 53.6344 -107.773 10
      vertex 53.5957 -107.803 10
    endloop
  endfacet
  facet normal 0.612667 -0.790341 0
    outer loop
      vertex 53.6344 -107.773 10
      vertex 53.5957 -107.803 -10
      vertex 53.6344 -107.773 -10
    endloop
  endfacet
  facet normal 0.764911 -0.644136 0
    outer loop
      vertex 53.741 -107.672 10
      vertex 53.773 -107.634 -10
      vertex 53.773 -107.634 10
    endloop
  endfacet
  facet normal 0.764911 -0.644136 0
    outer loop
      vertex 53.773 -107.634 -10
      vertex 53.741 -107.672 10
      vertex 53.741 -107.672 -10
    endloop
  endfacet
  facet normal 0.48997 -0.871739 0
    outer loop
      vertex 53.4714 -107.882 -10
      vertex 53.5141 -107.858 10
      vertex 53.4714 -107.882 10
    endloop
  endfacet
  facet normal 0.48997 -0.871739 0
    outer loop
      vertex 53.5141 -107.858 10
      vertex 53.4714 -107.882 -10
      vertex 53.5141 -107.858 -10
    endloop
  endfacet
  facet normal 0.545343 -0.838213 0
    outer loop
      vertex 53.5141 -107.858 -10
      vertex 53.5556 -107.831 10
      vertex 53.5141 -107.858 10
    endloop
  endfacet
  facet normal 0.545343 -0.838213 0
    outer loop
      vertex 53.5556 -107.831 10
      vertex 53.5141 -107.858 -10
      vertex 53.5556 -107.831 -10
    endloop
  endfacet
  facet normal 0.406893 -0.913476 0
    outer loop
      vertex 53.3827 -107.924 -10
      vertex 53.4276 -107.904 10
      vertex 53.3827 -107.924 10
    endloop
  endfacet
  facet normal 0.406893 -0.913476 0
    outer loop
      vertex 53.4276 -107.904 10
      vertex 53.3827 -107.924 -10
      vertex 53.4276 -107.904 -10
    endloop
  endfacet
  facet normal 0.223819 -0.974631 0
    outer loop
      vertex 53.1951 -107.981 -10
      vertex 53.243 -107.97 10
      vertex 53.1951 -107.981 10
    endloop
  endfacet
  facet normal 0.223819 -0.974631 0
    outer loop
      vertex 53.243 -107.97 10
      vertex 53.1951 -107.981 -10
      vertex 53.243 -107.97 -10
    endloop
  endfacet
  facet normal 0.163077 -0.986613 0
    outer loop
      vertex 53.1467 -107.989 -10
      vertex 53.1951 -107.981 10
      vertex 53.1467 -107.989 10
    endloop
  endfacet
  facet normal 0.163077 -0.986613 0
    outer loop
      vertex 53.1951 -107.981 10
      vertex 53.1467 -107.989 -10
      vertex 53.1951 -107.981 -10
    endloop
  endfacet
  facet normal 0.0815273 -0.996671 0
    outer loop
      vertex 53.0491 -107.999 -10
      vertex 53.098 -107.995 10
      vertex 53.0491 -107.999 10
    endloop
  endfacet
  facet normal 0.0815273 -0.996671 0
    outer loop
      vertex 53.098 -107.995 10
      vertex 53.0491 -107.999 -10
      vertex 53.098 -107.995 -10
    endloop
  endfacet
  facet normal 0.0203624 -0.999793 0
    outer loop
      vertex 53 -108 -10
      vertex 53.0491 -107.999 10
      vertex 53 -108 10
    endloop
  endfacet
  facet normal 0.0203624 -0.999793 0
    outer loop
      vertex 53.0491 -107.999 10
      vertex 53 -108 -10
      vertex 53.0491 -107.999 -10
    endloop
  endfacet
  facet normal 0.997312 0.0732719 0
    outer loop
      vertex 53.9988 107.049 10
      vertex 53.9952 107.098 -10
      vertex 53.9952 107.098 10
    endloop
  endfacet
  facet normal 0.997312 0.0732719 0
    outer loop
      vertex 53.9952 107.098 -10
      vertex 53.9988 107.049 10
      vertex 53.9988 107.049 -10
    endloop
  endfacet
  facet normal 0.9997 0.0244825 0
    outer loop
      vertex 54 107 10
      vertex 53.9988 107.049 -10
      vertex 53.9988 107.049 10
    endloop
  endfacet
  facet normal 0.9997 0.0244825 0
    outer loop
      vertex 53.9988 107.049 -10
      vertex 54 107 10
      vertex 54 107 -10
    endloop
  endfacet
  facet normal 0.950288 0.311371 0
    outer loop
      vertex 53.9569 107.29 10
      vertex 53.9415 107.337 -10
      vertex 53.9415 107.337 10
    endloop
  endfacet
  facet normal 0.950288 0.311371 0
    outer loop
      vertex 53.9415 107.337 -10
      vertex 53.9569 107.29 10
      vertex 53.9569 107.29 -10
    endloop
  endfacet
  facet normal 0.914564 0.404441 0
    outer loop
      vertex 53.9239 107.383 10
      vertex 53.904 107.428 -10
      vertex 53.904 107.428 10
    endloop
  endfacet
  facet normal 0.914564 0.404441 0
    outer loop
      vertex 53.904 107.428 -10
      vertex 53.9239 107.383 10
      vertex 53.9239 107.383 -10
    endloop
  endfacet
  facet normal 0.889408 0.457114 0
    outer loop
      vertex 53.904 107.428 10
      vertex 53.8819 107.471 -10
      vertex 53.8819 107.471 10
    endloop
  endfacet
  facet normal 0.889408 0.457114 0
    outer loop
      vertex 53.8819 107.471 -10
      vertex 53.904 107.428 10
      vertex 53.904 107.428 -10
    endloop
  endfacet
  facet normal 0.652133 0.758105 -0
    outer loop
      vertex 53.6716 107.741 -10
      vertex 53.6344 107.773 10
      vertex 53.6716 107.741 10
    endloop
  endfacet
  facet normal 0.652133 0.758105 0
    outer loop
      vertex 53.6344 107.773 10
      vertex 53.6716 107.741 -10
      vertex 53.6344 107.773 -10
    endloop
  endfacet
  facet normal 0.848452 0.529272 0
    outer loop
      vertex 53.8577 107.514 10
      vertex 53.8315 107.556 -10
      vertex 53.8315 107.556 10
    endloop
  endfacet
  facet normal 0.848452 0.529272 0
    outer loop
      vertex 53.8315 107.556 -10
      vertex 53.8577 107.514 10
      vertex 53.8577 107.514 -10
    endloop
  endfacet
  facet normal 0.572501 0.819904 -0
    outer loop
      vertex 53.5957 107.803 -10
      vertex 53.5556 107.831 10
      vertex 53.5957 107.803 10
    endloop
  endfacet
  facet normal 0.572501 0.819904 0
    outer loop
      vertex 53.5556 107.831 10
      vertex 53.5957 107.803 -10
      vertex 53.5556 107.831 -10
    endloop
  endfacet
  facet normal 0.612667 0.790341 -0
    outer loop
      vertex 53.6344 107.773 -10
      vertex 53.5957 107.803 10
      vertex 53.6344 107.773 10
    endloop
  endfacet
  facet normal 0.612667 0.790341 0
    outer loop
      vertex 53.5957 107.803 10
      vertex 53.6344 107.773 -10
      vertex 53.5957 107.803 -10
    endloop
  endfacet
  facet normal 0.406893 0.913476 -0
    outer loop
      vertex 53.4276 107.904 -10
      vertex 53.3827 107.924 10
      vertex 53.4276 107.904 10
    endloop
  endfacet
  facet normal 0.406893 0.913476 0
    outer loop
      vertex 53.3827 107.924 10
      vertex 53.4276 107.904 -10
      vertex 53.3827 107.924 -10
    endloop
  endfacet
  facet normal -0.265014 0.964244 0
    outer loop
      vertex -53.243 107.97 -10
      vertex -53.2903 107.957 10
      vertex -53.243 107.97 10
    endloop
  endfacet
  facet normal -0.265014 0.964244 0
    outer loop
      vertex -53.2903 107.957 10
      vertex -53.243 107.97 -10
      vertex -53.2903 107.957 -10
    endloop
  endfacet
  facet normal -0.691684 0.7222 0
    outer loop
      vertex -53.6716 107.741 -10
      vertex -53.7071 107.707 10
      vertex -53.6716 107.741 10
    endloop
  endfacet
  facet normal -0.691684 0.7222 0
    outer loop
      vertex -53.7071 107.707 10
      vertex -53.6716 107.741 -10
      vertex -53.7071 107.707 -10
    endloop
  endfacet
  facet normal -0.764911 0.644136 0
    outer loop
      vertex -53.773 107.634 -10
      vertex -53.741 107.672 10
      vertex -53.741 107.672 -10
    endloop
  endfacet
  facet normal -0.764911 0.644136 0
    outer loop
      vertex -53.741 107.672 10
      vertex -53.773 107.634 -10
      vertex -53.773 107.634 10
    endloop
  endfacet
  facet normal 0.97561 0.219512 0
    outer loop
      vertex 53.9808 107.195 10
      vertex 53.97 107.243 -10
      vertex 53.97 107.243 10
    endloop
  endfacet
  facet normal 0.97561 0.219512 0
    outer loop
      vertex 53.97 107.243 -10
      vertex 53.9808 107.195 10
      vertex 53.9808 107.195 -10
    endloop
  endfacet
  facet normal 0.98503 0.17238 0
    outer loop
      vertex 53.9892 107.147 10
      vertex 53.9808 107.195 -10
      vertex 53.9808 107.195 10
    endloop
  endfacet
  facet normal 0.98503 0.17238 0
    outer loop
      vertex 53.9808 107.195 -10
      vertex 53.9892 107.147 10
      vertex 53.9892 107.147 -10
    endloop
  endfacet
  facet normal 0.933972 0.357346 0
    outer loop
      vertex 53.9415 107.337 10
      vertex 53.9239 107.383 -10
      vertex 53.9239 107.383 10
    endloop
  endfacet
  facet normal 0.933972 0.357346 0
    outer loop
      vertex 53.9239 107.383 -10
      vertex 53.9415 107.337 10
      vertex 53.9415 107.337 -10
    endloop
  endfacet
  facet normal 0.718304 0.695729 0
    outer loop
      vertex 53.741 107.672 10
      vertex 53.7071 107.707 -10
      vertex 53.7071 107.707 10
    endloop
  endfacet
  facet normal 0.718304 0.695729 0
    outer loop
      vertex 53.7071 107.707 -10
      vertex 53.741 107.672 10
      vertex 53.741 107.672 -10
    endloop
  endfacet
  facet normal 0.871467 0.490454 0
    outer loop
      vertex 53.8819 107.471 10
      vertex 53.8577 107.514 -10
      vertex 53.8577 107.514 10
    endloop
  endfacet
  facet normal 0.871467 0.490454 0
    outer loop
      vertex 53.8577 107.514 -10
      vertex 53.8819 107.471 10
      vertex 53.8819 107.471 -10
    endloop
  endfacet
  facet normal 0.122279 0.992496 -0
    outer loop
      vertex 53.1467 107.989 -10
      vertex 53.098 107.995 10
      vertex 53.1467 107.989 10
    endloop
  endfacet
  facet normal 0.122279 0.992496 0
    outer loop
      vertex 53.098 107.995 10
      vertex 53.1467 107.989 -10
      vertex 53.098 107.995 -10
    endloop
  endfacet
  facet normal 0.0203624 0.999793 -0
    outer loop
      vertex 53.0491 107.999 -10
      vertex 53 108 10
      vertex 53.0491 107.999 10
    endloop
  endfacet
  facet normal 0.0203624 0.999793 0
    outer loop
      vertex 53 108 10
      vertex 53.0491 107.999 -10
      vertex 53 108 -10
    endloop
  endfacet
  facet normal 0.306406 0.951901 -0
    outer loop
      vertex 53.3369 107.942 -10
      vertex 53.2903 107.957 10
      vertex 53.3369 107.942 10
    endloop
  endfacet
  facet normal 0.306406 0.951901 0
    outer loop
      vertex 53.2903 107.957 10
      vertex 53.3369 107.942 -10
      vertex 53.2903 107.957 -10
    endloop
  endfacet
  facet normal -0.816345 0.577564 0
    outer loop
      vertex -53.8315 107.556 -10
      vertex -53.8032 107.596 10
      vertex -53.8032 107.596 -10
    endloop
  endfacet
  facet normal -0.816345 0.577564 0
    outer loop
      vertex -53.8032 107.596 10
      vertex -53.8315 107.556 -10
      vertex -53.8315 107.556 10
    endloop
  endfacet
  facet normal -0.782875 0.622179 0
    outer loop
      vertex -53.8032 107.596 -10
      vertex -53.773 107.634 10
      vertex -53.773 107.634 -10
    endloop
  endfacet
  facet normal -0.782875 0.622179 0
    outer loop
      vertex -53.773 107.634 10
      vertex -53.8032 107.596 -10
      vertex -53.8032 107.596 10
    endloop
  endfacet
  facet normal -0.122279 0.992496 0
    outer loop
      vertex -53.098 107.995 -10
      vertex -53.1467 107.989 10
      vertex -53.098 107.995 10
    endloop
  endfacet
  facet normal -0.122279 0.992496 0
    outer loop
      vertex -53.1467 107.989 10
      vertex -53.098 107.995 -10
      vertex -53.1467 107.989 -10
    endloop
  endfacet
  facet normal -0.448845 0.89361 0
    outer loop
      vertex -53.4276 107.904 -10
      vertex -53.4714 107.882 10
      vertex -53.4276 107.904 10
    endloop
  endfacet
  facet normal -0.448845 0.89361 0
    outer loop
      vertex -53.4714 107.882 10
      vertex -53.4276 107.904 -10
      vertex -53.4714 107.882 -10
    endloop
  endfacet
  facet normal -0.406893 0.913476 0
    outer loop
      vertex -53.3827 107.924 -10
      vertex -53.4276 107.904 10
      vertex -53.3827 107.924 10
    endloop
  endfacet
  facet normal -0.406893 0.913476 0
    outer loop
      vertex -53.4276 107.904 10
      vertex -53.3827 107.924 -10
      vertex -53.4276 107.904 -10
    endloop
  endfacet
  facet normal -0.306406 0.951901 0
    outer loop
      vertex -53.2903 107.957 -10
      vertex -53.3369 107.942 10
      vertex -53.2903 107.957 10
    endloop
  endfacet
  facet normal -0.306406 0.951901 0
    outer loop
      vertex -53.3369 107.942 10
      vertex -53.2903 107.957 -10
      vertex -53.3369 107.942 -10
    endloop
  endfacet
  facet normal -0.612667 0.790341 0
    outer loop
      vertex -53.5957 107.803 -10
      vertex -53.6344 107.773 10
      vertex -53.5957 107.803 10
    endloop
  endfacet
  facet normal -0.612667 0.790341 0
    outer loop
      vertex -53.6344 107.773 10
      vertex -53.5957 107.803 -10
      vertex -53.6344 107.773 -10
    endloop
  endfacet
  facet normal -0.572501 0.819904 0
    outer loop
      vertex -53.5556 107.831 -10
      vertex -53.5957 107.803 10
      vertex -53.5556 107.831 10
    endloop
  endfacet
  facet normal -0.572501 0.819904 0
    outer loop
      vertex -53.5957 107.803 10
      vertex -53.5556 107.831 -10
      vertex -53.5957 107.803 -10
    endloop
  endfacet
  facet normal -0.718304 0.695729 0
    outer loop
      vertex -53.741 107.672 -10
      vertex -53.7071 107.707 10
      vertex -53.7071 107.707 -10
    endloop
  endfacet
  facet normal -0.718304 0.695729 0
    outer loop
      vertex -53.7071 107.707 10
      vertex -53.741 107.672 -10
      vertex -53.741 107.672 10
    endloop
  endfacet
  facet normal 0.782875 0.622179 0
    outer loop
      vertex 53.8032 107.596 10
      vertex 53.773 107.634 -10
      vertex 53.773 107.634 10
    endloop
  endfacet
  facet normal 0.782875 0.622179 0
    outer loop
      vertex 53.773 107.634 -10
      vertex 53.8032 107.596 10
      vertex 53.8032 107.596 -10
    endloop
  endfacet
  facet normal 0.816345 0.577564 0
    outer loop
      vertex 53.8315 107.556 10
      vertex 53.8032 107.596 -10
      vertex 53.8032 107.596 10
    endloop
  endfacet
  facet normal 0.816345 0.577564 0
    outer loop
      vertex 53.8032 107.596 -10
      vertex 53.8315 107.556 10
      vertex 53.8315 107.556 -10
    endloop
  endfacet
  facet normal 0.48997 0.871739 -0
    outer loop
      vertex 53.5141 107.858 -10
      vertex 53.4714 107.882 10
      vertex 53.5141 107.858 10
    endloop
  endfacet
  facet normal 0.48997 0.871739 0
    outer loop
      vertex 53.4714 107.882 10
      vertex 53.5141 107.858 -10
      vertex 53.4714 107.882 -10
    endloop
  endfacet
  facet normal 0.545343 0.838213 -0
    outer loop
      vertex 53.5556 107.831 -10
      vertex 53.5141 107.858 10
      vertex 53.5556 107.831 10
    endloop
  endfacet
  facet normal 0.545343 0.838213 0
    outer loop
      vertex 53.5141 107.858 10
      vertex 53.5556 107.831 -10
      vertex 53.5141 107.858 -10
    endloop
  endfacet
  facet normal 0.163077 0.986613 -0
    outer loop
      vertex 53.1951 107.981 -10
      vertex 53.1467 107.989 10
      vertex 53.1951 107.981 10
    endloop
  endfacet
  facet normal 0.163077 0.986613 0
    outer loop
      vertex 53.1467 107.989 10
      vertex 53.1951 107.981 -10
      vertex 53.1467 107.989 -10
    endloop
  endfacet
  facet normal 0.223819 0.974631 -0
    outer loop
      vertex 53.243 107.97 -10
      vertex 53.1951 107.981 10
      vertex 53.243 107.97 10
    endloop
  endfacet
  facet normal 0.223819 0.974631 0
    outer loop
      vertex 53.1951 107.981 10
      vertex 53.243 107.97 -10
      vertex 53.1951 107.981 -10
    endloop
  endfacet
  facet normal 0.0815273 0.996671 -0
    outer loop
      vertex 53.098 107.995 -10
      vertex 53.0491 107.999 10
      vertex 53.098 107.995 10
    endloop
  endfacet
  facet normal 0.0815273 0.996671 0
    outer loop
      vertex 53.0491 107.999 10
      vertex 53.098 107.995 -10
      vertex 53.0491 107.999 -10
    endloop
  endfacet
  facet normal -0.871467 0.490454 0
    outer loop
      vertex -53.8819 107.471 -10
      vertex -53.8577 107.514 10
      vertex -53.8577 107.514 -10
    endloop
  endfacet
  facet normal -0.871467 0.490454 0
    outer loop
      vertex -53.8577 107.514 10
      vertex -53.8819 107.471 -10
      vertex -53.8819 107.471 10
    endloop
  endfacet
  facet normal -0.848452 0.529272 0
    outer loop
      vertex -53.8577 107.514 -10
      vertex -53.8315 107.556 10
      vertex -53.8315 107.556 -10
    endloop
  endfacet
  facet normal -0.848452 0.529272 0
    outer loop
      vertex -53.8315 107.556 10
      vertex -53.8577 107.514 -10
      vertex -53.8577 107.514 10
    endloop
  endfacet
  facet normal -0.223819 0.974631 0
    outer loop
      vertex -53.1951 107.981 -10
      vertex -53.243 107.97 10
      vertex -53.1951 107.981 10
    endloop
  endfacet
  facet normal -0.223819 0.974631 0
    outer loop
      vertex -53.243 107.97 10
      vertex -53.1951 107.981 -10
      vertex -53.243 107.97 -10
    endloop
  endfacet
  facet normal -0.163077 0.986613 0
    outer loop
      vertex -53.1467 107.989 -10
      vertex -53.1951 107.981 10
      vertex -53.1467 107.989 10
    endloop
  endfacet
  facet normal -0.163077 0.986613 0
    outer loop
      vertex -53.1951 107.981 10
      vertex -53.1467 107.989 -10
      vertex -53.1951 107.981 -10
    endloop
  endfacet
  facet normal -0.0815273 0.996671 0
    outer loop
      vertex -53.0491 107.999 -10
      vertex -53.098 107.995 10
      vertex -53.0491 107.999 10
    endloop
  endfacet
  facet normal -0.0815273 0.996671 0
    outer loop
      vertex -53.098 107.995 10
      vertex -53.0491 107.999 -10
      vertex -53.098 107.995 -10
    endloop
  endfacet
  facet normal -0.0203624 0.999793 0
    outer loop
      vertex -53 108 -10
      vertex -53.0491 107.999 10
      vertex -53 108 10
    endloop
  endfacet
  facet normal -0.0203624 0.999793 0
    outer loop
      vertex -53.0491 107.999 10
      vertex -53 108 -10
      vertex -53.0491 107.999 -10
    endloop
  endfacet
  facet normal -0.48997 0.871739 0
    outer loop
      vertex -53.4714 107.882 -10
      vertex -53.5141 107.858 10
      vertex -53.4714 107.882 10
    endloop
  endfacet
  facet normal -0.48997 0.871739 0
    outer loop
      vertex -53.5141 107.858 10
      vertex -53.4714 107.882 -10
      vertex -53.5141 107.858 -10
    endloop
  endfacet
  facet normal -0.365778 0.930702 0
    outer loop
      vertex -53.3369 107.942 -10
      vertex -53.3827 107.924 10
      vertex -53.3369 107.942 10
    endloop
  endfacet
  facet normal -0.365778 0.930702 0
    outer loop
      vertex -53.3827 107.924 10
      vertex -53.3369 107.942 -10
      vertex -53.3827 107.924 -10
    endloop
  endfacet
  facet normal 1 -0 0
    outer loop
      vertex -52 -106 10
      vertex -52 106 -8
      vertex -52 106 10
    endloop
  endfacet
  facet normal 1 0 0
    outer loop
      vertex -52 106 -8
      vertex -52 -106 10
      vertex -52 -106 -8
    endloop
  endfacet
  facet normal -1 0 0
    outer loop
      vertex 52 -106 -8
      vertex 52 106 10
      vertex 52 106 -8
    endloop
  endfacet
  facet normal -1 -0 0
    outer loop
      vertex 52 106 10
      vertex 52 -106 -8
      vertex 52 -106 10
    endloop
  endfacet
  facet normal -0 0 1
    outer loop
      vertex -52 106 -8
      vertex 52 -106 -8
      vertex 52 106 -8
    endloop
  endfacet
  facet normal 0 0 1
    outer loop
      vertex 52 -106 -8
      vertex -52 106 -8
      vertex -52 -106 -8
    endloop
  endfacet
  facet normal 0 1 -0
    outer loop
      vertex 52 -106 -8
      vertex -52 -106 10
      vertex 52 -106 10
    endloop
  endfacet
  facet normal 0 1 0
    outer loop
      vertex -52 -106 10
      vertex 52 -106 -8
      vertex -52 -106 -8
    endloop
  endfacet
  facet normal 0 -1 0
    outer loop
      vertex -52 106 -8
      vertex 52 106 10
      vertex -52 106 10
    endloop
  endfacet
  facet normal 0 -1 -0
    outer loop
      vertex 52 106 10
      vertex -52 106 -8
      vertex 52 106 -8
    endloop
  endfacet
endsolid OpenSCAD_Model
