solid OpenSCAD_Model
  facet normal 0.998795 0.049075 0
    outer loop
      vertex 50 0 1
      vertex 49.7592 4.90086 -1
      vertex 49.7592 4.90086 1
    endloop
  endfacet
  facet normal 0.998795 0.049075 0
    outer loop
      vertex 49.7592 4.90086 -1
      vertex 50 0 1
      vertex 50 0 -1
    endloop
  endfacet
  facet normal 0.989179 0.146716 0
    outer loop
      vertex 49.7592 4.90086 1
      vertex 49.0393 9.75452 -1
      vertex 49.0393 9.75452 1
    endloop
  endfacet
  facet normal 0.989179 0.146716 0
    outer loop
      vertex 49.0393 9.75452 -1
      vertex 49.7592 4.90086 1
      vertex 49.7592 4.90086 -1
    endloop
  endfacet
  facet normal 0.970028 0.242992 0
    outer loop
      vertex 49.0393 9.75452 1
      vertex 47.847 14.5142 -1
      vertex 47.847 14.5142 1
    endloop
  endfacet
  facet normal 0.970028 0.242992 0
    outer loop
      vertex 47.847 14.5142 -1
      vertex 49.0393 9.75452 1
      vertex 49.0393 9.75452 -1
    endloop
  endfacet
  facet normal 0.941548 0.336879 0
    outer loop
      vertex 47.847 14.5142 1
      vertex 46.194 19.1342 -1
      vertex 46.194 19.1342 1
    endloop
  endfacet
  facet normal 0.941548 0.336879 0
    outer loop
      vertex 46.194 19.1342 -1
      vertex 47.847 14.5142 1
      vertex 47.847 14.5142 -1
    endloop
  endfacet
  facet normal 0.903988 0.427558 0
    outer loop
      vertex 46.194 19.1342 1
      vertex 44.0961 23.5698 -1
      vertex 44.0961 23.5698 1
    endloop
  endfacet
  facet normal 0.903988 0.427558 0
    outer loop
      vertex 44.0961 23.5698 -1
      vertex 46.194 19.1342 1
      vertex 46.194 19.1342 -1
    endloop
  endfacet
  facet normal 0.857728 0.514103 0
    outer loop
      vertex 44.0961 23.5698 1
      vertex 41.5735 27.7785 -1
      vertex 41.5735 27.7785 1
    endloop
  endfacet
  facet normal 0.857728 0.514103 0
    outer loop
      vertex 41.5735 27.7785 -1
      vertex 44.0961 23.5698 1
      vertex 44.0961 23.5698 -1
    endloop
  endfacet
  facet normal 0.803207 0.5957 0
    outer loop
      vertex 41.5735 27.7785 1
      vertex 38.6505 31.7197 -1
      vertex 38.6505 31.7197 1
    endloop
  endfacet
  facet normal 0.803207 0.5957 0
    outer loop
      vertex 38.6505 31.7197 -1
      vertex 41.5735 27.7785 1
      vertex 41.5735 27.7785 -1
    endloop
  endfacet
  facet normal 0.740943 0.671568 0
    outer loop
      vertex 38.6505 31.7197 1
      vertex 35.3553 35.3553 -1
      vertex 35.3553 35.3553 1
    endloop
  endfacet
  facet normal 0.740943 0.671568 0
    outer loop
      vertex 35.3553 35.3553 -1
      vertex 38.6505 31.7197 1
      vertex 38.6505 31.7197 -1
    endloop
  endfacet
  facet normal 0.671568 0.740943 -0
    outer loop
      vertex 35.3553 35.3553 -1
      vertex 31.7197 38.6505 1
      vertex 35.3553 35.3553 1
    endloop
  endfacet
  facet normal 0.671568 0.740943 0
    outer loop
      vertex 31.7197 38.6505 1
      vertex 35.3553 35.3553 -1
      vertex 31.7197 38.6505 -1
    endloop
  endfacet
  facet normal 0.5957 0.803207 -0
    outer loop
      vertex 31.7197 38.6505 -1
      vertex 27.7785 41.5735 1
      vertex 31.7197 38.6505 1
    endloop
  endfacet
  facet normal 0.5957 0.803207 0
    outer loop
      vertex 27.7785 41.5735 1
      vertex 31.7197 38.6505 -1
      vertex 27.7785 41.5735 -1
    endloop
  endfacet
  facet normal 0.514103 0.857728 -0
    outer loop
      vertex 27.7785 41.5735 -1
      vertex 23.5698 44.0961 1
      vertex 27.7785 41.5735 1
    endloop
  endfacet
  facet normal 0.514103 0.857728 0
    outer loop
      vertex 23.5698 44.0961 1
      vertex 27.7785 41.5735 -1
      vertex 23.5698 44.0961 -1
    endloop
  endfacet
  facet normal 0.427558 0.903988 -0
    outer loop
      vertex 23.5698 44.0961 -1
      vertex 19.1342 46.194 1
      vertex 23.5698 44.0961 1
    endloop
  endfacet
  facet normal 0.427558 0.903988 0
    outer loop
      vertex 19.1342 46.194 1
      vertex 23.5698 44.0961 -1
      vertex 19.1342 46.194 -1
    endloop
  endfacet
  facet normal 0.336879 0.941548 -0
    outer loop
      vertex 19.1342 46.194 -1
      vertex 14.5142 47.847 1
      vertex 19.1342 46.194 1
    endloop
  endfacet
  facet normal 0.336879 0.941548 0
    outer loop
      vertex 14.5142 47.847 1
      vertex 19.1342 46.194 -1
      vertex 14.5142 47.847 -1
    endloop
  endfacet
  facet normal 0.242992 0.970028 -0
    outer loop
      vertex 14.5142 47.847 -1
      vertex 9.75452 49.0393 1
      vertex 14.5142 47.847 1
    endloop
  endfacet
  facet normal 0.242992 0.970028 0
    outer loop
      vertex 9.75452 49.0393 1
      vertex 14.5142 47.847 -1
      vertex 9.75452 49.0393 -1
    endloop
  endfacet
  facet normal 0.146716 0.989179 -0
    outer loop
      vertex 9.75452 49.0393 -1
      vertex 4.90086 49.7592 1
      vertex 9.75452 49.0393 1
    endloop
  endfacet
  facet normal 0.146716 0.989179 0
    outer loop
      vertex 4.90086 49.7592 1
      vertex 9.75452 49.0393 -1
      vertex 4.90086 49.7592 -1
    endloop
  endfacet
  facet normal 0.049075 0.998795 -0
    outer loop
      vertex 4.90086 49.7592 -1
      vertex 0 50 1
      vertex 4.90086 49.7592 1
    endloop
  endfacet
  facet normal 0.049075 0.998795 0
    outer loop
      vertex 0 50 1
      vertex 4.90086 49.7592 -1
      vertex 0 50 -1
    endloop
  endfacet
  facet normal -0.049075 0.998795 0
    outer loop
      vertex 0 50 -1
      vertex -4.90086 49.7592 1
      vertex 0 50 1
    endloop
  endfacet
  facet normal -0.049075 0.998795 0
    outer loop
      vertex -4.90086 49.7592 1
      vertex 0 50 -1
      vertex -4.90086 49.7592 -1
    endloop
  endfacet
  facet normal -0.146716 0.989179 0
    outer loop
      vertex -4.90086 49.7592 -1
      vertex -9.75452 49.0393 1
      vertex -4.90086 49.7592 1
    endloop
  endfacet
  facet normal -0.146716 0.989179 0
    outer loop
      vertex -9.75452 49.0393 1
      vertex -4.90086 49.7592 -1
      vertex -9.75452 49.0393 -1
    endloop
  endfacet
  facet normal -0.242992 0.970028 0
    outer loop
      vertex -9.75452 49.0393 -1
      vertex -14.5142 47.847 1
      vertex -9.75452 49.0393 1
    endloop
  endfacet
  facet normal -0.242992 0.970028 0
    outer loop
      vertex -14.5142 47.847 1
      vertex -9.75452 49.0393 -1
      vertex -14.5142 47.847 -1
    endloop
  endfacet
  facet normal -0.336879 0.941548 0
    outer loop
      vertex -14.5142 47.847 -1
      vertex -19.1342 46.194 1
      vertex -14.5142 47.847 1
    endloop
  endfacet
  facet normal -0.336879 0.941548 0
    outer loop
      vertex -19.1342 46.194 1
      vertex -14.5142 47.847 -1
      vertex -19.1342 46.194 -1
    endloop
  endfacet
  facet normal -0.427558 0.903988 0
    outer loop
      vertex -19.1342 46.194 -1
      vertex -23.5698 44.0961 1
      vertex -19.1342 46.194 1
    endloop
  endfacet
  facet normal -0.427558 0.903988 0
    outer loop
      vertex -23.5698 44.0961 1
      vertex -19.1342 46.194 -1
      vertex -23.5698 44.0961 -1
    endloop
  endfacet
  facet normal -0.514103 0.857728 0
    outer loop
      vertex -23.5698 44.0961 -1
      vertex -27.7785 41.5735 1
      vertex -23.5698 44.0961 1
    endloop
  endfacet
  facet normal -0.514103 0.857728 0
    outer loop
      vertex -27.7785 41.5735 1
      vertex -23.5698 44.0961 -1
      vertex -27.7785 41.5735 -1
    endloop
  endfacet
  facet normal -0.5957 0.803207 0
    outer loop
      vertex -27.7785 41.5735 -1
      vertex -31.7197 38.6505 1
      vertex -27.7785 41.5735 1
    endloop
  endfacet
  facet normal -0.5957 0.803207 0
    outer loop
      vertex -31.7197 38.6505 1
      vertex -27.7785 41.5735 -1
      vertex -31.7197 38.6505 -1
    endloop
  endfacet
  facet normal -0.671568 0.740943 0
    outer loop
      vertex -31.7197 38.6505 -1
      vertex -35.3553 35.3553 1
      vertex -31.7197 38.6505 1
    endloop
  endfacet
  facet normal -0.671568 0.740943 0
    outer loop
      vertex -35.3553 35.3553 1
      vertex -31.7197 38.6505 -1
      vertex -35.3553 35.3553 -1
    endloop
  endfacet
  facet normal -0.740943 0.671568 0
    outer loop
      vertex -38.6505 31.7197 -1
      vertex -35.3553 35.3553 1
      vertex -35.3553 35.3553 -1
    endloop
  endfacet
  facet normal -0.740943 0.671568 0
    outer loop
      vertex -35.3553 35.3553 1
      vertex -38.6505 31.7197 -1
      vertex -38.6505 31.7197 1
    endloop
  endfacet
  facet normal -0.803207 0.5957 0
    outer loop
      vertex -41.5735 27.7785 -1
      vertex -38.6505 31.7197 1
      vertex -38.6505 31.7197 -1
    endloop
  endfacet
  facet normal -0.803207 0.5957 0
    outer loop
      vertex -38.6505 31.7197 1
      vertex -41.5735 27.7785 -1
      vertex -41.5735 27.7785 1
    endloop
  endfacet
  facet normal -0.857728 0.514103 0
    outer loop
      vertex -44.0961 23.5698 -1
      vertex -41.5735 27.7785 1
      vertex -41.5735 27.7785 -1
    endloop
  endfacet
  facet normal -0.857728 0.514103 0
    outer loop
      vertex -41.5735 27.7785 1
      vertex -44.0961 23.5698 -1
      vertex -44.0961 23.5698 1
    endloop
  endfacet
  facet normal -0.903988 0.427558 0
    outer loop
      vertex -46.194 19.1342 -1
      vertex -44.0961 23.5698 1
      vertex -44.0961 23.5698 -1
    endloop
  endfacet
  facet normal -0.903988 0.427558 0
    outer loop
      vertex -44.0961 23.5698 1
      vertex -46.194 19.1342 -1
      vertex -46.194 19.1342 1
    endloop
  endfacet
  facet normal -0.941548 0.336879 0
    outer loop
      vertex -47.847 14.5142 -1
      vertex -46.194 19.1342 1
      vertex -46.194 19.1342 -1
    endloop
  endfacet
  facet normal -0.941548 0.336879 0
    outer loop
      vertex -46.194 19.1342 1
      vertex -47.847 14.5142 -1
      vertex -47.847 14.5142 1
    endloop
  endfacet
  facet normal -0.970028 0.242992 0
    outer loop
      vertex -49.0393 9.75452 -1
      vertex -47.847 14.5142 1
      vertex -47.847 14.5142 -1
    endloop
  endfacet
  facet normal -0.970028 0.242992 0
    outer loop
      vertex -47.847 14.5142 1
      vertex -49.0393 9.75452 -1
      vertex -49.0393 9.75452 1
    endloop
  endfacet
  facet normal -0.989179 0.146716 0
    outer loop
      vertex -49.7592 4.90086 -1
      vertex -49.0393 9.75452 1
      vertex -49.0393 9.75452 -1
    endloop
  endfacet
  facet normal -0.989179 0.146716 0
    outer loop
      vertex -49.0393 9.75452 1
      vertex -49.7592 4.90086 -1
      vertex -49.7592 4.90086 1
    endloop
  endfacet
  facet normal -0.998795 0.049075 0
    outer loop
      vertex -50 -0 -1
      vertex -49.7592 4.90086 1
      vertex -49.7592 4.90086 -1
    endloop
  endfacet
  facet normal -0.998795 0.049075 0
    outer loop
      vertex -49.7592 4.90086 1
      vertex -50 -0 -1
      vertex -50 -0 1
    endloop
  endfacet
  facet normal -0.998795 -0.049075 0
    outer loop
      vertex -49.7592 -4.90086 -1
      vertex -50 -0 1
      vertex -50 -0 -1
    endloop
  endfacet
  facet normal -0.998795 -0.049075 0
    outer loop
      vertex -50 -0 1
      vertex -49.7592 -4.90086 -1
      vertex -49.7592 -4.90086 1
    endloop
  endfacet
  facet normal -0.989179 -0.146716 0
    outer loop
      vertex -49.0393 -9.75452 -1
      vertex -49.7592 -4.90086 1
      vertex -49.7592 -4.90086 -1
    endloop
  endfacet
  facet normal -0.989179 -0.146716 0
    outer loop
      vertex -49.7592 -4.90086 1
      vertex -49.0393 -9.75452 -1
      vertex -49.0393 -9.75452 1
    endloop
  endfacet
  facet normal -0.970028 -0.242992 0
    outer loop
      vertex -47.847 -14.5142 -1
      vertex -49.0393 -9.75452 1
      vertex -49.0393 -9.75452 -1
    endloop
  endfacet
  facet normal -0.970028 -0.242992 0
    outer loop
      vertex -49.0393 -9.75452 1
      vertex -47.847 -14.5142 -1
      vertex -47.847 -14.5142 1
    endloop
  endfacet
  facet normal -0.941548 -0.336879 0
    outer loop
      vertex -46.194 -19.1342 -1
      vertex -47.847 -14.5142 1
      vertex -47.847 -14.5142 -1
    endloop
  endfacet
  facet normal -0.941548 -0.336879 0
    outer loop
      vertex -47.847 -14.5142 1
      vertex -46.194 -19.1342 -1
      vertex -46.194 -19.1342 1
    endloop
  endfacet
  facet normal -0.903988 -0.427558 0
    outer loop
      vertex -44.0961 -23.5698 -1
      vertex -46.194 -19.1342 1
      vertex -46.194 -19.1342 -1
    endloop
  endfacet
  facet normal -0.903988 -0.427558 0
    outer loop
      vertex -46.194 -19.1342 1
      vertex -44.0961 -23.5698 -1
      vertex -44.0961 -23.5698 1
    endloop
  endfacet
  facet normal -0.857728 -0.514103 0
    outer loop
      vertex -41.5735 -27.7785 -1
      vertex -44.0961 -23.5698 1
      vertex -44.0961 -23.5698 -1
    endloop
  endfacet
  facet normal -0.857728 -0.514103 0
    outer loop
      vertex -44.0961 -23.5698 1
      vertex -41.5735 -27.7785 -1
      vertex -41.5735 -27.7785 1
    endloop
  endfacet
  facet normal -0.803207 -0.5957 0
    outer loop
      vertex -38.6505 -31.7197 -1
      vertex -41.5735 -27.7785 1
      vertex -41.5735 -27.7785 -1
    endloop
  endfacet
  facet normal -0.803207 -0.5957 0
    outer loop
      vertex -41.5735 -27.7785 1
      vertex -38.6505 -31.7197 -1
      vertex -38.6505 -31.7197 1
    endloop
  endfacet
  facet normal -0.740943 -0.671568 0
    outer loop
      vertex -35.3553 -35.3553 -1
      vertex -38.6505 -31.7197 1
      vertex -38.6505 -31.7197 -1
    endloop
  endfacet
  facet normal -0.740943 -0.671568 0
    outer loop
      vertex -38.6505 -31.7197 1
      vertex -35.3553 -35.3553 -1
      vertex -35.3553 -35.3553 1
    endloop
  endfacet
  facet normal -0.671568 -0.740943 0
    outer loop
      vertex -35.3553 -35.3553 -1
      vertex -31.7197 -38.6505 1
      vertex -35.3553 -35.3553 1
    endloop
  endfacet
  facet normal -0.671568 -0.740943 -0
    outer loop
      vertex -31.7197 -38.6505 1
      vertex -35.3553 -35.3553 -1
      vertex -31.7197 -38.6505 -1
    endloop
  endfacet
  facet normal -0.5957 -0.803207 0
    outer loop
      vertex -31.7197 -38.6505 -1
      vertex -27.7785 -41.5735 1
      vertex -31.7197 -38.6505 1
    endloop
  endfacet
  facet normal -0.5957 -0.803207 -0
    outer loop
      vertex -27.7785 -41.5735 1
      vertex -31.7197 -38.6505 -1
      vertex -27.7785 -41.5735 -1
    endloop
  endfacet
  facet normal -0.514103 -0.857728 0
    outer loop
      vertex -27.7785 -41.5735 -1
      vertex -23.5698 -44.0961 1
      vertex -27.7785 -41.5735 1
    endloop
  endfacet
  facet normal -0.514103 -0.857728 -0
    outer loop
      vertex -23.5698 -44.0961 1
      vertex -27.7785 -41.5735 -1
      vertex -23.5698 -44.0961 -1
    endloop
  endfacet
  facet normal -0.427558 -0.903988 0
    outer loop
      vertex -23.5698 -44.0961 -1
      vertex -19.1342 -46.194 1
      vertex -23.5698 -44.0961 1
    endloop
  endfacet
  facet normal -0.427558 -0.903988 -0
    outer loop
      vertex -19.1342 -46.194 1
      vertex -23.5698 -44.0961 -1
      vertex -19.1342 -46.194 -1
    endloop
  endfacet
  facet normal -0.336879 -0.941548 0
    outer loop
      vertex -19.1342 -46.194 -1
      vertex -14.5142 -47.847 1
      vertex -19.1342 -46.194 1
    endloop
  endfacet
  facet normal -0.336879 -0.941548 -0
    outer loop
      vertex -14.5142 -47.847 1
      vertex -19.1342 -46.194 -1
      vertex -14.5142 -47.847 -1
    endloop
  endfacet
  facet normal -0.242992 -0.970028 0
    outer loop
      vertex -14.5142 -47.847 -1
      vertex -9.75452 -49.0393 1
      vertex -14.5142 -47.847 1
    endloop
  endfacet
  facet normal -0.242992 -0.970028 -0
    outer loop
      vertex -9.75452 -49.0393 1
      vertex -14.5142 -47.847 -1
      vertex -9.75452 -49.0393 -1
    endloop
  endfacet
  facet normal -0.146716 -0.989179 0
    outer loop
      vertex -9.75452 -49.0393 -1
      vertex -4.90086 -49.7592 1
      vertex -9.75452 -49.0393 1
    endloop
  endfacet
  facet normal -0.146716 -0.989179 -0
    outer loop
      vertex -4.90086 -49.7592 1
      vertex -9.75452 -49.0393 -1
      vertex -4.90086 -49.7592 -1
    endloop
  endfacet
  facet normal -0.049075 -0.998795 0
    outer loop
      vertex -4.90086 -49.7592 -1
      vertex -0 -50 1
      vertex -4.90086 -49.7592 1
    endloop
  endfacet
  facet normal -0.049075 -0.998795 -0
    outer loop
      vertex -0 -50 1
      vertex -4.90086 -49.7592 -1
      vertex -0 -50 -1
    endloop
  endfacet
  facet normal 0.049075 -0.998795 0
    outer loop
      vertex -0 -50 -1
      vertex 4.90086 -49.7592 1
      vertex -0 -50 1
    endloop
  endfacet
  facet normal 0.049075 -0.998795 0
    outer loop
      vertex 4.90086 -49.7592 1
      vertex -0 -50 -1
      vertex 4.90086 -49.7592 -1
    endloop
  endfacet
  facet normal 0.146716 -0.989179 0
    outer loop
      vertex 4.90086 -49.7592 -1
      vertex 9.75452 -49.0393 1
      vertex 4.90086 -49.7592 1
    endloop
  endfacet
  facet normal 0.146716 -0.989179 0
    outer loop
      vertex 9.75452 -49.0393 1
      vertex 4.90086 -49.7592 -1
      vertex 9.75452 -49.0393 -1
    endloop
  endfacet
  facet normal 0.242992 -0.970028 0
    outer loop
      vertex 9.75452 -49.0393 -1
      vertex 14.5142 -47.847 1
      vertex 9.75452 -49.0393 1
    endloop
  endfacet
  facet normal 0.242992 -0.970028 0
    outer loop
      vertex 14.5142 -47.847 1
      vertex 9.75452 -49.0393 -1
      vertex 14.5142 -47.847 -1
    endloop
  endfacet
  facet normal 0.336879 -0.941548 0
    outer loop
      vertex 14.5142 -47.847 -1
      vertex 19.1342 -46.194 1
      vertex 14.5142 -47.847 1
    endloop
  endfacet
  facet normal 0.336879 -0.941548 0
    outer loop
      vertex 19.1342 -46.194 1
      vertex 14.5142 -47.847 -1
      vertex 19.1342 -46.194 -1
    endloop
  endfacet
  facet normal 0.427558 -0.903988 0
    outer loop
      vertex 19.1342 -46.194 -1
      vertex 23.5698 -44.0961 1
      vertex 19.1342 -46.194 1
    endloop
  endfacet
  facet normal 0.427558 -0.903988 0
    outer loop
      vertex 23.5698 -44.0961 1
      vertex 19.1342 -46.194 -1
      vertex 23.5698 -44.0961 -1
    endloop
  endfacet
  facet normal 0.514103 -0.857728 0
    outer loop
      vertex 23.5698 -44.0961 -1
      vertex 27.7785 -41.5735 1
      vertex 23.5698 -44.0961 1
    endloop
  endfacet
  facet normal 0.514103 -0.857728 0
    outer loop
      vertex 27.7785 -41.5735 1
      vertex 23.5698 -44.0961 -1
      vertex 27.7785 -41.5735 -1
    endloop
  endfacet
  facet normal 0.5957 -0.803207 0
    outer loop
      vertex 27.7785 -41.5735 -1
      vertex 31.7197 -38.6505 1
      vertex 27.7785 -41.5735 1
    endloop
  endfacet
  facet normal 0.5957 -0.803207 0
    outer loop
      vertex 31.7197 -38.6505 1
      vertex 27.7785 -41.5735 -1
      vertex 31.7197 -38.6505 -1
    endloop
  endfacet
  facet normal 0.671568 -0.740943 0
    outer loop
      vertex 31.7197 -38.6505 -1
      vertex 35.3553 -35.3553 1
      vertex 31.7197 -38.6505 1
    endloop
  endfacet
  facet normal 0.671568 -0.740943 0
    outer loop
      vertex 35.3553 -35.3553 1
      vertex 31.7197 -38.6505 -1
      vertex 35.3553 -35.3553 -1
    endloop
  endfacet
  facet normal 0.740943 -0.671568 0
    outer loop
      vertex 35.3553 -35.3553 1
      vertex 38.6505 -31.7197 -1
      vertex 38.6505 -31.7197 1
    endloop
  endfacet
  facet normal 0.740943 -0.671568 0
    outer loop
      vertex 38.6505 -31.7197 -1
      vertex 35.3553 -35.3553 1
      vertex 35.3553 -35.3553 -1
    endloop
  endfacet
  facet normal 0.803207 -0.5957 0
    outer loop
      vertex 38.6505 -31.7197 1
      vertex 41.5735 -27.7785 -1
      vertex 41.5735 -27.7785 1
    endloop
  endfacet
  facet normal 0.803207 -0.5957 0
    outer loop
      vertex 41.5735 -27.7785 -1
      vertex 38.6505 -31.7197 1
      vertex 38.6505 -31.7197 -1
    endloop
  endfacet
  facet normal 0.857728 -0.514103 0
    outer loop
      vertex 41.5735 -27.7785 1
      vertex 44.0961 -23.5698 -1
      vertex 44.0961 -23.5698 1
    endloop
  endfacet
  facet normal 0.857728 -0.514103 0
    outer loop
      vertex 44.0961 -23.5698 -1
      vertex 41.5735 -27.7785 1
      vertex 41.5735 -27.7785 -1
    endloop
  endfacet
  facet normal 0.903988 -0.427558 0
    outer loop
      vertex 44.0961 -23.5698 1
      vertex 46.194 -19.1342 -1
      vertex 46.194 -19.1342 1
    endloop
  endfacet
  facet normal 0.903988 -0.427558 0
    outer loop
      vertex 46.194 -19.1342 -1
      vertex 44.0961 -23.5698 1
      vertex 44.0961 -23.5698 -1
    endloop
  endfacet
  facet normal 0.941548 -0.336879 0
    outer loop
      vertex 46.194 -19.1342 1
      vertex 47.847 -14.5142 -1
      vertex 47.847 -14.5142 1
    endloop
  endfacet
  facet normal 0.941548 -0.336879 0
    outer loop
      vertex 47.847 -14.5142 -1
      vertex 46.194 -19.1342 1
      vertex 46.194 -19.1342 -1
    endloop
  endfacet
  facet normal 0.970028 -0.242992 0
    outer loop
      vertex 47.847 -14.5142 1
      vertex 49.0393 -9.75452 -1
      vertex 49.0393 -9.75452 1
    endloop
  endfacet
  facet normal 0.970028 -0.242992 0
    outer loop
      vertex 49.0393 -9.75452 -1
      vertex 47.847 -14.5142 1
      vertex 47.847 -14.5142 -1
    endloop
  endfacet
  facet normal 0.989179 -0.146716 0
    outer loop
      vertex 49.0393 -9.75452 1
      vertex 49.7592 -4.90086 -1
      vertex 49.7592 -4.90086 1
    endloop
  endfacet
  facet normal 0.989179 -0.146716 0
    outer loop
      vertex 49.7592 -4.90086 -1
      vertex 49.0393 -9.75452 1
      vertex 49.0393 -9.75452 -1
    endloop
  endfacet
  facet normal 0.998795 -0.049075 0
    outer loop
      vertex 49.7592 -4.90086 1
      vertex 50 0 -1
      vertex 50 0 1
    endloop
  endfacet
  facet normal 0.998795 -0.049075 0
    outer loop
      vertex 50 0 -1
      vertex 49.7592 -4.90086 1
      vertex 49.7592 -4.90086 -1
    endloop
  endfacet
  facet normal 0 0 -1
    outer loop
      vertex 49.7592 -4.90086 -1
      vertex 49.7592 4.90086 -1
      vertex 50 0 -1
    endloop
  endfacet
  facet normal 0 0 -1
    outer loop
      vertex 49.0393 -9.75452 -1
      vertex 49.7592 4.90086 -1
      vertex 49.7592 -4.90086 -1
    endloop
  endfacet
  facet normal 0 0 -1
    outer loop
      vertex 49.0393 -9.75452 -1
      vertex 49.0393 9.75452 -1
      vertex 49.7592 4.90086 -1
    endloop
  endfacet
  facet normal 0 0 -1
    outer loop
      vertex 47.847 -14.5142 -1
      vertex 49.0393 9.75452 -1
      vertex 49.0393 -9.75452 -1
    endloop
  endfacet
  facet normal 0 0 -1
    outer loop
      vertex 47.847 -14.5142 -1
      vertex 47.847 14.5142 -1
      vertex 49.0393 9.75452 -1
    endloop
  endfacet
  facet normal 0 0 -1
    outer loop
      vertex 46.194 -19.1342 -1
      vertex 47.847 14.5142 -1
      vertex 47.847 -14.5142 -1
    endloop
  endfacet
  facet normal 0 0 -1
    outer loop
      vertex 46.194 -19.1342 -1
      vertex 46.194 19.1342 -1
      vertex 47.847 14.5142 -1
    endloop
  endfacet
  facet normal 0 0 -1
    outer loop
      vertex 44.0961 -23.5698 -1
      vertex 46.194 19.1342 -1
      vertex 46.194 -19.1342 -1
    endloop
  endfacet
  facet normal 0 0 -1
    outer loop
      vertex 44.0961 -23.5698 -1
      vertex 44.0961 23.5698 -1
      vertex 46.194 19.1342 -1
    endloop
  endfacet
  facet normal 0 0 -1
    outer loop
      vertex 41.5735 -27.7785 -1
      vertex 44.0961 23.5698 -1
      vertex 44.0961 -23.5698 -1
    endloop
  endfacet
  facet normal 0 0 -1
    outer loop
      vertex 41.5735 -27.7785 -1
      vertex 41.5735 27.7785 -1
      vertex 44.0961 23.5698 -1
    endloop
  endfacet
  facet normal 0 0 -1
    outer loop
      vertex 38.6505 -31.7197 -1
      vertex 41.5735 27.7785 -1
      vertex 41.5735 -27.7785 -1
    endloop
  endfacet
  facet normal 0 0 -1
    outer loop
      vertex 38.6505 -31.7197 -1
      vertex 38.6505 31.7197 -1
      vertex 41.5735 27.7785 -1
    endloop
  endfacet
  facet normal 0 0 -1
    outer loop
      vertex 35.3553 -35.3553 -1
      vertex 38.6505 31.7197 -1
      vertex 38.6505 -31.7197 -1
    endloop
  endfacet
  facet normal 0 0 -1
    outer loop
      vertex 35.3553 -35.3553 -1
      vertex 35.3553 35.3553 -1
      vertex 38.6505 31.7197 -1
    endloop
  endfacet
  facet normal 0 0 -1
    outer loop
      vertex 31.7197 -38.6505 -1
      vertex 35.3553 35.3553 -1
      vertex 35.3553 -35.3553 -1
    endloop
  endfacet
  facet normal 0 0 -1
    outer loop
      vertex 31.7197 -38.6505 -1
      vertex 31.7197 38.6505 -1
      vertex 35.3553 35.3553 -1
    endloop
  endfacet
  facet normal 0 0 -1
    outer loop
      vertex 27.7785 -41.5735 -1
      vertex 31.7197 38.6505 -1
      vertex 31.7197 -38.6505 -1
    endloop
  endfacet
  facet normal 0 0 -1
    outer loop
      vertex 27.7785 -41.5735 -1
      vertex 27.7785 41.5735 -1
      vertex 31.7197 38.6505 -1
    endloop
  endfacet
  facet normal 0 0 -1
    outer loop
      vertex 23.5698 -44.0961 -1
      vertex 27.7785 41.5735 -1
      vertex 27.7785 -41.5735 -1
    endloop
  endfacet
  facet normal 0 0 -1
    outer loop
      vertex 23.5698 -44.0961 -1
      vertex 23.5698 44.0961 -1
      vertex 27.7785 41.5735 -1
    endloop
  endfacet
  facet normal 0 0 -1
    outer loop
      vertex 19.1342 -46.194 -1
      vertex 23.5698 44.0961 -1
      vertex 23.5698 -44.0961 -1
    endloop
  endfacet
  facet normal 0 0 -1
    outer loop
      vertex 19.1342 -46.194 -1
      vertex 19.1342 46.194 -1
      vertex 23.5698 44.0961 -1
    endloop
  endfacet
  facet normal 0 0 -1
    outer loop
      vertex 14.5142 -47.847 -1
      vertex 19.1342 46.194 -1
      vertex 19.1342 -46.194 -1
    endloop
  endfacet
  facet normal 0 0 -1
    outer loop
      vertex 14.5142 -47.847 -1
      vertex 14.5142 47.847 -1
      vertex 19.1342 46.194 -1
    endloop
  endfacet
  facet normal 0 0 -1
    outer loop
      vertex 9.75452 -49.0393 -1
      vertex 14.5142 47.847 -1
      vertex 14.5142 -47.847 -1
    endloop
  endfacet
  facet normal 0 0 -1
    outer loop
      vertex 9.75452 -49.0393 -1
      vertex 9.75452 49.0393 -1
      vertex 14.5142 47.847 -1
    endloop
  endfacet
  facet normal 0 0 -1
    outer loop
      vertex 4.90086 -49.7592 -1
      vertex 9.75452 49.0393 -1
      vertex 9.75452 -49.0393 -1
    endloop
  endfacet
  facet normal 0 0 -1
    outer loop
      vertex 4.90086 -49.7592 -1
      vertex 4.90086 49.7592 -1
      vertex 9.75452 49.0393 -1
    endloop
  endfacet
  facet normal 0 0 -1
    outer loop
      vertex -0 -50 -1
      vertex 4.90086 49.7592 -1
      vertex 4.90086 -49.7592 -1
    endloop
  endfacet
  facet normal 0 0 -1
    outer loop
      vertex -0 -50 -1
      vertex 0 50 -1
      vertex 4.90086 49.7592 -1
    endloop
  endfacet
  facet normal 0 0 -1
    outer loop
      vertex -4.90086 -49.7592 -1
      vertex 0 50 -1
      vertex -0 -50 -1
    endloop
  endfacet
  facet normal 0 0 -1
    outer loop
      vertex -4.90086 -49.7592 -1
      vertex -4.90086 49.7592 -1
      vertex 0 50 -1
    endloop
  endfacet
  facet normal 0 0 -1
    outer loop
      vertex -9.75452 -49.0393 -1
      vertex -4.90086 49.7592 -1
      vertex -4.90086 -49.7592 -1
    endloop
  endfacet
  facet normal 0 0 -1
    outer loop
      vertex -9.75452 -49.0393 -1
      vertex -9.75452 49.0393 -1
      vertex -4.90086 49.7592 -1
    endloop
  endfacet
  facet normal 0 0 -1
    outer loop
      vertex -14.5142 -47.847 -1
      vertex -9.75452 49.0393 -1
      vertex -9.75452 -49.0393 -1
    endloop
  endfacet
  facet normal 0 0 -1
    outer loop
      vertex -14.5142 -47.847 -1
      vertex -14.5142 47.847 -1
      vertex -9.75452 49.0393 -1
    endloop
  endfacet
  facet normal 0 0 -1
    outer loop
      vertex -19.1342 -46.194 -1
      vertex -14.5142 47.847 -1
      vertex -14.5142 -47.847 -1
    endloop
  endfacet
  facet normal 0 0 -1
    outer loop
      vertex -19.1342 -46.194 -1
      vertex -19.1342 46.194 -1
      vertex -14.5142 47.847 -1
    endloop
  endfacet
  facet normal 0 0 -1
    outer loop
      vertex -23.5698 -44.0961 -1
      vertex -19.1342 46.194 -1
      vertex -19.1342 -46.194 -1
    endloop
  endfacet
  facet normal 0 0 -1
    outer loop
      vertex -23.5698 -44.0961 -1
      vertex -23.5698 44.0961 -1
      vertex -19.1342 46.194 -1
    endloop
  endfacet
  facet normal 0 0 -1
    outer loop
      vertex -27.7785 -41.5735 -1
      vertex -23.5698 44.0961 -1
      vertex -23.5698 -44.0961 -1
    endloop
  endfacet
  facet normal 0 0 -1
    outer loop
      vertex -27.7785 -41.5735 -1
      vertex -27.7785 41.5735 -1
      vertex -23.5698 44.0961 -1
    endloop
  endfacet
  facet normal 0 0 -1
    outer loop
      vertex -31.7197 -38.6505 -1
      vertex -27.7785 41.5735 -1
      vertex -27.7785 -41.5735 -1
    endloop
  endfacet
  facet normal 0 0 -1
    outer loop
      vertex -31.7197 -38.6505 -1
      vertex -31.7197 38.6505 -1
      vertex -27.7785 41.5735 -1
    endloop
  endfacet
  facet normal 0 0 -1
    outer loop
      vertex -35.3553 -35.3553 -1
      vertex -31.7197 38.6505 -1
      vertex -31.7197 -38.6505 -1
    endloop
  endfacet
  facet normal 0 0 -1
    outer loop
      vertex -35.3553 -35.3553 -1
      vertex -35.3553 35.3553 -1
      vertex -31.7197 38.6505 -1
    endloop
  endfacet
  facet normal 0 0 -1
    outer loop
      vertex -38.6505 -31.7197 -1
      vertex -35.3553 35.3553 -1
      vertex -35.3553 -35.3553 -1
    endloop
  endfacet
  facet normal 0 0 -1
    outer loop
      vertex -38.6505 -31.7197 -1
      vertex -38.6505 31.7197 -1
      vertex -35.3553 35.3553 -1
    endloop
  endfacet
  facet normal 0 0 -1
    outer loop
      vertex -41.5735 -27.7785 -1
      vertex -38.6505 31.7197 -1
      vertex -38.6505 -31.7197 -1
    endloop
  endfacet
  facet normal 0 0 -1
    outer loop
      vertex -41.5735 -27.7785 -1
      vertex -41.5735 27.7785 -1
      vertex -38.6505 31.7197 -1
    endloop
  endfacet
  facet normal 0 0 -1
    outer loop
      vertex -44.0961 -23.5698 -1
      vertex -41.5735 27.7785 -1
      vertex -41.5735 -27.7785 -1
    endloop
  endfacet
  facet normal 0 0 -1
    outer loop
      vertex -44.0961 -23.5698 -1
      vertex -44.0961 23.5698 -1
      vertex -41.5735 27.7785 -1
    endloop
  endfacet
  facet normal 0 0 -1
    outer loop
      vertex -46.194 -19.1342 -1
      vertex -44.0961 23.5698 -1
      vertex -44.0961 -23.5698 -1
    endloop
  endfacet
  facet normal 0 0 -1
    outer loop
      vertex -46.194 -19.1342 -1
      vertex -46.194 19.1342 -1
      vertex -44.0961 23.5698 -1
    endloop
  endfacet
  facet normal 0 0 -1
    outer loop
      vertex -47.847 -14.5142 -1
      vertex -46.194 19.1342 -1
      vertex -46.194 -19.1342 -1
    endloop
  endfacet
  facet normal 0 0 -1
    outer loop
      vertex -47.847 -14.5142 -1
      vertex -47.847 14.5142 -1
      vertex -46.194 19.1342 -1
    endloop
  endfacet
  facet normal 0 0 -1
    outer loop
      vertex -49.0393 -9.75452 -1
      vertex -47.847 14.5142 -1
      vertex -47.847 -14.5142 -1
    endloop
  endfacet
  facet normal 0 0 -1
    outer loop
      vertex -49.0393 -9.75452 -1
      vertex -49.0393 9.75452 -1
      vertex -47.847 14.5142 -1
    endloop
  endfacet
  facet normal 0 0 -1
    outer loop
      vertex -49.7592 -4.90086 -1
      vertex -49.0393 9.75452 -1
      vertex -49.0393 -9.75452 -1
    endloop
  endfacet
  facet normal 0 0 -1
    outer loop
      vertex -49.7592 -4.90086 -1
      vertex -49.7592 4.90086 -1
      vertex -49.0393 9.75452 -1
    endloop
  endfacet
  facet normal 0 -0 -1
    outer loop
      vertex -49.7592 4.90086 -1
      vertex -49.7592 -4.90086 -1
      vertex -50 -0 -1
    endloop
  endfacet
  facet normal 0 0 1
    outer loop
      vertex 49.7592 4.90086 1
      vertex 49.7592 -4.90086 1
      vertex 50 0 1
    endloop
  endfacet
  facet normal 0 0 1
    outer loop
      vertex 49.0393 9.75452 1
      vertex 49.7592 -4.90086 1
      vertex 49.7592 4.90086 1
    endloop
  endfacet
  facet normal 0 0 1
    outer loop
      vertex 49.0393 9.75452 1
      vertex 49.0393 -9.75452 1
      vertex 49.7592 -4.90086 1
    endloop
  endfacet
  facet normal 0 0 1
    outer loop
      vertex 47.847 14.5142 1
      vertex 49.0393 -9.75452 1
      vertex 49.0393 9.75452 1
    endloop
  endfacet
  facet normal 0 0 1
    outer loop
      vertex 47.847 14.5142 1
      vertex 47.847 -14.5142 1
      vertex 49.0393 -9.75452 1
    endloop
  endfacet
  facet normal 0 0 1
    outer loop
      vertex 46.194 19.1342 1
      vertex 47.847 -14.5142 1
      vertex 47.847 14.5142 1
    endloop
  endfacet
  facet normal 0 0 1
    outer loop
      vertex 46.194 19.1342 1
      vertex 46.194 -19.1342 1
      vertex 47.847 -14.5142 1
    endloop
  endfacet
  facet normal 0 0 1
    outer loop
      vertex 44.0961 23.5698 1
      vertex 46.194 -19.1342 1
      vertex 46.194 19.1342 1
    endloop
  endfacet
  facet normal 0 0 1
    outer loop
      vertex 44.0961 23.5698 1
      vertex 44.0961 -23.5698 1
      vertex 46.194 -19.1342 1
    endloop
  endfacet
  facet normal 0 0 1
    outer loop
      vertex 41.5735 27.7785 1
      vertex 44.0961 -23.5698 1
      vertex 44.0961 23.5698 1
    endloop
  endfacet
  facet normal 0 0 1
    outer loop
      vertex 41.5735 27.7785 1
      vertex 41.5735 -27.7785 1
      vertex 44.0961 -23.5698 1
    endloop
  endfacet
  facet normal 0 0 1
    outer loop
      vertex 38.6505 31.7197 1
      vertex 41.5735 -27.7785 1
      vertex 41.5735 27.7785 1
    endloop
  endfacet
  facet normal 0 0 1
    outer loop
      vertex 38.6505 31.7197 1
      vertex 38.6505 -31.7197 1
      vertex 41.5735 -27.7785 1
    endloop
  endfacet
  facet normal 0 0 1
    outer loop
      vertex 35.3553 35.3553 1
      vertex 38.6505 -31.7197 1
      vertex 38.6505 31.7197 1
    endloop
  endfacet
  facet normal 0 0 1
    outer loop
      vertex 35.3553 35.3553 1
      vertex 35.3553 -35.3553 1
      vertex 38.6505 -31.7197 1
    endloop
  endfacet
  facet normal 0 0 1
    outer loop
      vertex 31.7197 38.6505 1
      vertex 35.3553 -35.3553 1
      vertex 35.3553 35.3553 1
    endloop
  endfacet
  facet normal 0 0 1
    outer loop
      vertex 31.7197 38.6505 1
      vertex 31.7197 -38.6505 1
      vertex 35.3553 -35.3553 1
    endloop
  endfacet
  facet normal 0 0 1
    outer loop
      vertex 27.7785 41.5735 1
      vertex 31.7197 -38.6505 1
      vertex 31.7197 38.6505 1
    endloop
  endfacet
  facet normal 0 0 1
    outer loop
      vertex 27.7785 41.5735 1
      vertex 27.7785 -41.5735 1
      vertex 31.7197 -38.6505 1
    endloop
  endfacet
  facet normal 0 0 1
    outer loop
      vertex 23.5698 44.0961 1
      vertex 27.7785 -41.5735 1
      vertex 27.7785 41.5735 1
    endloop
  endfacet
  facet normal 0 0 1
    outer loop
      vertex 23.5698 44.0961 1
      vertex 23.5698 -44.0961 1
      vertex 27.7785 -41.5735 1
    endloop
  endfacet
  facet normal 0 0 1
    outer loop
      vertex 19.1342 46.194 1
      vertex 23.5698 -44.0961 1
      vertex 23.5698 44.0961 1
    endloop
  endfacet
  facet normal 0 0 1
    outer loop
      vertex 19.1342 46.194 1
      vertex 19.1342 -46.194 1
      vertex 23.5698 -44.0961 1
    endloop
  endfacet
  facet normal 0 0 1
    outer loop
      vertex 14.5142 47.847 1
      vertex 19.1342 -46.194 1
      vertex 19.1342 46.194 1
    endloop
  endfacet
  facet normal 0 0 1
    outer loop
      vertex 14.5142 47.847 1
      vertex 14.5142 -47.847 1
      vertex 19.1342 -46.194 1
    endloop
  endfacet
  facet normal 0 0 1
    outer loop
      vertex 9.75452 49.0393 1
      vertex 14.5142 -47.847 1
      vertex 14.5142 47.847 1
    endloop
  endfacet
  facet normal 0 0 1
    outer loop
      vertex 9.75452 49.0393 1
      vertex 9.75452 -49.0393 1
      vertex 14.5142 -47.847 1
    endloop
  endfacet
  facet normal 0 0 1
    outer loop
      vertex 4.90086 49.7592 1
      vertex 9.75452 -49.0393 1
      vertex 9.75452 49.0393 1
    endloop
  endfacet
  facet normal 0 0 1
    outer loop
      vertex 4.90086 49.7592 1
      vertex 4.90086 -49.7592 1
      vertex 9.75452 -49.0393 1
    endloop
  endfacet
  facet normal 0 0 1
    outer loop
      vertex 0 50 1
      vertex 4.90086 -49.7592 1
      vertex 4.90086 49.7592 1
    endloop
  endfacet
  facet normal 0 0 1
    outer loop
      vertex 0 50 1
      vertex -0 -50 1
      vertex 4.90086 -49.7592 1
    endloop
  endfacet
  facet normal -0 0 1
    outer loop
      vertex -4.90086 49.7592 1
      vertex -0 -50 1
      vertex 0 50 1
    endloop
  endfacet
  facet normal 0 0 1
    outer loop
      vertex -4.90086 49.7592 1
      vertex -4.90086 -49.7592 1
      vertex -0 -50 1
    endloop
  endfacet
  facet normal -0 0 1
    outer loop
      vertex -9.75452 49.0393 1
      vertex -4.90086 -49.7592 1
      vertex -4.90086 49.7592 1
    endloop
  endfacet
  facet normal 0 0 1
    outer loop
      vertex -9.75452 49.0393 1
      vertex -9.75452 -49.0393 1
      vertex -4.90086 -49.7592 1
    endloop
  endfacet
  facet normal -0 0 1
    outer loop
      vertex -14.5142 47.847 1
      vertex -9.75452 -49.0393 1
      vertex -9.75452 49.0393 1
    endloop
  endfacet
  facet normal 0 0 1
    outer loop
      vertex -14.5142 47.847 1
      vertex -14.5142 -47.847 1
      vertex -9.75452 -49.0393 1
    endloop
  endfacet
  facet normal -0 0 1
    outer loop
      vertex -19.1342 46.194 1
      vertex -14.5142 -47.847 1
      vertex -14.5142 47.847 1
    endloop
  endfacet
  facet normal 0 0 1
    outer loop
      vertex -19.1342 46.194 1
      vertex -19.1342 -46.194 1
      vertex -14.5142 -47.847 1
    endloop
  endfacet
  facet normal -0 0 1
    outer loop
      vertex -23.5698 44.0961 1
      vertex -19.1342 -46.194 1
      vertex -19.1342 46.194 1
    endloop
  endfacet
  facet normal 0 0 1
    outer loop
      vertex -23.5698 44.0961 1
      vertex -23.5698 -44.0961 1
      vertex -19.1342 -46.194 1
    endloop
  endfacet
  facet normal -0 0 1
    outer loop
      vertex -27.7785 41.5735 1
      vertex -23.5698 -44.0961 1
      vertex -23.5698 44.0961 1
    endloop
  endfacet
  facet normal 0 0 1
    outer loop
      vertex -27.7785 41.5735 1
      vertex -27.7785 -41.5735 1
      vertex -23.5698 -44.0961 1
    endloop
  endfacet
  facet normal -0 0 1
    outer loop
      vertex -31.7197 38.6505 1
      vertex -27.7785 -41.5735 1
      vertex -27.7785 41.5735 1
    endloop
  endfacet
  facet normal 0 0 1
    outer loop
      vertex -31.7197 38.6505 1
      vertex -31.7197 -38.6505 1
      vertex -27.7785 -41.5735 1
    endloop
  endfacet
  facet normal -0 0 1
    outer loop
      vertex -35.3553 35.3553 1
      vertex -31.7197 -38.6505 1
      vertex -31.7197 38.6505 1
    endloop
  endfacet
  facet normal 0 0 1
    outer loop
      vertex -35.3553 35.3553 1
      vertex -35.3553 -35.3553 1
      vertex -31.7197 -38.6505 1
    endloop
  endfacet
  facet normal -0 0 1
    outer loop
      vertex -38.6505 31.7197 1
      vertex -35.3553 -35.3553 1
      vertex -35.3553 35.3553 1
    endloop
  endfacet
  facet normal 0 0 1
    outer loop
      vertex -38.6505 31.7197 1
      vertex -38.6505 -31.7197 1
      vertex -35.3553 -35.3553 1
    endloop
  endfacet
  facet normal -0 0 1
    outer loop
      vertex -41.5735 27.7785 1
      vertex -38.6505 -31.7197 1
      vertex -38.6505 31.7197 1
    endloop
  endfacet
  facet normal 0 0 1
    outer loop
      vertex -41.5735 27.7785 1
      vertex -41.5735 -27.7785 1
      vertex -38.6505 -31.7197 1
    endloop
  endfacet
  facet normal -0 0 1
    outer loop
      vertex -44.0961 23.5698 1
      vertex -41.5735 -27.7785 1
      vertex -41.5735 27.7785 1
    endloop
  endfacet
  facet normal 0 0 1
    outer loop
      vertex -44.0961 23.5698 1
      vertex -44.0961 -23.5698 1
      vertex -41.5735 -27.7785 1
    endloop
  endfacet
  facet normal -0 0 1
    outer loop
      vertex -46.194 19.1342 1
      vertex -44.0961 -23.5698 1
      vertex -44.0961 23.5698 1
    endloop
  endfacet
  facet normal 0 0 1
    outer loop
      vertex -46.194 19.1342 1
      vertex -46.194 -19.1342 1
      vertex -44.0961 -23.5698 1
    endloop
  endfacet
  facet normal -0 0 1
    outer loop
      vertex -47.847 14.5142 1
      vertex -46.194 -19.1342 1
      vertex -46.194 19.1342 1
    endloop
  endfacet
  facet normal 0 0 1
    outer loop
      vertex -47.847 14.5142 1
      vertex -47.847 -14.5142 1
      vertex -46.194 -19.1342 1
    endloop
  endfacet
  facet normal -0 0 1
    outer loop
      vertex -49.0393 9.75452 1
      vertex -47.847 -14.5142 1
      vertex -47.847 14.5142 1
    endloop
  endfacet
  facet normal 0 0 1
    outer loop
      vertex -49.0393 9.75452 1
      vertex -49.0393 -9.75452 1
      vertex -47.847 -14.5142 1
    endloop
  endfacet
  facet normal -0 0 1
    outer loop
      vertex -49.7592 4.90086 1
      vertex -49.0393 -9.75452 1
      vertex -49.0393 9.75452 1
    endloop
  endfacet
  facet normal 0 0 1
    outer loop
      vertex -49.7592 4.90086 1
      vertex -49.7592 -4.90086 1
      vertex -49.0393 -9.75452 1
    endloop
  endfacet
  facet normal 0 -0 1
    outer loop
      vertex -49.7592 -4.90086 1
      vertex -49.7592 4.90086 1
      vertex -50 -0 1
    endloop
  endfacet
endsolid OpenSCAD_Model
