solid OpenSCAD_Model
  facet normal 0.998795 0.049075 0
    outer loop
      vertex 25 0 1
      vertex 24.8796 2.45043 -1
      vertex 24.8796 2.45043 1
    endloop
  endfacet
  facet normal 0.998795 0.049075 0
    outer loop
      vertex 24.8796 2.45043 -1
      vertex 25 0 1
      vertex 25 0 -1
    endloop
  endfacet
  facet normal 0.989176 0.146736 0
    outer loop
      vertex 24.8796 2.45043 1
      vertex 24.5196 4.87726 -1
      vertex 24.5196 4.87726 1
    endloop
  endfacet
  facet normal 0.989176 0.146736 0
    outer loop
      vertex 24.5196 4.87726 -1
      vertex 24.8796 2.45043 1
      vertex 24.8796 2.45043 -1
    endloop
  endfacet
  facet normal 0.970034 0.242971 0
    outer loop
      vertex 24.5196 4.87726 1
      vertex 23.9235 7.25712 -1
      vertex 23.9235 7.25712 1
    endloop
  endfacet
  facet normal 0.970034 0.242971 0
    outer loop
      vertex 23.9235 7.25712 -1
      vertex 24.5196 4.87726 1
      vertex 24.5196 4.87726 -1
    endloop
  endfacet
  facet normal 0.941547 0.336882 0
    outer loop
      vertex 23.9235 7.25712 1
      vertex 23.097 9.56709 -1
      vertex 23.097 9.56709 1
    endloop
  endfacet
  facet normal 0.941547 0.336882 0
    outer loop
      vertex 23.097 9.56709 -1
      vertex 23.9235 7.25712 1
      vertex 23.9235 7.25712 -1
    endloop
  endfacet
  facet normal 0.903981 0.427573 0
    outer loop
      vertex 23.097 9.56709 1
      vertex 22.048 11.7849 -1
      vertex 22.048 11.7849 1
    endloop
  endfacet
  facet normal 0.903981 0.427573 0
    outer loop
      vertex 22.048 11.7849 -1
      vertex 23.097 9.56709 1
      vertex 23.097 9.56709 -1
    endloop
  endfacet
  facet normal 0.857734 0.514094 0
    outer loop
      vertex 22.048 11.7849 1
      vertex 20.7867 13.8893 -1
      vertex 20.7867 13.8893 1
    endloop
  endfacet
  facet normal 0.857734 0.514094 0
    outer loop
      vertex 20.7867 13.8893 -1
      vertex 22.048 11.7849 1
      vertex 22.048 11.7849 -1
    endloop
  endfacet
  facet normal 0.803212 0.595693 0
    outer loop
      vertex 20.7867 13.8893 1
      vertex 19.3253 15.8598 -1
      vertex 19.3253 15.8598 1
    endloop
  endfacet
  facet normal 0.803212 0.595693 0
    outer loop
      vertex 19.3253 15.8598 -1
      vertex 20.7867 13.8893 1
      vertex 20.7867 13.8893 -1
    endloop
  endfacet
  facet normal 0.740961 0.671548 0
    outer loop
      vertex 19.3253 15.8598 1
      vertex 17.6777 17.6777 -1
      vertex 17.6777 17.6777 1
    endloop
  endfacet
  facet normal 0.740961 0.671548 0
    outer loop
      vertex 17.6777 17.6777 -1
      vertex 19.3253 15.8598 1
      vertex 19.3253 15.8598 -1
    endloop
  endfacet
  facet normal 0.671548 0.740961 -0
    outer loop
      vertex 17.6777 17.6777 -1
      vertex 15.8598 19.3253 1
      vertex 17.6777 17.6777 1
    endloop
  endfacet
  facet normal 0.671548 0.740961 0
    outer loop
      vertex 15.8598 19.3253 1
      vertex 17.6777 17.6777 -1
      vertex 15.8598 19.3253 -1
    endloop
  endfacet
  facet normal 0.595693 0.803212 -0
    outer loop
      vertex 15.8598 19.3253 -1
      vertex 13.8893 20.7867 1
      vertex 15.8598 19.3253 1
    endloop
  endfacet
  facet normal 0.595693 0.803212 0
    outer loop
      vertex 13.8893 20.7867 1
      vertex 15.8598 19.3253 -1
      vertex 13.8893 20.7867 -1
    endloop
  endfacet
  facet normal 0.514094 0.857734 -0
    outer loop
      vertex 13.8893 20.7867 -1
      vertex 11.7849 22.048 1
      vertex 13.8893 20.7867 1
    endloop
  endfacet
  facet normal 0.514094 0.857734 0
    outer loop
      vertex 11.7849 22.048 1
      vertex 13.8893 20.7867 -1
      vertex 11.7849 22.048 -1
    endloop
  endfacet
  facet normal 0.427573 0.903981 -0
    outer loop
      vertex 11.7849 22.048 -1
      vertex 9.56709 23.097 1
      vertex 11.7849 22.048 1
    endloop
  endfacet
  facet normal 0.427573 0.903981 0
    outer loop
      vertex 9.56709 23.097 1
      vertex 11.7849 22.048 -1
      vertex 9.56709 23.097 -1
    endloop
  endfacet
  facet normal 0.336882 0.941547 -0
    outer loop
      vertex 9.56709 23.097 -1
      vertex 7.25712 23.9235 1
      vertex 9.56709 23.097 1
    endloop
  endfacet
  facet normal 0.336882 0.941547 0
    outer loop
      vertex 7.25712 23.9235 1
      vertex 9.56709 23.097 -1
      vertex 7.25712 23.9235 -1
    endloop
  endfacet
  facet normal 0.242971 0.970034 -0
    outer loop
      vertex 7.25712 23.9235 -1
      vertex 4.87726 24.5196 1
      vertex 7.25712 23.9235 1
    endloop
  endfacet
  facet normal 0.242971 0.970034 0
    outer loop
      vertex 4.87726 24.5196 1
      vertex 7.25712 23.9235 -1
      vertex 4.87726 24.5196 -1
    endloop
  endfacet
  facet normal 0.146736 0.989176 -0
    outer loop
      vertex 4.87726 24.5196 -1
      vertex 2.45043 24.8796 1
      vertex 4.87726 24.5196 1
    endloop
  endfacet
  facet normal 0.146736 0.989176 0
    outer loop
      vertex 2.45043 24.8796 1
      vertex 4.87726 24.5196 -1
      vertex 2.45043 24.8796 -1
    endloop
  endfacet
  facet normal 0.049075 0.998795 -0
    outer loop
      vertex 2.45043 24.8796 -1
      vertex 0 25 1
      vertex 2.45043 24.8796 1
    endloop
  endfacet
  facet normal 0.049075 0.998795 0
    outer loop
      vertex 0 25 1
      vertex 2.45043 24.8796 -1
      vertex 0 25 -1
    endloop
  endfacet
  facet normal -0.049075 0.998795 0
    outer loop
      vertex 0 25 -1
      vertex -2.45043 24.8796 1
      vertex 0 25 1
    endloop
  endfacet
  facet normal -0.049075 0.998795 0
    outer loop
      vertex -2.45043 24.8796 1
      vertex 0 25 -1
      vertex -2.45043 24.8796 -1
    endloop
  endfacet
  facet normal -0.146736 0.989176 0
    outer loop
      vertex -2.45043 24.8796 -1
      vertex -4.87726 24.5196 1
      vertex -2.45043 24.8796 1
    endloop
  endfacet
  facet normal -0.146736 0.989176 0
    outer loop
      vertex -4.87726 24.5196 1
      vertex -2.45043 24.8796 -1
      vertex -4.87726 24.5196 -1
    endloop
  endfacet
  facet normal -0.242971 0.970034 0
    outer loop
      vertex -4.87726 24.5196 -1
      vertex -7.25712 23.9235 1
      vertex -4.87726 24.5196 1
    endloop
  endfacet
  facet normal -0.242971 0.970034 0
    outer loop
      vertex -7.25712 23.9235 1
      vertex -4.87726 24.5196 -1
      vertex -7.25712 23.9235 -1
    endloop
  endfacet
  facet normal -0.336882 0.941547 0
    outer loop
      vertex -7.25712 23.9235 -1
      vertex -9.56709 23.097 1
      vertex -7.25712 23.9235 1
    endloop
  endfacet
  facet normal -0.336882 0.941547 0
    outer loop
      vertex -9.56709 23.097 1
      vertex -7.25712 23.9235 -1
      vertex -9.56709 23.097 -1
    endloop
  endfacet
  facet normal -0.427573 0.903981 0
    outer loop
      vertex -9.56709 23.097 -1
      vertex -11.7849 22.048 1
      vertex -9.56709 23.097 1
    endloop
  endfacet
  facet normal -0.427573 0.903981 0
    outer loop
      vertex -11.7849 22.048 1
      vertex -9.56709 23.097 -1
      vertex -11.7849 22.048 -1
    endloop
  endfacet
  facet normal -0.514094 0.857734 0
    outer loop
      vertex -11.7849 22.048 -1
      vertex -13.8893 20.7867 1
      vertex -11.7849 22.048 1
    endloop
  endfacet
  facet normal -0.514094 0.857734 0
    outer loop
      vertex -13.8893 20.7867 1
      vertex -11.7849 22.048 -1
      vertex -13.8893 20.7867 -1
    endloop
  endfacet
  facet normal -0.595693 0.803212 0
    outer loop
      vertex -13.8893 20.7867 -1
      vertex -15.8598 19.3253 1
      vertex -13.8893 20.7867 1
    endloop
  endfacet
  facet normal -0.595693 0.803212 0
    outer loop
      vertex -15.8598 19.3253 1
      vertex -13.8893 20.7867 -1
      vertex -15.8598 19.3253 -1
    endloop
  endfacet
  facet normal -0.671548 0.740961 0
    outer loop
      vertex -15.8598 19.3253 -1
      vertex -17.6777 17.6777 1
      vertex -15.8598 19.3253 1
    endloop
  endfacet
  facet normal -0.671548 0.740961 0
    outer loop
      vertex -17.6777 17.6777 1
      vertex -15.8598 19.3253 -1
      vertex -17.6777 17.6777 -1
    endloop
  endfacet
  facet normal -0.740961 0.671548 0
    outer loop
      vertex -19.3253 15.8598 -1
      vertex -17.6777 17.6777 1
      vertex -17.6777 17.6777 -1
    endloop
  endfacet
  facet normal -0.740961 0.671548 0
    outer loop
      vertex -17.6777 17.6777 1
      vertex -19.3253 15.8598 -1
      vertex -19.3253 15.8598 1
    endloop
  endfacet
  facet normal -0.803212 0.595693 0
    outer loop
      vertex -20.7867 13.8893 -1
      vertex -19.3253 15.8598 1
      vertex -19.3253 15.8598 -1
    endloop
  endfacet
  facet normal -0.803212 0.595693 0
    outer loop
      vertex -19.3253 15.8598 1
      vertex -20.7867 13.8893 -1
      vertex -20.7867 13.8893 1
    endloop
  endfacet
  facet normal -0.857734 0.514094 0
    outer loop
      vertex -22.048 11.7849 -1
      vertex -20.7867 13.8893 1
      vertex -20.7867 13.8893 -1
    endloop
  endfacet
  facet normal -0.857734 0.514094 0
    outer loop
      vertex -20.7867 13.8893 1
      vertex -22.048 11.7849 -1
      vertex -22.048 11.7849 1
    endloop
  endfacet
  facet normal -0.903981 0.427573 0
    outer loop
      vertex -23.097 9.56709 -1
      vertex -22.048 11.7849 1
      vertex -22.048 11.7849 -1
    endloop
  endfacet
  facet normal -0.903981 0.427573 0
    outer loop
      vertex -22.048 11.7849 1
      vertex -23.097 9.56709 -1
      vertex -23.097 9.56709 1
    endloop
  endfacet
  facet normal -0.941547 0.336882 0
    outer loop
      vertex -23.9235 7.25712 -1
      vertex -23.097 9.56709 1
      vertex -23.097 9.56709 -1
    endloop
  endfacet
  facet normal -0.941547 0.336882 0
    outer loop
      vertex -23.097 9.56709 1
      vertex -23.9235 7.25712 -1
      vertex -23.9235 7.25712 1
    endloop
  endfacet
  facet normal -0.970034 0.242971 0
    outer loop
      vertex -24.5196 4.87726 -1
      vertex -23.9235 7.25712 1
      vertex -23.9235 7.25712 -1
    endloop
  endfacet
  facet normal -0.970034 0.242971 0
    outer loop
      vertex -23.9235 7.25712 1
      vertex -24.5196 4.87726 -1
      vertex -24.5196 4.87726 1
    endloop
  endfacet
  facet normal -0.989176 0.146736 0
    outer loop
      vertex -24.8796 2.45043 -1
      vertex -24.5196 4.87726 1
      vertex -24.5196 4.87726 -1
    endloop
  endfacet
  facet normal -0.989176 0.146736 0
    outer loop
      vertex -24.5196 4.87726 1
      vertex -24.8796 2.45043 -1
      vertex -24.8796 2.45043 1
    endloop
  endfacet
  facet normal -0.998795 0.049075 0
    outer loop
      vertex -25 -0 -1
      vertex -24.8796 2.45043 1
      vertex -24.8796 2.45043 -1
    endloop
  endfacet
  facet normal -0.998795 0.049075 0
    outer loop
      vertex -24.8796 2.45043 1
      vertex -25 -0 -1
      vertex -25 -0 1
    endloop
  endfacet
  facet normal -0.998795 -0.049075 0
    outer loop
      vertex -24.8796 -2.45043 -1
      vertex -25 -0 1
      vertex -25 -0 -1
    endloop
  endfacet
  facet normal -0.998795 -0.049075 0
    outer loop
      vertex -25 -0 1
      vertex -24.8796 -2.45043 -1
      vertex -24.8796 -2.45043 1
    endloop
  endfacet
  facet normal -0.989176 -0.146736 0
    outer loop
      vertex -24.5196 -4.87726 -1
      vertex -24.8796 -2.45043 1
      vertex -24.8796 -2.45043 -1
    endloop
  endfacet
  facet normal -0.989176 -0.146736 0
    outer loop
      vertex -24.8796 -2.45043 1
      vertex -24.5196 -4.87726 -1
      vertex -24.5196 -4.87726 1
    endloop
  endfacet
  facet normal -0.970034 -0.242971 0
    outer loop
      vertex -23.9235 -7.25712 -1
      vertex -24.5196 -4.87726 1
      vertex -24.5196 -4.87726 -1
    endloop
  endfacet
  facet normal -0.970034 -0.242971 0
    outer loop
      vertex -24.5196 -4.87726 1
      vertex -23.9235 -7.25712 -1
      vertex -23.9235 -7.25712 1
    endloop
  endfacet
  facet normal -0.941547 -0.336882 0
    outer loop
      vertex -23.097 -9.56709 -1
      vertex -23.9235 -7.25712 1
      vertex -23.9235 -7.25712 -1
    endloop
  endfacet
  facet normal -0.941547 -0.336882 0
    outer loop
      vertex -23.9235 -7.25712 1
      vertex -23.097 -9.56709 -1
      vertex -23.097 -9.56709 1
    endloop
  endfacet
  facet normal -0.903981 -0.427573 0
    outer loop
      vertex -22.048 -11.7849 -1
      vertex -23.097 -9.56709 1
      vertex -23.097 -9.56709 -1
    endloop
  endfacet
  facet normal -0.903981 -0.427573 0
    outer loop
      vertex -23.097 -9.56709 1
      vertex -22.048 -11.7849 -1
      vertex -22.048 -11.7849 1
    endloop
  endfacet
  facet normal -0.857734 -0.514094 0
    outer loop
      vertex -20.7867 -13.8893 -1
      vertex -22.048 -11.7849 1
      vertex -22.048 -11.7849 -1
    endloop
  endfacet
  facet normal -0.857734 -0.514094 0
    outer loop
      vertex -22.048 -11.7849 1
      vertex -20.7867 -13.8893 -1
      vertex -20.7867 -13.8893 1
    endloop
  endfacet
  facet normal -0.803212 -0.595693 0
    outer loop
      vertex -19.3253 -15.8598 -1
      vertex -20.7867 -13.8893 1
      vertex -20.7867 -13.8893 -1
    endloop
  endfacet
  facet normal -0.803212 -0.595693 0
    outer loop
      vertex -20.7867 -13.8893 1
      vertex -19.3253 -15.8598 -1
      vertex -19.3253 -15.8598 1
    endloop
  endfacet
  facet normal -0.740961 -0.671548 0
    outer loop
      vertex -17.6777 -17.6777 -1
      vertex -19.3253 -15.8598 1
      vertex -19.3253 -15.8598 -1
    endloop
  endfacet
  facet normal -0.740961 -0.671548 0
    outer loop
      vertex -19.3253 -15.8598 1
      vertex -17.6777 -17.6777 -1
      vertex -17.6777 -17.6777 1
    endloop
  endfacet
  facet normal -0.671548 -0.740961 0
    outer loop
      vertex -17.6777 -17.6777 -1
      vertex -15.8598 -19.3253 1
      vertex -17.6777 -17.6777 1
    endloop
  endfacet
  facet normal -0.671548 -0.740961 -0
    outer loop
      vertex -15.8598 -19.3253 1
      vertex -17.6777 -17.6777 -1
      vertex -15.8598 -19.3253 -1
    endloop
  endfacet
  facet normal -0.595693 -0.803212 0
    outer loop
      vertex -15.8598 -19.3253 -1
      vertex -13.8893 -20.7867 1
      vertex -15.8598 -19.3253 1
    endloop
  endfacet
  facet normal -0.595693 -0.803212 -0
    outer loop
      vertex -13.8893 -20.7867 1
      vertex -15.8598 -19.3253 -1
      vertex -13.8893 -20.7867 -1
    endloop
  endfacet
  facet normal -0.514094 -0.857734 0
    outer loop
      vertex -13.8893 -20.7867 -1
      vertex -11.7849 -22.048 1
      vertex -13.8893 -20.7867 1
    endloop
  endfacet
  facet normal -0.514094 -0.857734 -0
    outer loop
      vertex -11.7849 -22.048 1
      vertex -13.8893 -20.7867 -1
      vertex -11.7849 -22.048 -1
    endloop
  endfacet
  facet normal -0.427573 -0.903981 0
    outer loop
      vertex -11.7849 -22.048 -1
      vertex -9.56709 -23.097 1
      vertex -11.7849 -22.048 1
    endloop
  endfacet
  facet normal -0.427573 -0.903981 -0
    outer loop
      vertex -9.56709 -23.097 1
      vertex -11.7849 -22.048 -1
      vertex -9.56709 -23.097 -1
    endloop
  endfacet
  facet normal -0.336882 -0.941547 0
    outer loop
      vertex -9.56709 -23.097 -1
      vertex -7.25712 -23.9235 1
      vertex -9.56709 -23.097 1
    endloop
  endfacet
  facet normal -0.336882 -0.941547 -0
    outer loop
      vertex -7.25712 -23.9235 1
      vertex -9.56709 -23.097 -1
      vertex -7.25712 -23.9235 -1
    endloop
  endfacet
  facet normal -0.242971 -0.970034 0
    outer loop
      vertex -7.25712 -23.9235 -1
      vertex -4.87726 -24.5196 1
      vertex -7.25712 -23.9235 1
    endloop
  endfacet
  facet normal -0.242971 -0.970034 -0
    outer loop
      vertex -4.87726 -24.5196 1
      vertex -7.25712 -23.9235 -1
      vertex -4.87726 -24.5196 -1
    endloop
  endfacet
  facet normal -0.146736 -0.989176 0
    outer loop
      vertex -4.87726 -24.5196 -1
      vertex -2.45043 -24.8796 1
      vertex -4.87726 -24.5196 1
    endloop
  endfacet
  facet normal -0.146736 -0.989176 -0
    outer loop
      vertex -2.45043 -24.8796 1
      vertex -4.87726 -24.5196 -1
      vertex -2.45043 -24.8796 -1
    endloop
  endfacet
  facet normal -0.049075 -0.998795 0
    outer loop
      vertex -2.45043 -24.8796 -1
      vertex -0 -25 1
      vertex -2.45043 -24.8796 1
    endloop
  endfacet
  facet normal -0.049075 -0.998795 -0
    outer loop
      vertex -0 -25 1
      vertex -2.45043 -24.8796 -1
      vertex -0 -25 -1
    endloop
  endfacet
  facet normal 0.049075 -0.998795 0
    outer loop
      vertex -0 -25 -1
      vertex 2.45043 -24.8796 1
      vertex -0 -25 1
    endloop
  endfacet
  facet normal 0.049075 -0.998795 0
    outer loop
      vertex 2.45043 -24.8796 1
      vertex -0 -25 -1
      vertex 2.45043 -24.8796 -1
    endloop
  endfacet
  facet normal 0.146736 -0.989176 0
    outer loop
      vertex 2.45043 -24.8796 -1
      vertex 4.87726 -24.5196 1
      vertex 2.45043 -24.8796 1
    endloop
  endfacet
  facet normal 0.146736 -0.989176 0
    outer loop
      vertex 4.87726 -24.5196 1
      vertex 2.45043 -24.8796 -1
      vertex 4.87726 -24.5196 -1
    endloop
  endfacet
  facet normal 0.242971 -0.970034 0
    outer loop
      vertex 4.87726 -24.5196 -1
      vertex 7.25712 -23.9235 1
      vertex 4.87726 -24.5196 1
    endloop
  endfacet
  facet normal 0.242971 -0.970034 0
    outer loop
      vertex 7.25712 -23.9235 1
      vertex 4.87726 -24.5196 -1
      vertex 7.25712 -23.9235 -1
    endloop
  endfacet
  facet normal 0.336882 -0.941547 0
    outer loop
      vertex 7.25712 -23.9235 -1
      vertex 9.56709 -23.097 1
      vertex 7.25712 -23.9235 1
    endloop
  endfacet
  facet normal 0.336882 -0.941547 0
    outer loop
      vertex 9.56709 -23.097 1
      vertex 7.25712 -23.9235 -1
      vertex 9.56709 -23.097 -1
    endloop
  endfacet
  facet normal 0.427573 -0.903981 0
    outer loop
      vertex 9.56709 -23.097 -1
      vertex 11.7849 -22.048 1
      vertex 9.56709 -23.097 1
    endloop
  endfacet
  facet normal 0.427573 -0.903981 0
    outer loop
      vertex 11.7849 -22.048 1
      vertex 9.56709 -23.097 -1
      vertex 11.7849 -22.048 -1
    endloop
  endfacet
  facet normal 0.514094 -0.857734 0
    outer loop
      vertex 11.7849 -22.048 -1
      vertex 13.8893 -20.7867 1
      vertex 11.7849 -22.048 1
    endloop
  endfacet
  facet normal 0.514094 -0.857734 0
    outer loop
      vertex 13.8893 -20.7867 1
      vertex 11.7849 -22.048 -1
      vertex 13.8893 -20.7867 -1
    endloop
  endfacet
  facet normal 0.595693 -0.803212 0
    outer loop
      vertex 13.8893 -20.7867 -1
      vertex 15.8598 -19.3253 1
      vertex 13.8893 -20.7867 1
    endloop
  endfacet
  facet normal 0.595693 -0.803212 0
    outer loop
      vertex 15.8598 -19.3253 1
      vertex 13.8893 -20.7867 -1
      vertex 15.8598 -19.3253 -1
    endloop
  endfacet
  facet normal 0.671548 -0.740961 0
    outer loop
      vertex 15.8598 -19.3253 -1
      vertex 17.6777 -17.6777 1
      vertex 15.8598 -19.3253 1
    endloop
  endfacet
  facet normal 0.671548 -0.740961 0
    outer loop
      vertex 17.6777 -17.6777 1
      vertex 15.8598 -19.3253 -1
      vertex 17.6777 -17.6777 -1
    endloop
  endfacet
  facet normal 0.740961 -0.671548 0
    outer loop
      vertex 17.6777 -17.6777 1
      vertex 19.3253 -15.8598 -1
      vertex 19.3253 -15.8598 1
    endloop
  endfacet
  facet normal 0.740961 -0.671548 0
    outer loop
      vertex 19.3253 -15.8598 -1
      vertex 17.6777 -17.6777 1
      vertex 17.6777 -17.6777 -1
    endloop
  endfacet
  facet normal 0.803212 -0.595693 0
    outer loop
      vertex 19.3253 -15.8598 1
      vertex 20.7867 -13.8893 -1
      vertex 20.7867 -13.8893 1
    endloop
  endfacet
  facet normal 0.803212 -0.595693 0
    outer loop
      vertex 20.7867 -13.8893 -1
      vertex 19.3253 -15.8598 1
      vertex 19.3253 -15.8598 -1
    endloop
  endfacet
  facet normal 0.857734 -0.514094 0
    outer loop
      vertex 20.7867 -13.8893 1
      vertex 22.048 -11.7849 -1
      vertex 22.048 -11.7849 1
    endloop
  endfacet
  facet normal 0.857734 -0.514094 0
    outer loop
      vertex 22.048 -11.7849 -1
      vertex 20.7867 -13.8893 1
      vertex 20.7867 -13.8893 -1
    endloop
  endfacet
  facet normal 0.903981 -0.427573 0
    outer loop
      vertex 22.048 -11.7849 1
      vertex 23.097 -9.56709 -1
      vertex 23.097 -9.56709 1
    endloop
  endfacet
  facet normal 0.903981 -0.427573 0
    outer loop
      vertex 23.097 -9.56709 -1
      vertex 22.048 -11.7849 1
      vertex 22.048 -11.7849 -1
    endloop
  endfacet
  facet normal 0.941547 -0.336882 0
    outer loop
      vertex 23.097 -9.56709 1
      vertex 23.9235 -7.25712 -1
      vertex 23.9235 -7.25712 1
    endloop
  endfacet
  facet normal 0.941547 -0.336882 0
    outer loop
      vertex 23.9235 -7.25712 -1
      vertex 23.097 -9.56709 1
      vertex 23.097 -9.56709 -1
    endloop
  endfacet
  facet normal 0.970034 -0.242971 0
    outer loop
      vertex 23.9235 -7.25712 1
      vertex 24.5196 -4.87726 -1
      vertex 24.5196 -4.87726 1
    endloop
  endfacet
  facet normal 0.970034 -0.242971 0
    outer loop
      vertex 24.5196 -4.87726 -1
      vertex 23.9235 -7.25712 1
      vertex 23.9235 -7.25712 -1
    endloop
  endfacet
  facet normal 0.989176 -0.146736 0
    outer loop
      vertex 24.5196 -4.87726 1
      vertex 24.8796 -2.45043 -1
      vertex 24.8796 -2.45043 1
    endloop
  endfacet
  facet normal 0.989176 -0.146736 0
    outer loop
      vertex 24.8796 -2.45043 -1
      vertex 24.5196 -4.87726 1
      vertex 24.5196 -4.87726 -1
    endloop
  endfacet
  facet normal 0.998795 -0.049075 0
    outer loop
      vertex 24.8796 -2.45043 1
      vertex 25 0 -1
      vertex 25 0 1
    endloop
  endfacet
  facet normal 0.998795 -0.049075 0
    outer loop
      vertex 25 0 -1
      vertex 24.8796 -2.45043 1
      vertex 24.8796 -2.45043 -1
    endloop
  endfacet
  facet normal 0 0 -1
    outer loop
      vertex 24.8796 -2.45043 -1
      vertex 24.8796 2.45043 -1
      vertex 25 0 -1
    endloop
  endfacet
  facet normal 0 0 -1
    outer loop
      vertex 24.5196 -4.87726 -1
      vertex 24.8796 2.45043 -1
      vertex 24.8796 -2.45043 -1
    endloop
  endfacet
  facet normal 0 0 -1
    outer loop
      vertex 24.5196 -4.87726 -1
      vertex 24.5196 4.87726 -1
      vertex 24.8796 2.45043 -1
    endloop
  endfacet
  facet normal 0 0 -1
    outer loop
      vertex 23.9235 -7.25712 -1
      vertex 24.5196 4.87726 -1
      vertex 24.5196 -4.87726 -1
    endloop
  endfacet
  facet normal 0 0 -1
    outer loop
      vertex 23.9235 -7.25712 -1
      vertex 23.9235 7.25712 -1
      vertex 24.5196 4.87726 -1
    endloop
  endfacet
  facet normal 0 0 -1
    outer loop
      vertex 23.097 -9.56709 -1
      vertex 23.9235 7.25712 -1
      vertex 23.9235 -7.25712 -1
    endloop
  endfacet
  facet normal 0 0 -1
    outer loop
      vertex 23.097 -9.56709 -1
      vertex 23.097 9.56709 -1
      vertex 23.9235 7.25712 -1
    endloop
  endfacet
  facet normal 0 0 -1
    outer loop
      vertex 22.048 -11.7849 -1
      vertex 23.097 9.56709 -1
      vertex 23.097 -9.56709 -1
    endloop
  endfacet
  facet normal 0 0 -1
    outer loop
      vertex 22.048 -11.7849 -1
      vertex 22.048 11.7849 -1
      vertex 23.097 9.56709 -1
    endloop
  endfacet
  facet normal 0 0 -1
    outer loop
      vertex 20.7867 -13.8893 -1
      vertex 22.048 11.7849 -1
      vertex 22.048 -11.7849 -1
    endloop
  endfacet
  facet normal 0 0 -1
    outer loop
      vertex 20.7867 -13.8893 -1
      vertex 20.7867 13.8893 -1
      vertex 22.048 11.7849 -1
    endloop
  endfacet
  facet normal 0 0 -1
    outer loop
      vertex 19.3253 -15.8598 -1
      vertex 20.7867 13.8893 -1
      vertex 20.7867 -13.8893 -1
    endloop
  endfacet
  facet normal 0 0 -1
    outer loop
      vertex 19.3253 -15.8598 -1
      vertex 19.3253 15.8598 -1
      vertex 20.7867 13.8893 -1
    endloop
  endfacet
  facet normal 0 0 -1
    outer loop
      vertex 17.6777 -17.6777 -1
      vertex 19.3253 15.8598 -1
      vertex 19.3253 -15.8598 -1
    endloop
  endfacet
  facet normal 0 0 -1
    outer loop
      vertex 17.6777 -17.6777 -1
      vertex 17.6777 17.6777 -1
      vertex 19.3253 15.8598 -1
    endloop
  endfacet
  facet normal 0 0 -1
    outer loop
      vertex 15.8598 -19.3253 -1
      vertex 17.6777 17.6777 -1
      vertex 17.6777 -17.6777 -1
    endloop
  endfacet
  facet normal 0 0 -1
    outer loop
      vertex 15.8598 -19.3253 -1
      vertex 15.8598 19.3253 -1
      vertex 17.6777 17.6777 -1
    endloop
  endfacet
  facet normal 0 0 -1
    outer loop
      vertex 13.8893 -20.7867 -1
      vertex 15.8598 19.3253 -1
      vertex 15.8598 -19.3253 -1
    endloop
  endfacet
  facet normal 0 0 -1
    outer loop
      vertex 13.8893 -20.7867 -1
      vertex 13.8893 20.7867 -1
      vertex 15.8598 19.3253 -1
    endloop
  endfacet
  facet normal 0 0 -1
    outer loop
      vertex 11.7849 -22.048 -1
      vertex 13.8893 20.7867 -1
      vertex 13.8893 -20.7867 -1
    endloop
  endfacet
  facet normal 0 0 -1
    outer loop
      vertex 11.7849 -22.048 -1
      vertex 11.7849 22.048 -1
      vertex 13.8893 20.7867 -1
    endloop
  endfacet
  facet normal 0 0 -1
    outer loop
      vertex 9.56709 -23.097 -1
      vertex 11.7849 22.048 -1
      vertex 11.7849 -22.048 -1
    endloop
  endfacet
  facet normal 0 0 -1
    outer loop
      vertex 9.56709 -23.097 -1
      vertex 9.56709 23.097 -1
      vertex 11.7849 22.048 -1
    endloop
  endfacet
  facet normal 0 0 -1
    outer loop
      vertex 7.25712 -23.9235 -1
      vertex 9.56709 23.097 -1
      vertex 9.56709 -23.097 -1
    endloop
  endfacet
  facet normal 0 0 -1
    outer loop
      vertex 7.25712 -23.9235 -1
      vertex 7.25712 23.9235 -1
      vertex 9.56709 23.097 -1
    endloop
  endfacet
  facet normal 0 0 -1
    outer loop
      vertex 4.87726 -24.5196 -1
      vertex 7.25712 23.9235 -1
      vertex 7.25712 -23.9235 -1
    endloop
  endfacet
  facet normal 0 0 -1
    outer loop
      vertex 4.87726 -24.5196 -1
      vertex 4.87726 24.5196 -1
      vertex 7.25712 23.9235 -1
    endloop
  endfacet
  facet normal 0 0 -1
    outer loop
      vertex 2.45043 -24.8796 -1
      vertex 4.87726 24.5196 -1
      vertex 4.87726 -24.5196 -1
    endloop
  endfacet
  facet normal 0 0 -1
    outer loop
      vertex 2.45043 -24.8796 -1
      vertex 2.45043 24.8796 -1
      vertex 4.87726 24.5196 -1
    endloop
  endfacet
  facet normal 0 0 -1
    outer loop
      vertex -0 -25 -1
      vertex 2.45043 24.8796 -1
      vertex 2.45043 -24.8796 -1
    endloop
  endfacet
  facet normal 0 0 -1
    outer loop
      vertex -0 -25 -1
      vertex 0 25 -1
      vertex 2.45043 24.8796 -1
    endloop
  endfacet
  facet normal 0 0 -1
    outer loop
      vertex -2.45043 -24.8796 -1
      vertex 0 25 -1
      vertex -0 -25 -1
    endloop
  endfacet
  facet normal 0 0 -1
    outer loop
      vertex -2.45043 -24.8796 -1
      vertex -2.45043 24.8796 -1
      vertex 0 25 -1
    endloop
  endfacet
  facet normal 0 0 -1
    outer loop
      vertex -4.87726 -24.5196 -1
      vertex -2.45043 24.8796 -1
      vertex -2.45043 -24.8796 -1
    endloop
  endfacet
  facet normal 0 0 -1
    outer loop
      vertex -4.87726 -24.5196 -1
      vertex -4.87726 24.5196 -1
      vertex -2.45043 24.8796 -1
    endloop
  endfacet
  facet normal 0 0 -1
    outer loop
      vertex -7.25712 -23.9235 -1
      vertex -4.87726 24.5196 -1
      vertex -4.87726 -24.5196 -1
    endloop
  endfacet
  facet normal 0 0 -1
    outer loop
      vertex -7.25712 -23.9235 -1
      vertex -7.25712 23.9235 -1
      vertex -4.87726 24.5196 -1
    endloop
  endfacet
  facet normal 0 0 -1
    outer loop
      vertex -9.56709 -23.097 -1
      vertex -7.25712 23.9235 -1
      vertex -7.25712 -23.9235 -1
    endloop
  endfacet
  facet normal 0 0 -1
    outer loop
      vertex -9.56709 -23.097 -1
      vertex -9.56709 23.097 -1
      vertex -7.25712 23.9235 -1
    endloop
  endfacet
  facet normal 0 0 -1
    outer loop
      vertex -11.7849 -22.048 -1
      vertex -9.56709 23.097 -1
      vertex -9.56709 -23.097 -1
    endloop
  endfacet
  facet normal 0 0 -1
    outer loop
      vertex -11.7849 -22.048 -1
      vertex -11.7849 22.048 -1
      vertex -9.56709 23.097 -1
    endloop
  endfacet
  facet normal 0 0 -1
    outer loop
      vertex -13.8893 -20.7867 -1
      vertex -11.7849 22.048 -1
      vertex -11.7849 -22.048 -1
    endloop
  endfacet
  facet normal 0 0 -1
    outer loop
      vertex -13.8893 -20.7867 -1
      vertex -13.8893 20.7867 -1
      vertex -11.7849 22.048 -1
    endloop
  endfacet
  facet normal 0 0 -1
    outer loop
      vertex -15.8598 -19.3253 -1
      vertex -13.8893 20.7867 -1
      vertex -13.8893 -20.7867 -1
    endloop
  endfacet
  facet normal 0 0 -1
    outer loop
      vertex -15.8598 -19.3253 -1
      vertex -15.8598 19.3253 -1
      vertex -13.8893 20.7867 -1
    endloop
  endfacet
  facet normal 0 0 -1
    outer loop
      vertex -17.6777 -17.6777 -1
      vertex -15.8598 19.3253 -1
      vertex -15.8598 -19.3253 -1
    endloop
  endfacet
  facet normal 0 0 -1
    outer loop
      vertex -17.6777 -17.6777 -1
      vertex -17.6777 17.6777 -1
      vertex -15.8598 19.3253 -1
    endloop
  endfacet
  facet normal 0 0 -1
    outer loop
      vertex -19.3253 -15.8598 -1
      vertex -17.6777 17.6777 -1
      vertex -17.6777 -17.6777 -1
    endloop
  endfacet
  facet normal 0 0 -1
    outer loop
      vertex -19.3253 -15.8598 -1
      vertex -19.3253 15.8598 -1
      vertex -17.6777 17.6777 -1
    endloop
  endfacet
  facet normal 0 0 -1
    outer loop
      vertex -20.7867 -13.8893 -1
      vertex -19.3253 15.8598 -1
      vertex -19.3253 -15.8598 -1
    endloop
  endfacet
  facet normal 0 0 -1
    outer loop
      vertex -20.7867 -13.8893 -1
      vertex -20.7867 13.8893 -1
      vertex -19.3253 15.8598 -1
    endloop
  endfacet
  facet normal 0 0 -1
    outer loop
      vertex -22.048 -11.7849 -1
      vertex -20.7867 13.8893 -1
      vertex -20.7867 -13.8893 -1
    endloop
  endfacet
  facet normal 0 0 -1
    outer loop
      vertex -22.048 -11.7849 -1
      vertex -22.048 11.7849 -1
      vertex -20.7867 13.8893 -1
    endloop
  endfacet
  facet normal 0 0 -1
    outer loop
      vertex -23.097 -9.56709 -1
      vertex -22.048 11.7849 -1
      vertex -22.048 -11.7849 -1
    endloop
  endfacet
  facet normal 0 0 -1
    outer loop
      vertex -23.097 -9.56709 -1
      vertex -23.097 9.56709 -1
      vertex -22.048 11.7849 -1
    endloop
  endfacet
  facet normal 0 0 -1
    outer loop
      vertex -23.9235 -7.25712 -1
      vertex -23.097 9.56709 -1
      vertex -23.097 -9.56709 -1
    endloop
  endfacet
  facet normal 0 0 -1
    outer loop
      vertex -23.9235 -7.25712 -1
      vertex -23.9235 7.25712 -1
      vertex -23.097 9.56709 -1
    endloop
  endfacet
  facet normal 0 0 -1
    outer loop
      vertex -24.5196 -4.87726 -1
      vertex -23.9235 7.25712 -1
      vertex -23.9235 -7.25712 -1
    endloop
  endfacet
  facet normal 0 0 -1
    outer loop
      vertex -24.5196 -4.87726 -1
      vertex -24.5196 4.87726 -1
      vertex -23.9235 7.25712 -1
    endloop
  endfacet
  facet normal 0 0 -1
    outer loop
      vertex -24.8796 -2.45043 -1
      vertex -24.5196 4.87726 -1
      vertex -24.5196 -4.87726 -1
    endloop
  endfacet
  facet normal 0 0 -1
    outer loop
      vertex -24.8796 -2.45043 -1
      vertex -24.8796 2.45043 -1
      vertex -24.5196 4.87726 -1
    endloop
  endfacet
  facet normal 0 -0 -1
    outer loop
      vertex -24.8796 2.45043 -1
      vertex -24.8796 -2.45043 -1
      vertex -25 -0 -1
    endloop
  endfacet
  facet normal 0 0 1
    outer loop
      vertex 24.8796 2.45043 1
      vertex 24.8796 -2.45043 1
      vertex 25 0 1
    endloop
  endfacet
  facet normal 0 0 1
    outer loop
      vertex 24.5196 4.87726 1
      vertex 24.8796 -2.45043 1
      vertex 24.8796 2.45043 1
    endloop
  endfacet
  facet normal 0 0 1
    outer loop
      vertex 24.5196 4.87726 1
      vertex 24.5196 -4.87726 1
      vertex 24.8796 -2.45043 1
    endloop
  endfacet
  facet normal 0 0 1
    outer loop
      vertex 23.9235 7.25712 1
      vertex 24.5196 -4.87726 1
      vertex 24.5196 4.87726 1
    endloop
  endfacet
  facet normal 0 0 1
    outer loop
      vertex 23.9235 7.25712 1
      vertex 23.9235 -7.25712 1
      vertex 24.5196 -4.87726 1
    endloop
  endfacet
  facet normal 0 0 1
    outer loop
      vertex 23.097 9.56709 1
      vertex 23.9235 -7.25712 1
      vertex 23.9235 7.25712 1
    endloop
  endfacet
  facet normal 0 0 1
    outer loop
      vertex 23.097 9.56709 1
      vertex 23.097 -9.56709 1
      vertex 23.9235 -7.25712 1
    endloop
  endfacet
  facet normal 0 0 1
    outer loop
      vertex 22.048 11.7849 1
      vertex 23.097 -9.56709 1
      vertex 23.097 9.56709 1
    endloop
  endfacet
  facet normal 0 0 1
    outer loop
      vertex 22.048 11.7849 1
      vertex 22.048 -11.7849 1
      vertex 23.097 -9.56709 1
    endloop
  endfacet
  facet normal 0 0 1
    outer loop
      vertex 20.7867 13.8893 1
      vertex 22.048 -11.7849 1
      vertex 22.048 11.7849 1
    endloop
  endfacet
  facet normal 0 0 1
    outer loop
      vertex 20.7867 13.8893 1
      vertex 20.7867 -13.8893 1
      vertex 22.048 -11.7849 1
    endloop
  endfacet
  facet normal 0 0 1
    outer loop
      vertex 19.3253 15.8598 1
      vertex 20.7867 -13.8893 1
      vertex 20.7867 13.8893 1
    endloop
  endfacet
  facet normal 0 0 1
    outer loop
      vertex 19.3253 15.8598 1
      vertex 19.3253 -15.8598 1
      vertex 20.7867 -13.8893 1
    endloop
  endfacet
  facet normal 0 0 1
    outer loop
      vertex 17.6777 17.6777 1
      vertex 19.3253 -15.8598 1
      vertex 19.3253 15.8598 1
    endloop
  endfacet
  facet normal 0 0 1
    outer loop
      vertex 17.6777 17.6777 1
      vertex 17.6777 -17.6777 1
      vertex 19.3253 -15.8598 1
    endloop
  endfacet
  facet normal 0 0 1
    outer loop
      vertex 15.8598 19.3253 1
      vertex 17.6777 -17.6777 1
      vertex 17.6777 17.6777 1
    endloop
  endfacet
  facet normal 0 0 1
    outer loop
      vertex 15.8598 19.3253 1
      vertex 15.8598 -19.3253 1
      vertex 17.6777 -17.6777 1
    endloop
  endfacet
  facet normal 0 0 1
    outer loop
      vertex 13.8893 20.7867 1
      vertex 15.8598 -19.3253 1
      vertex 15.8598 19.3253 1
    endloop
  endfacet
  facet normal 0 0 1
    outer loop
      vertex 13.8893 20.7867 1
      vertex 13.8893 -20.7867 1
      vertex 15.8598 -19.3253 1
    endloop
  endfacet
  facet normal 0 0 1
    outer loop
      vertex 11.7849 22.048 1
      vertex 13.8893 -20.7867 1
      vertex 13.8893 20.7867 1
    endloop
  endfacet
  facet normal 0 0 1
    outer loop
      vertex 11.7849 22.048 1
      vertex 11.7849 -22.048 1
      vertex 13.8893 -20.7867 1
    endloop
  endfacet
  facet normal 0 0 1
    outer loop
      vertex 9.56709 23.097 1
      vertex 11.7849 -22.048 1
      vertex 11.7849 22.048 1
    endloop
  endfacet
  facet normal 0 0 1
    outer loop
      vertex 9.56709 23.097 1
      vertex 9.56709 -23.097 1
      vertex 11.7849 -22.048 1
    endloop
  endfacet
  facet normal 0 0 1
    outer loop
      vertex 7.25712 23.9235 1
      vertex 9.56709 -23.097 1
      vertex 9.56709 23.097 1
    endloop
  endfacet
  facet normal 0 0 1
    outer loop
      vertex 7.25712 23.9235 1
      vertex 7.25712 -23.9235 1
      vertex 9.56709 -23.097 1
    endloop
  endfacet
  facet normal 0 0 1
    outer loop
      vertex 4.87726 24.5196 1
      vertex 7.25712 -23.9235 1
      vertex 7.25712 23.9235 1
    endloop
  endfacet
  facet normal 0 0 1
    outer loop
      vertex 4.87726 24.5196 1
      vertex 4.87726 -24.5196 1
      vertex 7.25712 -23.9235 1
    endloop
  endfacet
  facet normal 0 0 1
    outer loop
      vertex 2.45043 24.8796 1
      vertex 4.87726 -24.5196 1
      vertex 4.87726 24.5196 1
    endloop
  endfacet
  facet normal 0 0 1
    outer loop
      vertex 2.45043 24.8796 1
      vertex 2.45043 -24.8796 1
      vertex 4.87726 -24.5196 1
    endloop
  endfacet
  facet normal 0 0 1
    outer loop
      vertex 0 25 1
      vertex 2.45043 -24.8796 1
      vertex 2.45043 24.8796 1
    endloop
  endfacet
  facet normal 0 0 1
    outer loop
      vertex 0 25 1
      vertex -0 -25 1
      vertex 2.45043 -24.8796 1
    endloop
  endfacet
  facet normal -0 0 1
    outer loop
      vertex -2.45043 24.8796 1
      vertex -0 -25 1
      vertex 0 25 1
    endloop
  endfacet
  facet normal 0 0 1
    outer loop
      vertex -2.45043 24.8796 1
      vertex -2.45043 -24.8796 1
      vertex -0 -25 1
    endloop
  endfacet
  facet normal -0 0 1
    outer loop
      vertex -4.87726 24.5196 1
      vertex -2.45043 -24.8796 1
      vertex -2.45043 24.8796 1
    endloop
  endfacet
  facet normal 0 0 1
    outer loop
      vertex -4.87726 24.5196 1
      vertex -4.87726 -24.5196 1
      vertex -2.45043 -24.8796 1
    endloop
  endfacet
  facet normal -0 0 1
    outer loop
      vertex -7.25712 23.9235 1
      vertex -4.87726 -24.5196 1
      vertex -4.87726 24.5196 1
    endloop
  endfacet
  facet normal 0 0 1
    outer loop
      vertex -7.25712 23.9235 1
      vertex -7.25712 -23.9235 1
      vertex -4.87726 -24.5196 1
    endloop
  endfacet
  facet normal -0 0 1
    outer loop
      vertex -9.56709 23.097 1
      vertex -7.25712 -23.9235 1
      vertex -7.25712 23.9235 1
    endloop
  endfacet
  facet normal 0 0 1
    outer loop
      vertex -9.56709 23.097 1
      vertex -9.56709 -23.097 1
      vertex -7.25712 -23.9235 1
    endloop
  endfacet
  facet normal -0 0 1
    outer loop
      vertex -11.7849 22.048 1
      vertex -9.56709 -23.097 1
      vertex -9.56709 23.097 1
    endloop
  endfacet
  facet normal 0 0 1
    outer loop
      vertex -11.7849 22.048 1
      vertex -11.7849 -22.048 1
      vertex -9.56709 -23.097 1
    endloop
  endfacet
  facet normal -0 0 1
    outer loop
      vertex -13.8893 20.7867 1
      vertex -11.7849 -22.048 1
      vertex -11.7849 22.048 1
    endloop
  endfacet
  facet normal 0 0 1
    outer loop
      vertex -13.8893 20.7867 1
      vertex -13.8893 -20.7867 1
      vertex -11.7849 -22.048 1
    endloop
  endfacet
  facet normal -0 0 1
    outer loop
      vertex -15.8598 19.3253 1
      vertex -13.8893 -20.7867 1
      vertex -13.8893 20.7867 1
    endloop
  endfacet
  facet normal 0 0 1
    outer loop
      vertex -15.8598 19.3253 1
      vertex -15.8598 -19.3253 1
      vertex -13.8893 -20.7867 1
    endloop
  endfacet
  facet normal -0 0 1
    outer loop
      vertex -17.6777 17.6777 1
      vertex -15.8598 -19.3253 1
      vertex -15.8598 19.3253 1
    endloop
  endfacet
  facet normal 0 0 1
    outer loop
      vertex -17.6777 17.6777 1
      vertex -17.6777 -17.6777 1
      vertex -15.8598 -19.3253 1
    endloop
  endfacet
  facet normal -0 0 1
    outer loop
      vertex -19.3253 15.8598 1
      vertex -17.6777 -17.6777 1
      vertex -17.6777 17.6777 1
    endloop
  endfacet
  facet normal 0 0 1
    outer loop
      vertex -19.3253 15.8598 1
      vertex -19.3253 -15.8598 1
      vertex -17.6777 -17.6777 1
    endloop
  endfacet
  facet normal -0 0 1
    outer loop
      vertex -20.7867 13.8893 1
      vertex -19.3253 -15.8598 1
      vertex -19.3253 15.8598 1
    endloop
  endfacet
  facet normal 0 0 1
    outer loop
      vertex -20.7867 13.8893 1
      vertex -20.7867 -13.8893 1
      vertex -19.3253 -15.8598 1
    endloop
  endfacet
  facet normal -0 0 1
    outer loop
      vertex -22.048 11.7849 1
      vertex -20.7867 -13.8893 1
      vertex -20.7867 13.8893 1
    endloop
  endfacet
  facet normal 0 0 1
    outer loop
      vertex -22.048 11.7849 1
      vertex -22.048 -11.7849 1
      vertex -20.7867 -13.8893 1
    endloop
  endfacet
  facet normal -0 0 1
    outer loop
      vertex -23.097 9.56709 1
      vertex -22.048 -11.7849 1
      vertex -22.048 11.7849 1
    endloop
  endfacet
  facet normal 0 0 1
    outer loop
      vertex -23.097 9.56709 1
      vertex -23.097 -9.56709 1
      vertex -22.048 -11.7849 1
    endloop
  endfacet
  facet normal -0 0 1
    outer loop
      vertex -23.9235 7.25712 1
      vertex -23.097 -9.56709 1
      vertex -23.097 9.56709 1
    endloop
  endfacet
  facet normal 0 0 1
    outer loop
      vertex -23.9235 7.25712 1
      vertex -23.9235 -7.25712 1
      vertex -23.097 -9.56709 1
    endloop
  endfacet
  facet normal -0 0 1
    outer loop
      vertex -24.5196 4.87726 1
      vertex -23.9235 -7.25712 1
      vertex -23.9235 7.25712 1
    endloop
  endfacet
  facet normal 0 0 1
    outer loop
      vertex -24.5196 4.87726 1
      vertex -24.5196 -4.87726 1
      vertex -23.9235 -7.25712 1
    endloop
  endfacet
  facet normal -0 0 1
    outer loop
      vertex -24.8796 2.45043 1
      vertex -24.5196 -4.87726 1
      vertex -24.5196 4.87726 1
    endloop
  endfacet
  facet normal 0 0 1
    outer loop
      vertex -24.8796 2.45043 1
      vertex -24.8796 -2.45043 1
      vertex -24.5196 -4.87726 1
    endloop
  endfacet
  facet normal 0 -0 1
    outer loop
      vertex -24.8796 -2.45043 1
      vertex -24.8796 2.45043 1
      vertex -25 -0 1
    endloop
  endfacet
endsolid OpenSCAD_Model
