solid OpenSCAD_Model
  facet normal 0 0 -1
    outer loop
      vertex 9.72223 0 0
      vertex 12.4348 -1.15519 0
      vertex 12.3546 -1.72062 0
    endloop
  endfacet
  facet normal 0 0 -1
    outer loop
      vertex 4.16663 10 0
      vertex 3.08223 12.3027 0
      vertex 3.28576 12.372 0
    endloop
  endfacet
  facet normal 0 0 -1
    outer loop
      vertex 1.38886 0 0
      vertex 1.38886 10 0
      vertex 4.16663 0 0
    endloop
  endfacet
  facet normal 0 0 -1
    outer loop
      vertex 4.16663 12.5 0
      vertex 9.72223 10 0
      vertex 4.16663 10 0
    endloop
  endfacet
  facet normal 0 0 -1
    outer loop
      vertex 4.16663 0 0
      vertex 1.38886 10 0
      vertex 4.16663 10 0
    endloop
  endfacet
  facet normal 0 -0 -1
    outer loop
      vertex 2.05502 11.6247 0
      vertex 4.16663 10 0
      vertex 1.92261 11.474 0
    endloop
  endfacet
  facet normal -0 0 -1
    outer loop
      vertex 12.4836 -0.581379 0
      vertex 12.4348 -1.15519 0
      vertex 9.72223 0 0
    endloop
  endfacet
  facet normal 0 0 -1
    outer loop
      vertex 1.38886 10 0
      vertex 1.39805 10.2043 0
      vertex 4.16663 10 0
    endloop
  endfacet
  facet normal 0 -0 -1
    outer loop
      vertex 9.72223 0 0
      vertex 12.3546 -1.72062 0
      vertex 9.31943 -2.49999 0
    endloop
  endfacet
  facet normal 0 -0 -1
    outer loop
      vertex 1.92261 11.474 0
      vertex 4.16663 10 0
      vertex 1.80325 11.3144 0
    endloop
  endfacet
  facet normal 0 0 -1
    outer loop
      vertex 9.31943 -2.49999 0
      vertex 12.3546 -1.72062 0
      vertex 12.2435 -2.27696 0
    endloop
  endfacet
  facet normal 0 0 -1
    outer loop
      vertex 1.69752 11.1464 0
      vertex 1.80325 11.3144 0
      vertex 4.16663 10 0
    endloop
  endfacet
  facet normal 0 0 -1
    outer loop
      vertex 12.1027 -2.82363 0
      vertex 9.31943 -2.49999 0
      vertex 12.2435 -2.27696 0
    endloop
  endfacet
  facet normal -0 0 -1
    outer loop
      vertex 12.1027 -2.82363 0
      vertex 11.9327 -3.35981 0
      vertex 9.31943 -2.49999 0
    endloop
  endfacet
  facet normal 0 -0 -1
    outer loop
      vertex 9.31943 -2.49999 0
      vertex 11.9327 -3.35981 0
      vertex 9.19243 -2.85505 0
    endloop
  endfacet
  facet normal 0 0 -1
    outer loop
      vertex 9.19243 -2.85505 0
      vertex 11.9327 -3.35981 0
      vertex 11.7343 -3.8848 0
    endloop
  endfacet
  facet normal 0 0 -1
    outer loop
      vertex 9.04916 -3.20367 0
      vertex 9.19243 -2.85505 0
      vertex 11.7343 -3.8848 0
    endloop
  endfacet
  facet normal 0 0 -1
    outer loop
      vertex 4.16663 0 0
      vertex 9.72223 0 0
      vertex 9.31943 -2.49999 0
    endloop
  endfacet
  facet normal 0 0 -1
    outer loop
      vertex 11.5085 -4.398 0
      vertex 8.89008 -3.54548 0
      vertex 9.04916 -3.20367 0
    endloop
  endfacet
  facet normal 0 -0 -1
    outer loop
      vertex 10.6723 12.3492 0
      vertex 11.1111 12.1651 0
      vertex 9.72223 10 0
    endloop
  endfacet
  facet normal -0 0 -1
    outer loop
      vertex 12.3325 10.855 0
      vertex 9.72223 10 0
      vertex 12.1278 11.25 0
    endloop
  endfacet
  facet normal 0 -0 -1
    outer loop
      vertex 12.3325 10.855 0
      vertex 12.4578 10.4341 0
      vertex 9.72223 10 0
    endloop
  endfacet
  facet normal -0 0 -1
    outer loop
      vertex 11.8501 11.607 0
      vertex 9.72223 10 0
      vertex 11.5078 11.9151 0
    endloop
  endfacet
  facet normal 0 0 -1
    outer loop
      vertex 9.72223 10 0
      vertex 11.1111 12.1651 0
      vertex 11.5078 11.9151 0
    endloop
  endfacet
  facet normal 0 0 -1
    outer loop
      vertex 9.72223 10 0
      vertex 10.2046 12.462 0
      vertex 10.6723 12.3492 0
    endloop
  endfacet
  facet normal -0 0 -1
    outer loop
      vertex 12.1278 11.25 0
      vertex 9.72223 10 0
      vertex 11.8501 11.607 0
    endloop
  endfacet
  facet normal -0 0 -1
    outer loop
      vertex 10.2046 12.462 0
      vertex 9.72223 10 0
      vertex 9.72223 12.5 0
    endloop
  endfacet
  facet normal 0 0 -1
    outer loop
      vertex 4.16663 10 0
      vertex 3.9378 12.4917 0
      vertex 4.16663 12.5 0
    endloop
  endfacet
  facet normal 0 0 -1
    outer loop
      vertex 4.16663 10 0
      vertex 3.71427 12.4671 0
      vertex 3.9378 12.4917 0
    endloop
  endfacet
  facet normal 0 0 -1
    outer loop
      vertex 3.28576 12.372 0
      vertex 3.49668 12.427 0
      vertex 4.16663 10 0
    endloop
  endfacet
  facet normal 0 0 -1
    outer loop
      vertex 4.16663 10 0
      vertex 2.7001 12.1241 0
      vertex 2.88675 12.2199 0
    endloop
  endfacet
  facet normal 0 -0 -1
    outer loop
      vertex 3.08223 12.3027 0
      vertex 4.16663 10 0
      vertex 2.88675 12.2199 0
    endloop
  endfacet
  facet normal 0 0 -1
    outer loop
      vertex 3.49668 12.427 0
      vertex 3.71427 12.4671 0
      vertex 4.16663 10 0
    endloop
  endfacet
  facet normal 0 0 -1
    outer loop
      vertex 2.52288 12.016 0
      vertex 2.7001 12.1241 0
      vertex 4.16663 10 0
    endloop
  endfacet
  facet normal 0 0 -1
    outer loop
      vertex 2.35581 11.8963 0
      vertex 2.52288 12.016 0
      vertex 4.16663 10 0
    endloop
  endfacet
  facet normal 0 0 -1
    outer loop
      vertex 2.19962 11.7656 0
      vertex 2.35581 11.8963 0
      vertex 4.16663 10 0
    endloop
  endfacet
  facet normal 0 0 -1
    outer loop
      vertex 2.05502 11.6247 0
      vertex 2.19962 11.7656 0
      vertex 4.16663 10 0
    endloop
  endfacet
  facet normal 0 0 -1
    outer loop
      vertex 1.60608 10.9707 0
      vertex 1.69752 11.1464 0
      vertex 4.16663 10 0
    endloop
  endfacet
  facet normal 0 0 -1
    outer loop
      vertex 1.42502 10.4041 0
      vertex 1.46917 10.5989 0
      vertex 4.16663 10 0
    endloop
  endfacet
  facet normal 0 0 -1
    outer loop
      vertex 4.16663 10 0
      vertex 1.52973 10.788 0
      vertex 1.60608 10.9707 0
    endloop
  endfacet
  facet normal 0 0 -1
    outer loop
      vertex 4.16663 10 0
      vertex 1.46917 10.5989 0
      vertex 1.52973 10.788 0
    endloop
  endfacet
  facet normal 0 0 -1
    outer loop
      vertex 1.39805 10.2043 0
      vertex 1.42502 10.4041 0
      vertex 4.16663 10 0
    endloop
  endfacet
  facet normal 0 0 -1
    outer loop
      vertex 11.2559 -4.8986 0
      vertex 8.71557 -3.8801 0
      vertex 8.89008 -3.54548 0
    endloop
  endfacet
  facet normal -0 0 -1
    outer loop
      vertex 11.2559 -4.8986 0
      vertex 10.9774 -5.38591 0
      vertex 8.71557 -3.8801 0
    endloop
  endfacet
  facet normal 0 -0 -1
    outer loop
      vertex 8.71557 -3.8801 0
      vertex 10.9774 -5.38591 0
      vertex 8.52603 -4.20704 0
    endloop
  endfacet
  facet normal 0 -0 -1
    outer loop
      vertex 8.52603 -4.20704 0
      vertex 10.9774 -5.38591 0
      vertex 8.32196 -4.52587 0
    endloop
  endfacet
  facet normal 0 0 -1
    outer loop
      vertex 8.32196 -4.52587 0
      vertex 10.9774 -5.38591 0
      vertex 10.6739 -5.85931 0
    endloop
  endfacet
  facet normal 0 0 -1
    outer loop
      vertex 8.10371 -4.83626 0
      vertex 8.32196 -4.52587 0
      vertex 10.6739 -5.85931 0
    endloop
  endfacet
  facet normal 0 0 -1
    outer loop
      vertex 7.91339 -8.72269 0
      vertex 6.21414 -6.73709 0
      vertex 8.3702 -8.36677 0
    endloop
  endfacet
  facet normal 0 0 -1
    outer loop
      vertex 9.99467 -6.76131 0
      vertex 7.6263 -5.42997 0
      vertex 7.87164 -5.13779 0
    endloop
  endfacet
  facet normal 0 -0 -1
    outer loop
      vertex 7.6263 -5.42997 0
      vertex 9.62058 -7.18854 0
      vertex 7.36804 -5.71247 0
    endloop
  endfacet
  facet normal 0 -0 -1
    outer loop
      vertex -7.39736 -4.9856 0
      vertex -6.98591 -5.31778 0
      vertex -8.97917 -6.82446 0
    endloop
  endfacet
  facet normal 0 -0 -1
    outer loop
      vertex -6.98591 -5.31778 0
      vertex -6.55181 -5.63883 0
      vertex -8.4167 -7.2531 0
    endloop
  endfacet
  facet normal 0 0 -1
    outer loop
      vertex -8.4167 -7.2531 0
      vertex -6.55181 -5.63883 0
      vertex -7.81247 -7.66228 0
    endloop
  endfacet
  facet normal 0 0 -1
    outer loop
      vertex -7.81247 -7.66228 0
      vertex -6.09897 -5.94685 0
      vertex -7.16667 -8.0508 0
    endloop
  endfacet
  facet normal 0 0 -1
    outer loop
      vertex -7.16667 -8.0508 0
      vertex -6.09897 -5.94685 0
      vertex -5.63124 -6.24011 0
    endloop
  endfacet
  facet normal 0 0 -1
    outer loop
      vertex -6.47918 -8.41748 0
      vertex -5.63124 -6.24011 0
      vertex -5.15244 -6.51671 0
    endloop
  endfacet
  facet normal 0 0 -1
    outer loop
      vertex -5.75 -8.76113 0
      vertex -5.15244 -6.51671 0
      vertex -4.6665 -6.77483 0
    endloop
  endfacet
  facet normal 0 0 -1
    outer loop
      vertex -4.97913 -9.08072 0
      vertex -5.75 -8.76113 0
      vertex -4.17726 -7.01272 0
    endloop
  endfacet
  facet normal 0 0 -1
    outer loop
      vertex -4.16663 -9.375 0
      vertex -4.97913 -9.08072 0
      vertex -3.68856 -7.2285 0
    endloop
  endfacet
  facet normal -0 0 -1
    outer loop
      vertex -3.2043 -7.42038 0
      vertex -4.16663 -9.375 0
      vertex -3.68856 -7.2285 0
    endloop
  endfacet
  facet normal 0 -0 -1
    outer loop
      vertex -3.2043 -7.42038 0
      vertex -2.72833 -7.58653 0
      vertex -4.16663 -9.375 0
    endloop
  endfacet
  facet normal 0 0 -1
    outer loop
      vertex -4.16663 -9.375 0
      vertex -2.72833 -7.58653 0
      vertex -2.26456 -7.72516 0
    endloop
  endfacet
  facet normal 0 0 -1
    outer loop
      vertex -1.38886 -10 0
      vertex -4.16663 -9.375 0
      vertex -2.26456 -7.72516 0
    endloop
  endfacet
  facet normal -0 -0 -1
    outer loop
      vertex -1.81676 -7.83442 0
      vertex -1.38886 -10 0
      vertex -2.26456 -7.72516 0
    endloop
  endfacet
  facet normal 0 0 -1
    outer loop
      vertex -12.5 0 0
      vertex 1.38886 0 0
      vertex -9.31943 -2.49999 0
    endloop
  endfacet
  facet normal 0 0 -1
    outer loop
      vertex -4.16663 -12.5 0
      vertex -4.16663 -9.375 0
      vertex -1.38886 -10 0
    endloop
  endfacet
  facet normal 0 0 -1
    outer loop
      vertex 6.94446 -12.5 0
      vertex -4.16663 -12.5 0
      vertex 4.16663 -10 0
    endloop
  endfacet
  facet normal 0 0 -1
    outer loop
      vertex 12.4836 -0.581379 0
      vertex 9.72223 0 0
      vertex 12.5 0 0
    endloop
  endfacet
  facet normal 0 0 -1
    outer loop
      vertex 9.72223 10 0
      vertex 12.5 10 0
      vertex 12.5 0 0
    endloop
  endfacet
  facet normal 0 0 -1
    outer loop
      vertex 11.2559 -4.8986 0
      vertex 8.89008 -3.54548 0
      vertex 11.5085 -4.398 0
    endloop
  endfacet
  facet normal 0 0 -1
    outer loop
      vertex 4.16663 12.5 0
      vertex 9.72223 12.5 0
      vertex 9.72223 10 0
    endloop
  endfacet
  facet normal 0 0 -1
    outer loop
      vertex 9.72223 0 0
      vertex 9.72223 10 0
      vertex 12.5 0 0
    endloop
  endfacet
  facet normal 0 0 -1
    outer loop
      vertex 9.72223 10 0
      vertex 12.4578 10.4341 0
      vertex 12.5 10 0
    endloop
  endfacet
  facet normal 0 0 -1
    outer loop
      vertex 8.33331 4.99998 0
      vertex 5.55554 8.74999 0
      vertex 8.33331 8.74999 0
    endloop
  endfacet
  facet normal 0 0 -1
    outer loop
      vertex 5.55554 4.99998 0
      vertex 5.55554 8.74999 0
      vertex 8.33331 4.99998 0
    endloop
  endfacet
  facet normal 0 0 -1
    outer loop
      vertex 6.94446 -12.5 0
      vertex 4.16663 -10 0
      vertex 6.94446 -9.375 0
    endloop
  endfacet
  facet normal 0 0 -1
    outer loop
      vertex 9.22463 -7.59902 0
      vertex 7.36804 -5.71247 0
      vertex 9.62058 -7.18854 0
    endloop
  endfacet
  facet normal 0 0 -1
    outer loop
      vertex -4.16663 -12.5 0
      vertex -1.38886 -10 0
      vertex 4.16663 -10 0
    endloop
  endfacet
  facet normal 0 0 -1
    outer loop
      vertex 6.21414 -6.73709 0
      vertex 6.51991 -6.49757 0
      vertex 8.3702 -8.36677 0
    endloop
  endfacet
  facet normal 0 0 -1
    outer loop
      vertex -1.81676 -7.83442 0
      vertex -1.38886 -7.9125 0
      vertex -1.38886 -10 0
    endloop
  endfacet
  facet normal -0 0 -1
    outer loop
      vertex -3.68856 -7.2285 0
      vertex -4.97913 -9.08072 0
      vertex -4.17726 -7.01272 0
    endloop
  endfacet
  facet normal 0 0 -1
    outer loop
      vertex 6.51991 -6.49757 0
      vertex 6.81446 -6.2467 0
      vertex 8.3702 -8.36677 0
    endloop
  endfacet
  facet normal -0 0 -1
    outer loop
      vertex -4.17726 -7.01272 0
      vertex -5.75 -8.76113 0
      vertex -4.6665 -6.77483 0
    endloop
  endfacet
  facet normal 0 0 -1
    outer loop
      vertex -5.75 -8.76113 0
      vertex -6.47918 -8.41748 0
      vertex -5.15244 -6.51671 0
    endloop
  endfacet
  facet normal 0 0 -1
    outer loop
      vertex 6.81446 -6.2467 0
      vertex 8.80754 -7.99197 0
      vertex 8.3702 -8.36677 0
    endloop
  endfacet
  facet normal 0 0 -1
    outer loop
      vertex -6.47918 -8.41748 0
      vertex -7.16667 -8.0508 0
      vertex -5.63124 -6.24011 0
    endloop
  endfacet
  facet normal 0 0 -1
    outer loop
      vertex -7.81247 -7.66228 0
      vertex -6.55181 -5.63883 0
      vertex -6.09897 -5.94685 0
    endloop
  endfacet
  facet normal 0 0 -1
    outer loop
      vertex 7.09729 -5.98486 0
      vertex 9.22463 -7.59902 0
      vertex 8.80754 -7.99197 0
    endloop
  endfacet
  facet normal 0 0 -1
    outer loop
      vertex -8.97917 -6.82446 0
      vertex -6.98591 -5.31778 0
      vertex -8.4167 -7.2531 0
    endloop
  endfacet
  facet normal 0 0 -1
    outer loop
      vertex -9.50001 -6.37738 0
      vertex -7.39736 -4.9856 0
      vertex -8.97917 -6.82446 0
    endloop
  endfacet
  facet normal 0 -0 -1
    outer loop
      vertex 7.36804 -5.71247 0
      vertex 9.22463 -7.59902 0
      vertex 7.09729 -5.98486 0
    endloop
  endfacet
  facet normal 0 0 -1
    outer loop
      vertex -9.97917 -5.91311 0
      vertex -7.78231 -4.644 0
      vertex -9.50001 -6.37738 0
    endloop
  endfacet
  facet normal 0 -0 -1
    outer loop
      vertex -7.78231 -4.644 0
      vertex -7.39736 -4.9856 0
      vertex -9.50001 -6.37738 0
    endloop
  endfacet
  facet normal 0 0 -1
    outer loop
      vertex -10.4167 -5.43278 0
      vertex -8.13693 -4.29489 0
      vertex -9.97917 -5.91311 0
    endloop
  endfacet
  facet normal 0 -0 -1
    outer loop
      vertex -8.13693 -4.29489 0
      vertex -7.78231 -4.644 0
      vertex -9.97917 -5.91311 0
    endloop
  endfacet
  facet normal -0 0 -1
    outer loop
      vertex 9.99467 -6.76131 0
      vertex 9.62058 -7.18854 0
      vertex 7.6263 -5.42997 0
    endloop
  endfacet
  facet normal 0 -0 -1
    outer loop
      vertex -8.45731 -3.94006 0
      vertex -8.13693 -4.29489 0
      vertex -10.4167 -5.43278 0
    endloop
  endfacet
  facet normal 0 0 -1
    outer loop
      vertex -10.8125 -4.93759 0
      vertex -8.73966 -3.58138 0
      vertex -8.45731 -3.94006 0
    endloop
  endfacet
  facet normal 0 0 -1
    outer loop
      vertex -10.8125 -4.93759 0
      vertex -8.45731 -3.94006 0
      vertex -10.4167 -5.43278 0
    endloop
  endfacet
  facet normal 0 0 -1
    outer loop
      vertex -11.1667 -4.4286 0
      vertex -8.98001 -3.22054 0
      vertex -8.73966 -3.58138 0
    endloop
  endfacet
  facet normal 0 0 -1
    outer loop
      vertex -11.1667 -4.4286 0
      vertex -8.73966 -3.58138 0
      vertex -10.8125 -4.93759 0
    endloop
  endfacet
  facet normal 0 0 -1
    outer loop
      vertex -11.4792 -3.90702 0
      vertex -9.17459 -2.85948 0
      vertex -8.98001 -3.22054 0
    endloop
  endfacet
  facet normal 0 0 -1
    outer loop
      vertex -11.4792 -3.90702 0
      vertex -8.98001 -3.22054 0
      vertex -11.1667 -4.4286 0
    endloop
  endfacet
  facet normal 0 0 -1
    outer loop
      vertex -11.75 -3.37398 0
      vertex -9.31943 -2.49999 0
      vertex -9.17459 -2.85948 0
    endloop
  endfacet
  facet normal 0 0 -1
    outer loop
      vertex -11.75 -3.37398 0
      vertex -9.17459 -2.85948 0
      vertex -11.4792 -3.90702 0
    endloop
  endfacet
  facet normal 0 0 -1
    outer loop
      vertex -11.75 -3.37398 0
      vertex -11.9792 -2.83066 0
      vertex -9.31943 -2.49999 0
    endloop
  endfacet
  facet normal 0 0 -1
    outer loop
      vertex 9.99467 -6.76131 0
      vertex 7.87164 -5.13779 0
      vertex 10.346 -6.31796 0
    endloop
  endfacet
  facet normal -0 0 -1
    outer loop
      vertex -9.31943 -2.49999 0
      vertex -11.9792 -2.83066 0
      vertex -12.1667 -2.27815 0
    endloop
  endfacet
  facet normal 0 0 -1
    outer loop
      vertex -12.3125 -1.7177 0
      vertex -9.31943 -2.49999 0
      vertex -12.1667 -2.27815 0
    endloop
  endfacet
  facet normal 0 0 -1
    outer loop
      vertex 10.346 -6.31796 0
      vertex 8.10371 -4.83626 0
      vertex 10.6739 -5.85931 0
    endloop
  endfacet
  facet normal 0 0 -1
    outer loop
      vertex -12.3125 -1.7177 0
      vertex -12.4167 -1.15043 0
      vertex -9.31943 -2.49999 0
    endloop
  endfacet
  facet normal 0 0 -1
    outer loop
      vertex -9.31943 -2.49999 0
      vertex -12.4167 -1.15043 0
      vertex -12.4792 -0.577486 0
    endloop
  endfacet
  facet normal 0 0 -1
    outer loop
      vertex -12.5 0 0
      vertex -9.31943 -2.49999 0
      vertex -12.4792 -0.577486 0
    endloop
  endfacet
  facet normal 0 0 -1
    outer loop
      vertex 11.5085 -4.398 0
      vertex 9.04916 -3.20367 0
      vertex 11.7343 -3.8848 0
    endloop
  endfacet
  facet normal 0 -0 -1
    outer loop
      vertex 1.38886 0 0
      vertex 9.31943 -2.49999 0
      vertex -9.31943 -2.49999 0
    endloop
  endfacet
  facet normal -0 -0 -1
    outer loop
      vertex 4.16663 0 0
      vertex 9.31943 -2.49999 0
      vertex 1.38886 0 0
    endloop
  endfacet
  facet normal 0 0 -1
    outer loop
      vertex 6.81446 -6.2467 0
      vertex 7.09729 -5.98486 0
      vertex 8.80754 -7.99197 0
    endloop
  endfacet
  facet normal 0 0 -1
    outer loop
      vertex 7.87164 -5.13779 0
      vertex 8.10371 -4.83626 0
      vertex 10.346 -6.31796 0
    endloop
  endfacet
  facet normal 0 0 -1
    outer loop
      vertex 7.91339 -8.72269 0
      vertex 5.89754 -6.96482 0
      vertex 6.21414 -6.73709 0
    endloop
  endfacet
  facet normal -0 0 -1
    outer loop
      vertex 7.91339 -8.72269 0
      vertex 7.43785 -9.05898 0
      vertex 5.89754 -6.96482 0
    endloop
  endfacet
  facet normal 0 -0 -1
    outer loop
      vertex 5.89754 -6.96482 0
      vertex 7.43785 -9.05898 0
      vertex 5.57056 -7.18038 0
    endloop
  endfacet
  facet normal 0 0 -1
    outer loop
      vertex 5.57056 -7.18038 0
      vertex 7.43785 -9.05898 0
      vertex 6.94446 -9.375 0
    endloop
  endfacet
  facet normal 0 0 -1
    outer loop
      vertex 5.23354 -7.38335 0
      vertex 5.57056 -7.18038 0
      vertex 6.94446 -9.375 0
    endloop
  endfacet
  facet normal 0 0 -1
    outer loop
      vertex 4.88692 -7.57328 0
      vertex 5.23354 -7.38335 0
      vertex 6.94446 -9.375 0
    endloop
  endfacet
  facet normal 0 0 -1
    outer loop
      vertex 4.53116 -7.74981 0
      vertex 4.88692 -7.57328 0
      vertex 6.94446 -9.375 0
    endloop
  endfacet
  facet normal 0 0 -1
    outer loop
      vertex 4.16663 -10 0
      vertex 4.53116 -7.74981 0
      vertex 6.94446 -9.375 0
    endloop
  endfacet
  facet normal 0 0 -1
    outer loop
      vertex 4.16663 -10 0
      vertex 4.16663 -7.9125 0
      vertex 4.53116 -7.74981 0
    endloop
  endfacet
  facet normal 0 -0 1
    outer loop
      vertex 12.3546 -1.72062 2
      vertex 12.4348 -1.15519 2
      vertex 9.72223 0 2
    endloop
  endfacet
  facet normal 0 0 1
    outer loop
      vertex 3.28576 12.372 2
      vertex 3.08223 12.3027 2
      vertex 4.16663 10 2
    endloop
  endfacet
  facet normal 0 0 1
    outer loop
      vertex 4.16663 0 2
      vertex 1.38886 10 2
      vertex 1.38886 0 2
    endloop
  endfacet
  facet normal 0 0 1
    outer loop
      vertex 4.16663 10 2
      vertex 9.72223 10 2
      vertex 4.16663 12.5 2
    endloop
  endfacet
  facet normal 0 0 1
    outer loop
      vertex 4.16663 10 2
      vertex 1.38886 10 2
      vertex 4.16663 0 2
    endloop
  endfacet
  facet normal -0 0 1
    outer loop
      vertex 1.92261 11.474 2
      vertex 4.16663 10 2
      vertex 2.05502 11.6247 2
    endloop
  endfacet
  facet normal 0 0 1
    outer loop
      vertex 9.72223 0 2
      vertex 12.4348 -1.15519 2
      vertex 12.4836 -0.581379 2
    endloop
  endfacet
  facet normal 0 0 1
    outer loop
      vertex 4.16663 10 2
      vertex 1.39805 10.2043 2
      vertex 1.38886 10 2
    endloop
  endfacet
  facet normal 0 0 1
    outer loop
      vertex 9.31943 -2.49999 2
      vertex 12.3546 -1.72062 2
      vertex 9.72223 0 2
    endloop
  endfacet
  facet normal -0 0 1
    outer loop
      vertex 1.80325 11.3144 2
      vertex 4.16663 10 2
      vertex 1.92261 11.474 2
    endloop
  endfacet
  facet normal 0 -0 1
    outer loop
      vertex 12.2435 -2.27696 2
      vertex 12.3546 -1.72062 2
      vertex 9.31943 -2.49999 2
    endloop
  endfacet
  facet normal 0 0 1
    outer loop
      vertex 4.16663 10 2
      vertex 1.80325 11.3144 2
      vertex 1.69752 11.1464 2
    endloop
  endfacet
  facet normal 0 0 1
    outer loop
      vertex 12.2435 -2.27696 2
      vertex 9.31943 -2.49999 2
      vertex 12.1027 -2.82363 2
    endloop
  endfacet
  facet normal 0 0 1
    outer loop
      vertex 9.31943 -2.49999 2
      vertex 11.9327 -3.35981 2
      vertex 12.1027 -2.82363 2
    endloop
  endfacet
  facet normal -0 0 1
    outer loop
      vertex 9.19243 -2.85505 2
      vertex 11.9327 -3.35981 2
      vertex 9.31943 -2.49999 2
    endloop
  endfacet
  facet normal 0 -0 1
    outer loop
      vertex 11.7343 -3.8848 2
      vertex 11.9327 -3.35981 2
      vertex 9.19243 -2.85505 2
    endloop
  endfacet
  facet normal 0 0 1
    outer loop
      vertex 11.7343 -3.8848 2
      vertex 9.19243 -2.85505 2
      vertex 9.04916 -3.20367 2
    endloop
  endfacet
  facet normal 0 -0 1
    outer loop
      vertex 9.31943 -2.49999 2
      vertex 9.72223 0 2
      vertex 4.16663 0 2
    endloop
  endfacet
  facet normal 0 0 1
    outer loop
      vertex 9.04916 -3.20367 2
      vertex 8.89008 -3.54548 2
      vertex 11.5085 -4.398 2
    endloop
  endfacet
  facet normal 0 0 1
    outer loop
      vertex 9.72223 10 2
      vertex 11.1111 12.1651 2
      vertex 10.6723 12.3492 2
    endloop
  endfacet
  facet normal 0 0 1
    outer loop
      vertex 12.1278 11.25 2
      vertex 9.72223 10 2
      vertex 12.3325 10.855 2
    endloop
  endfacet
  facet normal 0 0 1
    outer loop
      vertex 9.72223 10 2
      vertex 12.4578 10.4341 2
      vertex 12.3325 10.855 2
    endloop
  endfacet
  facet normal 0 0 1
    outer loop
      vertex 11.5078 11.9151 2
      vertex 9.72223 10 2
      vertex 11.8501 11.607 2
    endloop
  endfacet
  facet normal 0 0 1
    outer loop
      vertex 11.5078 11.9151 2
      vertex 11.1111 12.1651 2
      vertex 9.72223 10 2
    endloop
  endfacet
  facet normal 0 0 1
    outer loop
      vertex 10.6723 12.3492 2
      vertex 10.2046 12.462 2
      vertex 9.72223 10 2
    endloop
  endfacet
  facet normal 0 0 1
    outer loop
      vertex 11.8501 11.607 2
      vertex 9.72223 10 2
      vertex 12.1278 11.25 2
    endloop
  endfacet
  facet normal 0 0 1
    outer loop
      vertex 9.72223 12.5 2
      vertex 9.72223 10 2
      vertex 10.2046 12.462 2
    endloop
  endfacet
  facet normal 0 0 1
    outer loop
      vertex 4.16663 12.5 2
      vertex 3.9378 12.4917 2
      vertex 4.16663 10 2
    endloop
  endfacet
  facet normal 0 0 1
    outer loop
      vertex 3.9378 12.4917 2
      vertex 3.71427 12.4671 2
      vertex 4.16663 10 2
    endloop
  endfacet
  facet normal 0 0 1
    outer loop
      vertex 4.16663 10 2
      vertex 3.49668 12.427 2
      vertex 3.28576 12.372 2
    endloop
  endfacet
  facet normal 0 0 1
    outer loop
      vertex 2.88675 12.2199 2
      vertex 2.7001 12.1241 2
      vertex 4.16663 10 2
    endloop
  endfacet
  facet normal -0 0 1
    outer loop
      vertex 2.88675 12.2199 2
      vertex 4.16663 10 2
      vertex 3.08223 12.3027 2
    endloop
  endfacet
  facet normal 0 0 1
    outer loop
      vertex 4.16663 10 2
      vertex 3.71427 12.4671 2
      vertex 3.49668 12.427 2
    endloop
  endfacet
  facet normal 0 0 1
    outer loop
      vertex 4.16663 10 2
      vertex 2.7001 12.1241 2
      vertex 2.52288 12.016 2
    endloop
  endfacet
  facet normal 0 0 1
    outer loop
      vertex 4.16663 10 2
      vertex 2.52288 12.016 2
      vertex 2.35581 11.8963 2
    endloop
  endfacet
  facet normal 0 0 1
    outer loop
      vertex 4.16663 10 2
      vertex 2.35581 11.8963 2
      vertex 2.19962 11.7656 2
    endloop
  endfacet
  facet normal 0 0 1
    outer loop
      vertex 4.16663 10 2
      vertex 2.19962 11.7656 2
      vertex 2.05502 11.6247 2
    endloop
  endfacet
  facet normal 0 0 1
    outer loop
      vertex 4.16663 10 2
      vertex 1.69752 11.1464 2
      vertex 1.60608 10.9707 2
    endloop
  endfacet
  facet normal 0 0 1
    outer loop
      vertex 4.16663 10 2
      vertex 1.46917 10.5989 2
      vertex 1.42502 10.4041 2
    endloop
  endfacet
  facet normal 0 0 1
    outer loop
      vertex 1.60608 10.9707 2
      vertex 1.52973 10.788 2
      vertex 4.16663 10 2
    endloop
  endfacet
  facet normal 0 0 1
    outer loop
      vertex 1.52973 10.788 2
      vertex 1.46917 10.5989 2
      vertex 4.16663 10 2
    endloop
  endfacet
  facet normal 0 0 1
    outer loop
      vertex 4.16663 10 2
      vertex 1.42502 10.4041 2
      vertex 1.39805 10.2043 2
    endloop
  endfacet
  facet normal 0 0 1
    outer loop
      vertex 8.89008 -3.54548 2
      vertex 8.71557 -3.8801 2
      vertex 11.2559 -4.8986 2
    endloop
  endfacet
  facet normal 0 0 1
    outer loop
      vertex 8.71557 -3.8801 2
      vertex 10.9774 -5.38591 2
      vertex 11.2559 -4.8986 2
    endloop
  endfacet
  facet normal -0 0 1
    outer loop
      vertex 8.52603 -4.20704 2
      vertex 10.9774 -5.38591 2
      vertex 8.71557 -3.8801 2
    endloop
  endfacet
  facet normal -0 0 1
    outer loop
      vertex 8.32196 -4.52587 2
      vertex 10.9774 -5.38591 2
      vertex 8.52603 -4.20704 2
    endloop
  endfacet
  facet normal 0 -0 1
    outer loop
      vertex 10.6739 -5.85931 2
      vertex 10.9774 -5.38591 2
      vertex 8.32196 -4.52587 2
    endloop
  endfacet
  facet normal 0 0 1
    outer loop
      vertex 10.6739 -5.85931 2
      vertex 8.32196 -4.52587 2
      vertex 8.10371 -4.83626 2
    endloop
  endfacet
  facet normal 0 0 1
    outer loop
      vertex 8.3702 -8.36677 2
      vertex 6.21414 -6.73709 2
      vertex 7.91339 -8.72269 2
    endloop
  endfacet
  facet normal 0 0 1
    outer loop
      vertex 7.87164 -5.13779 2
      vertex 7.6263 -5.42997 2
      vertex 9.99467 -6.76131 2
    endloop
  endfacet
  facet normal -0 0 1
    outer loop
      vertex 7.36804 -5.71247 2
      vertex 9.62058 -7.18854 2
      vertex 7.6263 -5.42997 2
    endloop
  endfacet
  facet normal 0 0 1
    outer loop
      vertex -8.97917 -6.82446 2
      vertex -6.98591 -5.31778 2
      vertex -7.39736 -4.9856 2
    endloop
  endfacet
  facet normal 0 0 1
    outer loop
      vertex -8.4167 -7.2531 2
      vertex -6.55181 -5.63883 2
      vertex -6.98591 -5.31778 2
    endloop
  endfacet
  facet normal 0 -0 1
    outer loop
      vertex -7.81247 -7.66228 2
      vertex -6.55181 -5.63883 2
      vertex -8.4167 -7.2531 2
    endloop
  endfacet
  facet normal 0 -0 1
    outer loop
      vertex -7.16667 -8.0508 2
      vertex -6.09897 -5.94685 2
      vertex -7.81247 -7.66228 2
    endloop
  endfacet
  facet normal 0 0 1
    outer loop
      vertex -5.63124 -6.24011 2
      vertex -6.09897 -5.94685 2
      vertex -7.16667 -8.0508 2
    endloop
  endfacet
  facet normal 0 0 1
    outer loop
      vertex -5.15244 -6.51671 2
      vertex -5.63124 -6.24011 2
      vertex -6.47918 -8.41748 2
    endloop
  endfacet
  facet normal 0 0 1
    outer loop
      vertex -4.6665 -6.77483 2
      vertex -5.15244 -6.51671 2
      vertex -5.75 -8.76113 2
    endloop
  endfacet
  facet normal 0 0 1
    outer loop
      vertex -4.17726 -7.01272 2
      vertex -5.75 -8.76113 2
      vertex -4.97913 -9.08072 2
    endloop
  endfacet
  facet normal 0 0 1
    outer loop
      vertex -3.68856 -7.2285 2
      vertex -4.97913 -9.08072 2
      vertex -4.16663 -9.375 2
    endloop
  endfacet
  facet normal 0 0 1
    outer loop
      vertex -3.68856 -7.2285 2
      vertex -4.16663 -9.375 2
      vertex -3.2043 -7.42038 2
    endloop
  endfacet
  facet normal 0 0 1
    outer loop
      vertex -4.16663 -9.375 2
      vertex -2.72833 -7.58653 2
      vertex -3.2043 -7.42038 2
    endloop
  endfacet
  facet normal 0 0 1
    outer loop
      vertex -2.26456 -7.72516 2
      vertex -2.72833 -7.58653 2
      vertex -4.16663 -9.375 2
    endloop
  endfacet
  facet normal 0 0 1
    outer loop
      vertex -2.26456 -7.72516 2
      vertex -4.16663 -9.375 2
      vertex -1.38886 -10 2
    endloop
  endfacet
  facet normal 0 0 1
    outer loop
      vertex -2.26456 -7.72516 2
      vertex -1.38886 -10 2
      vertex -1.81676 -7.83442 2
    endloop
  endfacet
  facet normal 0 -0 1
    outer loop
      vertex -9.31943 -2.49999 2
      vertex 1.38886 0 2
      vertex -12.5 0 2
    endloop
  endfacet
  facet normal 0 0 1
    outer loop
      vertex -1.38886 -10 2
      vertex -4.16663 -9.375 2
      vertex -4.16663 -12.5 2
    endloop
  endfacet
  facet normal 0 0 1
    outer loop
      vertex 4.16663 -10 2
      vertex -4.16663 -12.5 2
      vertex 6.94446 -12.5 2
    endloop
  endfacet
  facet normal 0 0 1
    outer loop
      vertex 12.5 0 2
      vertex 9.72223 0 2
      vertex 12.4836 -0.581379 2
    endloop
  endfacet
  facet normal 0 -0 1
    outer loop
      vertex 12.5 0 2
      vertex 12.5 10 2
      vertex 9.72223 10 2
    endloop
  endfacet
  facet normal 0 0 1
    outer loop
      vertex 11.5085 -4.398 2
      vertex 8.89008 -3.54548 2
      vertex 11.2559 -4.8986 2
    endloop
  endfacet
  facet normal 0 -0 1
    outer loop
      vertex 9.72223 10 2
      vertex 9.72223 12.5 2
      vertex 4.16663 12.5 2
    endloop
  endfacet
  facet normal 0 0 1
    outer loop
      vertex 12.5 0 2
      vertex 9.72223 10 2
      vertex 9.72223 0 2
    endloop
  endfacet
  facet normal 0 0 1
    outer loop
      vertex 12.5 10 2
      vertex 12.4578 10.4341 2
      vertex 9.72223 10 2
    endloop
  endfacet
  facet normal 0 0 1
    outer loop
      vertex 8.33331 8.74999 2
      vertex 5.55554 8.74999 2
      vertex 8.33331 4.99998 2
    endloop
  endfacet
  facet normal 0 0 1
    outer loop
      vertex 8.33331 4.99998 2
      vertex 5.55554 8.74999 2
      vertex 5.55554 4.99998 2
    endloop
  endfacet
  facet normal 0 0 1
    outer loop
      vertex 6.94446 -9.375 2
      vertex 4.16663 -10 2
      vertex 6.94446 -12.5 2
    endloop
  endfacet
  facet normal 0 0 1
    outer loop
      vertex 9.62058 -7.18854 2
      vertex 7.36804 -5.71247 2
      vertex 9.22463 -7.59902 2
    endloop
  endfacet
  facet normal 0 0 1
    outer loop
      vertex 4.16663 -10 2
      vertex -1.38886 -10 2
      vertex -4.16663 -12.5 2
    endloop
  endfacet
  facet normal 0 0 1
    outer loop
      vertex 8.3702 -8.36677 2
      vertex 6.51991 -6.49757 2
      vertex 6.21414 -6.73709 2
    endloop
  endfacet
  facet normal 0 -0 1
    outer loop
      vertex -1.38886 -10 2
      vertex -1.38886 -7.9125 2
      vertex -1.81676 -7.83442 2
    endloop
  endfacet
  facet normal 0 0 1
    outer loop
      vertex -4.17726 -7.01272 2
      vertex -4.97913 -9.08072 2
      vertex -3.68856 -7.2285 2
    endloop
  endfacet
  facet normal 0 0 1
    outer loop
      vertex 8.3702 -8.36677 2
      vertex 6.81446 -6.2467 2
      vertex 6.51991 -6.49757 2
    endloop
  endfacet
  facet normal 0 0 1
    outer loop
      vertex -4.6665 -6.77483 2
      vertex -5.75 -8.76113 2
      vertex -4.17726 -7.01272 2
    endloop
  endfacet
  facet normal 0 0 1
    outer loop
      vertex -5.15244 -6.51671 2
      vertex -6.47918 -8.41748 2
      vertex -5.75 -8.76113 2
    endloop
  endfacet
  facet normal 0 -0 1
    outer loop
      vertex 8.3702 -8.36677 2
      vertex 8.80754 -7.99197 2
      vertex 6.81446 -6.2467 2
    endloop
  endfacet
  facet normal 0 0 1
    outer loop
      vertex -5.63124 -6.24011 2
      vertex -7.16667 -8.0508 2
      vertex -6.47918 -8.41748 2
    endloop
  endfacet
  facet normal 0 0 1
    outer loop
      vertex -6.09897 -5.94685 2
      vertex -6.55181 -5.63883 2
      vertex -7.81247 -7.66228 2
    endloop
  endfacet
  facet normal 0 -0 1
    outer loop
      vertex 8.80754 -7.99197 2
      vertex 9.22463 -7.59902 2
      vertex 7.09729 -5.98486 2
    endloop
  endfacet
  facet normal 0 -0 1
    outer loop
      vertex -8.4167 -7.2531 2
      vertex -6.98591 -5.31778 2
      vertex -8.97917 -6.82446 2
    endloop
  endfacet
  facet normal 0 -0 1
    outer loop
      vertex -8.97917 -6.82446 2
      vertex -7.39736 -4.9856 2
      vertex -9.50001 -6.37738 2
    endloop
  endfacet
  facet normal -0 0 1
    outer loop
      vertex 7.09729 -5.98486 2
      vertex 9.22463 -7.59902 2
      vertex 7.36804 -5.71247 2
    endloop
  endfacet
  facet normal 0 -0 1
    outer loop
      vertex -9.50001 -6.37738 2
      vertex -7.78231 -4.644 2
      vertex -9.97917 -5.91311 2
    endloop
  endfacet
  facet normal 0 0 1
    outer loop
      vertex -9.50001 -6.37738 2
      vertex -7.39736 -4.9856 2
      vertex -7.78231 -4.644 2
    endloop
  endfacet
  facet normal 0 -0 1
    outer loop
      vertex -9.97917 -5.91311 2
      vertex -8.13693 -4.29489 2
      vertex -10.4167 -5.43278 2
    endloop
  endfacet
  facet normal 0 0 1
    outer loop
      vertex -9.97917 -5.91311 2
      vertex -7.78231 -4.644 2
      vertex -8.13693 -4.29489 2
    endloop
  endfacet
  facet normal 0 0 1
    outer loop
      vertex 7.6263 -5.42997 2
      vertex 9.62058 -7.18854 2
      vertex 9.99467 -6.76131 2
    endloop
  endfacet
  facet normal 0 0 1
    outer loop
      vertex -10.4167 -5.43278 2
      vertex -8.13693 -4.29489 2
      vertex -8.45731 -3.94006 2
    endloop
  endfacet
  facet normal 0 0 1
    outer loop
      vertex -8.45731 -3.94006 2
      vertex -8.73966 -3.58138 2
      vertex -10.8125 -4.93759 2
    endloop
  endfacet
  facet normal 0 -0 1
    outer loop
      vertex -10.4167 -5.43278 2
      vertex -8.45731 -3.94006 2
      vertex -10.8125 -4.93759 2
    endloop
  endfacet
  facet normal 0 0 1
    outer loop
      vertex -8.73966 -3.58138 2
      vertex -8.98001 -3.22054 2
      vertex -11.1667 -4.4286 2
    endloop
  endfacet
  facet normal 0 -0 1
    outer loop
      vertex -10.8125 -4.93759 2
      vertex -8.73966 -3.58138 2
      vertex -11.1667 -4.4286 2
    endloop
  endfacet
  facet normal 0 0 1
    outer loop
      vertex -8.98001 -3.22054 2
      vertex -9.17459 -2.85948 2
      vertex -11.4792 -3.90702 2
    endloop
  endfacet
  facet normal 0 -0 1
    outer loop
      vertex -11.1667 -4.4286 2
      vertex -8.98001 -3.22054 2
      vertex -11.4792 -3.90702 2
    endloop
  endfacet
  facet normal 0 0 1
    outer loop
      vertex -9.17459 -2.85948 2
      vertex -9.31943 -2.49999 2
      vertex -11.75 -3.37398 2
    endloop
  endfacet
  facet normal 0 -0 1
    outer loop
      vertex -11.4792 -3.90702 2
      vertex -9.17459 -2.85948 2
      vertex -11.75 -3.37398 2
    endloop
  endfacet
  facet normal 0 0 1
    outer loop
      vertex -9.31943 -2.49999 2
      vertex -11.9792 -2.83066 2
      vertex -11.75 -3.37398 2
    endloop
  endfacet
  facet normal 0 0 1
    outer loop
      vertex 10.346 -6.31796 2
      vertex 7.87164 -5.13779 2
      vertex 9.99467 -6.76131 2
    endloop
  endfacet
  facet normal 0 0 1
    outer loop
      vertex -12.1667 -2.27815 2
      vertex -11.9792 -2.83066 2
      vertex -9.31943 -2.49999 2
    endloop
  endfacet
  facet normal -0 -0 1
    outer loop
      vertex -12.1667 -2.27815 2
      vertex -9.31943 -2.49999 2
      vertex -12.3125 -1.7177 2
    endloop
  endfacet
  facet normal 0 0 1
    outer loop
      vertex 10.6739 -5.85931 2
      vertex 8.10371 -4.83626 2
      vertex 10.346 -6.31796 2
    endloop
  endfacet
  facet normal 0 0 1
    outer loop
      vertex -9.31943 -2.49999 2
      vertex -12.4167 -1.15043 2
      vertex -12.3125 -1.7177 2
    endloop
  endfacet
  facet normal 0 0 1
    outer loop
      vertex -12.4792 -0.577486 2
      vertex -12.4167 -1.15043 2
      vertex -9.31943 -2.49999 2
    endloop
  endfacet
  facet normal -0 -0 1
    outer loop
      vertex -12.4792 -0.577486 2
      vertex -9.31943 -2.49999 2
      vertex -12.5 0 2
    endloop
  endfacet
  facet normal 0 0 1
    outer loop
      vertex 11.7343 -3.8848 2
      vertex 9.04916 -3.20367 2
      vertex 11.5085 -4.398 2
    endloop
  endfacet
  facet normal 0 0 1
    outer loop
      vertex -9.31943 -2.49999 2
      vertex 9.31943 -2.49999 2
      vertex 1.38886 0 2
    endloop
  endfacet
  facet normal -0 0 1
    outer loop
      vertex 1.38886 0 2
      vertex 9.31943 -2.49999 2
      vertex 4.16663 0 2
    endloop
  endfacet
  facet normal 0 0 1
    outer loop
      vertex 8.80754 -7.99197 2
      vertex 7.09729 -5.98486 2
      vertex 6.81446 -6.2467 2
    endloop
  endfacet
  facet normal 0 0 1
    outer loop
      vertex 10.346 -6.31796 2
      vertex 8.10371 -4.83626 2
      vertex 7.87164 -5.13779 2
    endloop
  endfacet
  facet normal 0 0 1
    outer loop
      vertex 6.21414 -6.73709 2
      vertex 5.89754 -6.96482 2
      vertex 7.91339 -8.72269 2
    endloop
  endfacet
  facet normal 0 0 1
    outer loop
      vertex 5.89754 -6.96482 2
      vertex 7.43785 -9.05898 2
      vertex 7.91339 -8.72269 2
    endloop
  endfacet
  facet normal -0 0 1
    outer loop
      vertex 5.57056 -7.18038 2
      vertex 7.43785 -9.05898 2
      vertex 5.89754 -6.96482 2
    endloop
  endfacet
  facet normal 0 -0 1
    outer loop
      vertex 6.94446 -9.375 2
      vertex 7.43785 -9.05898 2
      vertex 5.57056 -7.18038 2
    endloop
  endfacet
  facet normal 0 0 1
    outer loop
      vertex 6.94446 -9.375 2
      vertex 5.57056 -7.18038 2
      vertex 5.23354 -7.38335 2
    endloop
  endfacet
  facet normal 0 0 1
    outer loop
      vertex 6.94446 -9.375 2
      vertex 5.23354 -7.38335 2
      vertex 4.88692 -7.57328 2
    endloop
  endfacet
  facet normal 0 0 1
    outer loop
      vertex 6.94446 -9.375 2
      vertex 4.88692 -7.57328 2
      vertex 4.53116 -7.74981 2
    endloop
  endfacet
  facet normal 0 0 1
    outer loop
      vertex 6.94446 -9.375 2
      vertex 4.53116 -7.74981 2
      vertex 4.16663 -10 2
    endloop
  endfacet
  facet normal 0 0 1
    outer loop
      vertex 4.53116 -7.74981 2
      vertex 4.16663 -7.9125 2
      vertex 4.16663 -10 2
    endloop
  endfacet
  facet normal 0.539357 -0.842077 0
    outer loop
      vertex 7.43785 -9.05898 0
      vertex 6.94446 -9.375 2
      vertex 6.94446 -9.375 0
    endloop
  endfacet
  facet normal 0.539357 -0.842077 0
    outer loop
      vertex 7.43785 -9.05898 0
      vertex 7.43785 -9.05898 2
      vertex 6.94446 -9.375 2
    endloop
  endfacet
  facet normal 0.577387 -0.81647 0
    outer loop
      vertex 7.91339 -8.72269 0
      vertex 7.43785 -9.05898 2
      vertex 7.43785 -9.05898 0
    endloop
  endfacet
  facet normal 0.577387 -0.81647 0
    outer loop
      vertex 7.91339 -8.72269 0
      vertex 7.91339 -8.72269 2
      vertex 7.43785 -9.05898 2
    endloop
  endfacet
  facet normal 0.614611 -0.78883 0
    outer loop
      vertex 8.3702 -8.36677 0
      vertex 7.91339 -8.72269 2
      vertex 7.91339 -8.72269 0
    endloop
  endfacet
  facet normal 0.614611 -0.78883 0
    outer loop
      vertex 8.3702 -8.36677 0
      vertex 8.3702 -8.36677 2
      vertex 7.91339 -8.72269 2
    endloop
  endfacet
  facet normal 0.650728 -0.759311 0
    outer loop
      vertex 8.80754 -7.99197 0
      vertex 8.3702 -8.36677 2
      vertex 8.3702 -8.36677 0
    endloop
  endfacet
  facet normal 0.650728 -0.759311 0
    outer loop
      vertex 8.80754 -7.99197 0
      vertex 8.80754 -7.99197 2
      vertex 8.3702 -8.36677 2
    endloop
  endfacet
  facet normal 0.68573 -0.727856 0
    outer loop
      vertex 9.22463 -7.59902 0
      vertex 8.80754 -7.99197 2
      vertex 8.80754 -7.99197 0
    endloop
  endfacet
  facet normal 0.68573 -0.727856 0
    outer loop
      vertex 9.22463 -7.59902 0
      vertex 9.22463 -7.59902 2
      vertex 8.80754 -7.99197 2
    endloop
  endfacet
  facet normal 0.71973 -0.694254 0
    outer loop
      vertex 9.62058 -7.18854 0
      vertex 9.22463 -7.59902 2
      vertex 9.22463 -7.59902 0
    endloop
  endfacet
  facet normal 0.71973 -0.694254 0
    outer loop
      vertex 9.62058 -7.18854 0
      vertex 9.62058 -7.18854 2
      vertex 9.22463 -7.59902 2
    endloop
  endfacet
  facet normal 0.752346 -0.658768 0
    outer loop
      vertex 9.99467 -6.76131 0
      vertex 9.62058 -7.18854 2
      vertex 9.62058 -7.18854 0
    endloop
  endfacet
  facet normal 0.752346 -0.658768 0
    outer loop
      vertex 9.99467 -6.76131 0
      vertex 9.99467 -6.76131 2
      vertex 9.62058 -7.18854 2
    endloop
  endfacet
  facet normal 0.783749 -0.621077 0
    outer loop
      vertex 10.346 -6.31796 0
      vertex 9.99467 -6.76131 2
      vertex 9.99467 -6.76131 0
    endloop
  endfacet
  facet normal 0.783749 -0.621077 0
    outer loop
      vertex 10.346 -6.31796 0
      vertex 10.346 -6.31796 2
      vertex 9.99467 -6.76131 2
    endloop
  endfacet
  facet normal 0.813488 -0.581582 0
    outer loop
      vertex 10.6739 -5.85931 0
      vertex 10.346 -6.31796 2
      vertex 10.346 -6.31796 0
    endloop
  endfacet
  facet normal 0.813488 -0.581582 0
    outer loop
      vertex 10.6739 -5.85931 0
      vertex 10.6739 -5.85931 2
      vertex 10.346 -6.31796 2
    endloop
  endfacet
  facet normal 0.841848 -0.539715 0
    outer loop
      vertex 10.9774 -5.38591 0
      vertex 10.6739 -5.85931 2
      vertex 10.6739 -5.85931 0
    endloop
  endfacet
  facet normal 0.841848 -0.539715 0
    outer loop
      vertex 10.9774 -5.38591 0
      vertex 10.9774 -5.38591 2
      vertex 10.6739 -5.85931 2
    endloop
  endfacet
  facet normal 0.868215 -0.496189 0
    outer loop
      vertex 11.2559 -4.8986 0
      vertex 10.9774 -5.38591 2
      vertex 10.9774 -5.38591 0
    endloop
  endfacet
  facet normal 0.868215 -0.496189 0
    outer loop
      vertex 11.2559 -4.8986 0
      vertex 11.2559 -4.8986 2
      vertex 10.9774 -5.38591 2
    endloop
  endfacet
  facet normal 0.89278 -0.450492 0
    outer loop
      vertex 11.5085 -4.398 0
      vertex 11.2559 -4.8986 2
      vertex 11.2559 -4.8986 0
    endloop
  endfacet
  facet normal 0.89278 -0.450492 0
    outer loop
      vertex 11.5085 -4.398 0
      vertex 11.5085 -4.398 2
      vertex 11.2559 -4.8986 2
    endloop
  endfacet
  facet normal 0.91532 -0.402727 0
    outer loop
      vertex 11.7343 -3.8848 0
      vertex 11.5085 -4.398 2
      vertex 11.5085 -4.398 0
    endloop
  endfacet
  facet normal 0.91532 -0.402727 0
    outer loop
      vertex 11.7343 -3.8848 0
      vertex 11.7343 -3.8848 2
      vertex 11.5085 -4.398 2
    endloop
  endfacet
  facet normal 0.935431 -0.35351 0
    outer loop
      vertex 11.9327 -3.35981 0
      vertex 11.7343 -3.8848 2
      vertex 11.7343 -3.8848 0
    endloop
  endfacet
  facet normal 0.935431 -0.35351 0
    outer loop
      vertex 11.9327 -3.35981 0
      vertex 11.9327 -3.35981 2
      vertex 11.7343 -3.8848 2
    endloop
  endfacet
  facet normal 0.953235 -0.30223 0
    outer loop
      vertex 12.1027 -2.82363 0
      vertex 11.9327 -3.35981 2
      vertex 11.9327 -3.35981 0
    endloop
  endfacet
  facet normal 0.953235 -0.30223 0
    outer loop
      vertex 12.1027 -2.82363 0
      vertex 12.1027 -2.82363 2
      vertex 11.9327 -3.35981 2
    endloop
  endfacet
  facet normal 0.968396 -0.249419 0
    outer loop
      vertex 12.2435 -2.27696 0
      vertex 12.1027 -2.82363 2
      vertex 12.1027 -2.82363 0
    endloop
  endfacet
  facet normal 0.968396 -0.249419 0
    outer loop
      vertex 12.2435 -2.27696 0
      vertex 12.2435 -2.27696 2
      vertex 12.1027 -2.82363 2
    endloop
  endfacet
  facet normal 0.980638 -0.195831 0
    outer loop
      vertex 12.3546 -1.72062 0
      vertex 12.2435 -2.27696 2
      vertex 12.2435 -2.27696 0
    endloop
  endfacet
  facet normal 0.980638 -0.195831 0
    outer loop
      vertex 12.3546 -1.72062 0
      vertex 12.3546 -1.72062 2
      vertex 12.2435 -2.27696 2
    endloop
  endfacet
  facet normal 0.99009 -0.140433 0
    outer loop
      vertex 12.4348 -1.15519 0
      vertex 12.3546 -1.72062 2
      vertex 12.3546 -1.72062 0
    endloop
  endfacet
  facet normal 0.99009 -0.140433 0
    outer loop
      vertex 12.4348 -1.15519 0
      vertex 12.4348 -1.15519 2
      vertex 12.3546 -1.72062 2
    endloop
  endfacet
  facet normal 0.996403 -0.0847395 0
    outer loop
      vertex 12.4836 -0.581379 0
      vertex 12.4348 -1.15519 2
      vertex 12.4348 -1.15519 0
    endloop
  endfacet
  facet normal 0.996403 -0.0847395 0
    outer loop
      vertex 12.4836 -0.581379 0
      vertex 12.4836 -0.581379 2
      vertex 12.4348 -1.15519 2
    endloop
  endfacet
  facet normal 0.999602 -0.0281976 0
    outer loop
      vertex 12.5 0 0
      vertex 12.4836 -0.581379 2
      vertex 12.4836 -0.581379 0
    endloop
  endfacet
  facet normal 0.999602 -0.0281976 0
    outer loop
      vertex 12.5 0 0
      vertex 12.5 0 2
      vertex 12.4836 -0.581379 2
    endloop
  endfacet
  facet normal 1 0 0
    outer loop
      vertex 12.5 10 0
      vertex 12.5 0 2
      vertex 12.5 0 0
    endloop
  endfacet
  facet normal 1 0 -0
    outer loop
      vertex 12.5 10 0
      vertex 12.5 10 2
      vertex 12.5 0 2
    endloop
  endfacet
  facet normal 0.995308 0.0967565 0
    outer loop
      vertex 12.4578 10.4341 0
      vertex 12.5 10 2
      vertex 12.5 10 0
    endloop
  endfacet
  facet normal 0.995308 0.0967565 -0
    outer loop
      vertex 12.4578 10.4341 0
      vertex 12.4578 10.4341 2
      vertex 12.5 10 2
    endloop
  endfacet
  facet normal 0.958432 0.285321 0
    outer loop
      vertex 12.3325 10.855 0
      vertex 12.4578 10.4341 2
      vertex 12.4578 10.4341 0
    endloop
  endfacet
  facet normal 0.958432 0.285321 -0
    outer loop
      vertex 12.3325 10.855 0
      vertex 12.3325 10.855 2
      vertex 12.4578 10.4341 2
    endloop
  endfacet
  facet normal 0.88786 0.460114 0
    outer loop
      vertex 12.1278 11.25 0
      vertex 12.3325 10.855 2
      vertex 12.3325 10.855 0
    endloop
  endfacet
  facet normal 0.88786 0.460114 -0
    outer loop
      vertex 12.1278 11.25 0
      vertex 12.1278 11.25 2
      vertex 12.3325 10.855 2
    endloop
  endfacet
  facet normal 0.789317 0.613987 0
    outer loop
      vertex 11.8501 11.607 0
      vertex 12.1278 11.25 2
      vertex 12.1278 11.25 0
    endloop
  endfacet
  facet normal 0.789317 0.613987 -0
    outer loop
      vertex 11.8501 11.607 0
      vertex 11.8501 11.607 2
      vertex 12.1278 11.25 2
    endloop
  endfacet
  facet normal 0.669001 0.743262 0
    outer loop
      vertex 11.5078 11.9151 0
      vertex 11.8501 11.607 2
      vertex 11.8501 11.607 0
    endloop
  endfacet
  facet normal 0.669001 0.743262 -0
    outer loop
      vertex 11.5078 11.9151 0
      vertex 11.5078 11.9151 2
      vertex 11.8501 11.607 2
    endloop
  endfacet
  facet normal 0.533158 0.846016 0
    outer loop
      vertex 11.1111 12.1651 0
      vertex 11.5078 11.9151 2
      vertex 11.5078 11.9151 0
    endloop
  endfacet
  facet normal 0.533158 0.846016 -0
    outer loop
      vertex 11.1111 12.1651 0
      vertex 11.1111 12.1651 2
      vertex 11.5078 11.9151 2
    endloop
  endfacet
  facet normal 0.386882 0.922129 0
    outer loop
      vertex 10.6723 12.3492 0
      vertex 11.1111 12.1651 2
      vertex 11.1111 12.1651 0
    endloop
  endfacet
  facet normal 0.386882 0.922129 -0
    outer loop
      vertex 10.6723 12.3492 0
      vertex 10.6723 12.3492 2
      vertex 11.1111 12.1651 2
    endloop
  endfacet
  facet normal 0.234458 0.972126 0
    outer loop
      vertex 10.2046 12.462 0
      vertex 10.6723 12.3492 2
      vertex 10.6723 12.3492 0
    endloop
  endfacet
  facet normal 0.234458 0.972126 -0
    outer loop
      vertex 10.2046 12.462 0
      vertex 10.2046 12.462 2
      vertex 10.6723 12.3492 2
    endloop
  endfacet
  facet normal 0.0785344 0.996911 0
    outer loop
      vertex 9.72223 12.5 0
      vertex 10.2046 12.462 2
      vertex 10.2046 12.462 0
    endloop
  endfacet
  facet normal 0.0785344 0.996911 -0
    outer loop
      vertex 9.72223 12.5 0
      vertex 9.72223 12.5 2
      vertex 10.2046 12.462 2
    endloop
  endfacet
  facet normal 0 1 0
    outer loop
      vertex 4.16663 12.5 0
      vertex 9.72223 12.5 2
      vertex 9.72223 12.5 0
    endloop
  endfacet
  facet normal 0 1 0
    outer loop
      vertex 4.16663 12.5 0
      vertex 4.16663 12.5 2
      vertex 9.72223 12.5 2
    endloop
  endfacet
  facet normal -0.0362476 0.999343 0
    outer loop
      vertex 3.9378 12.4917 0
      vertex 4.16663 12.5 2
      vertex 4.16663 12.5 0
    endloop
  endfacet
  facet normal -0.0362476 0.999343 0
    outer loop
      vertex 3.9378 12.4917 0
      vertex 3.9378 12.4917 2
      vertex 4.16663 12.5 2
    endloop
  endfacet
  facet normal -0.109392 0.993999 0
    outer loop
      vertex 3.71427 12.4671 0
      vertex 3.9378 12.4917 2
      vertex 3.9378 12.4917 0
    endloop
  endfacet
  facet normal -0.109392 0.993999 0
    outer loop
      vertex 3.71427 12.4671 0
      vertex 3.71427 12.4671 2
      vertex 3.9378 12.4917 2
    endloop
  endfacet
  facet normal -0.18124 0.983439 0
    outer loop
      vertex 3.49668 12.427 0
      vertex 3.71427 12.4671 2
      vertex 3.71427 12.4671 0
    endloop
  endfacet
  facet normal -0.18124 0.983439 0
    outer loop
      vertex 3.49668 12.427 0
      vertex 3.49668 12.427 2
      vertex 3.71427 12.4671 2
    endloop
  endfacet
  facet normal -0.252325 0.967643 0
    outer loop
      vertex 3.28576 12.372 0
      vertex 3.49668 12.427 2
      vertex 3.49668 12.427 0
    endloop
  endfacet
  facet normal -0.252325 0.967643 0
    outer loop
      vertex 3.28576 12.372 0
      vertex 3.28576 12.372 2
      vertex 3.49668 12.427 2
    endloop
  endfacet
  facet normal -0.322319 0.946631 0
    outer loop
      vertex 3.08223 12.3027 0
      vertex 3.28576 12.372 2
      vertex 3.28576 12.372 0
    endloop
  endfacet
  facet normal -0.322319 0.946631 0
    outer loop
      vertex 3.08223 12.3027 0
      vertex 3.08223 12.3027 2
      vertex 3.28576 12.372 2
    endloop
  endfacet
  facet normal -0.390027 0.920803 0
    outer loop
      vertex 2.88675 12.2199 0
      vertex 3.08223 12.3027 2
      vertex 3.08223 12.3027 0
    endloop
  endfacet
  facet normal -0.390027 0.920803 0
    outer loop
      vertex 2.88675 12.2199 0
      vertex 2.88675 12.2199 2
      vertex 3.08223 12.3027 2
    endloop
  endfacet
  facet normal -0.456626 0.889659 0
    outer loop
      vertex 2.7001 12.1241 0
      vertex 2.88675 12.2199 2
      vertex 2.88675 12.2199 0
    endloop
  endfacet
  facet normal -0.456626 0.889659 0
    outer loop
      vertex 2.7001 12.1241 0
      vertex 2.7001 12.1241 2
      vertex 2.88675 12.2199 2
    endloop
  endfacet
  facet normal -0.520744 0.853713 0
    outer loop
      vertex 2.52288 12.016 0
      vertex 2.7001 12.1241 2
      vertex 2.7001 12.1241 0
    endloop
  endfacet
  facet normal -0.520744 0.853713 0
    outer loop
      vertex 2.52288 12.016 0
      vertex 2.52288 12.016 2
      vertex 2.7001 12.1241 2
    endloop
  endfacet
  facet normal -0.582411 0.812894 0
    outer loop
      vertex 2.35581 11.8963 0
      vertex 2.52288 12.016 2
      vertex 2.52288 12.016 0
    endloop
  endfacet
  facet normal -0.582411 0.812894 0
    outer loop
      vertex 2.35581 11.8963 0
      vertex 2.35581 11.8963 2
      vertex 2.52288 12.016 2
    endloop
  endfacet
  facet normal -0.641753 0.766912 0
    outer loop
      vertex 2.19962 11.7656 0
      vertex 2.35581 11.8963 2
      vertex 2.35581 11.8963 0
    endloop
  endfacet
  facet normal -0.641753 0.766912 0
    outer loop
      vertex 2.19962 11.7656 0
      vertex 2.19962 11.7656 2
      vertex 2.35581 11.8963 2
    endloop
  endfacet
  facet normal -0.697884 0.716211 0
    outer loop
      vertex 2.05502 11.6247 0
      vertex 2.19962 11.7656 2
      vertex 2.19962 11.7656 0
    endloop
  endfacet
  facet normal -0.697884 0.716211 0
    outer loop
      vertex 2.05502 11.6247 0
      vertex 2.05502 11.6247 2
      vertex 2.19962 11.7656 2
    endloop
  endfacet
  facet normal -0.751223 0.660049 0
    outer loop
      vertex 1.92261 11.474 0
      vertex 2.05502 11.6247 2
      vertex 2.05502 11.6247 0
    endloop
  endfacet
  facet normal -0.751223 0.660049 0
    outer loop
      vertex 1.92261 11.474 0
      vertex 1.92261 11.474 2
      vertex 2.05502 11.6247 2
    endloop
  endfacet
  facet normal -0.800818 0.598908 0
    outer loop
      vertex 1.80325 11.3144 0
      vertex 1.92261 11.474 2
      vertex 1.92261 11.474 0
    endloop
  endfacet
  facet normal -0.800818 0.598908 0
    outer loop
      vertex 1.80325 11.3144 0
      vertex 1.80325 11.3144 2
      vertex 1.92261 11.474 2
    endloop
  endfacet
  facet normal -0.846341 0.532641 0
    outer loop
      vertex 1.69752 11.1464 0
      vertex 1.80325 11.3144 2
      vertex 1.80325 11.3144 0
    endloop
  endfacet
  facet normal -0.846341 0.532641 0
    outer loop
      vertex 1.69752 11.1464 0
      vertex 1.69752 11.1464 2
      vertex 1.80325 11.3144 2
    endloop
  endfacet
  facet normal -0.88706 0.461655 0
    outer loop
      vertex 1.60608 10.9707 0
      vertex 1.69752 11.1464 2
      vertex 1.69752 11.1464 0
    endloop
  endfacet
  facet normal -0.88706 0.461655 0
    outer loop
      vertex 1.60608 10.9707 0
      vertex 1.60608 10.9707 2
      vertex 1.69752 11.1464 2
    endloop
  endfacet
  facet normal -0.922673 0.385583 0
    outer loop
      vertex 1.52973 10.788 0
      vertex 1.60608 10.9707 2
      vertex 1.60608 10.9707 0
    endloop
  endfacet
  facet normal -0.922673 0.385583 0
    outer loop
      vertex 1.52973 10.788 0
      vertex 1.52973 10.788 2
      vertex 1.60608 10.9707 2
    endloop
  endfacet
  facet normal -0.952354 0.304995 0
    outer loop
      vertex 1.46917 10.5989 0
      vertex 1.52973 10.788 2
      vertex 1.52973 10.788 0
    endloop
  endfacet
  facet normal -0.952354 0.304995 0
    outer loop
      vertex 1.46917 10.5989 0
      vertex 1.46917 10.5989 2
      vertex 1.52973 10.788 2
    endloop
  endfacet
  facet normal -0.975265 0.221037 0
    outer loop
      vertex 1.42502 10.4041 0
      vertex 1.46917 10.5989 2
      vertex 1.46917 10.5989 0
    endloop
  endfacet
  facet normal -0.975265 0.221037 0
    outer loop
      vertex 1.42502 10.4041 0
      vertex 1.42502 10.4041 2
      vertex 1.46917 10.5989 2
    endloop
  endfacet
  facet normal -0.991012 0.133772 0
    outer loop
      vertex 1.39805 10.2043 0
      vertex 1.42502 10.4041 2
      vertex 1.42502 10.4041 0
    endloop
  endfacet
  facet normal -0.991012 0.133772 0
    outer loop
      vertex 1.39805 10.2043 0
      vertex 1.39805 10.2043 2
      vertex 1.42502 10.4041 2
    endloop
  endfacet
  facet normal -0.99899 0.0449374 0
    outer loop
      vertex 1.38886 10 0
      vertex 1.39805 10.2043 2
      vertex 1.39805 10.2043 0
    endloop
  endfacet
  facet normal -0.99899 0.0449374 0
    outer loop
      vertex 1.38886 10 0
      vertex 1.38886 10 2
      vertex 1.39805 10.2043 2
    endloop
  endfacet
  facet normal -1 0 0
    outer loop
      vertex 1.38886 0 0
      vertex 1.38886 10 2
      vertex 1.38886 10 0
    endloop
  endfacet
  facet normal -1 0 0
    outer loop
      vertex 1.38886 0 0
      vertex 1.38886 0 2
      vertex 1.38886 10 2
    endloop
  endfacet
  facet normal 0 1 0
    outer loop
      vertex -12.5 0 0
      vertex 1.38886 0 2
      vertex 1.38886 0 0
    endloop
  endfacet
  facet normal 0 1 0
    outer loop
      vertex -12.5 0 0
      vertex -12.5 0 2
      vertex 1.38886 0 2
    endloop
  endfacet
  facet normal -0.999352 -0.0359948 0
    outer loop
      vertex -12.4792 -0.577486 0
      vertex -12.5 0 2
      vertex -12.5 0 0
    endloop
  endfacet
  facet normal -0.999352 -0.0359948 0
    outer loop
      vertex -12.4792 -0.577486 0
      vertex -12.4792 -0.577486 2
      vertex -12.5 0 2
    endloop
  endfacet
  facet normal -0.994103 -0.108442 0
    outer loop
      vertex -12.4167 -1.15043 0
      vertex -12.4792 -0.577486 2
      vertex -12.4792 -0.577486 0
    endloop
  endfacet
  facet normal -0.994103 -0.108442 0
    outer loop
      vertex -12.4167 -1.15043 0
      vertex -12.4167 -1.15043 2
      vertex -12.4792 -0.577486 2
    endloop
  endfacet
  facet normal -0.983545 -0.180664 0
    outer loop
      vertex -12.3125 -1.7177 0
      vertex -12.4167 -1.15043 2
      vertex -12.4167 -1.15043 0
    endloop
  endfacet
  facet normal -0.983545 -0.180664 0
    outer loop
      vertex -12.3125 -1.7177 0
      vertex -12.3125 -1.7177 2
      vertex -12.4167 -1.15043 2
    endloop
  endfacet
  facet normal -0.967788 -0.251768 0
    outer loop
      vertex -12.1667 -2.27815 0
      vertex -12.3125 -1.7177 2
      vertex -12.3125 -1.7177 0
    endloop
  endfacet
  facet normal -0.967788 -0.251768 0
    outer loop
      vertex -12.1667 -2.27815 0
      vertex -12.1667 -2.27815 2
      vertex -12.3125 -1.7177 2
    endloop
  endfacet
  facet normal -0.946957 -0.32136 0
    outer loop
      vertex -11.9792 -2.83066 0
      vertex -12.1667 -2.27815 2
      vertex -12.1667 -2.27815 0
    endloop
  endfacet
  facet normal -0.946957 -0.32136 0
    outer loop
      vertex -11.9792 -2.83066 0
      vertex -11.9792 -2.83066 2
      vertex -12.1667 -2.27815 2
    endloop
  endfacet
  facet normal -0.921372 -0.388682 0
    outer loop
      vertex -11.75 -3.37398 0
      vertex -11.9792 -2.83066 2
      vertex -11.9792 -2.83066 0
    endloop
  endfacet
  facet normal -0.921372 -0.388682 0
    outer loop
      vertex -11.75 -3.37398 0
      vertex -11.75 -3.37398 2
      vertex -11.9792 -2.83066 2
    endloop
  endfacet
  facet normal -0.891545 -0.452931 0
    outer loop
      vertex -11.4792 -3.90702 0
      vertex -11.75 -3.37398 2
      vertex -11.75 -3.37398 0
    endloop
  endfacet
  facet normal -0.891545 -0.452931 0
    outer loop
      vertex -11.4792 -3.90702 0
      vertex -11.4792 -3.90702 2
      vertex -11.75 -3.37398 2
    endloop
  endfacet
  facet normal -0.857818 -0.513954 0
    outer loop
      vertex -11.1667 -4.4286 0
      vertex -11.4792 -3.90702 2
      vertex -11.4792 -3.90702 0
    endloop
  endfacet
  facet normal -0.857818 -0.513954 0
    outer loop
      vertex -11.1667 -4.4286 0
      vertex -11.1667 -4.4286 2
      vertex -11.4792 -3.90702 2
    endloop
  endfacet
  facet normal -0.820814 -0.571195 0
    outer loop
      vertex -10.8125 -4.93759 0
      vertex -11.1667 -4.4286 2
      vertex -11.1667 -4.4286 0
    endloop
  endfacet
  facet normal -0.820814 -0.571195 0
    outer loop
      vertex -10.8125 -4.93759 0
      vertex -10.8125 -4.93759 2
      vertex -11.1667 -4.4286 2
    endloop
  endfacet
  facet normal -0.78114 -0.624356 0
    outer loop
      vertex -10.4167 -5.43278 0
      vertex -10.8125 -4.93759 2
      vertex -10.8125 -4.93759 0
    endloop
  endfacet
  facet normal -0.78114 -0.624356 0
    outer loop
      vertex -10.4167 -5.43278 0
      vertex -10.4167 -5.43278 2
      vertex -10.8125 -4.93759 2
    endloop
  endfacet
  facet normal -0.739276 -0.673403 0
    outer loop
      vertex -9.97917 -5.91311 0
      vertex -10.4167 -5.43278 2
      vertex -10.4167 -5.43278 0
    endloop
  endfacet
  facet normal -0.739276 -0.673403 0
    outer loop
      vertex -9.97917 -5.91311 0
      vertex -9.97917 -5.91311 2
      vertex -10.4167 -5.43278 2
    endloop
  endfacet
  facet normal -0.69586 -0.718177 0
    outer loop
      vertex -9.50001 -6.37738 0
      vertex -9.97917 -5.91311 2
      vertex -9.97917 -5.91311 0
    endloop
  endfacet
  facet normal -0.69586 -0.718177 0
    outer loop
      vertex -9.50001 -6.37738 0
      vertex -9.50001 -6.37738 2
      vertex -9.97917 -5.91311 2
    endloop
  endfacet
  facet normal -0.651334 -0.758792 0
    outer loop
      vertex -8.97917 -6.82446 0
      vertex -9.50001 -6.37738 2
      vertex -9.50001 -6.37738 0
    endloop
  endfacet
  facet normal -0.651334 -0.758792 0
    outer loop
      vertex -8.97917 -6.82446 0
      vertex -8.97917 -6.82446 2
      vertex -9.50001 -6.37738 2
    endloop
  endfacet
  facet normal -0.606125 -0.795369 0
    outer loop
      vertex -8.4167 -7.2531 0
      vertex -8.97917 -6.82446 2
      vertex -8.97917 -6.82446 0
    endloop
  endfacet
  facet normal -0.606125 -0.795369 0
    outer loop
      vertex -8.4167 -7.2531 0
      vertex -8.4167 -7.2531 2
      vertex -8.97917 -6.82446 2
    endloop
  endfacet
  facet normal -0.560719 -0.828006 0
    outer loop
      vertex -7.81247 -7.66228 0
      vertex -8.4167 -7.2531 2
      vertex -8.4167 -7.2531 0
    endloop
  endfacet
  facet normal -0.560719 -0.828006 0
    outer loop
      vertex -7.81247 -7.66228 0
      vertex -7.81247 -7.66228 2
      vertex -8.4167 -7.2531 2
    endloop
  endfacet
  facet normal -0.51551 -0.856884 0
    outer loop
      vertex -7.16667 -8.0508 0
      vertex -7.81247 -7.66228 2
      vertex -7.81247 -7.66228 0
    endloop
  endfacet
  facet normal -0.51551 -0.856884 0
    outer loop
      vertex -7.16667 -8.0508 0
      vertex -7.16667 -8.0508 2
      vertex -7.81247 -7.66228 2
    endloop
  endfacet
  facet normal -0.470607 -0.882343 0
    outer loop
      vertex -6.47918 -8.41748 0
      vertex -7.16667 -8.0508 2
      vertex -7.16667 -8.0508 0
    endloop
  endfacet
  facet normal -0.470607 -0.882343 0
    outer loop
      vertex -6.47918 -8.41748 0
      vertex -6.47918 -8.41748 2
      vertex -7.16667 -8.0508 2
    endloop
  endfacet
  facet normal -0.426311 -0.904576 0
    outer loop
      vertex -5.75 -8.76113 0
      vertex -6.47918 -8.41748 2
      vertex -6.47918 -8.41748 0
    endloop
  endfacet
  facet normal -0.426311 -0.904576 0
    outer loop
      vertex -5.75 -8.76113 0
      vertex -5.75 -8.76113 2
      vertex -6.47918 -8.41748 2
    endloop
  endfacet
  facet normal -0.382975 -0.923759 0
    outer loop
      vertex -4.97913 -9.08072 0
      vertex -5.75 -8.76113 2
      vertex -5.75 -8.76113 0
    endloop
  endfacet
  facet normal -0.382975 -0.923759 0
    outer loop
      vertex -4.97913 -9.08072 0
      vertex -4.97913 -9.08072 2
      vertex -5.75 -8.76113 2
    endloop
  endfacet
  facet normal -0.340542 -0.940229 0
    outer loop
      vertex -4.16663 -9.375 0
      vertex -4.97913 -9.08072 2
      vertex -4.97913 -9.08072 0
    endloop
  endfacet
  facet normal -0.340542 -0.940229 0
    outer loop
      vertex -4.16663 -9.375 0
      vertex -4.16663 -9.375 2
      vertex -4.97913 -9.08072 2
    endloop
  endfacet
  facet normal -1 0 0
    outer loop
      vertex -4.16663 -12.5 0
      vertex -4.16663 -9.375 2
      vertex -4.16663 -9.375 0
    endloop
  endfacet
  facet normal -1 0 0
    outer loop
      vertex -4.16663 -12.5 0
      vertex -4.16663 -12.5 2
      vertex -4.16663 -9.375 2
    endloop
  endfacet
  facet normal 0 -1 0
    outer loop
      vertex 6.94446 -12.5 0
      vertex -4.16663 -12.5 2
      vertex -4.16663 -12.5 0
    endloop
  endfacet
  facet normal 0 -1 0
    outer loop
      vertex 6.94446 -12.5 0
      vertex 6.94446 -12.5 2
      vertex -4.16663 -12.5 2
    endloop
  endfacet
  facet normal 1 0 0
    outer loop
      vertex 6.94446 -9.375 0
      vertex 6.94446 -12.5 2
      vertex 6.94446 -12.5 0
    endloop
  endfacet
  facet normal 1 0 -0
    outer loop
      vertex 6.94446 -9.375 0
      vertex 6.94446 -9.375 2
      vertex 6.94446 -12.5 2
    endloop
  endfacet
  facet normal 1 0 -0
    outer loop
      vertex 4.16663 10 0
      vertex 4.16663 10 2
      vertex 4.16663 0 0
    endloop
  endfacet
  facet normal 1 -0 0
    outer loop
      vertex 4.16663 0 2
      vertex 4.16663 0 0
      vertex 4.16663 10 2
    endloop
  endfacet
  facet normal 0 -1 0
    outer loop
      vertex 9.72223 10 0
      vertex 9.72223 10 2
      vertex 4.16663 10 0
    endloop
  endfacet
  facet normal 0 -1 0
    outer loop
      vertex 4.16663 10 2
      vertex 4.16663 10 0
      vertex 9.72223 10 2
    endloop
  endfacet
  facet normal -1 0 0
    outer loop
      vertex 9.72223 0 0
      vertex 9.72223 0 2
      vertex 9.72223 10 0
    endloop
  endfacet
  facet normal -1 -0 -0
    outer loop
      vertex 9.72223 10 2
      vertex 9.72223 10 0
      vertex 9.72223 0 2
    endloop
  endfacet
  facet normal 0 1 0
    outer loop
      vertex 4.16663 0 0
      vertex 4.16663 0 2
      vertex 9.72223 0 0
    endloop
  endfacet
  facet normal 0 1 0
    outer loop
      vertex 9.72223 0 2
      vertex 9.72223 0 0
      vertex 4.16663 0 2
    endloop
  endfacet
  facet normal 0 1 0
    outer loop
      vertex 5.55554 8.74999 0
      vertex 8.33331 8.74999 2
      vertex 8.33331 8.74999 0
    endloop
  endfacet
  facet normal 0 1 0
    outer loop
      vertex 5.55554 8.74999 0
      vertex 5.55554 8.74999 2
      vertex 8.33331 8.74999 2
    endloop
  endfacet
  facet normal -1 0 0
    outer loop
      vertex 5.55554 4.99998 0
      vertex 5.55554 8.74999 2
      vertex 5.55554 8.74999 0
    endloop
  endfacet
  facet normal -1 0 0
    outer loop
      vertex 5.55554 4.99998 0
      vertex 5.55554 4.99998 2
      vertex 5.55554 8.74999 2
    endloop
  endfacet
  facet normal 0 -1 0
    outer loop
      vertex 8.33331 4.99998 0
      vertex 5.55554 4.99998 2
      vertex 5.55554 4.99998 0
    endloop
  endfacet
  facet normal 0 -1 0
    outer loop
      vertex 8.33331 4.99998 0
      vertex 8.33331 4.99998 2
      vertex 5.55554 4.99998 2
    endloop
  endfacet
  facet normal 1 0 0
    outer loop
      vertex 8.33331 8.74999 0
      vertex 8.33331 4.99998 2
      vertex 8.33331 4.99998 0
    endloop
  endfacet
  facet normal 1 0 -0
    outer loop
      vertex 8.33331 8.74999 0
      vertex 8.33331 8.74999 2
      vertex 8.33331 4.99998 2
    endloop
  endfacet
  facet normal 1 0 -0
    outer loop
      vertex -1.38886 -7.9125 0
      vertex -1.38886 -7.9125 2
      vertex -1.38886 -10 0
    endloop
  endfacet
  facet normal 1 -0 0
    outer loop
      vertex -1.38886 -10 2
      vertex -1.38886 -10 0
      vertex -1.38886 -7.9125 2
    endloop
  endfacet
  facet normal 0.179509 0.983756 -0
    outer loop
      vertex -1.81676 -7.83442 0
      vertex -1.81676 -7.83442 2
      vertex -1.38886 -7.9125 0
    endloop
  endfacet
  facet normal 0.179509 0.983756 0
    outer loop
      vertex -1.38886 -7.9125 2
      vertex -1.38886 -7.9125 0
      vertex -1.81676 -7.83442 2
    endloop
  endfacet
  facet normal 0.237039 0.9715 -0
    outer loop
      vertex -2.26456 -7.72516 0
      vertex -2.26456 -7.72516 2
      vertex -1.81676 -7.83442 0
    endloop
  endfacet
  facet normal 0.237039 0.9715 0
    outer loop
      vertex -1.81676 -7.83442 2
      vertex -1.81676 -7.83442 0
      vertex -2.26456 -7.72516 2
    endloop
  endfacet
  facet normal 0.286398 0.958111 -0
    outer loop
      vertex -2.72833 -7.58653 0
      vertex -2.72833 -7.58653 2
      vertex -2.26456 -7.72516 0
    endloop
  endfacet
  facet normal 0.286398 0.958111 0
    outer loop
      vertex -2.26456 -7.72516 2
      vertex -2.26456 -7.72516 0
      vertex -2.72833 -7.58653 2
    endloop
  endfacet
  facet normal 0.329574 0.94413 -0
    outer loop
      vertex -3.2043 -7.42038 0
      vertex -3.2043 -7.42038 2
      vertex -2.72833 -7.58653 0
    endloop
  endfacet
  facet normal 0.329574 0.94413 0
    outer loop
      vertex -2.72833 -7.58653 2
      vertex -2.72833 -7.58653 0
      vertex -3.2043 -7.42038 2
    endloop
  endfacet
  facet normal 0.36837 0.929679 -0
    outer loop
      vertex -3.68856 -7.2285 0
      vertex -3.68856 -7.2285 2
      vertex -3.2043 -7.42038 0
    endloop
  endfacet
  facet normal 0.36837 0.929679 0
    outer loop
      vertex -3.2043 -7.42038 2
      vertex -3.2043 -7.42038 0
      vertex -3.68856 -7.2285 2
    endloop
  endfacet
  facet normal 0.403918 0.914795 -0
    outer loop
      vertex -4.17726 -7.01272 0
      vertex -4.17726 -7.01272 2
      vertex -3.68856 -7.2285 0
    endloop
  endfacet
  facet normal 0.403918 0.914795 0
    outer loop
      vertex -3.68856 -7.2285 2
      vertex -3.68856 -7.2285 0
      vertex -4.17726 -7.01272 2
    endloop
  endfacet
  facet normal 0.437289 0.899321 -0
    outer loop
      vertex -4.6665 -6.77483 0
      vertex -4.6665 -6.77483 2
      vertex -4.17726 -7.01272 0
    endloop
  endfacet
  facet normal 0.437289 0.899321 0
    outer loop
      vertex -4.17726 -7.01272 2
      vertex -4.17726 -7.01272 0
      vertex -4.6665 -6.77483 2
    endloop
  endfacet
  facet normal 0.469105 0.883143 -0
    outer loop
      vertex -5.15244 -6.51671 0
      vertex -5.15244 -6.51671 2
      vertex -4.6665 -6.77483 0
    endloop
  endfacet
  facet normal 0.469105 0.883143 0
    outer loop
      vertex -4.6665 -6.77483 2
      vertex -4.6665 -6.77483 0
      vertex -5.15244 -6.51671 2
    endloop
  endfacet
  facet normal 0.500223 0.865896 -0
    outer loop
      vertex -5.63124 -6.24011 0
      vertex -5.63124 -6.24011 2
      vertex -5.15244 -6.51671 0
    endloop
  endfacet
  facet normal 0.500223 0.865896 0
    outer loop
      vertex -5.15244 -6.51671 2
      vertex -5.15244 -6.51671 0
      vertex -5.63124 -6.24011 2
    endloop
  endfacet
  facet normal 0.531208 0.847241 -0
    outer loop
      vertex -6.09897 -5.94685 0
      vertex -6.09897 -5.94685 2
      vertex -5.63124 -6.24011 0
    endloop
  endfacet
  facet normal 0.531208 0.847241 0
    outer loop
      vertex -5.63124 -6.24011 2
      vertex -5.63124 -6.24011 0
      vertex -6.09897 -5.94685 2
    endloop
  endfacet
  facet normal 0.562421 0.826851 -0
    outer loop
      vertex -6.55181 -5.63883 0
      vertex -6.55181 -5.63883 2
      vertex -6.09897 -5.94685 0
    endloop
  endfacet
  facet normal 0.562421 0.826851 0
    outer loop
      vertex -6.09897 -5.94685 2
      vertex -6.09897 -5.94685 0
      vertex -6.55181 -5.63883 2
    endloop
  endfacet
  facet normal 0.594623 0.804005 -0
    outer loop
      vertex -6.98591 -5.31778 0
      vertex -6.98591 -5.31778 2
      vertex -6.55181 -5.63883 0
    endloop
  endfacet
  facet normal 0.594623 0.804005 0
    outer loop
      vertex -6.55181 -5.63883 2
      vertex -6.55181 -5.63883 0
      vertex -6.98591 -5.31778 2
    endloop
  endfacet
  facet normal 0.628171 0.778075 -0
    outer loop
      vertex -7.39736 -4.9856 0
      vertex -7.39736 -4.9856 2
      vertex -6.98591 -5.31778 0
    endloop
  endfacet
  facet normal 0.628171 0.778075 0
    outer loop
      vertex -6.98591 -5.31778 2
      vertex -6.98591 -5.31778 0
      vertex -7.39736 -4.9856 2
    endloop
  endfacet
  facet normal 0.663736 0.747967 -0
    outer loop
      vertex -7.78231 -4.644 0
      vertex -7.78231 -4.644 2
      vertex -7.39736 -4.9856 0
    endloop
  endfacet
  facet normal 0.663736 0.747967 0
    outer loop
      vertex -7.39736 -4.9856 2
      vertex -7.39736 -4.9856 0
      vertex -7.78231 -4.644 2
    endloop
  endfacet
  facet normal 0.701549 0.712621 -0
    outer loop
      vertex -8.13693 -4.29489 0
      vertex -8.13693 -4.29489 2
      vertex -7.78231 -4.644 0
    endloop
  endfacet
  facet normal 0.701549 0.712621 0
    outer loop
      vertex -7.78231 -4.644 2
      vertex -7.78231 -4.644 0
      vertex -8.13693 -4.29489 2
    endloop
  endfacet
  facet normal 0.742219 0.670158 -0
    outer loop
      vertex -8.45731 -3.94006 0
      vertex -8.45731 -3.94006 2
      vertex -8.13693 -4.29489 0
    endloop
  endfacet
  facet normal 0.742219 0.670158 0
    outer loop
      vertex -8.13693 -4.29489 2
      vertex -8.13693 -4.29489 0
      vertex -8.45731 -3.94006 2
    endloop
  endfacet
  facet normal 0.785754 0.618539 -0
    outer loop
      vertex -8.73966 -3.58138 0
      vertex -8.73966 -3.58138 2
      vertex -8.45731 -3.94006 0
    endloop
  endfacet
  facet normal 0.785754 0.618539 0
    outer loop
      vertex -8.45731 -3.94006 2
      vertex -8.45731 -3.94006 0
      vertex -8.73966 -3.58138 2
    endloop
  endfacet
  facet normal 0.832274 0.554365 -0
    outer loop
      vertex -8.98001 -3.22054 0
      vertex -8.98001 -3.22054 2
      vertex -8.73966 -3.58138 0
    endloop
  endfacet
  facet normal 0.832274 0.554365 0
    outer loop
      vertex -8.73966 -3.58138 2
      vertex -8.73966 -3.58138 0
      vertex -8.98001 -3.22054 2
    endloop
  endfacet
  facet normal 0.880305 0.474408 -0
    outer loop
      vertex -9.17459 -2.85948 0
      vertex -9.17459 -2.85948 2
      vertex -8.98001 -3.22054 0
    endloop
  endfacet
  facet normal 0.880305 0.474408 0
    outer loop
      vertex -8.98001 -3.22054 2
      vertex -8.98001 -3.22054 0
      vertex -9.17459 -2.85948 2
    endloop
  endfacet
  facet normal 0.927545 0.373712 -0
    outer loop
      vertex -9.31943 -2.49999 0
      vertex -9.31943 -2.49999 2
      vertex -9.17459 -2.85948 0
    endloop
  endfacet
  facet normal 0.927545 0.373712 0
    outer loop
      vertex -9.17459 -2.85948 2
      vertex -9.17459 -2.85948 0
      vertex -9.31943 -2.49999 2
    endloop
  endfacet
  facet normal 0 -1 0
    outer loop
      vertex 9.31943 -2.49999 0
      vertex 9.31943 -2.49999 2
      vertex -9.31943 -2.49999 0
    endloop
  endfacet
  facet normal 0 -1 0
    outer loop
      vertex -9.31943 -2.49999 2
      vertex -9.31943 -2.49999 0
      vertex 9.31943 -2.49999 2
    endloop
  endfacet
  facet normal -0.94158 0.33679 0
    outer loop
      vertex 9.19243 -2.85505 0
      vertex 9.19243 -2.85505 2
      vertex 9.31943 -2.49999 0
    endloop
  endfacet
  facet normal -0.94158 0.33679 0
    outer loop
      vertex 9.31943 -2.49999 2
      vertex 9.31943 -2.49999 0
      vertex 9.19243 -2.85505 2
    endloop
  endfacet
  facet normal -0.924939 0.380116 0
    outer loop
      vertex 9.04916 -3.20367 0
      vertex 9.04916 -3.20367 2
      vertex 9.19243 -2.85505 0
    endloop
  endfacet
  facet normal -0.924939 0.380116 0
    outer loop
      vertex 9.19243 -2.85505 2
      vertex 9.19243 -2.85505 0
      vertex 9.04916 -3.20367 2
    endloop
  endfacet
  facet normal -0.906621 0.421946 0
    outer loop
      vertex 8.89008 -3.54548 0
      vertex 8.89008 -3.54548 2
      vertex 9.04916 -3.20367 0
    endloop
  endfacet
  facet normal -0.906621 0.421946 0
    outer loop
      vertex 9.04916 -3.20367 2
      vertex 9.04916 -3.20367 0
      vertex 8.89008 -3.54548 2
    endloop
  endfacet
  facet normal -0.886666 0.462411 0
    outer loop
      vertex 8.71557 -3.8801 0
      vertex 8.71557 -3.8801 2
      vertex 8.89008 -3.54548 0
    endloop
  endfacet
  facet normal -0.886666 0.462411 0
    outer loop
      vertex 8.89008 -3.54548 2
      vertex 8.89008 -3.54548 0
      vertex 8.71557 -3.8801 2
    endloop
  endfacet
  facet normal -0.865129 0.501549 0
    outer loop
      vertex 8.52603 -4.20704 0
      vertex 8.52603 -4.20704 2
      vertex 8.71557 -3.8801 0
    endloop
  endfacet
  facet normal -0.865129 0.501549 0
    outer loop
      vertex 8.71557 -3.8801 2
      vertex 8.71557 -3.8801 0
      vertex 8.52603 -4.20704 2
    endloop
  endfacet
  facet normal -0.842249 0.539089 0
    outer loop
      vertex 8.32196 -4.52587 0
      vertex 8.32196 -4.52587 2
      vertex 8.52603 -4.20704 0
    endloop
  endfacet
  facet normal -0.842249 0.539089 0
    outer loop
      vertex 8.52603 -4.20704 2
      vertex 8.52603 -4.20704 0
      vertex 8.32196 -4.52587 2
    endloop
  endfacet
  facet normal -0.81802 0.575189 0
    outer loop
      vertex 8.10371 -4.83626 0
      vertex 8.10371 -4.83626 2
      vertex 8.32196 -4.52587 0
    endloop
  endfacet
  facet normal -0.81802 0.575189 0
    outer loop
      vertex 8.32196 -4.52587 2
      vertex 8.32196 -4.52587 0
      vertex 8.10371 -4.83626 2
    endloop
  endfacet
  facet normal -0.792467 0.609915 0
    outer loop
      vertex 7.87164 -5.13779 0
      vertex 7.87164 -5.13779 2
      vertex 8.10371 -4.83626 0
    endloop
  endfacet
  facet normal -0.792467 0.609915 0
    outer loop
      vertex 8.10371 -4.83626 2
      vertex 8.10371 -4.83626 0
      vertex 7.87164 -5.13779 2
    endloop
  endfacet
  facet normal -0.765823 0.643052 0
    outer loop
      vertex 7.6263 -5.42997 0
      vertex 7.6263 -5.42997 2
      vertex 7.87164 -5.13779 0
    endloop
  endfacet
  facet normal -0.765823 0.643052 0
    outer loop
      vertex 7.87164 -5.13779 2
      vertex 7.87164 -5.13779 0
      vertex 7.6263 -5.42997 2
    endloop
  endfacet
  facet normal -0.738062 0.674733 0
    outer loop
      vertex 7.36804 -5.71247 0
      vertex 7.36804 -5.71247 2
      vertex 7.6263 -5.42997 0
    endloop
  endfacet
  facet normal -0.738062 0.674733 0
    outer loop
      vertex 7.6263 -5.42997 2
      vertex 7.6263 -5.42997 0
      vertex 7.36804 -5.71247 2
    endloop
  endfacet
  facet normal -0.709239 0.704968 0
    outer loop
      vertex 7.09729 -5.98486 0
      vertex 7.09729 -5.98486 2
      vertex 7.36804 -5.71247 0
    endloop
  endfacet
  facet normal -0.709239 0.704968 0
    outer loop
      vertex 7.36804 -5.71247 2
      vertex 7.36804 -5.71247 0
      vertex 7.09729 -5.98486 2
    endloop
  endfacet
  facet normal -0.679353 0.733812 0
    outer loop
      vertex 6.81446 -6.2467 0
      vertex 6.81446 -6.2467 2
      vertex 7.09729 -5.98486 0
    endloop
  endfacet
  facet normal -0.679353 0.733812 0
    outer loop
      vertex 7.09729 -5.98486 2
      vertex 7.09729 -5.98486 0
      vertex 6.81446 -6.2467 2
    endloop
  endfacet
  facet normal -0.648402 0.761298 0
    outer loop
      vertex 6.51991 -6.49757 0
      vertex 6.51991 -6.49757 2
      vertex 6.81446 -6.2467 0
    endloop
  endfacet
  facet normal -0.648402 0.761298 0
    outer loop
      vertex 6.81446 -6.2467 2
      vertex 6.81446 -6.2467 0
      vertex 6.51991 -6.49757 2
    endloop
  endfacet
  facet normal -0.616662 0.787228 0
    outer loop
      vertex 6.21414 -6.73709 0
      vertex 6.21414 -6.73709 2
      vertex 6.51991 -6.49757 0
    endloop
  endfacet
  facet normal -0.616662 0.787228 0
    outer loop
      vertex 6.51991 -6.49757 2
      vertex 6.51991 -6.49757 0
      vertex 6.21414 -6.73709 2
    endloop
  endfacet
  facet normal -0.58393 0.811804 0
    outer loop
      vertex 5.89754 -6.96482 0
      vertex 5.89754 -6.96482 2
      vertex 6.21414 -6.73709 0
    endloop
  endfacet
  facet normal -0.58393 0.811804 0
    outer loop
      vertex 6.21414 -6.73709 2
      vertex 6.21414 -6.73709 0
      vertex 5.89754 -6.96482 2
    endloop
  endfacet
  facet normal -0.550403 0.834899 0
    outer loop
      vertex 5.57056 -7.18038 0
      vertex 5.57056 -7.18038 2
      vertex 5.89754 -6.96482 0
    endloop
  endfacet
  facet normal -0.550403 0.834899 0
    outer loop
      vertex 5.89754 -6.96482 2
      vertex 5.89754 -6.96482 0
      vertex 5.57056 -7.18038 2
    endloop
  endfacet
  facet normal -0.515912 0.856642 0
    outer loop
      vertex 5.23354 -7.38335 0
      vertex 5.23354 -7.38335 2
      vertex 5.57056 -7.18038 0
    endloop
  endfacet
  facet normal -0.515912 0.856642 0
    outer loop
      vertex 5.57056 -7.18038 2
      vertex 5.57056 -7.18038 0
      vertex 5.23354 -7.38335 2
    endloop
  endfacet
  facet normal -0.480537 0.876974 0
    outer loop
      vertex 4.88692 -7.57328 0
      vertex 4.88692 -7.57328 2
      vertex 5.23354 -7.38335 0
    endloop
  endfacet
  facet normal -0.480537 0.876974 0
    outer loop
      vertex 5.23354 -7.38335 2
      vertex 5.23354 -7.38335 0
      vertex 4.88692 -7.57328 2
    endloop
  endfacet
  facet normal -0.444492 0.895783 0
    outer loop
      vertex 4.53116 -7.74981 0
      vertex 4.53116 -7.74981 2
      vertex 4.88692 -7.57328 0
    endloop
  endfacet
  facet normal -0.444492 0.895783 0
    outer loop
      vertex 4.88692 -7.57328 2
      vertex 4.88692 -7.57328 0
      vertex 4.53116 -7.74981 2
    endloop
  endfacet
  facet normal -0.407553 0.913181 0
    outer loop
      vertex 4.16663 -7.9125 0
      vertex 4.16663 -7.9125 2
      vertex 4.53116 -7.74981 0
    endloop
  endfacet
  facet normal -0.407553 0.913181 0
    outer loop
      vertex 4.53116 -7.74981 2
      vertex 4.53116 -7.74981 0
      vertex 4.16663 -7.9125 2
    endloop
  endfacet
  facet normal -1 0 0
    outer loop
      vertex 4.16663 -10 0
      vertex 4.16663 -10 2
      vertex 4.16663 -7.9125 0
    endloop
  endfacet
  facet normal -1 -0 -0
    outer loop
      vertex 4.16663 -7.9125 2
      vertex 4.16663 -7.9125 0
      vertex 4.16663 -10 2
    endloop
  endfacet
  facet normal 0 1 0
    outer loop
      vertex -1.38886 -10 0
      vertex -1.38886 -10 2
      vertex 4.16663 -10 0
    endloop
  endfacet
  facet normal 0 1 0
    outer loop
      vertex 4.16663 -10 2
      vertex 4.16663 -10 0
      vertex -1.38886 -10 2
    endloop
  endfacet
endsolid OpenSCAD_Model
