solid OpenSCAD_Model
  facet normal 1 0 0
    outer loop
      vertex 0 0 0
      vertex 0 150 0
      vertex 0 0 40
    endloop
  endfacet
  facet normal -1 0 0
    outer loop
      vertex -25 0 40
      vertex -25 150 0
      vertex -25 0 0
    endloop
  endfacet
  facet normal 0 0 -1
    outer loop
      vertex 0 0 0
      vertex -25 150 0
      vertex 0 150 0
    endloop
  endfacet
  facet normal 0 0 -1
    outer loop
      vertex 0 0 0
      vertex -25 0 0
      vertex -25 150 0
    endloop
  endfacet
  facet normal 0 -1 -0
    outer loop
      vertex 0 0 40
      vertex -25 0 0
      vertex 0 0 0
    endloop
  endfacet
  facet normal -0 -1 0
    outer loop
      vertex 0 0 40
      vertex -25 0 40
      vertex -25 0 0
    endloop
  endfacet
  facet normal 0 0.257663 0.966235
    outer loop
      vertex 0 150 0
      vertex -25 0 40
      vertex 0 0 40
    endloop
  endfacet
  facet normal 0 0.257663 0.966235
    outer loop
      vertex 0 150 0
      vertex -25 150 0
      vertex -25 0 40
    endloop
  endfacet
endsolid OpenSCAD_Model
