solid OpenSCAD_Model
  facet normal -0.707107 -0.707107 0
    outer loop
      vertex 21.8496 -92.5603 -20
      vertex -92.5603 21.8496 20
      vertex -92.5603 21.8496 -20
    endloop
  endfacet
  facet normal -0.707107 -0.707107 0
    outer loop
      vertex -92.5603 21.8496 20
      vertex 21.8496 -92.5603 -20
      vertex 21.8496 -92.5603 20
    endloop
  endfacet
  facet normal 0 0 1
    outer loop
      vertex -21.8496 92.5603 20
      vertex 89.7318 -21.8496 20
      vertex 92.5603 -21.8496 20
    endloop
  endfacet
  facet normal 0 0 1
    outer loop
      vertex -21.8496 92.5603 20
      vertex -21.8496 89.7318 20
      vertex 89.7318 -21.8496 20
    endloop
  endfacet
  facet normal 0 0 1
    outer loop
      vertex -21.8496 92.5603 20
      vertex -89.7318 21.8496 20
      vertex -21.8496 89.7318 20
    endloop
  endfacet
  facet normal 0 -0 1
    outer loop
      vertex -89.7318 21.8496 20
      vertex -21.8496 92.5603 20
      vertex -92.5603 21.8496 20
    endloop
  endfacet
  facet normal 0 0 1
    outer loop
      vertex 21.8496 -89.7318 20
      vertex 92.5603 -21.8496 20
      vertex 89.7318 -21.8496 20
    endloop
  endfacet
  facet normal -0 0 1
    outer loop
      vertex 21.8496 -89.7318 20
      vertex 21.8496 -92.5603 20
      vertex 92.5603 -21.8496 20
    endloop
  endfacet
  facet normal 0 0 1
    outer loop
      vertex -89.7318 21.8496 20
      vertex 21.8496 -92.5603 20
      vertex 21.8496 -89.7318 20
    endloop
  endfacet
  facet normal 0 0 1
    outer loop
      vertex 21.8496 -92.5603 20
      vertex -89.7318 21.8496 20
      vertex -92.5603 21.8496 20
    endloop
  endfacet
  facet normal 0.707107 0.707107 0
    outer loop
      vertex 92.5603 -21.8496 20
      vertex -21.8496 92.5603 -20
      vertex -21.8496 92.5603 20
    endloop
  endfacet
  facet normal 0.707107 0.707107 0
    outer loop
      vertex -21.8496 92.5603 -20
      vertex 92.5603 -21.8496 20
      vertex 92.5603 -21.8496 -20
    endloop
  endfacet
  facet normal -0.707107 0.707107 0
    outer loop
      vertex -92.5603 21.8496 -20
      vertex -21.8496 92.5603 20
      vertex -21.8496 92.5603 -20
    endloop
  endfacet
  facet normal -0.707107 0.707107 0
    outer loop
      vertex -21.8496 92.5603 20
      vertex -92.5603 21.8496 -20
      vertex -92.5603 21.8496 20
    endloop
  endfacet
  facet normal 0 0 -1
    outer loop
      vertex 21.8496 -92.5603 -20
      vertex -21.8496 92.5603 -20
      vertex 92.5603 -21.8496 -20
    endloop
  endfacet
  facet normal 0 -0 -1
    outer loop
      vertex -21.8496 92.5603 -20
      vertex 21.8496 -92.5603 -20
      vertex -92.5603 21.8496 -20
    endloop
  endfacet
  facet normal 0.707107 -0.707107 0
    outer loop
      vertex 21.8496 -92.5603 20
      vertex 92.5603 -21.8496 -20
      vertex 92.5603 -21.8496 20
    endloop
  endfacet
  facet normal 0.707107 -0.707107 0
    outer loop
      vertex 92.5603 -21.8496 -20
      vertex 21.8496 -92.5603 20
      vertex 21.8496 -92.5603 -20
    endloop
  endfacet
  facet normal 0.707107 0.707107 0
    outer loop
      vertex 21.8496 -89.7318 20
      vertex -89.7318 21.8496 -16
      vertex -89.7318 21.8496 20
    endloop
  endfacet
  facet normal 0.707107 0.707107 0
    outer loop
      vertex -89.7318 21.8496 -16
      vertex 21.8496 -89.7318 20
      vertex 21.8496 -89.7318 -16
    endloop
  endfacet
  facet normal -0.707107 -0.707107 0
    outer loop
      vertex 89.7318 -21.8496 -16
      vertex -21.8496 89.7318 20
      vertex -21.8496 89.7318 -16
    endloop
  endfacet
  facet normal -0.707107 -0.707107 0
    outer loop
      vertex -21.8496 89.7318 20
      vertex 89.7318 -21.8496 -16
      vertex 89.7318 -21.8496 20
    endloop
  endfacet
  facet normal 0.707107 -0.707107 0
    outer loop
      vertex -89.7318 21.8496 20
      vertex -21.8496 89.7318 -16
      vertex -21.8496 89.7318 20
    endloop
  endfacet
  facet normal 0.707107 -0.707107 0
    outer loop
      vertex -21.8496 89.7318 -16
      vertex -89.7318 21.8496 20
      vertex -89.7318 21.8496 -16
    endloop
  endfacet
  facet normal 0 0 1
    outer loop
      vertex -21.8496 89.7318 -16
      vertex 21.8496 -89.7318 -16
      vertex 89.7318 -21.8496 -16
    endloop
  endfacet
  facet normal 0 0 1
    outer loop
      vertex 21.8496 -89.7318 -16
      vertex -21.8496 89.7318 -16
      vertex -89.7318 21.8496 -16
    endloop
  endfacet
  facet normal -0.707107 0.707107 0
    outer loop
      vertex 21.8496 -89.7318 -16
      vertex 89.7318 -21.8496 20
      vertex 89.7318 -21.8496 -16
    endloop
  endfacet
  facet normal -0.707107 0.707107 0
    outer loop
      vertex 89.7318 -21.8496 20
      vertex 21.8496 -89.7318 -16
      vertex 21.8496 -89.7318 20
    endloop
  endfacet
endsolid OpenSCAD_Model
