solid OpenSCAD_Model
  facet normal -0.219948 -0.975512 0
    outer loop
      vertex 22.3844 -70.2665 -25
      vertex 22.4323 -70.2773 25
      vertex 22.3844 -70.2665 25
    endloop
  endfacet
  facet normal -0.219948 -0.975512 -0
    outer loop
      vertex 22.4323 -70.2773 25
      vertex 22.3844 -70.2665 -25
      vertex 22.4323 -70.2773 -25
    endloop
  endfacet
  facet normal -0.615209 0.788364 0
    outer loop
      vertex -23.2231 70.0997 -25
      vertex -23.2618 70.0695 25
      vertex -23.2231 70.0997 25
    endloop
  endfacet
  facet normal -0.615209 0.788364 0
    outer loop
      vertex -23.2618 70.0695 25
      vertex -23.2231 70.0997 -25
      vertex -23.2618 70.0695 -25
    endloop
  endfacet
  facet normal 0 0 1
    outer loop
      vertex 70.2953 -22.5784 25
      vertex 70.2953 -22.6765 25
      vertex 70.2965 -22.6274 25
    endloop
  endfacet
  facet normal 0 0 1
    outer loop
      vertex 70.2916 -22.5294 25
      vertex 70.2953 -22.6765 25
      vertex 70.2953 -22.5784 25
    endloop
  endfacet
  facet normal 0 0 1
    outer loop
      vertex 70.2916 -22.5294 25
      vertex 70.2916 -22.7254 25
      vertex 70.2953 -22.6765 25
    endloop
  endfacet
  facet normal 0 0 1
    outer loop
      vertex 70.2856 -22.4807 25
      vertex 70.2916 -22.7254 25
      vertex 70.2916 -22.5294 25
    endloop
  endfacet
  facet normal 0 0 1
    outer loop
      vertex 70.2856 -22.4807 25
      vertex 70.2856 -22.7741 25
      vertex 70.2916 -22.7254 25
    endloop
  endfacet
  facet normal 0 0 1
    outer loop
      vertex 70.2773 -22.4323 25
      vertex 70.2856 -22.7741 25
      vertex 70.2856 -22.4807 25
    endloop
  endfacet
  facet normal 0 0 1
    outer loop
      vertex 70.2773 -22.4323 25
      vertex 70.2773 -22.8225 25
      vertex 70.2856 -22.7741 25
    endloop
  endfacet
  facet normal 0 0 1
    outer loop
      vertex 70.2665 -22.3844 25
      vertex 70.2773 -22.8225 25
      vertex 70.2773 -22.4323 25
    endloop
  endfacet
  facet normal 0 0 1
    outer loop
      vertex 70.2665 -22.3844 25
      vertex 70.2665 -22.8704 25
      vertex 70.2773 -22.8225 25
    endloop
  endfacet
  facet normal 0 0 1
    outer loop
      vertex 70.2534 -22.3371 25
      vertex 70.2665 -22.8704 25
      vertex 70.2665 -22.3844 25
    endloop
  endfacet
  facet normal 0 0 1
    outer loop
      vertex 70.2534 -22.3371 25
      vertex 70.2534 -22.9177 25
      vertex 70.2665 -22.8704 25
    endloop
  endfacet
  facet normal 0 0 1
    outer loop
      vertex 70.238 -22.2905 25
      vertex 70.2534 -22.9177 25
      vertex 70.2534 -22.3371 25
    endloop
  endfacet
  facet normal 0 0 1
    outer loop
      vertex 70.238 -22.2905 25
      vertex 70.238 -22.9643 25
      vertex 70.2534 -22.9177 25
    endloop
  endfacet
  facet normal 0 0 1
    outer loop
      vertex 70.2203 -22.2447 25
      vertex 70.238 -22.9643 25
      vertex 70.238 -22.2905 25
    endloop
  endfacet
  facet normal 0 0 1
    outer loop
      vertex 70.2203 -22.2447 25
      vertex 70.2203 -23.0101 25
      vertex 70.238 -22.9643 25
    endloop
  endfacet
  facet normal 0 0 1
    outer loop
      vertex 70.2005 -22.1999 25
      vertex 70.2203 -23.0101 25
      vertex 70.2203 -22.2447 25
    endloop
  endfacet
  facet normal 0 0 1
    outer loop
      vertex 70.2005 -22.1999 25
      vertex 70.2005 -23.055 25
      vertex 70.2203 -23.0101 25
    endloop
  endfacet
  facet normal 0 0 1
    outer loop
      vertex 70.1784 -22.156 25
      vertex 70.2005 -23.055 25
      vertex 70.2005 -22.1999 25
    endloop
  endfacet
  facet normal 0 0 1
    outer loop
      vertex 70.1784 -22.156 25
      vertex 70.1784 -23.0988 25
      vertex 70.2005 -23.055 25
    endloop
  endfacet
  facet normal 0 0 1
    outer loop
      vertex 70.1542 -22.1133 25
      vertex 70.1784 -23.0988 25
      vertex 70.1784 -22.156 25
    endloop
  endfacet
  facet normal 0 0 1
    outer loop
      vertex 70.1542 -22.1133 25
      vertex 70.1542 -23.1415 25
      vertex 70.1784 -23.0988 25
    endloop
  endfacet
  facet normal 0 0 1
    outer loop
      vertex 70.1279 -22.0718 25
      vertex 70.1542 -23.1415 25
      vertex 70.1542 -22.1133 25
    endloop
  endfacet
  facet normal 0 0 1
    outer loop
      vertex 70.1279 -22.0718 25
      vertex 70.1279 -23.183 25
      vertex 70.1542 -23.1415 25
    endloop
  endfacet
  facet normal 0 0 1
    outer loop
      vertex 70.0997 -22.0317 25
      vertex 70.1279 -23.183 25
      vertex 70.1279 -22.0718 25
    endloop
  endfacet
  facet normal 0 0 1
    outer loop
      vertex 70.0997 -22.0317 25
      vertex 70.0997 -23.2231 25
      vertex 70.1279 -23.183 25
    endloop
  endfacet
  facet normal 0 0 1
    outer loop
      vertex 70.0695 -21.993 25
      vertex 70.0997 -23.2231 25
      vertex 70.0997 -22.0317 25
    endloop
  endfacet
  facet normal 0 0 1
    outer loop
      vertex 70.0695 -21.993 25
      vertex 70.0695 -23.2618 25
      vertex 70.0997 -23.2231 25
    endloop
  endfacet
  facet normal 0 0 1
    outer loop
      vertex 70.0374 -21.9559 25
      vertex 70.0695 -23.2618 25
      vertex 70.0695 -21.993 25
    endloop
  endfacet
  facet normal 0 0 1
    outer loop
      vertex 70.0374 -21.9559 25
      vertex 70.0374 -23.299 25
      vertex 70.0695 -23.2618 25
    endloop
  endfacet
  facet normal 0 0 1
    outer loop
      vertex 70.0036 -21.9203 25
      vertex 70.0374 -23.299 25
      vertex 70.0374 -21.9559 25
    endloop
  endfacet
  facet normal 0 0 1
    outer loop
      vertex 70.0036 -21.9203 25
      vertex 70.0036 -23.3345 25
      vertex 70.0374 -23.299 25
    endloop
  endfacet
  facet normal 0 0 1
    outer loop
      vertex 70.0036 -21.9203 25
      vertex 67.8822 -22.6274 25
      vertex 70.0036 -23.3345 25
    endloop
  endfacet
  facet normal 0 0 1
    outer loop
      vertex -21.9203 70.0036 25
      vertex 67.8822 -22.6274 25
      vertex 70.0036 -21.9203 25
    endloop
  endfacet
  facet normal 0 0 1
    outer loop
      vertex -22.6274 67.8822 25
      vertex -21.9203 70.0036 25
      vertex -21.9559 70.0374 25
    endloop
  endfacet
  facet normal 0 0 1
    outer loop
      vertex -22.6274 67.8822 25
      vertex -21.9559 70.0374 25
      vertex -21.993 70.0695 25
    endloop
  endfacet
  facet normal 0 0 1
    outer loop
      vertex -22.6274 67.8822 25
      vertex -21.993 70.0695 25
      vertex -22.0317 70.0997 25
    endloop
  endfacet
  facet normal 0 0 1
    outer loop
      vertex -22.6274 67.8822 25
      vertex -22.0317 70.0997 25
      vertex -22.0718 70.1279 25
    endloop
  endfacet
  facet normal 0 0 1
    outer loop
      vertex -22.6274 67.8822 25
      vertex -22.0718 70.1279 25
      vertex -22.1133 70.1542 25
    endloop
  endfacet
  facet normal 0 0 1
    outer loop
      vertex -22.6274 67.8822 25
      vertex -22.1133 70.1542 25
      vertex -22.156 70.1784 25
    endloop
  endfacet
  facet normal 0 0 1
    outer loop
      vertex -22.6274 67.8822 25
      vertex -22.156 70.1784 25
      vertex -22.1999 70.2005 25
    endloop
  endfacet
  facet normal 0 0 1
    outer loop
      vertex -22.6274 67.8822 25
      vertex -22.1999 70.2005 25
      vertex -22.2447 70.2203 25
    endloop
  endfacet
  facet normal 0 0 1
    outer loop
      vertex -22.6274 67.8822 25
      vertex -22.2447 70.2203 25
      vertex -22.2905 70.238 25
    endloop
  endfacet
  facet normal 0 0 1
    outer loop
      vertex -22.6274 67.8822 25
      vertex -22.2905 70.238 25
      vertex -22.3371 70.2534 25
    endloop
  endfacet
  facet normal 0 0 1
    outer loop
      vertex -22.6274 67.8822 25
      vertex -22.3371 70.2534 25
      vertex -22.3844 70.2665 25
    endloop
  endfacet
  facet normal 0 0 1
    outer loop
      vertex -22.6274 67.8822 25
      vertex -22.3844 70.2665 25
      vertex -22.4323 70.2773 25
    endloop
  endfacet
  facet normal 0 0 1
    outer loop
      vertex -22.6274 67.8822 25
      vertex -22.4323 70.2773 25
      vertex -22.4807 70.2856 25
    endloop
  endfacet
  facet normal 0 0 1
    outer loop
      vertex -22.6274 67.8822 25
      vertex -22.4807 70.2856 25
      vertex -22.5294 70.2916 25
    endloop
  endfacet
  facet normal 0 0 1
    outer loop
      vertex -22.6274 67.8822 25
      vertex -22.5294 70.2916 25
      vertex -22.5784 70.2953 25
    endloop
  endfacet
  facet normal 0 0 1
    outer loop
      vertex -22.6274 67.8822 25
      vertex -22.5784 70.2953 25
      vertex -22.6274 70.2965 25
    endloop
  endfacet
  facet normal 0 0 1
    outer loop
      vertex -21.9203 70.0036 25
      vertex -22.6274 67.8822 25
      vertex 67.8822 -22.6274 25
    endloop
  endfacet
  facet normal -0 0 1
    outer loop
      vertex -22.6765 70.2953 25
      vertex -22.6274 67.8822 25
      vertex -22.6274 70.2965 25
    endloop
  endfacet
  facet normal -0 0 1
    outer loop
      vertex -22.7254 70.2916 25
      vertex -22.6274 67.8822 25
      vertex -22.6765 70.2953 25
    endloop
  endfacet
  facet normal -0 0 1
    outer loop
      vertex -22.7741 70.2856 25
      vertex -22.6274 67.8822 25
      vertex -22.7254 70.2916 25
    endloop
  endfacet
  facet normal -0 0 1
    outer loop
      vertex -22.8225 70.2773 25
      vertex -22.6274 67.8822 25
      vertex -22.7741 70.2856 25
    endloop
  endfacet
  facet normal -0 0 1
    outer loop
      vertex -22.8704 70.2665 25
      vertex -22.6274 67.8822 25
      vertex -22.8225 70.2773 25
    endloop
  endfacet
  facet normal -0 0 1
    outer loop
      vertex -22.9177 70.2534 25
      vertex -22.6274 67.8822 25
      vertex -22.8704 70.2665 25
    endloop
  endfacet
  facet normal -0 0 1
    outer loop
      vertex -22.9643 70.238 25
      vertex -22.6274 67.8822 25
      vertex -22.9177 70.2534 25
    endloop
  endfacet
  facet normal -0 0 1
    outer loop
      vertex -23.0101 70.2203 25
      vertex -22.6274 67.8822 25
      vertex -22.9643 70.238 25
    endloop
  endfacet
  facet normal -0 0 1
    outer loop
      vertex -23.055 70.2005 25
      vertex -22.6274 67.8822 25
      vertex -23.0101 70.2203 25
    endloop
  endfacet
  facet normal -0 0 1
    outer loop
      vertex -23.0988 70.1784 25
      vertex -22.6274 67.8822 25
      vertex -23.055 70.2005 25
    endloop
  endfacet
  facet normal -0 0 1
    outer loop
      vertex -23.1415 70.1542 25
      vertex -22.6274 67.8822 25
      vertex -23.0988 70.1784 25
    endloop
  endfacet
  facet normal -0 0 1
    outer loop
      vertex -23.183 70.1279 25
      vertex -22.6274 67.8822 25
      vertex -23.1415 70.1542 25
    endloop
  endfacet
  facet normal -0 0 1
    outer loop
      vertex -23.2231 70.0997 25
      vertex -22.6274 67.8822 25
      vertex -23.183 70.1279 25
    endloop
  endfacet
  facet normal -0 0 1
    outer loop
      vertex -23.2618 70.0695 25
      vertex -22.6274 67.8822 25
      vertex -23.2231 70.0997 25
    endloop
  endfacet
  facet normal -0 0 1
    outer loop
      vertex -23.299 70.0374 25
      vertex -22.6274 67.8822 25
      vertex -23.2618 70.0695 25
    endloop
  endfacet
  facet normal -0 0 1
    outer loop
      vertex -23.3345 70.0036 25
      vertex -22.6274 67.8822 25
      vertex -23.299 70.0374 25
    endloop
  endfacet
  facet normal 0 0 1
    outer loop
      vertex -23.3345 70.0036 25
      vertex -67.8822 22.6274 25
      vertex -22.6274 67.8822 25
    endloop
  endfacet
  facet normal 0 -0 1
    outer loop
      vertex -67.8822 22.6274 25
      vertex -23.3345 70.0036 25
      vertex -70.0036 23.3345 25
    endloop
  endfacet
  facet normal 0 0 1
    outer loop
      vertex 67.8822 -22.6274 25
      vertex 23.3345 -70.0036 25
      vertex 70.0036 -23.3345 25
    endloop
  endfacet
  facet normal -0 0 1
    outer loop
      vertex 22.6274 -67.8822 25
      vertex 23.3345 -70.0036 25
      vertex 67.8822 -22.6274 25
    endloop
  endfacet
  facet normal 0 0 1
    outer loop
      vertex 23.3345 -70.0036 25
      vertex 22.6274 -67.8822 25
      vertex 23.299 -70.0374 25
    endloop
  endfacet
  facet normal 0 0 1
    outer loop
      vertex 23.299 -70.0374 25
      vertex 22.6274 -67.8822 25
      vertex 23.2618 -70.0695 25
    endloop
  endfacet
  facet normal 0 0 1
    outer loop
      vertex 23.2618 -70.0695 25
      vertex 22.6274 -67.8822 25
      vertex 23.2231 -70.0997 25
    endloop
  endfacet
  facet normal 0 0 1
    outer loop
      vertex 23.2231 -70.0997 25
      vertex 22.6274 -67.8822 25
      vertex 23.183 -70.1279 25
    endloop
  endfacet
  facet normal 0 0 1
    outer loop
      vertex 23.183 -70.1279 25
      vertex 22.6274 -67.8822 25
      vertex 23.1415 -70.1542 25
    endloop
  endfacet
  facet normal 0 0 1
    outer loop
      vertex 23.1415 -70.1542 25
      vertex 22.6274 -67.8822 25
      vertex 23.0988 -70.1784 25
    endloop
  endfacet
  facet normal 0 0 1
    outer loop
      vertex 23.0988 -70.1784 25
      vertex 22.6274 -67.8822 25
      vertex 23.055 -70.2005 25
    endloop
  endfacet
  facet normal 0 0 1
    outer loop
      vertex 23.055 -70.2005 25
      vertex 22.6274 -67.8822 25
      vertex 23.0101 -70.2203 25
    endloop
  endfacet
  facet normal 0 0 1
    outer loop
      vertex 23.0101 -70.2203 25
      vertex 22.6274 -67.8822 25
      vertex 22.9643 -70.238 25
    endloop
  endfacet
  facet normal 0 0 1
    outer loop
      vertex 22.9643 -70.238 25
      vertex 22.6274 -67.8822 25
      vertex 22.9177 -70.2534 25
    endloop
  endfacet
  facet normal 0 0 1
    outer loop
      vertex 22.9177 -70.2534 25
      vertex 22.6274 -67.8822 25
      vertex 22.8704 -70.2665 25
    endloop
  endfacet
  facet normal 0 0 1
    outer loop
      vertex 22.8704 -70.2665 25
      vertex 22.6274 -67.8822 25
      vertex 22.8225 -70.2773 25
    endloop
  endfacet
  facet normal 0 0 1
    outer loop
      vertex 22.8225 -70.2773 25
      vertex 22.6274 -67.8822 25
      vertex 22.7741 -70.2856 25
    endloop
  endfacet
  facet normal 0 0 1
    outer loop
      vertex 22.7741 -70.2856 25
      vertex 22.6274 -67.8822 25
      vertex 22.7254 -70.2916 25
    endloop
  endfacet
  facet normal 0 0 1
    outer loop
      vertex 22.7254 -70.2916 25
      vertex 22.6274 -67.8822 25
      vertex 22.6765 -70.2953 25
    endloop
  endfacet
  facet normal 0 0 1
    outer loop
      vertex 22.6274 -67.8822 25
      vertex 22.6274 -70.2965 25
      vertex 22.6765 -70.2953 25
    endloop
  endfacet
  facet normal 0 0 1
    outer loop
      vertex 22.6274 -67.8822 25
      vertex 22.5784 -70.2953 25
      vertex 22.6274 -70.2965 25
    endloop
  endfacet
  facet normal 0 0 1
    outer loop
      vertex 22.6274 -67.8822 25
      vertex 22.5294 -70.2916 25
      vertex 22.5784 -70.2953 25
    endloop
  endfacet
  facet normal 0 0 1
    outer loop
      vertex 22.6274 -67.8822 25
      vertex 22.4807 -70.2856 25
      vertex 22.5294 -70.2916 25
    endloop
  endfacet
  facet normal 0 0 1
    outer loop
      vertex 22.6274 -67.8822 25
      vertex 22.4323 -70.2773 25
      vertex 22.4807 -70.2856 25
    endloop
  endfacet
  facet normal 0 0 1
    outer loop
      vertex 22.6274 -67.8822 25
      vertex 22.3844 -70.2665 25
      vertex 22.4323 -70.2773 25
    endloop
  endfacet
  facet normal 0 0 1
    outer loop
      vertex 22.6274 -67.8822 25
      vertex 22.3371 -70.2534 25
      vertex 22.3844 -70.2665 25
    endloop
  endfacet
  facet normal 0 0 1
    outer loop
      vertex 22.6274 -67.8822 25
      vertex 22.2905 -70.238 25
      vertex 22.3371 -70.2534 25
    endloop
  endfacet
  facet normal 0 0 1
    outer loop
      vertex 22.6274 -67.8822 25
      vertex 22.2447 -70.2203 25
      vertex 22.2905 -70.238 25
    endloop
  endfacet
  facet normal 0 0 1
    outer loop
      vertex 22.6274 -67.8822 25
      vertex 22.1999 -70.2005 25
      vertex 22.2447 -70.2203 25
    endloop
  endfacet
  facet normal 0 0 1
    outer loop
      vertex 22.6274 -67.8822 25
      vertex 22.156 -70.1784 25
      vertex 22.1999 -70.2005 25
    endloop
  endfacet
  facet normal 0 0 1
    outer loop
      vertex 22.6274 -67.8822 25
      vertex 22.1133 -70.1542 25
      vertex 22.156 -70.1784 25
    endloop
  endfacet
  facet normal 0 0 1
    outer loop
      vertex 22.6274 -67.8822 25
      vertex 22.0718 -70.1279 25
      vertex 22.1133 -70.1542 25
    endloop
  endfacet
  facet normal 0 0 1
    outer loop
      vertex 22.6274 -67.8822 25
      vertex 22.0317 -70.0997 25
      vertex 22.0718 -70.1279 25
    endloop
  endfacet
  facet normal 0 0 1
    outer loop
      vertex 22.6274 -67.8822 25
      vertex 21.993 -70.0695 25
      vertex 22.0317 -70.0997 25
    endloop
  endfacet
  facet normal 0 0 1
    outer loop
      vertex 22.6274 -67.8822 25
      vertex 21.9559 -70.0374 25
      vertex 21.993 -70.0695 25
    endloop
  endfacet
  facet normal 0 0 1
    outer loop
      vertex 22.6274 -67.8822 25
      vertex 21.9203 -70.0036 25
      vertex 21.9559 -70.0374 25
    endloop
  endfacet
  facet normal 0 0 1
    outer loop
      vertex -67.8822 22.6274 25
      vertex 21.9203 -70.0036 25
      vertex 22.6274 -67.8822 25
    endloop
  endfacet
  facet normal 0 0 1
    outer loop
      vertex -70.0036 21.9203 25
      vertex -67.8822 22.6274 25
      vertex -70.0036 23.3345 25
    endloop
  endfacet
  facet normal 0 0 1
    outer loop
      vertex -67.8822 22.6274 25
      vertex -70.0036 21.9203 25
      vertex 21.9203 -70.0036 25
    endloop
  endfacet
  facet normal -0 0 1
    outer loop
      vertex -70.0374 23.299 25
      vertex -70.0036 21.9203 25
      vertex -70.0036 23.3345 25
    endloop
  endfacet
  facet normal 0 0 1
    outer loop
      vertex -70.0374 23.299 25
      vertex -70.0374 21.9559 25
      vertex -70.0036 21.9203 25
    endloop
  endfacet
  facet normal -0 0 1
    outer loop
      vertex -70.0695 23.2618 25
      vertex -70.0374 21.9559 25
      vertex -70.0374 23.299 25
    endloop
  endfacet
  facet normal 0 0 1
    outer loop
      vertex -70.0695 23.2618 25
      vertex -70.0695 21.993 25
      vertex -70.0374 21.9559 25
    endloop
  endfacet
  facet normal -0 0 1
    outer loop
      vertex -70.0997 23.2231 25
      vertex -70.0695 21.993 25
      vertex -70.0695 23.2618 25
    endloop
  endfacet
  facet normal 0 0 1
    outer loop
      vertex -70.0997 23.2231 25
      vertex -70.0997 22.0317 25
      vertex -70.0695 21.993 25
    endloop
  endfacet
  facet normal -0 0 1
    outer loop
      vertex -70.1279 23.183 25
      vertex -70.0997 22.0317 25
      vertex -70.0997 23.2231 25
    endloop
  endfacet
  facet normal 0 0 1
    outer loop
      vertex -70.1279 23.183 25
      vertex -70.1279 22.0718 25
      vertex -70.0997 22.0317 25
    endloop
  endfacet
  facet normal -0 0 1
    outer loop
      vertex -70.1542 23.1415 25
      vertex -70.1279 22.0718 25
      vertex -70.1279 23.183 25
    endloop
  endfacet
  facet normal 0 0 1
    outer loop
      vertex -70.1542 23.1415 25
      vertex -70.1542 22.1133 25
      vertex -70.1279 22.0718 25
    endloop
  endfacet
  facet normal -0 0 1
    outer loop
      vertex -70.1784 23.0988 25
      vertex -70.1542 22.1133 25
      vertex -70.1542 23.1415 25
    endloop
  endfacet
  facet normal 0 0 1
    outer loop
      vertex -70.1784 23.0988 25
      vertex -70.1784 22.156 25
      vertex -70.1542 22.1133 25
    endloop
  endfacet
  facet normal -0 0 1
    outer loop
      vertex -70.2005 23.055 25
      vertex -70.1784 22.156 25
      vertex -70.1784 23.0988 25
    endloop
  endfacet
  facet normal 0 0 1
    outer loop
      vertex -70.2005 23.055 25
      vertex -70.2005 22.1999 25
      vertex -70.1784 22.156 25
    endloop
  endfacet
  facet normal -0 0 1
    outer loop
      vertex -70.2203 23.0101 25
      vertex -70.2005 22.1999 25
      vertex -70.2005 23.055 25
    endloop
  endfacet
  facet normal 0 0 1
    outer loop
      vertex -70.2203 23.0101 25
      vertex -70.2203 22.2447 25
      vertex -70.2005 22.1999 25
    endloop
  endfacet
  facet normal -0 0 1
    outer loop
      vertex -70.238 22.9643 25
      vertex -70.2203 22.2447 25
      vertex -70.2203 23.0101 25
    endloop
  endfacet
  facet normal 0 0 1
    outer loop
      vertex -70.238 22.9643 25
      vertex -70.238 22.2905 25
      vertex -70.2203 22.2447 25
    endloop
  endfacet
  facet normal -0 0 1
    outer loop
      vertex -70.2534 22.9177 25
      vertex -70.238 22.2905 25
      vertex -70.238 22.9643 25
    endloop
  endfacet
  facet normal 0 0 1
    outer loop
      vertex -70.2534 22.9177 25
      vertex -70.2534 22.3371 25
      vertex -70.238 22.2905 25
    endloop
  endfacet
  facet normal -0 0 1
    outer loop
      vertex -70.2665 22.8704 25
      vertex -70.2534 22.3371 25
      vertex -70.2534 22.9177 25
    endloop
  endfacet
  facet normal 0 0 1
    outer loop
      vertex -70.2665 22.8704 25
      vertex -70.2665 22.3844 25
      vertex -70.2534 22.3371 25
    endloop
  endfacet
  facet normal -0 0 1
    outer loop
      vertex -70.2773 22.8225 25
      vertex -70.2665 22.3844 25
      vertex -70.2665 22.8704 25
    endloop
  endfacet
  facet normal 0 0 1
    outer loop
      vertex -70.2773 22.8225 25
      vertex -70.2773 22.4323 25
      vertex -70.2665 22.3844 25
    endloop
  endfacet
  facet normal -0 0 1
    outer loop
      vertex -70.2856 22.7741 25
      vertex -70.2773 22.4323 25
      vertex -70.2773 22.8225 25
    endloop
  endfacet
  facet normal 0 0 1
    outer loop
      vertex -70.2856 22.7741 25
      vertex -70.2856 22.4807 25
      vertex -70.2773 22.4323 25
    endloop
  endfacet
  facet normal -0 0 1
    outer loop
      vertex -70.2916 22.7254 25
      vertex -70.2856 22.4807 25
      vertex -70.2856 22.7741 25
    endloop
  endfacet
  facet normal 0 0 1
    outer loop
      vertex -70.2916 22.7254 25
      vertex -70.2916 22.5294 25
      vertex -70.2856 22.4807 25
    endloop
  endfacet
  facet normal -0 0 1
    outer loop
      vertex -70.2953 22.6765 25
      vertex -70.2916 22.5294 25
      vertex -70.2916 22.7254 25
    endloop
  endfacet
  facet normal 0 0 1
    outer loop
      vertex -70.2953 22.6765 25
      vertex -70.2953 22.5784 25
      vertex -70.2916 22.5294 25
    endloop
  endfacet
  facet normal 0 -0 1
    outer loop
      vertex -70.2953 22.5784 25
      vertex -70.2953 22.6765 25
      vertex -70.2965 22.6274 25
    endloop
  endfacet
  facet normal -0.707107 -0.707107 0
    outer loop
      vertex 21.9203 -70.0036 -25
      vertex -70.0036 21.9203 25
      vertex -70.0036 21.9203 -25
    endloop
  endfacet
  facet normal -0.707107 -0.707107 0
    outer loop
      vertex -70.0036 21.9203 25
      vertex 21.9203 -70.0036 -25
      vertex 21.9203 -70.0036 25
    endloop
  endfacet
  facet normal 0.707107 -0.707107 0
    outer loop
      vertex 23.3345 -70.0036 25
      vertex 70.0036 -23.3345 -25
      vertex 70.0036 -23.3345 25
    endloop
  endfacet
  facet normal 0.707107 -0.707107 0
    outer loop
      vertex 70.0036 -23.3345 -25
      vertex 23.3345 -70.0036 25
      vertex 23.3345 -70.0036 -25
    endloop
  endfacet
  facet normal 0.16902 -0.985613 0
    outer loop
      vertex 22.7741 -70.2856 -25
      vertex 22.8225 -70.2773 25
      vertex 22.7741 -70.2856 25
    endloop
  endfacet
  facet normal 0.16902 -0.985613 0
    outer loop
      vertex 22.8225 -70.2773 25
      vertex 22.7741 -70.2856 -25
      vertex 22.8225 -70.2773 -25
    endloop
  endfacet
  facet normal 0.0244326 -0.999701 0
    outer loop
      vertex 22.6274 -70.2965 -25
      vertex 22.6765 -70.2953 25
      vertex 22.6274 -70.2965 25
    endloop
  endfacet
  facet normal 0.0244326 -0.999701 0
    outer loop
      vertex 22.6765 -70.2953 25
      vertex 22.6274 -70.2965 -25
      vertex 22.6765 -70.2953 -25
    endloop
  endfacet
  facet normal -0.16902 -0.985613 0
    outer loop
      vertex 22.4323 -70.2773 -25
      vertex 22.4807 -70.2856 25
      vertex 22.4323 -70.2773 25
    endloop
  endfacet
  facet normal -0.16902 -0.985613 -0
    outer loop
      vertex 22.4807 -70.2856 25
      vertex 22.4323 -70.2773 -25
      vertex 22.4807 -70.2856 -25
    endloop
  endfacet
  facet normal -0.535294 -0.844666 0
    outer loop
      vertex 22.0718 -70.1279 -25
      vertex 22.1133 -70.1542 25
      vertex 22.0718 -70.1279 25
    endloop
  endfacet
  facet normal -0.535294 -0.844666 -0
    outer loop
      vertex 22.1133 -70.1542 25
      vertex 22.0718 -70.1279 -25
      vertex 22.1133 -70.1542 -25
    endloop
  endfacet
  facet normal 0.975512 -0.219948 0
    outer loop
      vertex 70.2665 -22.8704 25
      vertex 70.2773 -22.8225 -25
      vertex 70.2773 -22.8225 25
    endloop
  endfacet
  facet normal 0.975512 -0.219948 0
    outer loop
      vertex 70.2773 -22.8225 -25
      vertex 70.2665 -22.8704 25
      vertex 70.2665 -22.8704 -25
    endloop
  endfacet
  facet normal -0.535294 0.844666 0
    outer loop
      vertex -23.1415 70.1542 -25
      vertex -23.183 70.1279 25
      vertex -23.1415 70.1542 25
    endloop
  endfacet
  facet normal -0.535294 0.844666 0
    outer loop
      vertex -23.183 70.1279 25
      vertex -23.1415 70.1542 -25
      vertex -23.183 70.1279 -25
    endloop
  endfacet
  facet normal -0.707107 0.707107 0
    outer loop
      vertex -70.0036 23.3345 -25
      vertex -23.3345 70.0036 25
      vertex -23.3345 70.0036 -25
    endloop
  endfacet
  facet normal -0.707107 0.707107 0
    outer loop
      vertex -23.3345 70.0036 25
      vertex -70.0036 23.3345 -25
      vertex -70.0036 23.3345 25
    endloop
  endfacet
  facet normal 0.689553 -0.724235 0
    outer loop
      vertex 23.299 -70.0374 -25
      vertex 23.3345 -70.0036 25
      vertex 23.299 -70.0374 25
    endloop
  endfacet
  facet normal 0.689553 -0.724235 0
    outer loop
      vertex 23.3345 -70.0036 25
      vertex 23.299 -70.0374 -25
      vertex 23.3345 -70.0036 -25
    endloop
  endfacet
  facet normal 0.493064 -0.869993 0
    outer loop
      vertex 23.0988 -70.1784 -25
      vertex 23.1415 -70.1542 25
      vertex 23.0988 -70.1784 25
    endloop
  endfacet
  facet normal 0.493064 -0.869993 0
    outer loop
      vertex 23.1415 -70.1542 25
      vertex 23.0988 -70.1784 -25
      vertex 23.1415 -70.1542 -25
    endloop
  endfacet
  facet normal 0.219948 -0.975512 0
    outer loop
      vertex 22.8225 -70.2773 -25
      vertex 22.8704 -70.2665 25
      vertex 22.8225 -70.2773 25
    endloop
  endfacet
  facet normal 0.219948 -0.975512 0
    outer loop
      vertex 22.8704 -70.2665 25
      vertex 22.8225 -70.2773 -25
      vertex 22.8704 -70.2665 -25
    endloop
  endfacet
  facet normal 0.122279 -0.992496 0
    outer loop
      vertex 22.7254 -70.2916 -25
      vertex 22.7741 -70.2856 25
      vertex 22.7254 -70.2916 25
    endloop
  endfacet
  facet normal 0.122279 -0.992496 0
    outer loop
      vertex 22.7741 -70.2856 25
      vertex 22.7254 -70.2916 -25
      vertex 22.7741 -70.2856 -25
    endloop
  endfacet
  facet normal -0.0244825 -0.9997 0
    outer loop
      vertex 22.5784 -70.2953 -25
      vertex 22.6274 -70.2965 25
      vertex 22.5784 -70.2953 25
    endloop
  endfacet
  facet normal -0.0244825 -0.9997 -0
    outer loop
      vertex 22.6274 -70.2965 25
      vertex 22.5784 -70.2953 -25
      vertex 22.6274 -70.2965 -25
    endloop
  endfacet
  facet normal -0.36048 -0.932767 0
    outer loop
      vertex 22.2447 -70.2203 -25
      vertex 22.2905 -70.238 25
      vertex 22.2447 -70.2203 25
    endloop
  endfacet
  facet normal -0.36048 -0.932767 -0
    outer loop
      vertex 22.2905 -70.238 25
      vertex 22.2447 -70.2203 -25
      vertex 22.2905 -70.238 -25
    endloop
  endfacet
  facet normal -0.266908 -0.963722 0
    outer loop
      vertex 22.3371 -70.2534 -25
      vertex 22.3844 -70.2665 25
      vertex 22.3371 -70.2534 25
    endloop
  endfacet
  facet normal -0.266908 -0.963722 -0
    outer loop
      vertex 22.3844 -70.2665 25
      vertex 22.3371 -70.2534 -25
      vertex 22.3844 -70.2665 -25
    endloop
  endfacet
  facet normal -0.313782 -0.949495 0
    outer loop
      vertex 22.2905 -70.238 -25
      vertex 22.3371 -70.2534 25
      vertex 22.2905 -70.238 25
    endloop
  endfacet
  facet normal -0.313782 -0.949495 -0
    outer loop
      vertex 22.3371 -70.2534 25
      vertex 22.2905 -70.238 -25
      vertex 22.3371 -70.2534 -25
    endloop
  endfacet
  facet normal 0.707107 0.707107 0
    outer loop
      vertex 70.0036 -21.9203 25
      vertex -21.9203 70.0036 -25
      vertex -21.9203 70.0036 25
    endloop
  endfacet
  facet normal 0.707107 0.707107 0
    outer loop
      vertex -21.9203 70.0036 -25
      vertex 70.0036 -21.9203 25
      vertex 70.0036 -21.9203 -25
    endloop
  endfacet
  facet normal -0.788364 -0.615209 0
    outer loop
      vertex -70.0695 21.993 -25
      vertex -70.0997 22.0317 25
      vertex -70.0997 22.0317 -25
    endloop
  endfacet
  facet normal -0.788364 -0.615209 0
    outer loop
      vertex -70.0997 22.0317 25
      vertex -70.0695 21.993 -25
      vertex -70.0695 21.993 25
    endloop
  endfacet
  facet normal 0.653302 -0.757098 0
    outer loop
      vertex 23.2618 -70.0695 -25
      vertex 23.299 -70.0374 25
      vertex 23.2618 -70.0695 25
    endloop
  endfacet
  facet normal 0.653302 -0.757098 0
    outer loop
      vertex 23.299 -70.0374 25
      vertex 23.2618 -70.0695 -25
      vertex 23.299 -70.0374 -25
    endloop
  endfacet
  facet normal 0.615209 -0.788364 0
    outer loop
      vertex 23.2231 -70.0997 -25
      vertex 23.2618 -70.0695 25
      vertex 23.2231 -70.0997 25
    endloop
  endfacet
  facet normal 0.615209 -0.788364 0
    outer loop
      vertex 23.2618 -70.0695 25
      vertex 23.2231 -70.0997 -25
      vertex 23.2618 -70.0695 -25
    endloop
  endfacet
  facet normal -0.0752958 -0.997161 0
    outer loop
      vertex 22.5294 -70.2916 -25
      vertex 22.5784 -70.2953 25
      vertex 22.5294 -70.2916 25
    endloop
  endfacet
  facet normal -0.0752958 -0.997161 -0
    outer loop
      vertex 22.5784 -70.2953 25
      vertex 22.5294 -70.2916 -25
      vertex 22.5784 -70.2953 -25
    endloop
  endfacet
  facet normal -0.404243 -0.914651 0
    outer loop
      vertex 22.1999 -70.2005 -25
      vertex 22.2447 -70.2203 25
      vertex 22.1999 -70.2005 25
    endloop
  endfacet
  facet normal -0.404243 -0.914651 -0
    outer loop
      vertex 22.2447 -70.2203 25
      vertex 22.1999 -70.2005 -25
      vertex 22.2447 -70.2203 -25
    endloop
  endfacet
  facet normal -0.688535 -0.725203 0
    outer loop
      vertex 21.9203 -70.0036 -25
      vertex 21.9559 -70.0374 25
      vertex 21.9203 -70.0036 25
    endloop
  endfacet
  facet normal -0.688535 -0.725203 -0
    outer loop
      vertex 21.9559 -70.0374 25
      vertex 21.9203 -70.0036 -25
      vertex 21.9559 -70.0374 -25
    endloop
  endfacet
  facet normal 0 0 -1
    outer loop
      vertex 70.2953 -22.6765 -25
      vertex 70.2953 -22.5784 -25
      vertex 70.2965 -22.6274 -25
    endloop
  endfacet
  facet normal 0 0 -1
    outer loop
      vertex 70.2916 -22.7254 -25
      vertex 70.2953 -22.5784 -25
      vertex 70.2953 -22.6765 -25
    endloop
  endfacet
  facet normal 0 0 -1
    outer loop
      vertex 70.2916 -22.7254 -25
      vertex 70.2916 -22.5294 -25
      vertex 70.2953 -22.5784 -25
    endloop
  endfacet
  facet normal 0 0 -1
    outer loop
      vertex 70.2856 -22.7741 -25
      vertex 70.2916 -22.5294 -25
      vertex 70.2916 -22.7254 -25
    endloop
  endfacet
  facet normal 0 0 -1
    outer loop
      vertex 70.2856 -22.7741 -25
      vertex 70.2856 -22.4807 -25
      vertex 70.2916 -22.5294 -25
    endloop
  endfacet
  facet normal 0 0 -1
    outer loop
      vertex 70.2773 -22.8225 -25
      vertex 70.2856 -22.4807 -25
      vertex 70.2856 -22.7741 -25
    endloop
  endfacet
  facet normal 0 0 -1
    outer loop
      vertex 70.2773 -22.8225 -25
      vertex 70.2773 -22.4323 -25
      vertex 70.2856 -22.4807 -25
    endloop
  endfacet
  facet normal 0 0 -1
    outer loop
      vertex 70.2665 -22.8704 -25
      vertex 70.2773 -22.4323 -25
      vertex 70.2773 -22.8225 -25
    endloop
  endfacet
  facet normal 0 0 -1
    outer loop
      vertex 70.2665 -22.8704 -25
      vertex 70.2665 -22.3844 -25
      vertex 70.2773 -22.4323 -25
    endloop
  endfacet
  facet normal 0 0 -1
    outer loop
      vertex 70.2534 -22.9177 -25
      vertex 70.2665 -22.3844 -25
      vertex 70.2665 -22.8704 -25
    endloop
  endfacet
  facet normal 0 0 -1
    outer loop
      vertex 70.2534 -22.9177 -25
      vertex 70.2534 -22.3371 -25
      vertex 70.2665 -22.3844 -25
    endloop
  endfacet
  facet normal 0 0 -1
    outer loop
      vertex 70.238 -22.9643 -25
      vertex 70.2534 -22.3371 -25
      vertex 70.2534 -22.9177 -25
    endloop
  endfacet
  facet normal 0 0 -1
    outer loop
      vertex 70.238 -22.9643 -25
      vertex 70.238 -22.2905 -25
      vertex 70.2534 -22.3371 -25
    endloop
  endfacet
  facet normal 0 0 -1
    outer loop
      vertex 70.2203 -23.0101 -25
      vertex 70.238 -22.2905 -25
      vertex 70.238 -22.9643 -25
    endloop
  endfacet
  facet normal 0 0 -1
    outer loop
      vertex 70.2203 -23.0101 -25
      vertex 70.2203 -22.2447 -25
      vertex 70.238 -22.2905 -25
    endloop
  endfacet
  facet normal 0 0 -1
    outer loop
      vertex 70.2005 -23.055 -25
      vertex 70.2203 -22.2447 -25
      vertex 70.2203 -23.0101 -25
    endloop
  endfacet
  facet normal 0 0 -1
    outer loop
      vertex 70.2005 -23.055 -25
      vertex 70.2005 -22.1999 -25
      vertex 70.2203 -22.2447 -25
    endloop
  endfacet
  facet normal 0 0 -1
    outer loop
      vertex 70.1784 -23.0988 -25
      vertex 70.2005 -22.1999 -25
      vertex 70.2005 -23.055 -25
    endloop
  endfacet
  facet normal 0 0 -1
    outer loop
      vertex 70.1784 -23.0988 -25
      vertex 70.1784 -22.156 -25
      vertex 70.2005 -22.1999 -25
    endloop
  endfacet
  facet normal 0 0 -1
    outer loop
      vertex 70.1542 -23.1415 -25
      vertex 70.1784 -22.156 -25
      vertex 70.1784 -23.0988 -25
    endloop
  endfacet
  facet normal 0 0 -1
    outer loop
      vertex 70.1542 -23.1415 -25
      vertex 70.1542 -22.1133 -25
      vertex 70.1784 -22.156 -25
    endloop
  endfacet
  facet normal 0 0 -1
    outer loop
      vertex 70.1279 -23.183 -25
      vertex 70.1542 -22.1133 -25
      vertex 70.1542 -23.1415 -25
    endloop
  endfacet
  facet normal 0 0 -1
    outer loop
      vertex 70.1279 -23.183 -25
      vertex 70.1279 -22.0718 -25
      vertex 70.1542 -22.1133 -25
    endloop
  endfacet
  facet normal 0 0 -1
    outer loop
      vertex 70.0997 -23.2231 -25
      vertex 70.1279 -22.0718 -25
      vertex 70.1279 -23.183 -25
    endloop
  endfacet
  facet normal 0 0 -1
    outer loop
      vertex 70.0997 -23.2231 -25
      vertex 70.0997 -22.0317 -25
      vertex 70.1279 -22.0718 -25
    endloop
  endfacet
  facet normal 0 0 -1
    outer loop
      vertex 70.0695 -23.2618 -25
      vertex 70.0997 -22.0317 -25
      vertex 70.0997 -23.2231 -25
    endloop
  endfacet
  facet normal 0 0 -1
    outer loop
      vertex 70.0695 -23.2618 -25
      vertex 70.0695 -21.993 -25
      vertex 70.0997 -22.0317 -25
    endloop
  endfacet
  facet normal 0 0 -1
    outer loop
      vertex 70.0374 -23.299 -25
      vertex 70.0695 -21.993 -25
      vertex 70.0695 -23.2618 -25
    endloop
  endfacet
  facet normal 0 0 -1
    outer loop
      vertex 70.0374 -23.299 -25
      vertex 70.0374 -21.9559 -25
      vertex 70.0695 -21.993 -25
    endloop
  endfacet
  facet normal 0 0 -1
    outer loop
      vertex 70.0036 -23.3345 -25
      vertex 70.0374 -21.9559 -25
      vertex 70.0374 -23.299 -25
    endloop
  endfacet
  facet normal 0 0 -1
    outer loop
      vertex 70.0036 -23.3345 -25
      vertex 70.0036 -21.9203 -25
      vertex 70.0374 -21.9559 -25
    endloop
  endfacet
  facet normal 0 0 -1
    outer loop
      vertex 23.3345 -70.0036 -25
      vertex 70.0036 -21.9203 -25
      vertex 70.0036 -23.3345 -25
    endloop
  endfacet
  facet normal 0 0 -1
    outer loop
      vertex 21.9203 -70.0036 -25
      vertex 23.3345 -70.0036 -25
      vertex 23.299 -70.0374 -25
    endloop
  endfacet
  facet normal 0 0 -1
    outer loop
      vertex 21.9203 -70.0036 -25
      vertex 23.299 -70.0374 -25
      vertex 23.2618 -70.0695 -25
    endloop
  endfacet
  facet normal 0 0 -1
    outer loop
      vertex 21.9203 -70.0036 -25
      vertex 23.2618 -70.0695 -25
      vertex 23.2231 -70.0997 -25
    endloop
  endfacet
  facet normal 0 0 -1
    outer loop
      vertex 21.9203 -70.0036 -25
      vertex 23.2231 -70.0997 -25
      vertex 23.183 -70.1279 -25
    endloop
  endfacet
  facet normal 0 0 -1
    outer loop
      vertex 21.9203 -70.0036 -25
      vertex 23.183 -70.1279 -25
      vertex 23.1415 -70.1542 -25
    endloop
  endfacet
  facet normal 0 0 -1
    outer loop
      vertex 21.9203 -70.0036 -25
      vertex 23.1415 -70.1542 -25
      vertex 23.0988 -70.1784 -25
    endloop
  endfacet
  facet normal 0 0 -1
    outer loop
      vertex 21.9203 -70.0036 -25
      vertex 23.0988 -70.1784 -25
      vertex 23.055 -70.2005 -25
    endloop
  endfacet
  facet normal 0 0 -1
    outer loop
      vertex 21.9203 -70.0036 -25
      vertex 23.055 -70.2005 -25
      vertex 23.0101 -70.2203 -25
    endloop
  endfacet
  facet normal 0 0 -1
    outer loop
      vertex 21.9203 -70.0036 -25
      vertex 23.0101 -70.2203 -25
      vertex 22.9643 -70.238 -25
    endloop
  endfacet
  facet normal 0 0 -1
    outer loop
      vertex 21.9203 -70.0036 -25
      vertex 22.9643 -70.238 -25
      vertex 22.9177 -70.2534 -25
    endloop
  endfacet
  facet normal 0 0 -1
    outer loop
      vertex 21.9203 -70.0036 -25
      vertex 22.9177 -70.2534 -25
      vertex 22.8704 -70.2665 -25
    endloop
  endfacet
  facet normal 0 0 -1
    outer loop
      vertex 21.9203 -70.0036 -25
      vertex 22.8704 -70.2665 -25
      vertex 22.8225 -70.2773 -25
    endloop
  endfacet
  facet normal 0 0 -1
    outer loop
      vertex 21.9203 -70.0036 -25
      vertex 22.8225 -70.2773 -25
      vertex 22.7741 -70.2856 -25
    endloop
  endfacet
  facet normal 0 0 -1
    outer loop
      vertex 21.9203 -70.0036 -25
      vertex 22.7741 -70.2856 -25
      vertex 22.7254 -70.2916 -25
    endloop
  endfacet
  facet normal 0 0 -1
    outer loop
      vertex 21.9203 -70.0036 -25
      vertex 22.7254 -70.2916 -25
      vertex 22.6765 -70.2953 -25
    endloop
  endfacet
  facet normal 0 0 -1
    outer loop
      vertex 21.9203 -70.0036 -25
      vertex 22.6765 -70.2953 -25
      vertex 22.6274 -70.2965 -25
    endloop
  endfacet
  facet normal 0 0 -1
    outer loop
      vertex 21.9203 -70.0036 -25
      vertex 22.6274 -70.2965 -25
      vertex 22.5784 -70.2953 -25
    endloop
  endfacet
  facet normal 0 0 -1
    outer loop
      vertex 21.9203 -70.0036 -25
      vertex 22.5784 -70.2953 -25
      vertex 22.5294 -70.2916 -25
    endloop
  endfacet
  facet normal 0 0 -1
    outer loop
      vertex 21.9203 -70.0036 -25
      vertex 22.5294 -70.2916 -25
      vertex 22.4807 -70.2856 -25
    endloop
  endfacet
  facet normal 0 0 -1
    outer loop
      vertex 21.9203 -70.0036 -25
      vertex 22.4807 -70.2856 -25
      vertex 22.4323 -70.2773 -25
    endloop
  endfacet
  facet normal 0 0 -1
    outer loop
      vertex 21.9203 -70.0036 -25
      vertex 22.4323 -70.2773 -25
      vertex 22.3844 -70.2665 -25
    endloop
  endfacet
  facet normal 0 0 -1
    outer loop
      vertex 21.9203 -70.0036 -25
      vertex 22.3844 -70.2665 -25
      vertex 22.3371 -70.2534 -25
    endloop
  endfacet
  facet normal 0 0 -1
    outer loop
      vertex 21.9203 -70.0036 -25
      vertex 22.3371 -70.2534 -25
      vertex 22.2905 -70.238 -25
    endloop
  endfacet
  facet normal 0 0 -1
    outer loop
      vertex 21.9203 -70.0036 -25
      vertex 22.2905 -70.238 -25
      vertex 22.2447 -70.2203 -25
    endloop
  endfacet
  facet normal 0 0 -1
    outer loop
      vertex 21.9203 -70.0036 -25
      vertex 22.2447 -70.2203 -25
      vertex 22.1999 -70.2005 -25
    endloop
  endfacet
  facet normal 0 0 -1
    outer loop
      vertex 21.9203 -70.0036 -25
      vertex 22.1999 -70.2005 -25
      vertex 22.156 -70.1784 -25
    endloop
  endfacet
  facet normal 0 0 -1
    outer loop
      vertex 21.9203 -70.0036 -25
      vertex 22.156 -70.1784 -25
      vertex 22.1133 -70.1542 -25
    endloop
  endfacet
  facet normal 0 0 -1
    outer loop
      vertex 21.9203 -70.0036 -25
      vertex 22.1133 -70.1542 -25
      vertex 22.0718 -70.1279 -25
    endloop
  endfacet
  facet normal 0 0 -1
    outer loop
      vertex 21.9203 -70.0036 -25
      vertex 22.0718 -70.1279 -25
      vertex 22.0317 -70.0997 -25
    endloop
  endfacet
  facet normal 0 0 -1
    outer loop
      vertex 21.9203 -70.0036 -25
      vertex 22.0317 -70.0997 -25
      vertex 21.993 -70.0695 -25
    endloop
  endfacet
  facet normal 0 0 -1
    outer loop
      vertex 21.9203 -70.0036 -25
      vertex 21.993 -70.0695 -25
      vertex 21.9559 -70.0374 -25
    endloop
  endfacet
  facet normal 0 0 -1
    outer loop
      vertex 23.3345 -70.0036 -25
      vertex 21.9203 -70.0036 -25
      vertex 70.0036 -21.9203 -25
    endloop
  endfacet
  facet normal 0 0 -1
    outer loop
      vertex 21.9203 -70.0036 -25
      vertex -21.9203 70.0036 -25
      vertex 70.0036 -21.9203 -25
    endloop
  endfacet
  facet normal 0 0 -1
    outer loop
      vertex -70.0036 21.9203 -25
      vertex -21.9203 70.0036 -25
      vertex 21.9203 -70.0036 -25
    endloop
  endfacet
  facet normal 0 -0 -1
    outer loop
      vertex -23.3345 70.0036 -25
      vertex -21.9203 70.0036 -25
      vertex -70.0036 21.9203 -25
    endloop
  endfacet
  facet normal 0 0 -1
    outer loop
      vertex -21.9203 70.0036 -25
      vertex -23.3345 70.0036 -25
      vertex -21.9559 70.0374 -25
    endloop
  endfacet
  facet normal -0 0 -1
    outer loop
      vertex -21.9559 70.0374 -25
      vertex -23.3345 70.0036 -25
      vertex -21.993 70.0695 -25
    endloop
  endfacet
  facet normal -0 0 -1
    outer loop
      vertex -21.993 70.0695 -25
      vertex -23.3345 70.0036 -25
      vertex -22.0317 70.0997 -25
    endloop
  endfacet
  facet normal -0 0 -1
    outer loop
      vertex -22.0317 70.0997 -25
      vertex -23.3345 70.0036 -25
      vertex -22.0718 70.1279 -25
    endloop
  endfacet
  facet normal -0 0 -1
    outer loop
      vertex -22.0718 70.1279 -25
      vertex -23.3345 70.0036 -25
      vertex -22.1133 70.1542 -25
    endloop
  endfacet
  facet normal -0 0 -1
    outer loop
      vertex -22.1133 70.1542 -25
      vertex -23.3345 70.0036 -25
      vertex -22.156 70.1784 -25
    endloop
  endfacet
  facet normal -0 0 -1
    outer loop
      vertex -22.156 70.1784 -25
      vertex -23.3345 70.0036 -25
      vertex -22.1999 70.2005 -25
    endloop
  endfacet
  facet normal -0 0 -1
    outer loop
      vertex -22.1999 70.2005 -25
      vertex -23.3345 70.0036 -25
      vertex -22.2447 70.2203 -25
    endloop
  endfacet
  facet normal -0 0 -1
    outer loop
      vertex -22.2447 70.2203 -25
      vertex -23.3345 70.0036 -25
      vertex -22.2905 70.238 -25
    endloop
  endfacet
  facet normal -0 0 -1
    outer loop
      vertex -22.2905 70.238 -25
      vertex -23.3345 70.0036 -25
      vertex -22.3371 70.2534 -25
    endloop
  endfacet
  facet normal -0 0 -1
    outer loop
      vertex -22.3371 70.2534 -25
      vertex -23.3345 70.0036 -25
      vertex -22.3844 70.2665 -25
    endloop
  endfacet
  facet normal -0 0 -1
    outer loop
      vertex -22.4323 70.2773 -25
      vertex -23.3345 70.0036 -25
      vertex -22.4807 70.2856 -25
    endloop
  endfacet
  facet normal -0 0 -1
    outer loop
      vertex -22.4807 70.2856 -25
      vertex -23.3345 70.0036 -25
      vertex -22.5294 70.2916 -25
    endloop
  endfacet
  facet normal -0 0 -1
    outer loop
      vertex -22.5294 70.2916 -25
      vertex -23.3345 70.0036 -25
      vertex -22.5784 70.2953 -25
    endloop
  endfacet
  facet normal -0 0 -1
    outer loop
      vertex -22.5784 70.2953 -25
      vertex -23.3345 70.0036 -25
      vertex -22.6274 70.2965 -25
    endloop
  endfacet
  facet normal 0 0 -1
    outer loop
      vertex -22.6274 70.2965 -25
      vertex -23.3345 70.0036 -25
      vertex -22.6765 70.2953 -25
    endloop
  endfacet
  facet normal 0 0 -1
    outer loop
      vertex -22.6765 70.2953 -25
      vertex -23.3345 70.0036 -25
      vertex -22.7254 70.2916 -25
    endloop
  endfacet
  facet normal 0 0 -1
    outer loop
      vertex -22.7254 70.2916 -25
      vertex -23.3345 70.0036 -25
      vertex -22.7741 70.2856 -25
    endloop
  endfacet
  facet normal 0 0 -1
    outer loop
      vertex -22.7741 70.2856 -25
      vertex -23.3345 70.0036 -25
      vertex -22.8225 70.2773 -25
    endloop
  endfacet
  facet normal 0 0 -1
    outer loop
      vertex -22.8225 70.2773 -25
      vertex -23.3345 70.0036 -25
      vertex -22.8704 70.2665 -25
    endloop
  endfacet
  facet normal 0 0 -1
    outer loop
      vertex -22.8704 70.2665 -25
      vertex -23.3345 70.0036 -25
      vertex -22.9177 70.2534 -25
    endloop
  endfacet
  facet normal 0 0 -1
    outer loop
      vertex -22.9177 70.2534 -25
      vertex -23.3345 70.0036 -25
      vertex -22.9643 70.238 -25
    endloop
  endfacet
  facet normal 0 0 -1
    outer loop
      vertex -22.9643 70.238 -25
      vertex -23.3345 70.0036 -25
      vertex -23.0101 70.2203 -25
    endloop
  endfacet
  facet normal 0 0 -1
    outer loop
      vertex -23.0101 70.2203 -25
      vertex -23.3345 70.0036 -25
      vertex -23.055 70.2005 -25
    endloop
  endfacet
  facet normal 0 0 -1
    outer loop
      vertex -23.055 70.2005 -25
      vertex -23.3345 70.0036 -25
      vertex -23.0988 70.1784 -25
    endloop
  endfacet
  facet normal 0 0 -1
    outer loop
      vertex -23.0988 70.1784 -25
      vertex -23.3345 70.0036 -25
      vertex -23.1415 70.1542 -25
    endloop
  endfacet
  facet normal 0 0 -1
    outer loop
      vertex -23.1415 70.1542 -25
      vertex -23.3345 70.0036 -25
      vertex -23.183 70.1279 -25
    endloop
  endfacet
  facet normal 0 0 -1
    outer loop
      vertex -23.183 70.1279 -25
      vertex -23.3345 70.0036 -25
      vertex -23.2231 70.0997 -25
    endloop
  endfacet
  facet normal 0 0 -1
    outer loop
      vertex -23.2231 70.0997 -25
      vertex -23.3345 70.0036 -25
      vertex -23.2618 70.0695 -25
    endloop
  endfacet
  facet normal 0 0 -1
    outer loop
      vertex -23.2618 70.0695 -25
      vertex -23.3345 70.0036 -25
      vertex -23.299 70.0374 -25
    endloop
  endfacet
  facet normal -0 0 -1
    outer loop
      vertex -22.3844 70.2665 -25
      vertex -23.3345 70.0036 -25
      vertex -22.4323 70.2773 -25
    endloop
  endfacet
  facet normal 0 0 -1
    outer loop
      vertex -70.0036 21.9203 -25
      vertex -70.0036 23.3345 -25
      vertex -23.3345 70.0036 -25
    endloop
  endfacet
  facet normal 0 0 -1
    outer loop
      vertex -70.0374 21.9559 -25
      vertex -70.0036 23.3345 -25
      vertex -70.0036 21.9203 -25
    endloop
  endfacet
  facet normal 0 0 -1
    outer loop
      vertex -70.0374 21.9559 -25
      vertex -70.0374 23.299 -25
      vertex -70.0036 23.3345 -25
    endloop
  endfacet
  facet normal 0 0 -1
    outer loop
      vertex -70.0695 21.993 -25
      vertex -70.0374 23.299 -25
      vertex -70.0374 21.9559 -25
    endloop
  endfacet
  facet normal 0 0 -1
    outer loop
      vertex -70.0695 21.993 -25
      vertex -70.0695 23.2618 -25
      vertex -70.0374 23.299 -25
    endloop
  endfacet
  facet normal 0 0 -1
    outer loop
      vertex -70.0997 22.0317 -25
      vertex -70.0695 23.2618 -25
      vertex -70.0695 21.993 -25
    endloop
  endfacet
  facet normal 0 0 -1
    outer loop
      vertex -70.0997 22.0317 -25
      vertex -70.0997 23.2231 -25
      vertex -70.0695 23.2618 -25
    endloop
  endfacet
  facet normal 0 0 -1
    outer loop
      vertex -70.1279 22.0718 -25
      vertex -70.0997 23.2231 -25
      vertex -70.0997 22.0317 -25
    endloop
  endfacet
  facet normal 0 0 -1
    outer loop
      vertex -70.1279 22.0718 -25
      vertex -70.1279 23.183 -25
      vertex -70.0997 23.2231 -25
    endloop
  endfacet
  facet normal 0 0 -1
    outer loop
      vertex -70.1542 22.1133 -25
      vertex -70.1279 23.183 -25
      vertex -70.1279 22.0718 -25
    endloop
  endfacet
  facet normal 0 0 -1
    outer loop
      vertex -70.1542 22.1133 -25
      vertex -70.1542 23.1415 -25
      vertex -70.1279 23.183 -25
    endloop
  endfacet
  facet normal 0 0 -1
    outer loop
      vertex -70.1784 22.156 -25
      vertex -70.1542 23.1415 -25
      vertex -70.1542 22.1133 -25
    endloop
  endfacet
  facet normal 0 0 -1
    outer loop
      vertex -70.1784 22.156 -25
      vertex -70.1784 23.0988 -25
      vertex -70.1542 23.1415 -25
    endloop
  endfacet
  facet normal 0 0 -1
    outer loop
      vertex -70.2005 22.1999 -25
      vertex -70.1784 23.0988 -25
      vertex -70.1784 22.156 -25
    endloop
  endfacet
  facet normal 0 0 -1
    outer loop
      vertex -70.2005 22.1999 -25
      vertex -70.2005 23.055 -25
      vertex -70.1784 23.0988 -25
    endloop
  endfacet
  facet normal 0 0 -1
    outer loop
      vertex -70.2203 22.2447 -25
      vertex -70.2005 23.055 -25
      vertex -70.2005 22.1999 -25
    endloop
  endfacet
  facet normal 0 0 -1
    outer loop
      vertex -70.2203 22.2447 -25
      vertex -70.2203 23.0101 -25
      vertex -70.2005 23.055 -25
    endloop
  endfacet
  facet normal 0 0 -1
    outer loop
      vertex -70.238 22.2905 -25
      vertex -70.2203 23.0101 -25
      vertex -70.2203 22.2447 -25
    endloop
  endfacet
  facet normal 0 0 -1
    outer loop
      vertex -70.238 22.2905 -25
      vertex -70.238 22.9643 -25
      vertex -70.2203 23.0101 -25
    endloop
  endfacet
  facet normal 0 0 -1
    outer loop
      vertex -70.2534 22.3371 -25
      vertex -70.238 22.9643 -25
      vertex -70.238 22.2905 -25
    endloop
  endfacet
  facet normal 0 0 -1
    outer loop
      vertex -70.2534 22.3371 -25
      vertex -70.2534 22.9177 -25
      vertex -70.238 22.9643 -25
    endloop
  endfacet
  facet normal 0 0 -1
    outer loop
      vertex -70.2665 22.3844 -25
      vertex -70.2534 22.9177 -25
      vertex -70.2534 22.3371 -25
    endloop
  endfacet
  facet normal 0 0 -1
    outer loop
      vertex -70.2665 22.3844 -25
      vertex -70.2665 22.8704 -25
      vertex -70.2534 22.9177 -25
    endloop
  endfacet
  facet normal 0 0 -1
    outer loop
      vertex -70.2773 22.4323 -25
      vertex -70.2665 22.8704 -25
      vertex -70.2665 22.3844 -25
    endloop
  endfacet
  facet normal 0 0 -1
    outer loop
      vertex -70.2773 22.4323 -25
      vertex -70.2773 22.8225 -25
      vertex -70.2665 22.8704 -25
    endloop
  endfacet
  facet normal 0 0 -1
    outer loop
      vertex -70.2856 22.4807 -25
      vertex -70.2773 22.8225 -25
      vertex -70.2773 22.4323 -25
    endloop
  endfacet
  facet normal 0 0 -1
    outer loop
      vertex -70.2856 22.4807 -25
      vertex -70.2856 22.7741 -25
      vertex -70.2773 22.8225 -25
    endloop
  endfacet
  facet normal 0 0 -1
    outer loop
      vertex -70.2916 22.5294 -25
      vertex -70.2856 22.7741 -25
      vertex -70.2856 22.4807 -25
    endloop
  endfacet
  facet normal 0 0 -1
    outer loop
      vertex -70.2916 22.5294 -25
      vertex -70.2916 22.7254 -25
      vertex -70.2856 22.7741 -25
    endloop
  endfacet
  facet normal 0 0 -1
    outer loop
      vertex -70.2953 22.5784 -25
      vertex -70.2916 22.7254 -25
      vertex -70.2916 22.5294 -25
    endloop
  endfacet
  facet normal 0 0 -1
    outer loop
      vertex -70.2953 22.5784 -25
      vertex -70.2953 22.6765 -25
      vertex -70.2916 22.7254 -25
    endloop
  endfacet
  facet normal 0 -0 -1
    outer loop
      vertex -70.2953 22.6765 -25
      vertex -70.2953 22.5784 -25
      vertex -70.2965 22.6274 -25
    endloop
  endfacet
  facet normal -0.869993 -0.493064 0
    outer loop
      vertex -70.1542 22.1133 -25
      vertex -70.1784 22.156 25
      vertex -70.1784 22.156 -25
    endloop
  endfacet
  facet normal -0.869993 -0.493064 0
    outer loop
      vertex -70.1784 22.156 25
      vertex -70.1542 22.1133 -25
      vertex -70.1542 22.1133 25
    endloop
  endfacet
  facet normal -0.16902 0.985613 0
    outer loop
      vertex -22.7741 70.2856 -25
      vertex -22.8225 70.2773 25
      vertex -22.7741 70.2856 25
    endloop
  endfacet
  facet normal -0.16902 0.985613 0
    outer loop
      vertex -22.8225 70.2773 25
      vertex -22.7741 70.2856 -25
      vertex -22.8225 70.2773 -25
    endloop
  endfacet
  facet normal -0.36048 0.932767 0
    outer loop
      vertex -22.9643 70.238 -25
      vertex -23.0101 70.2203 25
      vertex -22.9643 70.238 25
    endloop
  endfacet
  facet normal -0.36048 0.932767 0
    outer loop
      vertex -23.0101 70.2203 25
      vertex -22.9643 70.238 -25
      vertex -23.0101 70.2203 -25
    endloop
  endfacet
  facet normal -0.9997 -0.0244825 0
    outer loop
      vertex -70.2953 22.5784 -25
      vertex -70.2965 22.6274 25
      vertex -70.2965 22.6274 -25
    endloop
  endfacet
  facet normal -0.9997 -0.0244825 0
    outer loop
      vertex -70.2965 22.6274 25
      vertex -70.2953 22.5784 -25
      vertex -70.2953 22.5784 25
    endloop
  endfacet
  facet normal 0.575241 -0.817984 0
    outer loop
      vertex 23.183 -70.1279 -25
      vertex 23.2231 -70.0997 25
      vertex 23.183 -70.1279 25
    endloop
  endfacet
  facet normal 0.575241 -0.817984 0
    outer loop
      vertex 23.2231 -70.0997 25
      vertex 23.183 -70.1279 -25
      vertex 23.2231 -70.0997 -25
    endloop
  endfacet
  facet normal 0.535294 -0.844666 0
    outer loop
      vertex 23.1415 -70.1542 -25
      vertex 23.183 -70.1279 25
      vertex 23.1415 -70.1542 25
    endloop
  endfacet
  facet normal 0.535294 -0.844666 0
    outer loop
      vertex 23.183 -70.1279 25
      vertex 23.1415 -70.1542 -25
      vertex 23.183 -70.1279 -25
    endloop
  endfacet
  facet normal 0.450472 -0.892791 0
    outer loop
      vertex 23.055 -70.2005 -25
      vertex 23.0988 -70.1784 25
      vertex 23.055 -70.2005 25
    endloop
  endfacet
  facet normal 0.450472 -0.892791 0
    outer loop
      vertex 23.0988 -70.1784 25
      vertex 23.055 -70.2005 -25
      vertex 23.0988 -70.1784 -25
    endloop
  endfacet
  facet normal 0.313782 -0.949495 0
    outer loop
      vertex 22.9177 -70.2534 -25
      vertex 22.9643 -70.238 25
      vertex 22.9177 -70.2534 25
    endloop
  endfacet
  facet normal 0.313782 -0.949495 0
    outer loop
      vertex 22.9643 -70.238 25
      vertex 22.9177 -70.2534 -25
      vertex 22.9643 -70.238 -25
    endloop
  endfacet
  facet normal 0.075449 -0.99715 0
    outer loop
      vertex 22.6765 -70.2953 -25
      vertex 22.7254 -70.2916 25
      vertex 22.6765 -70.2953 25
    endloop
  endfacet
  facet normal 0.075449 -0.99715 0
    outer loop
      vertex 22.7254 -70.2916 25
      vertex 22.6765 -70.2953 -25
      vertex 22.7254 -70.2916 -25
    endloop
  endfacet
  facet normal -0.122279 -0.992496 0
    outer loop
      vertex 22.4807 -70.2856 -25
      vertex 22.5294 -70.2916 25
      vertex 22.4807 -70.2856 25
    endloop
  endfacet
  facet normal -0.122279 -0.992496 -0
    outer loop
      vertex 22.5294 -70.2916 25
      vertex 22.4807 -70.2856 -25
      vertex 22.5294 -70.2916 -25
    endloop
  endfacet
  facet normal -0.493064 -0.869993 0
    outer loop
      vertex 22.1133 -70.1542 -25
      vertex 22.156 -70.1784 25
      vertex 22.1133 -70.1542 25
    endloop
  endfacet
  facet normal -0.493064 -0.869993 -0
    outer loop
      vertex 22.156 -70.1784 25
      vertex 22.1133 -70.1542 -25
      vertex 22.156 -70.1784 -25
    endloop
  endfacet
  facet normal -0.615209 -0.788364 0
    outer loop
      vertex 21.993 -70.0695 -25
      vertex 22.0317 -70.0997 25
      vertex 21.993 -70.0695 25
    endloop
  endfacet
  facet normal -0.615209 -0.788364 -0
    outer loop
      vertex 22.0317 -70.0997 25
      vertex 21.993 -70.0695 -25
      vertex 22.0317 -70.0997 -25
    endloop
  endfacet
  facet normal -0.449653 -0.893203 0
    outer loop
      vertex 22.156 -70.1784 -25
      vertex 22.1999 -70.2005 25
      vertex 22.156 -70.1784 25
    endloop
  endfacet
  facet normal -0.449653 -0.893203 -0
    outer loop
      vertex 22.1999 -70.2005 25
      vertex 22.156 -70.1784 -25
      vertex 22.1999 -70.2005 -25
    endloop
  endfacet
  facet normal -0.65431 -0.756227 0
    outer loop
      vertex 21.9559 -70.0374 -25
      vertex 21.993 -70.0695 25
      vertex 21.9559 -70.0374 25
    endloop
  endfacet
  facet normal -0.65431 -0.756227 -0
    outer loop
      vertex 21.993 -70.0695 25
      vertex 21.9559 -70.0374 -25
      vertex 21.993 -70.0695 -25
    endloop
  endfacet
  facet normal -0.725203 -0.688535 0
    outer loop
      vertex -70.0036 21.9203 -25
      vertex -70.0374 21.9559 25
      vertex -70.0374 21.9559 -25
    endloop
  endfacet
  facet normal -0.725203 -0.688535 0
    outer loop
      vertex -70.0374 21.9559 25
      vertex -70.0036 21.9203 -25
      vertex -70.0036 21.9203 25
    endloop
  endfacet
  facet normal 0.0244825 0.9997 -0
    outer loop
      vertex -22.5784 70.2953 -25
      vertex -22.6274 70.2965 25
      vertex -22.5784 70.2953 25
    endloop
  endfacet
  facet normal 0.0244825 0.9997 0
    outer loop
      vertex -22.6274 70.2965 25
      vertex -22.5784 70.2953 -25
      vertex -22.6274 70.2965 -25
    endloop
  endfacet
  facet normal 0.615209 0.788364 -0
    outer loop
      vertex -21.993 70.0695 -25
      vertex -22.0317 70.0997 25
      vertex -21.993 70.0695 25
    endloop
  endfacet
  facet normal 0.615209 0.788364 0
    outer loop
      vertex -22.0317 70.0997 25
      vertex -21.993 70.0695 -25
      vertex -22.0317 70.0997 -25
    endloop
  endfacet
  facet normal 0.313782 0.949495 -0
    outer loop
      vertex -22.2905 70.238 -25
      vertex -22.3371 70.2534 25
      vertex -22.2905 70.238 25
    endloop
  endfacet
  facet normal 0.313782 0.949495 0
    outer loop
      vertex -22.3371 70.2534 25
      vertex -22.2905 70.238 -25
      vertex -22.3371 70.2534 -25
    endloop
  endfacet
  facet normal 0.893203 0.449653 0
    outer loop
      vertex 70.2005 -22.1999 25
      vertex 70.1784 -22.156 -25
      vertex 70.1784 -22.156 25
    endloop
  endfacet
  facet normal 0.893203 0.449653 0
    outer loop
      vertex 70.1784 -22.156 -25
      vertex 70.2005 -22.1999 25
      vertex 70.2005 -22.1999 -25
    endloop
  endfacet
  facet normal 0.949495 0.313782 0
    outer loop
      vertex 70.2534 -22.3371 25
      vertex 70.238 -22.2905 -25
      vertex 70.238 -22.2905 25
    endloop
  endfacet
  facet normal 0.949495 0.313782 0
    outer loop
      vertex 70.238 -22.2905 -25
      vertex 70.2534 -22.3371 25
      vertex 70.2534 -22.3371 -25
    endloop
  endfacet
  facet normal 0.788364 0.615209 0
    outer loop
      vertex 70.0997 -22.0317 25
      vertex 70.0695 -21.993 -25
      vertex 70.0695 -21.993 25
    endloop
  endfacet
  facet normal 0.788364 0.615209 0
    outer loop
      vertex 70.0695 -21.993 -25
      vertex 70.0997 -22.0317 25
      vertex 70.0997 -22.0317 -25
    endloop
  endfacet
  facet normal 0.817984 -0.575241 0
    outer loop
      vertex 70.0997 -23.2231 25
      vertex 70.1279 -23.183 -25
      vertex 70.1279 -23.183 25
    endloop
  endfacet
  facet normal 0.817984 -0.575241 0
    outer loop
      vertex 70.1279 -23.183 -25
      vertex 70.0997 -23.2231 25
      vertex 70.0997 -23.2231 -25
    endloop
  endfacet
  facet normal 0.932767 -0.36048 0
    outer loop
      vertex 70.2203 -23.0101 25
      vertex 70.238 -22.9643 -25
      vertex 70.238 -22.9643 25
    endloop
  endfacet
  facet normal 0.932767 -0.36048 0
    outer loop
      vertex 70.238 -22.9643 -25
      vertex 70.2203 -23.0101 25
      vertex 70.2203 -23.0101 -25
    endloop
  endfacet
  facet normal 0.992496 -0.122279 0
    outer loop
      vertex 70.2856 -22.7741 25
      vertex 70.2916 -22.7254 -25
      vertex 70.2916 -22.7254 25
    endloop
  endfacet
  facet normal 0.992496 -0.122279 0
    outer loop
      vertex 70.2916 -22.7254 -25
      vertex 70.2856 -22.7741 25
      vertex 70.2856 -22.7741 -25
    endloop
  endfacet
  facet normal 0.99715 -0.075449 0
    outer loop
      vertex 70.2916 -22.7254 25
      vertex 70.2953 -22.6765 -25
      vertex 70.2953 -22.6765 25
    endloop
  endfacet
  facet normal 0.99715 -0.075449 0
    outer loop
      vertex 70.2953 -22.6765 -25
      vertex 70.2916 -22.7254 25
      vertex 70.2916 -22.7254 -25
    endloop
  endfacet
  facet normal 0.985613 0.16902 0
    outer loop
      vertex 70.2856 -22.4807 25
      vertex 70.2773 -22.4323 -25
      vertex 70.2773 -22.4323 25
    endloop
  endfacet
  facet normal 0.985613 0.16902 0
    outer loop
      vertex 70.2773 -22.4323 -25
      vertex 70.2856 -22.4807 25
      vertex 70.2856 -22.4807 -25
    endloop
  endfacet
  facet normal -0.40349 0.914984 0
    outer loop
      vertex -23.0101 70.2203 -25
      vertex -23.055 70.2005 25
      vertex -23.0101 70.2203 25
    endloop
  endfacet
  facet normal -0.40349 0.914984 0
    outer loop
      vertex -23.055 70.2005 25
      vertex -23.0101 70.2203 -25
      vertex -23.055 70.2005 -25
    endloop
  endfacet
  facet normal -0.689553 0.724235 0
    outer loop
      vertex -23.299 70.0374 -25
      vertex -23.3345 70.0036 25
      vertex -23.299 70.0374 25
    endloop
  endfacet
  facet normal -0.689553 0.724235 0
    outer loop
      vertex -23.3345 70.0036 25
      vertex -23.299 70.0374 -25
      vertex -23.3345 70.0036 -25
    endloop
  endfacet
  facet normal -0.653302 0.757098 0
    outer loop
      vertex -23.2618 70.0695 -25
      vertex -23.299 70.0374 25
      vertex -23.2618 70.0695 25
    endloop
  endfacet
  facet normal -0.653302 0.757098 0
    outer loop
      vertex -23.299 70.0374 25
      vertex -23.2618 70.0695 -25
      vertex -23.299 70.0374 -25
    endloop
  endfacet
  facet normal -0.575241 0.817984 0
    outer loop
      vertex -23.183 70.1279 -25
      vertex -23.2231 70.0997 25
      vertex -23.183 70.1279 25
    endloop
  endfacet
  facet normal -0.575241 0.817984 0
    outer loop
      vertex -23.2231 70.0997 25
      vertex -23.183 70.1279 -25
      vertex -23.2231 70.0997 -25
    endloop
  endfacet
  facet normal -0.844666 0.535294 0
    outer loop
      vertex -70.1542 23.1415 -25
      vertex -70.1279 23.183 25
      vertex -70.1279 23.183 -25
    endloop
  endfacet
  facet normal -0.844666 0.535294 0
    outer loop
      vertex -70.1279 23.183 25
      vertex -70.1542 23.1415 -25
      vertex -70.1542 23.1415 25
    endloop
  endfacet
  facet normal -0.963722 0.266908 0
    outer loop
      vertex -70.2665 22.8704 -25
      vertex -70.2534 22.9177 25
      vertex -70.2534 22.9177 -25
    endloop
  endfacet
  facet normal -0.963722 0.266908 0
    outer loop
      vertex -70.2534 22.9177 25
      vertex -70.2665 22.8704 -25
      vertex -70.2665 22.8704 25
    endloop
  endfacet
  facet normal -0.914984 0.40349 0
    outer loop
      vertex -70.2203 23.0101 -25
      vertex -70.2005 23.055 25
      vertex -70.2005 23.055 -25
    endloop
  endfacet
  facet normal -0.914984 0.40349 0
    outer loop
      vertex -70.2005 23.055 25
      vertex -70.2203 23.0101 -25
      vertex -70.2203 23.0101 25
    endloop
  endfacet
  facet normal 0.40349 -0.914984 0
    outer loop
      vertex 23.0101 -70.2203 -25
      vertex 23.055 -70.2005 25
      vertex 23.0101 -70.2203 25
    endloop
  endfacet
  facet normal 0.40349 -0.914984 0
    outer loop
      vertex 23.055 -70.2005 25
      vertex 23.0101 -70.2203 -25
      vertex 23.055 -70.2005 -25
    endloop
  endfacet
  facet normal 0.36048 -0.932767 0
    outer loop
      vertex 22.9643 -70.238 -25
      vertex 23.0101 -70.2203 25
      vertex 22.9643 -70.238 25
    endloop
  endfacet
  facet normal 0.36048 -0.932767 0
    outer loop
      vertex 23.0101 -70.2203 25
      vertex 22.9643 -70.238 -25
      vertex 23.0101 -70.2203 -25
    endloop
  endfacet
  facet normal 0.266908 -0.963722 0
    outer loop
      vertex 22.8704 -70.2665 -25
      vertex 22.9177 -70.2534 25
      vertex 22.8704 -70.2665 25
    endloop
  endfacet
  facet normal 0.266908 -0.963722 0
    outer loop
      vertex 22.9177 -70.2534 25
      vertex 22.8704 -70.2665 -25
      vertex 22.9177 -70.2534 -25
    endloop
  endfacet
  facet normal -0.575241 -0.817984 0
    outer loop
      vertex 22.0317 -70.0997 -25
      vertex 22.0718 -70.1279 25
      vertex 22.0317 -70.0997 25
    endloop
  endfacet
  facet normal -0.575241 -0.817984 -0
    outer loop
      vertex 22.0718 -70.1279 25
      vertex 22.0317 -70.0997 -25
      vertex 22.0718 -70.1279 -25
    endloop
  endfacet
  facet normal -0.893203 -0.449653 0
    outer loop
      vertex -70.1784 22.156 -25
      vertex -70.2005 22.1999 25
      vertex -70.2005 22.1999 -25
    endloop
  endfacet
  facet normal -0.893203 -0.449653 0
    outer loop
      vertex -70.2005 22.1999 25
      vertex -70.1784 22.156 -25
      vertex -70.1784 22.156 25
    endloop
  endfacet
  facet normal -0.122279 0.992496 0
    outer loop
      vertex -22.7254 70.2916 -25
      vertex -22.7741 70.2856 25
      vertex -22.7254 70.2916 25
    endloop
  endfacet
  facet normal -0.122279 0.992496 0
    outer loop
      vertex -22.7741 70.2856 25
      vertex -22.7254 70.2916 -25
      vertex -22.7741 70.2856 -25
    endloop
  endfacet
  facet normal -0.313782 0.949495 0
    outer loop
      vertex -22.9177 70.2534 -25
      vertex -22.9643 70.238 25
      vertex -22.9177 70.2534 25
    endloop
  endfacet
  facet normal -0.313782 0.949495 0
    outer loop
      vertex -22.9643 70.238 25
      vertex -22.9177 70.2534 -25
      vertex -22.9643 70.238 -25
    endloop
  endfacet
  facet normal -0.075449 0.99715 0
    outer loop
      vertex -22.6765 70.2953 -25
      vertex -22.7254 70.2916 25
      vertex -22.6765 70.2953 25
    endloop
  endfacet
  facet normal -0.075449 0.99715 0
    outer loop
      vertex -22.7254 70.2916 25
      vertex -22.6765 70.2953 -25
      vertex -22.7254 70.2916 -25
    endloop
  endfacet
  facet normal 0.0752958 0.997161 -0
    outer loop
      vertex -22.5294 70.2916 -25
      vertex -22.5784 70.2953 25
      vertex -22.5294 70.2916 25
    endloop
  endfacet
  facet normal 0.0752958 0.997161 0
    outer loop
      vertex -22.5784 70.2953 25
      vertex -22.5294 70.2916 -25
      vertex -22.5784 70.2953 -25
    endloop
  endfacet
  facet normal 0.493064 0.869993 -0
    outer loop
      vertex -22.1133 70.1542 -25
      vertex -22.156 70.1784 25
      vertex -22.1133 70.1542 25
    endloop
  endfacet
  facet normal 0.493064 0.869993 0
    outer loop
      vertex -22.156 70.1784 25
      vertex -22.1133 70.1542 -25
      vertex -22.156 70.1784 -25
    endloop
  endfacet
  facet normal 0.869993 0.493064 0
    outer loop
      vertex 70.1784 -22.156 25
      vertex 70.1542 -22.1133 -25
      vertex 70.1542 -22.1133 25
    endloop
  endfacet
  facet normal 0.869993 0.493064 0
    outer loop
      vertex 70.1542 -22.1133 -25
      vertex 70.1784 -22.156 25
      vertex 70.1784 -22.156 -25
    endloop
  endfacet
  facet normal 0.932767 0.36048 0
    outer loop
      vertex 70.238 -22.2905 25
      vertex 70.2203 -22.2447 -25
      vertex 70.2203 -22.2447 25
    endloop
  endfacet
  facet normal 0.932767 0.36048 0
    outer loop
      vertex 70.2203 -22.2447 -25
      vertex 70.238 -22.2905 25
      vertex 70.238 -22.2905 -25
    endloop
  endfacet
  facet normal 0.817984 0.575241 0
    outer loop
      vertex 70.1279 -22.0718 25
      vertex 70.0997 -22.0317 -25
      vertex 70.0997 -22.0317 25
    endloop
  endfacet
  facet normal 0.817984 0.575241 0
    outer loop
      vertex 70.0997 -22.0317 -25
      vertex 70.1279 -22.0718 25
      vertex 70.1279 -22.0718 -25
    endloop
  endfacet
  facet normal 0.844666 0.535294 0
    outer loop
      vertex 70.1542 -22.1133 25
      vertex 70.1279 -22.0718 -25
      vertex 70.1279 -22.0718 25
    endloop
  endfacet
  facet normal 0.844666 0.535294 0
    outer loop
      vertex 70.1279 -22.0718 -25
      vertex 70.1542 -22.1133 25
      vertex 70.1542 -22.1133 -25
    endloop
  endfacet
  facet normal 0.756227 0.65431 0
    outer loop
      vertex 70.0695 -21.993 25
      vertex 70.0374 -21.9559 -25
      vertex 70.0374 -21.9559 25
    endloop
  endfacet
  facet normal 0.756227 0.65431 0
    outer loop
      vertex 70.0374 -21.9559 -25
      vertex 70.0695 -21.993 25
      vertex 70.0695 -21.993 -25
    endloop
  endfacet
  facet normal 0.844666 -0.535294 0
    outer loop
      vertex 70.1279 -23.183 25
      vertex 70.1542 -23.1415 -25
      vertex 70.1542 -23.1415 25
    endloop
  endfacet
  facet normal 0.844666 -0.535294 0
    outer loop
      vertex 70.1542 -23.1415 -25
      vertex 70.1279 -23.183 25
      vertex 70.1279 -23.183 -25
    endloop
  endfacet
  facet normal 0.788364 -0.615209 0
    outer loop
      vertex 70.0695 -23.2618 25
      vertex 70.0997 -23.2231 -25
      vertex 70.0997 -23.2231 25
    endloop
  endfacet
  facet normal 0.788364 -0.615209 0
    outer loop
      vertex 70.0997 -23.2231 -25
      vertex 70.0695 -23.2618 25
      vertex 70.0695 -23.2618 -25
    endloop
  endfacet
  facet normal 0.724235 -0.689553 0
    outer loop
      vertex 70.0036 -23.3345 25
      vertex 70.0374 -23.299 -25
      vertex 70.0374 -23.299 25
    endloop
  endfacet
  facet normal 0.724235 -0.689553 0
    outer loop
      vertex 70.0374 -23.299 -25
      vertex 70.0036 -23.3345 25
      vertex 70.0036 -23.3345 -25
    endloop
  endfacet
  facet normal 0.914984 -0.40349 0
    outer loop
      vertex 70.2005 -23.055 25
      vertex 70.2203 -23.0101 -25
      vertex 70.2203 -23.0101 25
    endloop
  endfacet
  facet normal 0.914984 -0.40349 0
    outer loop
      vertex 70.2203 -23.0101 -25
      vertex 70.2005 -23.055 25
      vertex 70.2005 -23.055 -25
    endloop
  endfacet
  facet normal 0.869993 -0.493064 0
    outer loop
      vertex 70.1542 -23.1415 25
      vertex 70.1784 -23.0988 -25
      vertex 70.1784 -23.0988 25
    endloop
  endfacet
  facet normal 0.869993 -0.493064 0
    outer loop
      vertex 70.1784 -23.0988 -25
      vertex 70.1542 -23.1415 25
      vertex 70.1542 -23.1415 -25
    endloop
  endfacet
  facet normal 0.949495 -0.313782 0
    outer loop
      vertex 70.238 -22.9643 25
      vertex 70.2534 -22.9177 -25
      vertex 70.2534 -22.9177 25
    endloop
  endfacet
  facet normal 0.949495 -0.313782 0
    outer loop
      vertex 70.2534 -22.9177 -25
      vertex 70.238 -22.9643 25
      vertex 70.238 -22.9643 -25
    endloop
  endfacet
  facet normal 0.985613 -0.16902 0
    outer loop
      vertex 70.2773 -22.8225 25
      vertex 70.2856 -22.7741 -25
      vertex 70.2856 -22.7741 25
    endloop
  endfacet
  facet normal 0.985613 -0.16902 0
    outer loop
      vertex 70.2856 -22.7741 -25
      vertex 70.2773 -22.8225 25
      vertex 70.2773 -22.8225 -25
    endloop
  endfacet
  facet normal 0.999701 -0.0244326 0
    outer loop
      vertex 70.2953 -22.6765 25
      vertex 70.2965 -22.6274 -25
      vertex 70.2965 -22.6274 25
    endloop
  endfacet
  facet normal 0.999701 -0.0244326 0
    outer loop
      vertex 70.2965 -22.6274 -25
      vertex 70.2953 -22.6765 25
      vertex 70.2953 -22.6765 -25
    endloop
  endfacet
  facet normal 0.9997 0.0244825 0
    outer loop
      vertex 70.2965 -22.6274 25
      vertex 70.2953 -22.5784 -25
      vertex 70.2953 -22.5784 25
    endloop
  endfacet
  facet normal 0.9997 0.0244825 0
    outer loop
      vertex 70.2953 -22.5784 -25
      vertex 70.2965 -22.6274 25
      vertex 70.2965 -22.6274 -25
    endloop
  endfacet
  facet normal 0.992496 0.122279 0
    outer loop
      vertex 70.2916 -22.5294 25
      vertex 70.2856 -22.4807 -25
      vertex 70.2856 -22.4807 25
    endloop
  endfacet
  facet normal 0.992496 0.122279 0
    outer loop
      vertex 70.2856 -22.4807 -25
      vertex 70.2916 -22.5294 25
      vertex 70.2916 -22.5294 -25
    endloop
  endfacet
  facet normal 0.975512 0.219948 0
    outer loop
      vertex 70.2773 -22.4323 25
      vertex 70.2665 -22.3844 -25
      vertex 70.2665 -22.3844 25
    endloop
  endfacet
  facet normal 0.975512 0.219948 0
    outer loop
      vertex 70.2665 -22.3844 -25
      vertex 70.2773 -22.4323 25
      vertex 70.2773 -22.4323 -25
    endloop
  endfacet
  facet normal -0.999701 0.0244326 0
    outer loop
      vertex -70.2965 22.6274 -25
      vertex -70.2953 22.6765 25
      vertex -70.2953 22.6765 -25
    endloop
  endfacet
  facet normal -0.999701 0.0244326 0
    outer loop
      vertex -70.2953 22.6765 25
      vertex -70.2965 22.6274 -25
      vertex -70.2965 22.6274 25
    endloop
  endfacet
  facet normal -0.997161 -0.0752958 0
    outer loop
      vertex -70.2916 22.5294 -25
      vertex -70.2953 22.5784 25
      vertex -70.2953 22.5784 -25
    endloop
  endfacet
  facet normal -0.997161 -0.0752958 0
    outer loop
      vertex -70.2953 22.5784 25
      vertex -70.2916 22.5294 -25
      vertex -70.2916 22.5294 25
    endloop
  endfacet
  facet normal -0.817984 0.575241 0
    outer loop
      vertex -70.1279 23.183 -25
      vertex -70.0997 23.2231 25
      vertex -70.0997 23.2231 -25
    endloop
  endfacet
  facet normal -0.817984 0.575241 0
    outer loop
      vertex -70.0997 23.2231 25
      vertex -70.1279 23.183 -25
      vertex -70.1279 23.183 25
    endloop
  endfacet
  facet normal -0.932767 0.36048 0
    outer loop
      vertex -70.238 22.9643 -25
      vertex -70.2203 23.0101 25
      vertex -70.2203 23.0101 -25
    endloop
  endfacet
  facet normal -0.932767 0.36048 0
    outer loop
      vertex -70.2203 23.0101 25
      vertex -70.238 22.9643 -25
      vertex -70.238 22.9643 25
    endloop
  endfacet
  facet normal -0.992496 0.122279 0
    outer loop
      vertex -70.2916 22.7254 -25
      vertex -70.2856 22.7741 25
      vertex -70.2856 22.7741 -25
    endloop
  endfacet
  facet normal -0.992496 0.122279 0
    outer loop
      vertex -70.2856 22.7741 25
      vertex -70.2916 22.7254 -25
      vertex -70.2916 22.7254 25
    endloop
  endfacet
  facet normal -0.975512 0.219948 0
    outer loop
      vertex -70.2773 22.8225 -25
      vertex -70.2665 22.8704 25
      vertex -70.2665 22.8704 -25
    endloop
  endfacet
  facet normal -0.975512 0.219948 0
    outer loop
      vertex -70.2665 22.8704 25
      vertex -70.2773 22.8225 -25
      vertex -70.2773 22.8225 25
    endloop
  endfacet
  facet normal -0.99715 0.075449 0
    outer loop
      vertex -70.2953 22.6765 -25
      vertex -70.2916 22.7254 25
      vertex -70.2916 22.7254 -25
    endloop
  endfacet
  facet normal -0.99715 0.075449 0
    outer loop
      vertex -70.2916 22.7254 25
      vertex -70.2953 22.6765 -25
      vertex -70.2953 22.6765 25
    endloop
  endfacet
  facet normal -0.757098 0.653302 0
    outer loop
      vertex -70.0695 23.2618 -25
      vertex -70.0374 23.299 25
      vertex -70.0374 23.299 -25
    endloop
  endfacet
  facet normal -0.757098 0.653302 0
    outer loop
      vertex -70.0374 23.299 25
      vertex -70.0695 23.2618 -25
      vertex -70.0695 23.2618 25
    endloop
  endfacet
  facet normal -0.788364 0.615209 0
    outer loop
      vertex -70.0997 23.2231 -25
      vertex -70.0695 23.2618 25
      vertex -70.0695 23.2618 -25
    endloop
  endfacet
  facet normal -0.788364 0.615209 0
    outer loop
      vertex -70.0695 23.2618 25
      vertex -70.0997 23.2231 -25
      vertex -70.0997 23.2231 25
    endloop
  endfacet
  facet normal -0.724235 0.689553 0
    outer loop
      vertex -70.0374 23.299 -25
      vertex -70.0036 23.3345 25
      vertex -70.0036 23.3345 -25
    endloop
  endfacet
  facet normal -0.724235 0.689553 0
    outer loop
      vertex -70.0036 23.3345 25
      vertex -70.0374 23.299 -25
      vertex -70.0374 23.299 25
    endloop
  endfacet
  facet normal -0.817984 -0.575241 0
    outer loop
      vertex -70.0997 22.0317 -25
      vertex -70.1279 22.0718 25
      vertex -70.1279 22.0718 -25
    endloop
  endfacet
  facet normal -0.817984 -0.575241 0
    outer loop
      vertex -70.1279 22.0718 25
      vertex -70.0997 22.0317 -25
      vertex -70.0997 22.0317 25
    endloop
  endfacet
  facet normal -0.963722 -0.266908 0
    outer loop
      vertex -70.2534 22.3371 -25
      vertex -70.2665 22.3844 25
      vertex -70.2665 22.3844 -25
    endloop
  endfacet
  facet normal -0.963722 -0.266908 0
    outer loop
      vertex -70.2665 22.3844 25
      vertex -70.2534 22.3371 -25
      vertex -70.2534 22.3371 25
    endloop
  endfacet
  facet normal -0.992496 -0.122279 0
    outer loop
      vertex -70.2856 22.4807 -25
      vertex -70.2916 22.5294 25
      vertex -70.2916 22.5294 -25
    endloop
  endfacet
  facet normal -0.992496 -0.122279 0
    outer loop
      vertex -70.2916 22.5294 25
      vertex -70.2856 22.4807 -25
      vertex -70.2856 22.4807 25
    endloop
  endfacet
  facet normal -0.266908 0.963722 0
    outer loop
      vertex -22.8704 70.2665 -25
      vertex -22.9177 70.2534 25
      vertex -22.8704 70.2665 25
    endloop
  endfacet
  facet normal -0.266908 0.963722 0
    outer loop
      vertex -22.9177 70.2534 25
      vertex -22.8704 70.2665 -25
      vertex -22.9177 70.2534 -25
    endloop
  endfacet
  facet normal -0.219948 0.975512 0
    outer loop
      vertex -22.8225 70.2773 -25
      vertex -22.8704 70.2665 25
      vertex -22.8225 70.2773 25
    endloop
  endfacet
  facet normal -0.219948 0.975512 0
    outer loop
      vertex -22.8704 70.2665 25
      vertex -22.8225 70.2773 -25
      vertex -22.8704 70.2665 -25
    endloop
  endfacet
  facet normal -0.0244326 0.999701 0
    outer loop
      vertex -22.6274 70.2965 -25
      vertex -22.6765 70.2953 25
      vertex -22.6274 70.2965 25
    endloop
  endfacet
  facet normal -0.0244326 0.999701 0
    outer loop
      vertex -22.6765 70.2953 25
      vertex -22.6274 70.2965 -25
      vertex -22.6765 70.2953 -25
    endloop
  endfacet
  facet normal 0.122279 0.992496 -0
    outer loop
      vertex -22.4807 70.2856 -25
      vertex -22.5294 70.2916 25
      vertex -22.4807 70.2856 25
    endloop
  endfacet
  facet normal 0.122279 0.992496 0
    outer loop
      vertex -22.5294 70.2916 25
      vertex -22.4807 70.2856 -25
      vertex -22.5294 70.2916 -25
    endloop
  endfacet
  facet normal 0.16902 0.985613 -0
    outer loop
      vertex -22.4323 70.2773 -25
      vertex -22.4807 70.2856 25
      vertex -22.4323 70.2773 25
    endloop
  endfacet
  facet normal 0.16902 0.985613 0
    outer loop
      vertex -22.4807 70.2856 25
      vertex -22.4323 70.2773 -25
      vertex -22.4807 70.2856 -25
    endloop
  endfacet
  facet normal 0.65431 0.756227 -0
    outer loop
      vertex -21.9559 70.0374 -25
      vertex -21.993 70.0695 25
      vertex -21.9559 70.0374 25
    endloop
  endfacet
  facet normal 0.65431 0.756227 0
    outer loop
      vertex -21.993 70.0695 25
      vertex -21.9559 70.0374 -25
      vertex -21.993 70.0695 -25
    endloop
  endfacet
  facet normal 0.688535 0.725203 -0
    outer loop
      vertex -21.9203 70.0036 -25
      vertex -21.9559 70.0374 25
      vertex -21.9203 70.0036 25
    endloop
  endfacet
  facet normal 0.688535 0.725203 0
    outer loop
      vertex -21.9559 70.0374 25
      vertex -21.9203 70.0036 -25
      vertex -21.9559 70.0374 -25
    endloop
  endfacet
  facet normal 0.575241 0.817984 -0
    outer loop
      vertex -22.0317 70.0997 -25
      vertex -22.0718 70.1279 25
      vertex -22.0317 70.0997 25
    endloop
  endfacet
  facet normal 0.575241 0.817984 0
    outer loop
      vertex -22.0718 70.1279 25
      vertex -22.0317 70.0997 -25
      vertex -22.0718 70.1279 -25
    endloop
  endfacet
  facet normal 0.266908 0.963722 -0
    outer loop
      vertex -22.3371 70.2534 -25
      vertex -22.3844 70.2665 25
      vertex -22.3371 70.2534 25
    endloop
  endfacet
  facet normal 0.266908 0.963722 0
    outer loop
      vertex -22.3844 70.2665 25
      vertex -22.3371 70.2534 -25
      vertex -22.3844 70.2665 -25
    endloop
  endfacet
  facet normal 0.36048 0.932767 -0
    outer loop
      vertex -22.2447 70.2203 -25
      vertex -22.2905 70.238 25
      vertex -22.2447 70.2203 25
    endloop
  endfacet
  facet normal 0.36048 0.932767 0
    outer loop
      vertex -22.2905 70.238 25
      vertex -22.2447 70.2203 -25
      vertex -22.2905 70.238 -25
    endloop
  endfacet
  facet normal 0.449653 0.893203 -0
    outer loop
      vertex -22.156 70.1784 -25
      vertex -22.1999 70.2005 25
      vertex -22.156 70.1784 25
    endloop
  endfacet
  facet normal 0.449653 0.893203 0
    outer loop
      vertex -22.1999 70.2005 25
      vertex -22.156 70.1784 -25
      vertex -22.1999 70.2005 -25
    endloop
  endfacet
  facet normal 0.914651 0.404243 0
    outer loop
      vertex 70.2203 -22.2447 25
      vertex 70.2005 -22.1999 -25
      vertex 70.2005 -22.1999 25
    endloop
  endfacet
  facet normal 0.914651 0.404243 0
    outer loop
      vertex 70.2005 -22.1999 -25
      vertex 70.2203 -22.2447 25
      vertex 70.2203 -22.2447 -25
    endloop
  endfacet
  facet normal 0.725203 0.688535 0
    outer loop
      vertex 70.0374 -21.9559 25
      vertex 70.0036 -21.9203 -25
      vertex 70.0036 -21.9203 25
    endloop
  endfacet
  facet normal 0.725203 0.688535 0
    outer loop
      vertex 70.0036 -21.9203 -25
      vertex 70.0374 -21.9559 25
      vertex 70.0374 -21.9559 -25
    endloop
  endfacet
  facet normal 0.757098 -0.653302 0
    outer loop
      vertex 70.0374 -23.299 25
      vertex 70.0695 -23.2618 -25
      vertex 70.0695 -23.2618 25
    endloop
  endfacet
  facet normal 0.757098 -0.653302 0
    outer loop
      vertex 70.0695 -23.2618 -25
      vertex 70.0374 -23.299 25
      vertex 70.0374 -23.299 -25
    endloop
  endfacet
  facet normal 0.892791 -0.450472 0
    outer loop
      vertex 70.1784 -23.0988 25
      vertex 70.2005 -23.055 -25
      vertex 70.2005 -23.055 25
    endloop
  endfacet
  facet normal 0.892791 -0.450472 0
    outer loop
      vertex 70.2005 -23.055 -25
      vertex 70.1784 -23.0988 25
      vertex 70.1784 -23.0988 -25
    endloop
  endfacet
  facet normal 0.963722 -0.266908 0
    outer loop
      vertex 70.2534 -22.9177 25
      vertex 70.2665 -22.8704 -25
      vertex 70.2665 -22.8704 25
    endloop
  endfacet
  facet normal 0.963722 -0.266908 0
    outer loop
      vertex 70.2665 -22.8704 -25
      vertex 70.2534 -22.9177 25
      vertex 70.2534 -22.9177 -25
    endloop
  endfacet
  facet normal 0.997161 0.0752958 0
    outer loop
      vertex 70.2953 -22.5784 25
      vertex 70.2916 -22.5294 -25
      vertex 70.2916 -22.5294 25
    endloop
  endfacet
  facet normal 0.997161 0.0752958 0
    outer loop
      vertex 70.2916 -22.5294 -25
      vertex 70.2953 -22.5784 25
      vertex 70.2953 -22.5784 -25
    endloop
  endfacet
  facet normal 0.963722 0.266908 0
    outer loop
      vertex 70.2665 -22.3844 25
      vertex 70.2534 -22.3371 -25
      vertex 70.2534 -22.3371 25
    endloop
  endfacet
  facet normal 0.963722 0.266908 0
    outer loop
      vertex 70.2534 -22.3371 -25
      vertex 70.2665 -22.3844 25
      vertex 70.2665 -22.3844 -25
    endloop
  endfacet
  facet normal -0.493064 0.869993 0
    outer loop
      vertex -23.0988 70.1784 -25
      vertex -23.1415 70.1542 25
      vertex -23.0988 70.1784 25
    endloop
  endfacet
  facet normal -0.493064 0.869993 0
    outer loop
      vertex -23.1415 70.1542 25
      vertex -23.0988 70.1784 -25
      vertex -23.1415 70.1542 -25
    endloop
  endfacet
  facet normal -0.450472 0.892791 0
    outer loop
      vertex -23.055 70.2005 -25
      vertex -23.0988 70.1784 25
      vertex -23.055 70.2005 25
    endloop
  endfacet
  facet normal -0.450472 0.892791 0
    outer loop
      vertex -23.0988 70.1784 25
      vertex -23.055 70.2005 -25
      vertex -23.0988 70.1784 -25
    endloop
  endfacet
  facet normal -0.985613 -0.16902 0
    outer loop
      vertex -70.2773 22.4323 -25
      vertex -70.2856 22.4807 25
      vertex -70.2856 22.4807 -25
    endloop
  endfacet
  facet normal -0.985613 -0.16902 0
    outer loop
      vertex -70.2856 22.4807 25
      vertex -70.2773 22.4323 -25
      vertex -70.2773 22.4323 25
    endloop
  endfacet
  facet normal -0.949495 0.313782 0
    outer loop
      vertex -70.2534 22.9177 -25
      vertex -70.238 22.9643 25
      vertex -70.238 22.9643 -25
    endloop
  endfacet
  facet normal -0.949495 0.313782 0
    outer loop
      vertex -70.238 22.9643 25
      vertex -70.2534 22.9177 -25
      vertex -70.2534 22.9177 25
    endloop
  endfacet
  facet normal -0.985613 0.16902 0
    outer loop
      vertex -70.2856 22.7741 -25
      vertex -70.2773 22.8225 25
      vertex -70.2773 22.8225 -25
    endloop
  endfacet
  facet normal -0.985613 0.16902 0
    outer loop
      vertex -70.2773 22.8225 25
      vertex -70.2856 22.7741 -25
      vertex -70.2856 22.7741 25
    endloop
  endfacet
  facet normal -0.756227 -0.65431 0
    outer loop
      vertex -70.0374 21.9559 -25
      vertex -70.0695 21.993 25
      vertex -70.0695 21.993 -25
    endloop
  endfacet
  facet normal -0.756227 -0.65431 0
    outer loop
      vertex -70.0695 21.993 25
      vertex -70.0374 21.9559 -25
      vertex -70.0374 21.9559 25
    endloop
  endfacet
  facet normal -0.844666 -0.535294 0
    outer loop
      vertex -70.1279 22.0718 -25
      vertex -70.1542 22.1133 25
      vertex -70.1542 22.1133 -25
    endloop
  endfacet
  facet normal -0.844666 -0.535294 0
    outer loop
      vertex -70.1542 22.1133 25
      vertex -70.1279 22.0718 -25
      vertex -70.1279 22.0718 25
    endloop
  endfacet
  facet normal -0.975512 -0.219948 0
    outer loop
      vertex -70.2665 22.3844 -25
      vertex -70.2773 22.4323 25
      vertex -70.2773 22.4323 -25
    endloop
  endfacet
  facet normal -0.975512 -0.219948 0
    outer loop
      vertex -70.2773 22.4323 25
      vertex -70.2665 22.3844 -25
      vertex -70.2665 22.3844 25
    endloop
  endfacet
  facet normal -0.949495 -0.313782 0
    outer loop
      vertex -70.238 22.2905 -25
      vertex -70.2534 22.3371 25
      vertex -70.2534 22.3371 -25
    endloop
  endfacet
  facet normal -0.949495 -0.313782 0
    outer loop
      vertex -70.2534 22.3371 25
      vertex -70.238 22.2905 -25
      vertex -70.238 22.2905 25
    endloop
  endfacet
  facet normal 0.535294 0.844666 -0
    outer loop
      vertex -22.0718 70.1279 -25
      vertex -22.1133 70.1542 25
      vertex -22.0718 70.1279 25
    endloop
  endfacet
  facet normal 0.535294 0.844666 0
    outer loop
      vertex -22.1133 70.1542 25
      vertex -22.0718 70.1279 -25
      vertex -22.1133 70.1542 -25
    endloop
  endfacet
  facet normal 0.219948 0.975512 -0
    outer loop
      vertex -22.3844 70.2665 -25
      vertex -22.4323 70.2773 25
      vertex -22.3844 70.2665 25
    endloop
  endfacet
  facet normal 0.219948 0.975512 0
    outer loop
      vertex -22.4323 70.2773 25
      vertex -22.3844 70.2665 -25
      vertex -22.4323 70.2773 -25
    endloop
  endfacet
  facet normal 0.404243 0.914651 -0
    outer loop
      vertex -22.1999 70.2005 -25
      vertex -22.2447 70.2203 25
      vertex -22.1999 70.2005 25
    endloop
  endfacet
  facet normal 0.404243 0.914651 0
    outer loop
      vertex -22.2447 70.2203 25
      vertex -22.1999 70.2005 -25
      vertex -22.2447 70.2203 -25
    endloop
  endfacet
  facet normal -0.892791 0.450472 0
    outer loop
      vertex -70.2005 23.055 -25
      vertex -70.1784 23.0988 25
      vertex -70.1784 23.0988 -25
    endloop
  endfacet
  facet normal -0.892791 0.450472 0
    outer loop
      vertex -70.1784 23.0988 25
      vertex -70.2005 23.055 -25
      vertex -70.2005 23.055 25
    endloop
  endfacet
  facet normal -0.869993 0.493064 0
    outer loop
      vertex -70.1784 23.0988 -25
      vertex -70.1542 23.1415 25
      vertex -70.1542 23.1415 -25
    endloop
  endfacet
  facet normal -0.869993 0.493064 0
    outer loop
      vertex -70.1542 23.1415 25
      vertex -70.1784 23.0988 -25
      vertex -70.1784 23.0988 25
    endloop
  endfacet
  facet normal -0.914651 -0.404243 0
    outer loop
      vertex -70.2005 22.1999 -25
      vertex -70.2203 22.2447 25
      vertex -70.2203 22.2447 -25
    endloop
  endfacet
  facet normal -0.914651 -0.404243 0
    outer loop
      vertex -70.2203 22.2447 25
      vertex -70.2005 22.1999 -25
      vertex -70.2005 22.1999 25
    endloop
  endfacet
  facet normal -0.932767 -0.36048 0
    outer loop
      vertex -70.2203 22.2447 -25
      vertex -70.238 22.2905 25
      vertex -70.238 22.2905 -25
    endloop
  endfacet
  facet normal -0.932767 -0.36048 0
    outer loop
      vertex -70.238 22.2905 25
      vertex -70.2203 22.2447 -25
      vertex -70.2203 22.2447 25
    endloop
  endfacet
  facet normal 0.707107 0.707107 0
    outer loop
      vertex 22.6274 -67.8822 25
      vertex -67.8822 22.6274 -22
      vertex -67.8822 22.6274 25
    endloop
  endfacet
  facet normal 0.707107 0.707107 0
    outer loop
      vertex -67.8822 22.6274 -22
      vertex 22.6274 -67.8822 25
      vertex 22.6274 -67.8822 -22
    endloop
  endfacet
  facet normal -0.707107 -0.707107 0
    outer loop
      vertex 67.8822 -22.6274 -22
      vertex -22.6274 67.8822 25
      vertex -22.6274 67.8822 -22
    endloop
  endfacet
  facet normal -0.707107 -0.707107 0
    outer loop
      vertex -22.6274 67.8822 25
      vertex 67.8822 -22.6274 -22
      vertex 67.8822 -22.6274 25
    endloop
  endfacet
  facet normal 0.707107 -0.707107 0
    outer loop
      vertex -67.8822 22.6274 25
      vertex -22.6274 67.8822 -22
      vertex -22.6274 67.8822 25
    endloop
  endfacet
  facet normal 0.707107 -0.707107 0
    outer loop
      vertex -22.6274 67.8822 -22
      vertex -67.8822 22.6274 25
      vertex -67.8822 22.6274 -22
    endloop
  endfacet
  facet normal 0 0 1
    outer loop
      vertex -22.6274 67.8822 -22
      vertex 22.6274 -67.8822 -22
      vertex 67.8822 -22.6274 -22
    endloop
  endfacet
  facet normal 0 0 1
    outer loop
      vertex 22.6274 -67.8822 -22
      vertex -22.6274 67.8822 -22
      vertex -67.8822 22.6274 -22
    endloop
  endfacet
  facet normal -0.707107 0.707107 0
    outer loop
      vertex 22.6274 -67.8822 -22
      vertex 67.8822 -22.6274 25
      vertex 67.8822 -22.6274 -22
    endloop
  endfacet
  facet normal -0.707107 0.707107 0
    outer loop
      vertex 67.8822 -22.6274 25
      vertex 22.6274 -67.8822 -22
      vertex 22.6274 -67.8822 25
    endloop
  endfacet
endsolid OpenSCAD_Model
