solid OpenSCAD_Model
  facet normal -0.707107 -0.707107 0
    outer loop
      vertex -13.5047 -57.206 -10.3005
      vertex -57.206 -13.5047 10.3005
      vertex -57.206 -13.5047 -10.3005
    endloop
  endfacet
  facet normal -0.707107 -0.707107 0
    outer loop
      vertex -57.206 -13.5047 10.3005
      vertex -13.5047 -57.206 -10.3005
      vertex -13.5047 -57.206 10.3005
    endloop
  endfacet
  facet normal 0 0 1
    outer loop
      vertex 13.5047 57.206 10.3005
      vertex 54.3776 13.5047 10.3005
      vertex 57.206 13.5047 10.3005
    endloop
  endfacet
  facet normal 0 0 1
    outer loop
      vertex 13.5047 57.206 10.3005
      vertex 13.5047 54.3776 10.3005
      vertex 54.3776 13.5047 10.3005
    endloop
  endfacet
  facet normal 0 0 1
    outer loop
      vertex 13.5047 57.206 10.3005
      vertex -54.3776 -13.5047 10.3005
      vertex 13.5047 54.3776 10.3005
    endloop
  endfacet
  facet normal 0 -0 1
    outer loop
      vertex -54.3776 -13.5047 10.3005
      vertex 13.5047 57.206 10.3005
      vertex -57.206 -13.5047 10.3005
    endloop
  endfacet
  facet normal 0 0 1
    outer loop
      vertex -13.5047 -54.3776 10.3005
      vertex 57.206 13.5047 10.3005
      vertex 54.3776 13.5047 10.3005
    endloop
  endfacet
  facet normal -0 0 1
    outer loop
      vertex -13.5047 -54.3776 10.3005
      vertex -13.5047 -57.206 10.3005
      vertex 57.206 13.5047 10.3005
    endloop
  endfacet
  facet normal 0 0 1
    outer loop
      vertex -54.3776 -13.5047 10.3005
      vertex -13.5047 -57.206 10.3005
      vertex -13.5047 -54.3776 10.3005
    endloop
  endfacet
  facet normal 0 0 1
    outer loop
      vertex -13.5047 -57.206 10.3005
      vertex -54.3776 -13.5047 10.3005
      vertex -57.206 -13.5047 10.3005
    endloop
  endfacet
  facet normal 0.707107 0.707107 0
    outer loop
      vertex 57.206 13.5047 10.3005
      vertex 13.5047 57.206 -10.3005
      vertex 13.5047 57.206 10.3005
    endloop
  endfacet
  facet normal 0.707107 0.707107 0
    outer loop
      vertex 13.5047 57.206 -10.3005
      vertex 57.206 13.5047 10.3005
      vertex 57.206 13.5047 -10.3005
    endloop
  endfacet
  facet normal -0.707107 0.707107 0
    outer loop
      vertex -57.206 -13.5047 -10.3005
      vertex 13.5047 57.206 10.3005
      vertex 13.5047 57.206 -10.3005
    endloop
  endfacet
  facet normal -0.707107 0.707107 0
    outer loop
      vertex 13.5047 57.206 10.3005
      vertex -57.206 -13.5047 -10.3005
      vertex -57.206 -13.5047 10.3005
    endloop
  endfacet
  facet normal 0 0 -1
    outer loop
      vertex -13.5047 -57.206 -10.3005
      vertex 13.5047 57.206 -10.3005
      vertex 57.206 13.5047 -10.3005
    endloop
  endfacet
  facet normal 0 0 -1
    outer loop
      vertex 13.5047 57.206 -10.3005
      vertex -13.5047 -57.206 -10.3005
      vertex -57.206 -13.5047 -10.3005
    endloop
  endfacet
  facet normal 0.707107 -0.707107 0
    outer loop
      vertex -13.5047 -57.206 10.3005
      vertex 57.206 13.5047 -10.3005
      vertex 57.206 13.5047 10.3005
    endloop
  endfacet
  facet normal 0.707107 -0.707107 0
    outer loop
      vertex 57.206 13.5047 -10.3005
      vertex -13.5047 -57.206 10.3005
      vertex -13.5047 -57.206 -10.3005
    endloop
  endfacet
  facet normal 0.707107 0.707107 0
    outer loop
      vertex -13.5047 -54.3776 10.3005
      vertex -54.3776 -13.5047 -6.3005
      vertex -54.3776 -13.5047 10.3005
    endloop
  endfacet
  facet normal 0.707107 0.707107 0
    outer loop
      vertex -54.3776 -13.5047 -6.3005
      vertex -13.5047 -54.3776 10.3005
      vertex -13.5047 -54.3776 -6.3005
    endloop
  endfacet
  facet normal -0.707107 -0.707107 0
    outer loop
      vertex 54.3776 13.5047 -6.3005
      vertex 13.5047 54.3776 10.3005
      vertex 13.5047 54.3776 -6.3005
    endloop
  endfacet
  facet normal -0.707107 -0.707107 0
    outer loop
      vertex 13.5047 54.3776 10.3005
      vertex 54.3776 13.5047 -6.3005
      vertex 54.3776 13.5047 10.3005
    endloop
  endfacet
  facet normal 0 0 1
    outer loop
      vertex 13.5047 54.3776 -6.3005
      vertex -13.5047 -54.3776 -6.3005
      vertex 54.3776 13.5047 -6.3005
    endloop
  endfacet
  facet normal 0 -0 1
    outer loop
      vertex -13.5047 -54.3776 -6.3005
      vertex 13.5047 54.3776 -6.3005
      vertex -54.3776 -13.5047 -6.3005
    endloop
  endfacet
  facet normal -0.707107 0.707107 0
    outer loop
      vertex -13.5047 -54.3776 -6.3005
      vertex 54.3776 13.5047 10.3005
      vertex 54.3776 13.5047 -6.3005
    endloop
  endfacet
  facet normal -0.707107 0.707107 0
    outer loop
      vertex 54.3776 13.5047 10.3005
      vertex -13.5047 -54.3776 -6.3005
      vertex -13.5047 -54.3776 10.3005
    endloop
  endfacet
  facet normal 0.707107 -0.707107 0
    outer loop
      vertex -54.3776 -13.5047 10.3005
      vertex 13.5047 54.3776 -6.3005
      vertex 13.5047 54.3776 10.3005
    endloop
  endfacet
  facet normal 0.707107 -0.707107 0
    outer loop
      vertex 13.5047 54.3776 -6.3005
      vertex -54.3776 -13.5047 10.3005
      vertex -54.3776 -13.5047 -6.3005
    endloop
  endfacet
endsolid OpenSCAD_Model
